<svg width="91" height="56" fill="none" xmlns="http://www.w3.org/2000/svg"><path d="M25.537 54H2.999A1.999 1.999 0 011 52V3a2 2 0 012-2h27.407a2 2 0 012 2v10.388" stroke="#323232" stroke-width="2" stroke-linecap="round"/><path d="M11.737 22.293a7.527 7.527 0 1110.644 0l-4.615 4.615a1 1 0 01-1.414 0l-4.615-4.615z" stroke="#323232" stroke-width="2"/><circle cx="17" cy="17" r="2" stroke="#323232" stroke-width="2"/><path d="M14 50h6m11.182-9.64l.231.278V54a1 1 0 001 1H89a1 1 0 001-1V19a1 1 0 00-1-1H32.413a1 1 0 00-1 1v10.5h-9.278l9.047 10.86z" stroke="#323232" stroke-width="2"/><circle cx="60.688" cy="36.9" r="9.537" stroke="#2A82F2" stroke-width="2" stroke-linecap="round"/><path d="M60.788 24v3.151m0 19.698V50m13.788-13.394h-3.94m-19.696 0H47" stroke="#2A82F2" stroke-width="2" stroke-linecap="round"/><circle cx="60.788" cy="37" r="4.909" stroke="#2A82F2" stroke-width="2" stroke-linecap="round"/></svg>