<svg width="92" height="57" fill="none" xmlns="http://www.w3.org/2000/svg"><path d="M1 44v10a2 2 0 002 2h57a2 2 0 002-2V44M1 39V28a2 2 0 012-2h57a2 2 0 012 2v11M5 23V12a2 2 0 012-2h49a2 2 0 012 2v11" stroke="#000" stroke-width="2"/><path d="M82.333 27c0-9.573-7.76-17.333-17.333-17.333M73.667 27A8.667 8.667 0 0065 18.333M91 27C91 12.64 79.36 1 65 1M27.772 34.222A8.488 8.488 0 0023 41.88c0 4.683 3.746 8.479 8.367 8.479s8.368-3.796 8.368-8.479a8.488 8.488 0 00-4.772-7.658m-3.596-1.793v10.16" stroke="#2A82F2" stroke-width="2" stroke-linecap="round"/></svg>