<svg width="91" height="56" fill="none" xmlns="http://www.w3.org/2000/svg"><rect x="1" y="24" width="55" height="31" rx="1" stroke="#000" stroke-width="2"/><path d="M27 20.5V3a2 2 0 012-2h59a2 2 0 012 2v39a2 2 0 01-2 2H59" stroke="#000" stroke-width="2"/><path d="M85.478 22.919c0 1.351-1.06 2.402-2.313 2.402-1.252 0-2.313-1.05-2.313-2.402s1.06-2.402 2.313-2.402c1.253 0 2.313 1.05 2.313 2.402z" stroke="#323232" stroke-width="2"/><path d="M51 36v9" stroke="#000" stroke-width="2"/><path d="M31 30l-6 20m-5-16l-5 6 5 6m16-12l5 6-5 6" stroke="#2A82F2" stroke-width="2" stroke-linecap="round"/></svg>