<svg width="91" height="57" fill="none" xmlns="http://www.w3.org/2000/svg"><path d="M71 56H2.98A1.983 1.983 0 011 54V3a2 2 0 012-2h66a2 2 0 012 2v15.006" stroke="#323232" stroke-width="2" stroke-linecap="round"/><path d="M83 31l-9.375 11L68 37.77" stroke="#2A82F2" stroke-width="2" stroke-linecap="round"/><circle cx="74.5" cy="37.5" r="15.5" stroke="#2A82F2" stroke-width="2" stroke-linecap="round"/><path d="M21 46V20.79L42 9.661V46H21zm21-24h9v24h-9V22z" stroke="#323232" stroke-width="2" stroke-linecap="round"/><path d="M26.77 26.884h3.692m3.077 0h3.692M26.77 33.038h3.692m3.077 0h3.692M26.77 39.192h3.692m3.077 0h3.692" stroke="#323232" stroke-width="2"/></svg>