<svg width="91" height="57" fill="none" xmlns="http://www.w3.org/2000/svg"><path d="M41.859 55.433l-29.264-.212C5.875 53.054 1 46.606 1 38.99c0-8.666 6.31-15.819 14.47-16.876a19.716 19.716 0 01-.114-2.12C15.356 9.505 23.637 1 33.853 1c6.976 0 13.05 3.966 16.2 9.821.841-.12 1.7-.182 2.573-.182 6.789 0 12.724 3.757 15.941 9.356" stroke="#2A82F2" stroke-width="2" stroke-linecap="round" stroke-linejoin="round"/><path stroke="#323232" stroke-width="2" d="M46.172 42.825H90V55H46.172zm0-18.712H90v12.175H46.172zm3.968 5.803h25.675M50.14 48.63h25.675"/><path d="M84.478 48.63c0 1.351-1.06 2.401-2.313 2.401-1.252 0-2.312-1.05-2.312-2.402s1.06-2.402 2.313-2.402c1.252 0 2.312 1.05 2.312 2.402zm0-18.711c0 1.351-1.06 2.402-2.313 2.402-1.252 0-2.312-1.05-2.312-2.402s1.06-2.402 2.313-2.402c1.252 0 2.312 1.05 2.312 2.402z" stroke="#323232" stroke-width="2"/></svg>