<svg width="92" height="59" fill="none" xmlns="http://www.w3.org/2000/svg"><path d="M66 24.5V1H1v37.446h9.275V47l10.082-8.554H66v-6.973" stroke="#323232" stroke-width="2"/><path d="M65 10h26v37.446h-9.46V56l-10.282-8.554H40v-6.723M2 11h26.286L38 22" stroke="#323232" stroke-width="2"/><path d="M55.422 23.279a1 1 0 00-1.415-1.415l1.415 1.415zM49 28.285l-.707-.707-.707.707.707.707.707-.707zm5.007 6.421a1 1 0 001.415-1.414l-1.415 1.414zm21.7-12.843a1 1 0 00-1.414 1.415l1.414-1.415zm5.007 6.422l.707.707.708-.707-.708-.707-.707.707zm-6.421 5.007a1 1 0 101.414 1.414l-1.414-1.414zM80 27.07H49.714v2H80v-2zm-25.993-5.207l-5.714 5.715 1.414 1.414 5.715-5.714-1.415-1.415zm-5.714 7.129l5.714 5.714 1.415-1.414-5.715-5.714-1.414 1.414zm26-5.714l5.714 5.714 1.414-1.414-5.714-5.715-1.414 1.415zm5.714 4.3l-5.714 5.714 1.414 1.414 5.715-5.714-1.415-1.414z" fill="#2A82F2"/><circle cx="20" cy="26" r="4" stroke="#323232" stroke-width="2"/><circle cx="46" cy="14" r="4" stroke="#323232" stroke-width="2"/><path d="M45.893 2.887v6.505M1.591 26h14.785" stroke="#323232" stroke-width="2"/></svg>