<svg width="180" height="70" fill="none" xmlns="http://www.w3.org/2000/svg"><g opacity=".5"><mask id="a" maskUnits="userSpaceOnUse" x="0" y="0" width="180" height="70"><path fill="#C4C4C4" d="M0 0h180v70H0z"/></mask><g mask="url(#a)" fill="#323232"><path d="M57.27 34.957c.214 0 .422.019.622.056.201.033.4.096.595.189l-.154.532a2.795 2.795 0 00-.546-.196 1.906 1.906 0 00-.49-.063c-.266 0-.476.058-.63.175a.58.58 0 00-.23.49c0 .177.055.32.167.427.117.107.306.2.567.28l.441.14c.402.126.684.299.847.518.168.215.252.457.252.728a1.156 1.156 0 01-.44.924 1.526 1.526 0 01-.484.252 2.137 2.137 0 01-.616.084c-.224 0-.452-.021-.686-.063a2.594 2.594 0 01-.686-.217l.154-.525c.201.098.397.17.588.217.192.047.392.07.602.07.252 0 .467-.058.644-.175a.58.58 0 00.266-.518.617.617 0 00-.042-.231.515.515 0 00-.133-.21.923.923 0 00-.252-.182 2.534 2.534 0 00-.406-.161l-.44-.14c-.323-.103-.57-.243-.743-.42-.172-.177-.259-.418-.259-.721 0-.387.126-.693.378-.917.257-.229.628-.343 1.113-.343zm3.554.063h.84l.924 2.814a20.048 20.048 0 01.252.784h.014c.037-.13.074-.257.112-.378l.14-.406.903-2.814h.84l.385 4.41h-.644l-.182-2.338a17.338 17.338 0 01-.042-.68l-.028-.692h-.014a44.48 44.48 0 01-.203.686 22.43 22.43 0 01-.21.686l-.777 2.338h-.588l-.777-2.345a22.326 22.326 0 01-.413-1.365h-.014c-.01.229-.024.457-.042.686-.014.229-.03.457-.05.686l-.167 2.338h-.63l.37-4.41zm7.647 0h.573l1.758 4.41h-.673l-.483-1.225h-1.813l-.475 1.225h-.666l1.779-4.41zm-.463 2.674h1.45l-.294-.763c-.08-.2-.152-.394-.218-.581a42.31 42.31 0 01-.195-.574h-.014c-.066.196-.133.385-.203.567l-.225.588-.3.763zm4.36-2.674h1.434c.229 0 .43.033.602.098.178.065.325.156.441.273.117.117.206.257.266.42.061.159.091.334.091.525a1.275 1.275 0 01-.28.812 1.425 1.425 0 01-.294.259c-.107.07-.217.128-.329.175l1.162 1.848h-.72l-1.044-1.73h-.72v1.73h-.61v-4.41zm.608 2.156h.532c.145 0 .278-.014.4-.042.125-.033.233-.08.321-.14a.667.667 0 00.217-.252.764.764 0 00.084-.371c0-.285-.079-.495-.238-.63-.154-.135-.38-.203-.679-.203h-.637v1.638zm7-2.156v.546h-1.378v3.864h-.644v-3.864h-1.351v-.546h3.374zm4.175 0h.645v3.864h1.882v.546h-2.526v-4.41zm4 0h.644v2.639c0 .471.087.807.26 1.008.172.2.45.3.832.3.378 0 .653-.111.826-.335.178-.224.266-.52.266-.89V35.02h.644v2.702c0 .602-.154 1.048-.462 1.337-.308.29-.733.434-1.274.434-.546 0-.973-.142-1.28-.427-.304-.29-.456-.75-.456-1.38V35.02zm5.814 0l1.057 1.722 1.106-1.722h.707l-1.45 2.17 1.52 2.24h-.742l-1.141-1.792-1.148 1.792h-.707l1.47-2.24-1.407-2.17h.735zm4.41 0h.644v2.639c0 .471.086.807.259 1.008.172.2.45.3.833.3.378 0 .653-.111.826-.335.177-.224.266-.52.266-.89V35.02h.644v2.702c0 .602-.154 1.048-.462 1.337-.308.29-.733.434-1.274.434-.546 0-.973-.142-1.281-.427-.303-.29-.455-.75-.455-1.38V35.02zm5.533 0h1.435c.229 0 .43.033.602.098.178.065.325.156.441.273.117.117.206.257.266.42.061.159.091.334.091.525a1.26 1.26 0 01-.28.812 1.425 1.425 0 01-.294.259c-.107.07-.217.128-.329.175l1.162 1.848h-.721l-1.043-1.73h-.721v1.73h-.609v-4.41zm.609 2.156h.532c.145 0 .278-.014.399-.042a1.01 1.01 0 00.322-.14.658.658 0 00.217-.252.764.764 0 00.084-.371c0-.285-.079-.495-.238-.63-.154-.135-.38-.203-.679-.203h-.637v1.638zm4.19-2.156l1.099 1.974 1.106-1.974h.679l-1.491 2.562v1.848h-.644v-1.848L108 35.02h.707zm6.999 4.41v-4.41h.644v1.855h2.093V35.02h.644v4.41h-.644v-2.01h-2.093v2.01h-.644zm7.346-4.473c.299 0 .574.049.826.147.252.093.469.236.651.427.187.187.332.422.434.707.103.28.154.609.154.987 0 .369-.053.695-.161.98-.107.28-.254.516-.441.707a1.818 1.818 0 01-.665.434 2.259 2.259 0 01-.826.147c-.298 0-.574-.047-.826-.14a1.889 1.889 0 01-.658-.427 2.023 2.023 0 01-.427-.707 2.942 2.942 0 01-.154-.994c0-.369.054-.693.161-.973.108-.285.255-.523.441-.714.187-.191.406-.336.658-.434a2.32 2.32 0 01.833-.147zm-1.393 2.268c0 .299.035.558.105.777.075.22.175.401.301.546.126.145.273.252.441.322a1.442 1.442 0 001.078 0 1.12 1.12 0 00.434-.322c.126-.145.224-.327.294-.546.07-.22.105-.478.105-.777 0-.308-.037-.572-.112-.791a1.455 1.455 0 00-.294-.54 1.106 1.106 0 00-.448-.314 1.385 1.385 0 00-.539-.105c-.191 0-.371.035-.539.105-.168.07-.312.177-.434.322a1.6 1.6 0 00-.287.546c-.07.22-.105.478-.105.777zm7.975-2.205v.546h-1.379v3.864h-.644v-3.864h-1.351v-.546h3.374zm1.623 0h2.66v.532h-2.016v1.323h1.834v.525h-1.834v1.498h2.037v.532h-2.681v-4.41zm4.507 0h.644v3.864h1.883v.546h-2.527v-4.41z"/><path fill-rule="evenodd" clip-rule="evenodd" d="M18.462 44.059c6.02-4.947 10.88-9.281 14.582-13.005 3.723-3.786 6.552-6.702 8.49-8.752 1.943-2.053 4.249-4.51 6.92-7.37l.004-.003a8195.3 8195.3 0 016.194-6.527l.013-.013c.144-.144.3-.275.464-.373.16-.096.373-.186.62-.186a.88.88 0 01.744.39c.148.221.174.47.174.644 0 1.334-.403 3.74-1.17 7.156-.776 3.451-1.916 7.461-3.418 12.027v.002a143.866 143.866 0 01-5.064 13.113c-1.885 4.24-4.125 7.846-6.728 10.806l-.003.004c-2.613 2.93-5.332 4.516-8.156 4.516-1.877 0-3.331-1.009-4.353-2.82l-.002-.005c-.964-1.744-1.42-3.982-1.42-6.669 0-2.772.677-5.326 2.034-7.647.175-.305.36-.573.562-.774.19-.19.485-.408.872-.408.31 0 .576.134.766.35.17.193.26.429.314.642l.067.266-.14.237c-.342.578-.69 1.667-1.012 3.35v.004a25.337 25.337 0 00-.474 4.886c0 2.339.322 3.987.89 5.028.278.51.607.86.974 1.085.366.224.807.346 1.348.346.582 0 1.256-.232 2.032-.793.777-.561 1.622-1.427 2.53-2.625 1.822-2.406 3.518-5.38 5.08-8.928 1.573-3.61 3.024-7.32 4.354-11.132l.002-.006c1.371-3.813 2.437-7.196 3.2-10.152.383-1.507.67-2.7.86-3.585.111-.523.185-.917.227-1.195-.26.234-.57.527-.934.88-1.144 1.108-2.776 2.777-4.9 5.01l-.001.003c-4.252 4.433-7.637 7.902-10.152 10.405-2.518 2.506-5.46 5.293-8.826 8.36l-.002.002c-6.167 5.566-13.088 10.58-20.762 15.041C45.349 61.322 85.456 59.797 153 45.23 86.604 61.279 47.477 65.998.567 57.697l.042-.067a.963.963 0 01-.217-.107.873.873 0 01-.392-.74c0-.596.506-.896.81-1.03 5.937-3.035 11.822-6.932 17.652-11.694zm18.938-2.23a3.4 3.4 0 100-6.8 3.4 3.4 0 000 6.8z"/></g></g></svg>