<svg width="180" height="70" fill="none" xmlns="http://www.w3.org/2000/svg"><g opacity=".5"><mask id="a" maskUnits="userSpaceOnUse" x="0" y="0" width="180" height="70"><path fill="#C4C4C4" d="M0 0h180v70H0z"/></mask><g mask="url(#a)" fill="#323232"><path d="M.698 49.241c-.229-1.514 1.837-1.981 4.888-1.698 2.124.128 6.512 1.556 8.736 2.179-1.738.849-5.101 1.698-8.266 1.712H6c-1.924 0-5.06-.637-5.301-2.193zM29.744 50.5c-2.039-.127-4.56-.708-6.813-1.203 2.222-1.358 5.116-2.942 8.124-3.522 3.02-.58 4.96-.383 6.383.17 1.798.692 1.498 2.504.186 3.338-1.41.892-3.405 1.288-5.913 1.288-.628 0-1.284-.014-1.967-.071zm-4.648-11.177l.257-.61c.371-.75.798-2.008 1.112-3.041 1.767-5.83 1.953-9.508 5.074-15.252 3.705 2.83 4.404 6.833 2.836 11.842-1.497 4.797-5.26 6.707-7.511 6.99a11.7 11.7 0 01-1.282.084c-.172 0-.342 0-.486-.013zm5.161-20.729c-2.581-1.245-5.645-1.896-9.18-1.839-10.889.198-20.01 7.541-19.796 17.587.086 4.91 3.691 7.287 7.825 7.301 6.642.07 11.916-6.508 10.903-13.257-.427-3.043-2.18-4.585-3.919-4.641-2.238-.128-3.72 1.443-4.233 2.434-.385.665-.628 1.316-.898 2.051l.456.156s1.298-3.976 4.575-3.806c1.425.07 2.665 1.613 2.865 3.665l.014.084c.456 4.683-3.777 12.734-9.848 12.494-3.122-.198-4.505-3.227-4.519-6.438.03-9.551 6.856-16.752 16.704-16.894 2.836-.043 5.858.396 8.495 1.754-2.708 3.155-5.16 7.032-7.952 15.28-2.052 6.071-2.224 9.835-4.804 13.174-4.033-1.26-8.238-2.18-11.202-2.307-3.79-.099-6.143 1.74-5.687 3.891.443 2.136 3.877 2.844 6.242 2.887 3.164.07 6.756-.779 9.364-2.052.77.24 2.21.708 3.578 1.118 0 0-1.483 1.019-2.723 1.726-.342.198-1.738.948-2.95 1.528l.285.51a42.494 42.494 0 002.979-1.5c1.226-.764 2.11-1.26 3.221-2.01 2.965.878 6.413 1.94 9.634 1.995 2.438.043 5.36-.82 7.597-2.207.812-.51 1.539-1.117 2.11-1.853.627-.778 1.71-3.042-1.099-4.301-1.951-.878-5.558-1.005-8.836.212-4.646 1.712-5.785 2.815-7.381 3.763a76.34 76.34 0 01-3.907-1.019s3.778-3.112 6.528-7.994c.742.156 1.767.241 2.694.227 3.464-.142 8.937-1.57 10.661-6.51 2.222-6.366-1.454-10.752-4.931-13.454-.356-.27-.727-.538-1.112-.778 1.838-3 3.962-3.962 6-4.118l-.1-.453h-.214c-1.34 0-4.46.58-7.439 3.594zm71.397 30.064c-2.254-.066-3.423-1.969-3.423-3.553 0-2.163 1.576-3.072 2.886-3.19.598-.047 2.132.043 2.247.846l.1.025.336-1.276c-.604-.259-1.505-.386-1.989-.386-3.492 0-5.094 2.348-5.094 4.547 0 1.327.487 2.323 1.225 3.02.733.692 1.764 1.04 2.879 1.04 1.219 0 2.877-.575 3.59-2.083l-.124-.053c-.563.857-1.474 1.102-2.633 1.063zM68.948 36.135h-4.335l.009.144c.801.061 1.684 1.083 1.684 2.556 0 1.044.016 7.847.017 8.711 0 1.227-1.147 1.833-1.648 1.86v.11h5.02v-.11c-.5-.027-1.65-.613-1.65-1.842L68.04 36.8c.11-.008.171 0 .323 0 2.61 0 4.365 1.276 4.365 3.252 0 1.644-1.524 3.547-3.962 3.68v.139c1.462 0 2.95.027 4.052-.597.856-.488 1.927-1.366 1.927-3.243 0-1.406-.886-3.897-5.797-3.897zm8.715 6.031l.003-1.18s-.804.855-2.292.855l-.009.129c.526.159.747.563.747 1.626l-.003 3.974c0 1.223-1.033 1.808-1.483 1.836v.108h4.528v-.108c-.454-.028-1.483-.62-1.483-1.847l-.005-3.171c0-.4-.018-1.118.15-1.308.818-1.063 2.27-.893 2.966-.451l.025-.089c-.478-.62-1.868-1.682-3.144-.373zm6.276 5.407l.008-4.083c0-.832.04-1.81.08-2.528 0 0-.937.879-2.377.879l-.012.138c.477.065.751.534.751 1.618l-.009 3.962c0 1.23-1.04 1.82-1.49 1.846v.111h4.526v-.111c-.452-.026-1.477-.606-1.477-1.832zm10.881-.019l-.004-3.9c0-1.37-.714-2.528-2.463-2.528-1.07 0-2.275.736-3.177 1.318 0-.18.002-.989.044-1.458 0 0-.891.855-2.335.855l-.011.138c.487.092.748.546.748 1.618v3.957c0 1.231-1.033 1.825-1.484 1.852v.108h4.525v-.108c-.45-.027-1.485-.62-1.485-1.852l.005-4.324c.297-.386 1.232-1.101 2.1-1.123 1.433-.04 1.98.856 1.98 2.022v3.43c0 1.23-1.032 1.82-1.487 1.847v.108h4.53v-.108c-.452-.027-1.487-.62-1.487-1.852zm14.544-6.43c-2.521 0-4.226 2.102-4.226 4.607 0 .9.252 1.86.881 2.65.611.779 1.684 1.349 3.055 1.349 2.888 0 3.315-2.06 3.315-2.06l-.125-.05c-.424 1.018-1.596 1.091-2.212 1.091-2.251 0-3.744-2.115-3.454-4.482h5.791s.014-.38-.012-.66c-.14-1.359-1.202-2.445-3.013-2.445zm1.452 2.476l-4.095-.003c.161-.877 1.172-1.756 2.412-1.756 1.927 0 1.683 1.76 1.683 1.76zm-27.663-3.863a1.07 1.07 0 001.073-1.067 1.076 1.076 0 00-2.153 0c0 .592.485 1.067 1.08 1.067zm61.288 8.843c-.954.004-1.09-1.121-1.109-2.386l-.007-4.005h2.1v-.716l-2.088-.031v-1.648s-1.164 1.92-2.465 2.01v.186s.849.098.899 1.167l.012 4.073c.006 1.396.272 2.504 1.682 2.497 1.255-.01 2.096-.78 2.161-1.983l-.121-.031c-.17.54-.555.862-1.064.866zm-18.287-12.331c.499.027 1.645.646 1.645 1.878v3.975h-6.187v-3.975c0-1.232 1.146-1.851 1.647-1.878v-.11h-4.952v.11c.498.027 1.646.646 1.646 1.878v9.4c0 1.238-1.146 1.854-1.646 1.88v.108h4.947v-.109c-.498-.025-1.642-.642-1.642-1.878v-4.503h6.187v4.503c0 1.237-1.144 1.853-1.645 1.878v.108h4.952v-.108c-.505-.025-1.646-.642-1.646-1.878v-9.401c0-1.232 1.145-1.851 1.647-1.878v-.11h-4.953v.11m24.635 4.864c-2.527 0-4.239 2.105-4.239 4.614 0 .895.258 1.86.888 2.656.607.777 1.687 1.347 3.051 1.347 2.9 0 3.323-2.064 3.323-2.064l-.12-.051c-.403.96-1.598 1.096-2.217 1.096-2.256 0-3.751-2.118-3.464-4.493l5.801-.004s.017-.372-.01-.66c-.136-1.36-1.202-2.44-3.013-2.44zm1.454 2.474l-4.104-.009c.16-.866 1.172-1.75 2.416-1.75 1.929 0 1.688 1.76 1.688 1.76zm-16.588-2.479c-2.375 0-4.302 1.903-4.302 4.25 0 2.342 1.927 4.246 4.302 4.246 2.376 0 4.306-1.904 4.306-4.247 0-2.346-1.93-4.249-4.306-4.249zm0 7.782c-1.353 0-2.451-1.577-2.451-3.533 0-1.958 1.098-3.538 2.451-3.538 1.36 0 2.459 1.58 2.459 3.538 0 1.956-1.099 3.533-2.459 3.533zm21.948-1.344l-.008-9.825c.005-.808.02-2.132.05-2.805 0 0-1.384 1.206-2.542 1.206v.13c.629.123.919.448.919 2.2l.028 9.118c0 1.229-1.026 1.81-1.48 1.836v.109h4.518v-.109c-.454-.025-1.485-.63-1.485-1.86zm-45.805 5.958c-25.63 0-49.383.227-69 .617v.258c19.617.393 43.37.62 69 .62 25.633 0 49.386-.227 69.003-.62v-.258c-19.617-.39-43.37-.617-69.003-.617z"/></g></g></svg>