<svg width="180" height="70" fill="none" xmlns="http://www.w3.org/2000/svg"><g opacity=".5"><mask id="a" maskUnits="userSpaceOnUse" x="0" y="0" width="180" height="70"><path fill="#C4C4C4" d="M0 0h180v70H0z"/></mask><g mask="url(#a)" fill-rule="evenodd" clip-rule="evenodd" fill="#171717"><path d="M25.163 37.337l-.872-.893a645.431 645.431 0 01-2.034-2.086c-.126-.13-.19-.061-.266.02l-.026.026-2.808 2.865-.006.006a.52.52 0 00-.128.18h6.204a.462.462 0 01-.041-.078.147.147 0 00-.023-.04zm-3.417 3.293l.06.001a.433.433 0 00.248-.042 69.132 69.132 0 01-1.601-1.635 22.08 22.08 0 00-.493-.495c-.326-.32-.651-.64-.939-1a.109.109 0 01-.03 0l.003-.003h-.018a.186.186 0 01-.075-.054l-.915-.939-.002-.001c-.664-.68-1.328-1.36-1.986-2.046-.156-.162-.236-.139-.378.008-.576.595-1.155 1.186-1.735 1.776l-.996 1.017-.021.021c-.053.052-.119.116-.108.218h6.216l.015.003c-.75.765-1.467 1.49-2.176 2.206l-.001.001-.002.002-.929.939c.011.008.012.02.003.03l.033.005.026.004.063.01c.153-.001.306-.004.46-.007.272-.006.544-.011.817-.012l1.488-.002 2.973-.005zm-2.356 3.703c-.41-.415-.412-.412-.828.01l-.005.005c-.354.359-.708.72-1.063 1.083-.536.547-1.077 1.1-1.632 1.658h6.231c-.661-.7-1.3-1.342-1.93-1.977-.259-.26-.516-.518-.773-.779zm-6.642 6.005h6.144a.29.29 0 00-.13-.208h-.001a.426.426 0 01-.053-.044l-.19-.194c-.84-.86-1.685-1.723-2.516-2.59-.16-.166-.236-.124-.372.017-.704.725-1.412 1.449-2.119 2.172l-.59.604-.036.035c-.057.054-.119.113-.137.208zm3.183 3.36l-.026-.031c-.033-.04-.067-.084-.134-.06v-.021c0-.028-.002-.053-.02-.074.017.02.02.047.02.074v.016c-.003.032-.019.036-.048.026a787.728 787.728 0 01-3.012 3.093h6.187l-.058-.065a1.353 1.353 0 00-.054-.06c-.54-.552-1.08-1.099-1.62-1.646a735.79 735.79 0 01-1.235-1.252zm-9.545 3.075H12.6l-.057-.076a.632.632 0 00-.053-.067c-.958-.978-1.917-1.955-2.877-2.932l-.025-.03c-.032-.04-.066-.084-.134-.052l-.045.027-.61.628-.002.001c-.477.49-.955.98-1.43 1.473-.228.235-.453.472-.678.71l-.302.318zm-3.075-3.344l-.007.007c-.034.03-.075.068.012.105l.433-.006c.318-.005.636-.01.954-.01.815-.002 1.63-.002 2.445-.002l1.948-.001c.023 0 .046 0 .069.002.08.003.161.007.238-.032l-.604-.617c-.774-.791-1.548-1.583-2.32-2.375l-.002-.002c-.087-.089-.15-.154-.272-.03-.642.662-1.287 1.32-1.931 1.978l-.001.001-.953.973a.218.218 0 01-.009.01zM.088 50.28h6.146l-.01-.017a.339.339 0 00-.05-.079l-1.12-1.14a343.423 343.423 0 01-1.749-1.786c-.128-.132-.196-.077-.294.024-.523.534-1.046 1.067-1.57 1.599L.238 50.106a.67.67 0 00-.053.065c-.028.036-.057.075-.098.11zm.056-6.441h6.114c-.045-.038-.071-.076-.093-.107a.34.34 0 00-.034-.044 358 358 0 00-1.056-1.071v-.001c-.593-.6-1.185-1.199-1.772-1.806-.131-.136-.188-.077-.275.012l-.011.011c-.468.48-.937.956-1.406 1.432v.001c-.454.46-.907.921-1.36 1.384a.294.294 0 01-.037.032c-.043.034-.087.067-.07.157zm.181-6.395c1.895.002 3.79.001 5.684-.002.016 0 .034.003.052.005.06.008.124.016.15-.053.024-.066-.027-.105-.074-.143-.015-.012-.03-.024-.042-.036l-.99-1.01v-.001c-.587-.6-1.174-1.199-1.758-1.801-.126-.13-.2-.146-.333-.005-.49.517-.992 1.023-1.494 1.529l-.051.051c-.316.319-.634.635-.956.954v.001l-.432.428c.095.09.16.087.216.084h.028zm3.822-4.194c-.302.3-.612.609-.942.956h6.189l-.005-.022c-.01-.04-.012-.05-.022-.06-.97-.991-1.943-1.989-2.909-2.985-.118-.122-.175-.062-.252.018l-.017.017-.31.317c-.425.437-.851.874-1.279 1.306-.15.152-.3.302-.453.453zm2.435-2.487a.405.405 0 01-.037.032c-.043.035-.089.072-.08.162h6.113c-.04-.044-.071-.081-.1-.114a2.814 2.814 0 00-.124-.139c-.291-.298-.583-.594-.875-.89-.6-.61-1.198-1.219-1.791-1.836-.167-.174-.251-.136-.397.015-.574.593-1.151 1.181-1.728 1.77l-.98 1zm9.152 9.838l-.738-.753-.002-.001a293.648 293.648 0 01-2.188-2.248c-.148-.153-.216-.082-.303.01l-.027.03-1.68 1.712-.794.81-.088.09c-.099.1-.197.2-.292.302-.082.089-.019.098.04.106a.7.7 0 01.024.003l.407-.007c.3-.006.6-.012.9-.013l2.63-.001h1.835c.019 0 .038 0 .058.002.075.003.15.007.218-.042zM9.609 47.09h6.122a1.088 1.088 0 01-.037-.062.279.279 0 00-.039-.059l-.488-.499a681.393 681.393 0 01-2.378-2.438c-.13-.135-.194-.076-.293.025a449.07 449.07 0 01-2.234 2.28c-.165.166-.335.328-.506.49l-.205.194c.006.007.012.01.019.014.013.008.026.015.039.055zm-3.12-3.024c-.12-.127-.221-.147-.327-.029a44.122 44.122 0 01-1.679 1.753 68.69 68.69 0 00-1.111 1.136.233.233 0 01-.035.027c-.038.025-.075.05-.044.137h6.108c-.117-.213-.271-.354-.42-.492-.055-.05-.11-.1-.16-.152l-.487-.493a241.468 241.468 0 01-1.844-1.887zm-.07-6.61h6.191a.876.876 0 00-.137-.165l-.026-.026-.291-.297c-.821-.839-1.645-1.68-2.456-2.527-.176-.184-.266-.145-.422.016-.64.662-1.285 1.32-1.93 1.979a1190.874 1190.874 0 00-.796.812c-.057.054-.12.114-.134.209zm.13.21c-.164-.169-.252-.18-.42-.005-.644.669-1.295 1.33-1.945 1.993a616.492 616.492 0 00-.796.81c-.044.042-.09.085-.11.137-.019.05.016.052.052.054.014 0 .029.001.04.006l.358-.007c.257-.005.515-.01.773-.01 1.51-.003 3.021-.002 4.532-.002.057 0 .115.006.172.011l.08.007c.23-.07.101-.136.025-.176a.22.22 0 01-.042-.025c-.406-.42-.813-.836-1.221-1.253a218.333 218.333 0 01-1.499-1.54zm5.238 5.36l-.005-.005a566.126 566.126 0 01-2.165-2.218c-.12-.124-.173-.069-.25.011l-.015.015-2.854 2.915c-.008.009-.017.015-.027.022-.032.021-.062.042-.032.132H12.6a.39.39 0 00-.097-.142l-.015-.015-.7-.715zm-5.352 7.313h6.14c-.046-.1-.065-.118-.086-.137a777.995 777.995 0 01-2.878-2.952c-.124-.13-.185-.062-.254.015l-.033.035-1.91 1.95-.802.82a.554.554 0 01-.05.044.285.285 0 00-.127.225zm9.033 3.187c.085.004.171.009.254-.031l-.717-.733-.004-.004c-.723-.738-1.446-1.476-2.162-2.221-.154-.16-.232-.144-.376.005-.61.63-1.226 1.255-1.84 1.88l-.93.948a.494.494 0 01-.029.026c-.039.034-.08.07-.068.136l1.098-.001h.016l4.676-.008.082.003zm3.147-9.998a1039.15 1039.15 0 01-2.748-2.808 1.171 1.171 0 00-.068.026.78.78 0 01-.067.027c-.29.296-.58.59-.872.885-.717.726-1.438 1.456-2.176 2.24h6.192a.274.274 0 01.057-.083l.019-.022a3.849 3.849 0 00-.075-.054c-.091-.066-.186-.133-.262-.211zm-5.831-12.384c-.127-.13-.193-.061-.275.024l-.02.02-.363.372c-.4.411-.802.823-1.204 1.23l-.434.436c-.308.31-.625.626-.962.981h6.204a1.159 1.159 0 01-.038-.062.425.425 0 00-.04-.059c-.957-.977-1.916-1.96-2.868-2.942zm.334-.628l-.398.4c.116.074.202.07.28.066l.048-.002h.184c1.71.002 3.42.004 5.131-.002.044 0 .093.007.144.014.134.02.274.04.32-.077.037-.09-.067-.166-.171-.242a.994.994 0 01-.127-.103c-.422-.439-.847-.875-1.271-1.31v-.001c-.403-.413-.805-.826-1.205-1.242-.174-.18-.286-.22-.485-.003-.383.42-.783.823-1.184 1.226l-.397.4-.87.876zm5.982.627c-.126-.13-.19-.063-.272.023l-.02.022-.39.4c-.478.492-.957.985-1.437 1.472l-.534.546-.001.001-.588.6h6.18c-.037-.092-.056-.108-.075-.124a836 836 0 01-2.863-2.94zm3.361 2.766a.66.66 0 01-.043.04c-.06.05-.124.105-.082.193.039.082.12.074.195.067a.618.618 0 01.063-.005l.282.002c.722.003 1.444.006 2.165-.004.198-.003.256.046.256.252 0 .237-.003.475-.006.713-.007.67-.014 1.342.026 2.012.011.192-.06.327-.19.459a537.93 537.93 0 00-2.676 2.728 1.133 1.133 0 01-.067.061c-.069.06-.139.12-.156.222l2.875.011.125.002c.034-.013.05.001.05.037.001.236-.003.473-.007.71-.009.548-.018 1.096.037 1.636.032.319-.006.581-.107.816-.017-.084-.067-.13-.115-.172a.793.793 0 01-.039-.037c-.188-.193-.377-.384-.566-.576a79.134 79.134 0 01-.879-.898 25.042 25.042 0 00-.464-.468c-.323-.32-.645-.64-.931-.995a.675.675 0 00-.029.006l-.03.006-.06.011c-.001.031-.016.048-.044.038l-.825.845c-.72.736-1.448 1.48-2.196 2.277h6.174c-.102.232-.268.428-.488.635a65.79 65.79 0 00-1.894 1.88l-.61.619c.092.08.18.075.259.069a.822.822 0 01.06-.003c.843.002 1.687.001 2.531-.001h.02c.12-.001.219-.002.218.185-.002.665 0 1.329.003 1.993v.003l.004.904a.193.193 0 01-.014.059 1.48 1.48 0 00-.02.063l-.108-.105c-.072-.07-.139-.133-.203-.199a1738.173 1738.173 0 01-2.682-2.74c-.074-.08-.134-.144-.26-.014-.676.699-1.357 1.394-2.037 2.09h-.002l-.87.89c-.023.024-.041.051-.06.078a1.39 1.39 0 01-.023.032l-.055.044c-.041.032-.082.064-.119.101-.94.956-1.879 1.913-2.816 2.871a.472.472 0 01-.036.033c-.044.037-.09.075-.077.15l6.056.005.036-.003c.023-.002.045-.005.083-.007a761.07 761.07 0 01-2.885-2.955c-.018-.019-.04-.036-.06-.053-.058-.047-.116-.095-.125-.181l1.399-.003 2.966-.007h1.926l-1.683 1.706-.001.002-1.478 1.499a.21.21 0 01-.025.018c-.017.012-.034.023-.034.035-.579.589-1.15 1.178-1.723 1.766-.44.453-.879.906-1.321 1.357l-.971.99-.002.001c-.688.7-1.376 1.4-2.057 2.107-.175.182-.263.158-.421-.006-.457-.472-.917-.94-1.376-1.408-.466-.475-.931-.95-1.393-1.427-.142-.146-.215-.144-.355 0-.58.599-1.163 1.194-1.747 1.788l-1.064 1.086c-.106.109-.18.172-.319.028a474.649 474.649 0 00-1.89-1.935v-.001l-.98-1a.508.508 0 00-.03-.027c-.037-.033-.077-.068-.068-.131-.082 0-.127-.056-.17-.11a.644.644 0 00-.044-.052l-2.208-2.248c-1.235-1.257-2.47-2.515-3.707-3.77a.752.752 0 01-.241-.582c.011-.89.011-1.778 0-2.667-.003-.208.062-.258.257-.256.685.007 1.37.006 2.056.005l.733-.001c.009-.11-.056-.162-.116-.211a.572.572 0 01-.051-.046A352.403 352.403 0 00.23 44.137a.713.713 0 01-.224-.56c.01-.699.01-1.398.011-2.097l.002-.772c.015-.06.062-.065.11-.065l2.628.015.266.001c.054-.105-.011-.155-.072-.2-.017-.014-.034-.027-.048-.041a327.829 327.829 0 00-2.678-2.725.686.686 0 01-.218-.535c.009-.899.01-1.798.001-2.698-.002-.2.05-.261.252-.259.613.009 1.227.008 1.84.006h1.048c-.725-.74-1.422-1.438-2.115-2.132h-.001c-.34-.34-.68-.68-1.02-1.023a.485.485 0 01.335-.074l.072.003H5.91a.61.61 0 01.07.005c.075.009.156.018.19-.057.036-.08-.027-.128-.087-.174a.431.431 0 01-.055-.046 992.308 992.308 0 00-1.78-1.82l-.793-.808a7.782 7.782 0 01-.173-.184l-.084-.091c.076-.056.15-.05.22-.044l.062.003c1.514-.002 3.029-.002 4.543-.002h.96c.054.002.107.003.16-.003.015-.001.03 0 .047 0 .05.002.102.004.126-.06.024-.066-.018-.102-.059-.136-.01-.009-.022-.018-.03-.027-.226-.23-.455-.458-.684-.685-.512-.508-1.025-1.016-1.493-1.564-.494-.578-1.03-.764-1.769-.74-1.234.038-2.47.03-3.706.023-.5-.003-1-.006-1.5-.006-.022-.093.032-.138.082-.18a.326.326 0 00.04-.034l2.179-2.225.003-.003c1.27-1.296 2.54-2.592 3.807-3.89.116-.12.175-.123.293-.003 1.01 1.034 2.024 2.065 3.037 3.097l2.132 2.174c1.34 1.367 2.677 2.739 4.012 4.112.11.112.222.154.376.153 1.331-.003 2.662-.002 3.994-.001h2.062c.012 0 .025.024.037.048a.193.193 0 00.019.032l-.457.443v.001c-.305.294-.61.589-.91.888-.49.49-.975.985-1.46 1.481l-.052.052c-.012.013-.027.026-.042.039-.054.044-.11.091-.08.164.029.072.102.064.17.057a.563.563 0 01.06-.005c1.028.002 2.056 0 3.083-.004.841-.002 1.682-.004 2.523-.004h.359c-.331.365-.636.668-.933.962-.128.126-.253.251-.38.379-.337.343-.676.692-1.014 1.04l-.554.57zm-.253 6.8l.004-.012-.004.012zM.516 17.194H0l.205-.215c.126-.134.237-.252.35-.368l1.42-1.446a1171.71 1171.71 0 004.13-4.218c.189-.195.285-.177.463.005a3883.07 3883.07 0 009.055 9.23c.17.171.16.266-.005.43-.932.936-1.859 1.879-2.776 2.83-.158.164-.235.136-.378-.01-.985-1.01-1.972-2.017-2.96-3.023v-.001c-.99-1.01-1.98-2.021-2.97-3.034a.597.597 0 00-.47-.2c-1.453.008-2.905.013-4.357.017l-1.191.003zm24.157 6.66l.002.002.476.486c.03.03.058.063.096.106l.111.126h-.404c-1.915 0-3.83-.003-5.744-.01a.53.53 0 00-.422.177c-.346.357-.694.712-1.043 1.067-.429.437-.858.875-1.283 1.317-.149.154-.227.155-.378-.001a252.823 252.823 0 00-2.794-2.85c-.148-.149-.16-.225-.004-.382a1836.62 1836.62 0 005.53-5.635l.012-.013c.109-.111.18-.185.34-.021 1.83 1.88 3.669 3.756 5.505 5.631zM13.285 16.96c-.174-.174-.182-.267-.003-.448 1.837-1.858 3.664-3.725 5.491-5.593.123-.126.198-.187.357-.024 1.576 1.616 3.157 3.23 4.737 4.842l1.247 1.273.026.024c.04.036.086.076.08.171h-.526c-1.8 0-3.601 0-5.402-.012a.716.716 0 00-.57.24c-.347.36-.697.716-1.046 1.073-.408.415-.815.83-1.218 1.25-.157.163-.244.194-.419.012-.908-.946-1.827-1.88-2.754-2.808zm-.825-.847a524.73 524.73 0 00-2.896-2.954c-.112-.113-.125-.185-.008-.304.704-.712 1.406-1.428 2.108-2.143l.791-.807c.027-.028.056-.054.083-.077l.032-.03c.068 0 .1.038.131.073a.511.511 0 00.02.023l.917.932c.674.687 1.348 1.373 2.024 2.057.107.107.073.164-.013.252a750.18 750.18 0 00-2.916 2.973c-.103.105-.166.116-.274.005zm10.726 43.712c-.85.008-1.537-.738-1.538-1.673-.001-.895.68-1.625 1.517-1.626.852-.001 1.542.73 1.545 1.636.003.906-.684 1.655-1.524 1.663zm-.016-3.614c-1.055 0-1.909.86-1.908 1.923.002 1.13.824 2 1.893 2 1.093 0 1.912-.844 1.913-1.972 0-1.109-.817-1.95-1.898-1.951zm-.34 1.66c-.02.104-.04.215.167.22.333.009.572-.151.57-.38-.002-.221-.21-.366-.514-.38-.242-.012-.236.124-.23.272a.801.801 0 010 .12c.026.036.017.09.006.147zm1.078-.398c.09.294.005.495-.317.74.232.167.27.41.308.655.017.106.033.213.066.313.023.07-.02.112-.087.113-.017 0-.034.002-.052.004-.096.007-.197.014-.234-.115a2.692 2.692 0 01-.055-.252 4.033 4.033 0 00-.035-.172c-.038-.163-.089-.308-.277-.366-.327-.1-.4-.054-.4.294v.107c-.002.11-.003.219 0 .328.005.119-.038.177-.162.175-.123 0-.196-.03-.195-.176.004-.618.003-1.236-.001-1.854 0-.14.069-.19.19-.193l.177-.005c.15-.006.3-.012.448 0 .272.02.53.092.626.404zm23.344-28.9c0-.22 0-.44.002-.66.002-.496.004-.991-.005-1.486-.017-.924-.38-1.29-1.287-1.33h-.056a.547.547 0 01-.086-.002c-.029-.004-.061-.003-.094-.003-.107.003-.217.005-.22-.145-.004-.176.168-.173.283-.171h.027c.348.003.695.013 1.043.023.372.01.744.02 1.115.022a40.15 40.15 0 001.9-.045 2.04 2.04 0 01.45.024c.083.015.153.05.152.142 0 .108-.079.142-.174.149a4.695 4.695 0 01-.066.004c-.082.005-.164.01-.245.026-.697.132-.884.363-.928 1.084-.067 1.089-.06 2.179-.055 3.268.004.582.007 1.164-.001 1.746a5.446 5.446 0 01-.014.291l-.004.056c-.014.214-.129.342-.317.439-.857.44-1.776.663-2.716.793a12.016 12.016 0 01-4.788-.284c-1.49-.398-2.837-1.082-3.905-2.25-1.024-1.122-1.62-2.47-1.885-3.96-.327-1.831-.142-3.62.632-5.32 1.005-2.207 2.7-3.562 5.01-4.118 1.708-.411 3.434-.39 5.165-.147.3.042.598.1.896.158.575.112 1.15.224 1.742.223.213 0 .333.104.303.348-.12.95-.132 1.906-.128 2.863 0 .042-.009.084-.017.126l-.014.074c-.012.09-.03.176-.142.183-.13.007-.148-.088-.165-.19l-.027-.172c-.03-.19-.06-.38-.104-.567-.184-.77-.688-1.266-1.357-1.62-.82-.432-1.698-.65-2.608-.746-1.099-.118-2.197-.118-3.271.172-2.108.57-3.465 1.937-3.975 4.103-.654 2.774-.24 5.372 1.509 7.64 1.126 1.46 2.668 2.282 4.473 2.574 1.07.173 2.132.15 3.175-.172.648-.2.789-.407.789-1.084v-2.059h-.012zm14.233 13.51v3.13c0 .497.032.535.517.665.684.184 1.38.198 2.08.18.874-.022 1.527-.425 1.932-1.208.621-1.201.653-2.475.374-3.772-.19-.89-.606-1.643-1.36-2.164-1.024-.709-2.157-.671-3.31-.476-.226.038-.233.218-.233.399v3.246zm10.562 11.33h-.096l-.133.002c-.512.002-1.023.005-1.53-.083-.947-.164-1.619-.763-2.204-1.483-1.098-1.352-2.106-2.774-3.112-4.196l-.34-.48c-.211-.296-.429-.455-.815-.445h-.014c-.667.018-1.337.035-2.003-.038-.234-.026-.317.08-.32.318-.009 1.097.017 2.194.043 3.291l.02.94c.006.27.037.54.082.805.132.783.345.97 1.123 1.021.165.011.33.027.496.044l.07.006c.077.008.156.022.15.13-.004.096-.076.14-.15.146-.178.014-.356.017-.534.02h-.062a15.66 15.66 0 01-1.105-.029 13.008 13.008 0 00-1.424-.017c-.473.028-.946.041-1.42.048a1.135 1.135 0 01-.28-.03.14.14 0 01-.11-.15c.004-.083.063-.106.136-.116.086-.011.172-.025.257-.038h.001c.092-.014.184-.029.276-.04.314-.04.483-.238.567-.532.08-.279.134-.564.148-.852a41.11 41.11 0 00.066-1.998c.005-3.317 0-6.633-.006-9.95 0-.289-.024-.58-.06-.866-.065-.509-.435-.815-1.022-.862a4.13 4.13 0 00-.236-.01 4.548 4.548 0 01-.219-.01c-.095-.006-.207-.02-.213-.144-.007-.141.11-.173.216-.174l.305-.005c.326-.006.652-.012.975.013.795.061 1.588.035 2.382.008h.001l.428-.014c1.137-.035 2.272-.022 3.375.337a3.611 3.611 0 012.53 3.56c-.033 1.27-.514 2.38-1.283 3.37-.318.41-.656.801-1.032 1.155-.128.12-.124.201-.02.336.357.456.709.916 1.06 1.376v.001c1.005 1.316 2.01 2.632 3.132 3.847.773.838 1.689 1.433 2.872 1.455.071.002.143.012.214.022l.124.016c.078.007.163.017.17.115.006.108-.083.15-.168.163-.109.016-.22.017-.33.017h-.011c-.249.002-.498.001-.746.001h-.222zm-18.48-31.95v.958h.014c0 .373 0 .746-.002 1.12-.002.864-.005 1.729.006 2.593.013.986.098 1.966.383 2.916.443 1.479 1.295 2.618 2.705 3.25 1.681.752 3.424.842 5.155.25 1.677-.574 2.839-1.739 3.386-3.487.325-1.04.452-2.113.464-3.196.016-1.451.014-2.903.012-4.355l-.001-1.447c0-.628.006-1.255.054-1.882.047-.602.258-.865.837-.989a2.65 2.65 0 01.344-.043l.05-.004c.093-.008.178-.034.178-.143 0-.106-.083-.144-.175-.15a2.431 2.431 0 00-.228-.004c-.197.005-.395.013-.592.022-.438.018-.875.037-1.31.018-.55-.023-1.099-.03-1.648-.035l-.342-.004c-.104-.002-.231.004-.236.147-.006.148.115.148.22.147h.006c.276 0 .547.042.813.118a.818.818 0 01.613.654c.077.35.094.709.096 1.064.008 1.72.009 3.44.01 5.16v1.628c.001.862-.06 1.718-.227 2.563-.184.931-.484 1.82-1.168 2.498-.971.963-2.15 1.344-3.504 1.246-1.685-.122-2.827-1.013-3.514-2.533-.468-1.035-.563-2.16-.573-3.284-.013-1.388-.01-2.776-.007-4.163l.002-1.581v-.235c0-.685 0-1.37.05-2.054.05-.68.243-.92.906-1.035.102-.017.205-.035.309-.043.103-.007.203-.027.197-.153-.006-.122-.111-.142-.211-.143h-.299l-.299-.001c-.31-.003-.62.008-.929.02-.484.018-.969.037-1.455-.002a12.76 12.76 0 00-1.136-.021c-.152.001-.304.003-.456.002h-.004c-.103 0-.232 0-.24.138-.009.146.097.152.199.157l.046.002.125.01c.157.013.314.025.468.052.496.085.785.358.845.807.035.258.058.52.06.779.004.889.003 1.777.003 2.666v.001zm49.862 32.243c-1.798 0-3.386-.183-4.867-.88-2.476-1.166-3.968-3.122-4.415-5.88-.297-1.83-.091-3.595.714-5.273 1.036-2.161 2.708-3.506 5.006-4.041 1.504-.35 3.021-.337 4.547-.19.499.049.992.138 1.484.227.578.105 1.156.21 1.744.248.212.014.241.15.222.324a23.78 23.78 0 00-.129 2.573c.001.203-.015.406-.03.609l-.009.113-.003.07c-.004.138-.009.296-.186.284-.171-.012-.164-.176-.158-.316l.002-.064a3.29 3.29 0 00-.134-.943c-.201-.698-.601-1.237-1.244-1.581-.886-.475-1.835-.701-2.826-.792-1.125-.104-2.237-.026-3.32.286-1.896.547-3.086 1.859-3.604 3.756-.526 1.927-.555 3.884.21 5.765 1.057 2.598 2.964 4.174 5.698 4.639a8.04 8.04 0 003.107-.104c1.203-.268 1.943-1.02 2.229-2.24l.037-.153c.024-.099.048-.197.068-.297.023-.112.052-.218.19-.204.138.014.152.139.15.242a4.742 4.742 0 01-.051.517c-.099.735-.208 1.469-.386 2.19a.857.857 0 01-.556.64c-.499.197-1.023.282-1.549.345-.705.085-1.413.146-1.941.13zM78.551 50.4l-.173.415a8.72 8.72 0 00-.042-.094 1.715 1.715 0 01-.046-.108l-.895-2.43-.002-.004-.002-.005c-.883-2.395-1.766-4.789-2.64-7.185a37.11 37.11 0 00-.24-.633c-.216-.562-.433-1.124-.577-1.713-.085-.35.022-.526.36-.628.14-.042.282-.046.425-.049.075-.002.15-.003.224-.01.083-.009.178-.028.191-.138.014-.12-.08-.137-.158-.151l-.01-.002a2.147 2.147 0 00-.31-.029c-.388-.015-.776.006-1.164.027a11.86 11.86 0 01-1.222.024c-.7-.034-1.4-.066-2.103-.052h-.026c-.095.002-.19.003-.28.045-.056.026-.1.058-.1.124s.04.11.1.124a.955.955 0 00.223.032c.996-.012 1.625.484 1.988 1.419A2911.94 2911.94 0 0075.76 48.8l.001.005.588 1.496c.388.987.783 1.971 1.18 2.955l.062.156c.059.147.148.285.325.285.16 0 .22-.134.275-.255l.013-.03.128-.276v-.001c.216-.467.432-.933.634-1.407 1-2.343 1.96-4.703 2.92-7.063v-.001h.001v-.002l.001-.001c.426-1.046.851-2.092 1.28-3.136.105-.255.205-.514.304-.772.271-.703.542-1.406.924-2.06.28-.478.687-.696 1.215-.731.035-.003.074-.001.115 0 .151.007.319.014.314-.179-.004-.175-.178-.161-.328-.15-.036.003-.07.006-.1.006-.299 0-.597.012-.895.025-.562.023-1.125.047-1.69-.014a6.34 6.34 0 00-.805-.017l-.246.005h-.015c-.127 0-.297.002-.293.169.003.148.133.15.25.152a3.607 3.607 0 00.246.008c.083.002.165.003.247.012.392.044.563.286.49.68-.077.41-.21.802-.348 1.192-1.148 3.273-2.388 6.51-3.666 9.733-.106.269-.218.535-.335.814v.001zm-28.52-8.824l.002.748c.001.66.003 1.32-.006 1.979-.003.244.076.313.31.31a74.21 74.21 0 011.249-.01 67.639 67.639 0 001.624-.017l.04-.001c.464-.012.947-.025 1.267-.48.04-.056.112-.122.195-.061.078.056.062.148.049.224l-.003.018a13.788 13.788 0 00-.202 1.904c-.009.21-.018.42-.03.63l-.002.024c-.005.109-.011.235-.158.235-.14 0-.148-.115-.155-.22a1.57 1.57 0 00-.003-.04 1.839 1.839 0 01-.005-.149 3.273 3.273 0 00-.005-.14c-.046-.577-.357-.937-.918-1.005-1.002-.122-2.011-.124-3.02-.127h-.016c-.163 0-.213.08-.212.232v1.748c-.002 1.284-.003 2.567.02 3.85.016.9.324 1.208 1.22 1.327a9.184 9.184 0 002.578-.023c.802-.12 1.2-.545 1.366-1.375a8.56 8.56 0 01.092-.422c.02-.078.058-.153.152-.144.084.008.101.078.118.144l.007.028c.03.111.01.22-.01.329a1.787 1.787 0 00-.02.13v.006a21.498 21.498 0 01-.205 1.541c-.11.602-.249.7-.841.703a74.965 74.965 0 01-4.83-.112 12.116 12.116 0 00-1.325.02c-.316.017-.632.033-.948.031h-.1c-.09 0-.18.001-.27-.004-.102-.005-.19-.042-.19-.167-.001-.11.074-.118.146-.125a9.728 9.728 0 01.345-.047c.478-.058.648-.208.763-.679.12-.49.155-.994.161-1.493.045-3.8.035-7.6.01-11.4a4.647 4.647 0 00-.063-.692c-.077-.49-.417-.76-1.023-.824a2.742 2.742 0 00-.23-.012 3.76 3.76 0 01-.167-.007l-.042-.002c-.103-.004-.216-.008-.216-.15 0-.146.132-.173.251-.172l.362-.002c.325-.003.651-.006.975.019.388.03.776.037 1.164.038 1.441.003 2.883.002 4.324-.008.434-.003.873-.01 1.286-.18.2-.082.218.056.203.189a3.87 3.87 0 01-.059.34c-.017.085-.035.17-.047.256-.051.336-.073.674-.095 1.013-.01.162-.02.324-.034.486-.003.03-.003.064-.003.1 0 .155 0 .342-.2.337-.176-.004-.17-.173-.166-.322a.912.912 0 00.001-.104c-.041-.798-.378-1.13-1.287-1.236-.666-.078-1.334-.076-2.002-.074-.318 0-.635.002-.953-.006-.213-.005-.22.12-.22.279.003.711.002 1.423.002 2.135v.679zm63.907.733l-.001-.759.001-.56v-.128c.001-.699.001-1.398-.003-2.097-.001-.182.029-.29.245-.284.335.01.67.01 1.005.01.613 0 1.225 0 1.836.063 1.006.106 1.293.395 1.378 1.426v.023c0 .012.001.024.003.035l.001.009c.018.094.036.194.158.193.125 0 .151-.11.163-.203.034-.277.053-.555.073-.834.036-.51.072-1.02.195-1.52.029-.122-.017-.266-.212-.183-.403.17-.832.181-1.256.184-1.433.01-2.865.011-4.297.008a17.168 17.168 0 01-1.278-.04c-.312-.024-.627-.02-.941-.017h-.001l-.366.003c-.113 0-.218.032-.213.173.004.129.115.139.207.147h.002c.073.007.146.009.219.01.069.002.138.004.207.01.655.054.987.347 1.061.955.033.277.053.558.055.837l.001.317c.007 1.345.014 2.69.005 4.035-.005.782-.001 1.563.004 2.345.009 1.635.018 3.27-.06 4.905-.019.395-.059.79-.177 1.17-.084.268-.245.452-.536.49-.111.015-.222.032-.332.05l-.084.013-.117.017c-.079.012-.159.03-.154.132.004.088.071.143.149.151.141.015.284.025.425.014 1.317-.1 2.633-.04 3.948.019.793.035 1.586.037 2.378.038.288 0 .575.001.863.004.488.003.659-.153.749-.644l.016-.086c.028-.151.057-.303.073-.456.016-.155.038-.31.059-.465.047-.342.095-.684.087-1.031-.002-.088-.006-.186-.12-.198-.112-.012-.14.084-.162.167-.042.168-.079.338-.114.508-.143.684-.529 1.123-1.22 1.24a9.298 9.298 0 01-2.971.012c-.51-.078-.819-.398-.897-.942a8.607 8.607 0 01-.084-1.24c-.002-1.124.008-2.248.019-3.371l.011-1.268c0-.02.002-.039 0-.058-.023-.196.073-.24.251-.242.863-.009 1.725.025 2.586.077 1.007.06 1.282.356 1.338 1.365l.001.028c.004.102.009.212.138.212.17 0 .173-.16.176-.275v-.005c.016-.85.067-1.697.236-2.533.017-.084.021-.184-.071-.232-.084-.044-.152.016-.194.078-.313.45-.79.462-1.249.474h-.033c-.508.014-1.016.016-1.524.017-.45.001-.9.003-1.349.012-.265.006-.315-.094-.312-.336.009-.657.008-1.313.006-1.968zM70.806 24.226v-1.362c0-1.344.001-2.688-.003-4.033a4.32 4.32 0 00-.096-.919c-.076-.346-.29-.555-.618-.647a3.055 3.055 0 00-.813-.118c-.107 0-.227-.003-.22-.156.006-.127.116-.14.213-.139l.464.005c.538.005 1.075.01 1.611.031.227.01.454.019.681.018.407-.002.814 0 1.22.002a65.293 65.293 0 003.197-.041c.327-.012.652-.024.963-.163.163-.073.258.04.22.184-.13.498-.164 1.007-.199 1.515-.019.28-.038.56-.073.838-.012.099-.05.206-.162.207-.13.001-.149-.116-.165-.22l-.001-.01a.433.433 0 01-.003-.075v-.04c-.028-.861-.35-1.2-1.194-1.324-.337-.05-.675-.057-1.014-.066a11.364 11.364 0 01-.714-.031 7.88 7.88 0 00-.828-.015l-.338.003c-.371-.001-.373 0-.373.392v4.748c.002.245.003.489-.004.733-.006.208.062.285.279.28.37-.007.74-.007 1.11-.006.691.001 1.382.002 2.073-.05.379-.027.735-.086.98-.426.053-.072.13-.133.22-.095.11.047.089.156.07.245l-.001.01c-.16.797-.212 1.605-.23 2.417v.026c0 .02.002.042-.005.06-.01.029-.013.063-.018.098-.011.096-.023.195-.153.183-.14-.013-.143-.148-.145-.267v-.037c-.027-.913-.354-1.255-1.246-1.295l-1.124-.046c-.496-.02-.991-.04-1.487-.063-.223-.01-.325.051-.323.304.007 1.144.009 2.288.01 3.433v.002l.005 1.989c0 .134.017.27.042.401.127.678.365.943 1.032 1.041.885.13 1.779.135 2.662-.004.913-.143 1.267-.529 1.446-1.458l.013-.069c.017-.09.034-.182.06-.27.024-.084.067-.17.178-.145.092.02.094.097.095.17v.016c.013.396-.042.785-.098 1.175-.016.116-.033.233-.047.35a6.299 6.299 0 01-.143.736c-.059.236-.207.378-.461.4-.63.056-1.26.042-1.89.027a83.455 83.455 0 00-.353-.007 12.57 12.57 0 01-.338-.012 15.4 15.4 0 00-.372-.012c-.434-.006-.868-.022-1.303-.038-.882-.031-1.764-.063-2.647-.018l-.137.007c-.228.012-.457.025-.684.02-.113-.002-.282-.013-.274-.184.007-.133.118-.134.218-.136l.053-.001c.74-.046.91-.178 1.043-.917.128-.714.138-1.44.141-2.163.006-1.182.005-2.363.004-3.544l-.001-1.445h-.005zm26.873 1.209l.002-1.586h-.006v-1.315c0-1.496.001-2.991-.004-4.487 0-.21.044-.293.266-.281.226.012.452.012.678.01.144 0 .288 0 .431.003.188.004.375.004.563.005.693.001 1.386.003 2.068.174.638.16 1.111.473 1.082 1.201-.002.03.007.061.015.092a.462.462 0 01.012.05c.003.013.004.026.006.04.013.085.026.175.136.175.139.001.153-.119.156-.23l.023-.896.039-1.45c.006-.208-.066-.27-.276-.22a7.323 7.323 0 01-1.634.183c-1.55.01-3.1.007-4.65.005l-.927-.001-.736.002c-.883.005-1.765.01-2.646-.06-.064-.006-.129-.01-.193-.014-.342-.022-.686-.045-1-.207-.236-.122-.348-.043-.414.194-.204.733-.348 1.48-.49 2.228-.019.098-.021.205.096.24.101.03.157-.05.199-.128.031-.058.056-.12.08-.18l.002-.004c.304-.748.843-1.107 1.645-1.15a37.32 37.32 0 011.922-.04 48.897 48.897 0 001.517-.022c.227-.008.29.063.289.293-.005 2.147-.007 4.295-.01 6.442 0 1.72-.002 3.441-.005 5.162-.002.666-.022 1.333-.183 1.984-.083.335-.256.579-.634.598-.087.005-.174.018-.26.03a3.118 3.118 0 01-.161.023h-.007c-.085.01-.169.02-.183.132-.016.136.086.165.179.174.16.017.322.029.481.018a29.864 29.864 0 013.58 0c.235.012.473-.004.709-.02.1-.007.227-.03.213-.177-.01-.114-.102-.12-.19-.125l-.03-.002c-.127-.01-.254-.021-.38-.033l-.328-.028c-.532-.043-.768-.242-.881-.771-.135-.627-.142-1.269-.15-1.904v-.114a278.123 278.123 0 01-.011-4.013zm-11.785-8.872c.565-.044 1.153.075 1.748.196l.328.066.027.007.028.008h.002c.515.093.526.095.467.635-.041.373-.042.747-.042 1.12 0 .148 0 .296-.004.443v.094a2.223 2.223 0 01-.013.29c-.006.119-.014.253-.153.264-.156.012-.162-.12-.168-.236v-.001a.688.688 0 00-.004-.066c-.153-1.493-1.09-1.926-2.293-2.057-.626-.069-1.253-.039-1.827.28-1.194.666-1.575 2.284-.812 3.467.438.68 1.04 1.201 1.64 1.722l.04.035c.267.231.54.452.815.673.447.36.893.72 1.305 1.123.768.75 1.441 1.568 1.716 2.648.605 2.378-.581 5.055-3.538 5.536-1.257.205-2.49.122-3.682-.372-.475-.197-.522-.274-.526-.801-.004-.676.043-1.349.09-2.022l.023-.32a.617.617 0 01.03-.141c.027-.086.063-.174.17-.16.106.013.124.104.129.196l.004.202c.001.146.002.292.026.434.212 1.258 1.082 2.07 2.343 2.238.841.112 1.654.066 2.383-.413 1.383-.91 1.653-2.894.599-4.319-.542-.73-1.23-1.31-1.919-1.887l-.287-.24c-.867-.721-1.735-1.443-2.353-2.415-.875-1.376-1.04-2.835-.287-4.31.584-1.145 1.625-1.65 2.83-1.857.367-.063.736-.07 1.165-.06zM36.337 53.185c.83.373 1.701.511 2.599.52.333.014.663-.015.992-.063.896-.13 1.74-.407 2.431-1.026 1.716-1.533 1.977-4.148.622-6.028-.664-.922-1.518-1.638-2.386-2.342l-.131-.106c-.787-.638-1.576-1.277-2.188-2.104-.912-1.234-.608-3.397 1.286-3.852a3.687 3.687 0 012.365.218c.63.271 1.015.755 1.113 1.459l.012.092c.015.113.03.225.055.336l.004.02c.019.086.04.189.154.19.103 0 .122-.081.14-.158l.014-.054a.367.367 0 00.01-.117v-.027c0-.676.01-1.352.058-2.027.032-.443.018-.444-.425-.482h-.003a1.601 1.601 0 01-.224-.035c-.986-.227-1.98-.338-2.987-.198-.995.138-1.89.502-2.562 1.294-.828.973-.988 2.12-.76 3.345.224 1.199.956 2.083 1.787 2.893.416.404.862.774 1.307 1.144.319.265.637.53.945.806.619.558 1.233 1.13 1.555 1.933.536 1.335.222 2.915-1.066 3.687-.704.422-1.472.468-2.258.356-.755-.107-1.424-.393-1.904-1.03-.393-.521-.531-1.121-.515-1.768l.001-.036c.005-.093.01-.197-.124-.216-.157-.021-.176.108-.19.21l-.004.02a6.12 6.12 0 00-.055.633c-.026.637-.05 1.274-.064 1.91-.006.287.124.48.396.603zm85.837-2.322c.017-.22.035-.45.04-.678.001-.042.011-.084.02-.125l.005-.018.008-.039c.021-.102.043-.21.187-.19.126.018.119.114.113.203l-.002.053c.001.74.173 1.42.693 1.965.477.5 1.081.74 1.744.828.775.102 1.538.074 2.232-.352 1.097-.672 1.456-1.76 1.281-2.985-.143-1-.764-1.702-1.45-2.358-.38-.363-.783-.698-1.187-1.034a29.89 29.89 0 01-.874-.745c-.961-.86-1.885-1.766-2.216-3.086-.371-1.474-.16-2.825.987-3.906.643-.605 1.438-.88 2.289-.997.999-.139 1.984-.023 2.96.2.065.014.13.026.196.032h.002c.472.046.481.047.456.543l-.006.117c-.031.607-.062 1.214-.05 1.823a.71.71 0 01-.018.201l-.007.025c-.019.075-.041.16-.142.158-.107-.001-.128-.096-.145-.176l-.002-.01a6.332 6.332 0 01-.075-.455c-.11-.811-.596-1.292-1.327-1.539-.81-.272-1.635-.345-2.452-.038-1.514.568-1.715 2.214-1.275 3.235.323.75.914 1.274 1.5 1.795l.063.056c.333.296.676.58 1.02.862.703.579 1.405 1.157 2.015 1.846 1.43 1.616 1.675 3.785.586 5.595-.643 1.068-1.626 1.661-2.809 1.897-1.327.264-2.638.192-3.907-.334-.439-.181-.486-.252-.486-.73l-.001-.492.001-.313c-.013-.25.009-.535.033-.834zm-33.497-6.998l-.001 1.89c-.007.456-.003.996.002 1.591.01 1.194.021 2.612-.054 4.029-.02.385-.063.768-.168 1.141-.095.34-.321.508-.656.546l-.237.03-.214.026c-.063.007-.113.037-.125.099a.134.134 0 00.096.158c.08.024.167.039.25.037a78.35 78.35 0 001.362-.048c.54-.024 1.08-.002 1.62.02.463.02.927.04 1.391.029.104-.002.21-.006.31-.027.076-.016.14-.066.13-.164-.01-.09-.077-.1-.144-.107a31.002 31.002 0 00-.594-.05c-.762-.057-.981-.257-1.096-1.017a8.703 8.703 0 01-.1-1.269c-.009-2.155-.016-4.31-.016-6.465 0-1.702.003-3.403.024-5.103.012-.902.252-1.149 1.11-1.246l.026-.002c.02-.002.04-.003.059-.008a.595.595 0 01.06-.013c.084-.014.17-.029.155-.155-.016-.135-.136-.149-.241-.15l-.228-.001a8.957 8.957 0 00-.767.013 14.62 14.62 0 01-2.185 0 8.803 8.803 0 00-.738-.014l-.286.002c-.118 0-.25.018-.257.165-.006.123.098.137.188.15l.044.006c.055.01.111.012.167.014.04.001.078.002.116.006.553.056.8.265.904.824.058.31.087.632.088.948.006 1.275.005 2.549.005 4.115z"/></g></g></svg>