<svg width="80" height="80" fill="none" xmlns="http://www.w3.org/2000/svg"><mask id="a" maskUnits="userSpaceOnUse" x="0" y="0" width="80" height="80"><path fill="#C4C4C4" d="M0 0h80v80H0z"/></mask><g mask="url(#a)" fill="#515151"><path d="M55.028 35.785c.456.7.425 1.611.517 2.432-.031 1.733.121 3.8-.183 5.564-.152.73-.638 1.49-1.398 1.763-1.216.547-2.858.395-3.983-.243-.943-.669-1.064-1.794-1.186-2.858-.09-2.098-.243-4.317.335-6.232.456-1.186 1.702-1.49 2.827-1.581 1.186 0 2.341.182 3.07 1.155z"/><path d="M0 71.324V9h67.796v62.324H0zM35.753 16.45c-.821-.091-1.824-.122-2.706-.03-.334-.031-.73 0-1.125.03-7.296.577-14.015 4.377-18.21 10.853.303-.03.668.091.972-.03a28.089 28.089 0 012.463-3.01c.79-.76 1.52-1.49 2.371-2.037.79.517 1.672.942 2.432 1.429-.942 1.186-1.915 2.371-2.614 3.648.212.091.608.06.912 0 .76-1.125 1.58-2.25 2.553-3.253 1.308.487 2.585 1.003 3.922 1.368l.122.122-.76 1.763c.334.06.547.03.882 0 .273-.517.486-1.094.79-1.611 1.763.395 3.618.608 5.503.669.243.212.06.669.152.942h.82c.092-.304-.03-.638.092-.912 1.763-.091 3.618-.274 5.32-.7l.152.031.82 1.581c.275 0 .64.06.852-.06l-.76-1.764.06-.06c1.4-.366 2.707-.913 4.045-1.46.942 1.003 1.824 2.189 2.614 3.344.334 0 .669.03.912-.06a11.84 11.84 0 00-1.307-1.916 13.175 13.175 0 00-1.338-1.642v-.152l2.128-1.246.304-.122a22.384 22.384 0 014.804 5.077c.365 0 .669.122.973-.03C49.829 21.01 43.11 17.027 35.844 16.45l-.03.06-.061-.06zm3.131 1.368v.06c-2.645 1.946-6.931 2.129-9.729.335-.152-.122-.456-.182-.486-.395 3.223-.76 7.023-.821 10.215 0zm8.36 3.709l-.06.121-2.098 1.186h-.152c-1.611-1.642-3.496-3.07-5.411-4.195.06-.213.364-.365.577-.517 2.554.669 4.956 1.824 7.145 3.405zm-19.153-2.888c-1.884 1.185-3.739 2.584-5.442 4.286-.82-.304-1.58-.76-2.31-1.277v-.06c1.915-1.43 4.044-2.493 6.293-3.223.091-.091.152-.182.274-.182v.06c.243.061.425-.212.638-.03.183.152.395.274.547.426zm15.962 4.59l-.061.091c-1.186.517-2.402 1.004-3.71 1.277a51.44 51.44 0 00-3.13-4.773c.425-.243.942-.425 1.398-.669 1.976 1.004 3.891 2.433 5.503 4.074zm-13.681-3.466l-.092.244c-1.155 1.459-2.067 3.04-2.98 4.59l-.12.03c-1.247-.334-2.463-.729-3.618-1.246l.06-.182c1.672-1.611 3.436-2.95 5.381-3.983.456.183.913.335 1.369.547zm2.949.578c.09 1.581.03 3.405.03 5.077-.851.122-1.611-.03-2.462-.09-.821-.123-1.855-.214-2.676-.487.882-1.672 1.915-3.284 3.162-4.774l1.946.274zm2.857-.243c1.186 1.52 2.341 3.07 3.132 4.743a21.369 21.369 0 01-5.017.608c-.06-1.612-.03-3.405 0-5.078.608-.09 1.277-.182 1.885-.273zm-2.462 10.336c-3.345-1.428-8.026-1.58-11.067.639-1.976 1.46-2.584 4.074-2.067 6.384.395 2.19 2.463 3.8 4.439 4.56 2.706.974 5.533 1.673 8.27 2.615.273.122.638.395.577.73 0 .274-.274.426-.487.547-2.857.79-5.958.183-8.026-2.006-.243-.304-.395-.67-.638-.973l-4.104.03c-.061 2.463-.092 5.29 0 7.722l4.56-.03.06-1.46c.517.244 1.034.548 1.551.822 3.162 1.337 7.236 1.641 10.367 0 2.28-1.277 3.496-3.74 3.162-6.385-.334-2.584-2.767-4.925-5.229-5.563l-7.357-2.16-.548-.273c-.243-.213-.395-.486-.334-.82.578-1.004 1.915-.7 2.919-.67 2.128.305 4.317 1.034 5.563 3.01 1.338 0 2.888.03 4.348-.03.06-2.493-.03-4.682-.061-7.205-1.368-.03-3.04-.03-4.409.03-.06.365.061.882-.09 1.247l-1.4-.76zm25.78.974c-3.952-2.554-9.971-2.737-14.045-.426-2.22 1.155-3.678 3.435-4.135 5.776-.82 3.861-.608 8.452 2.31 11.34 3.406 3.04 8.361 3.71 12.77 2.463.209-.042.874-.213 1.33-.46l.129-.057c1.368-.578 2.675-1.52 3.648-2.797 2.25-3.345 2.402-8.36 1.034-12.13-.547-1.46-1.672-2.767-3.04-3.71zM7.845 29.582l-1.885.03c-.03 1.612-.03 3.497 0 5.139 1.033.03 2.006 0 3.01.09v10.337l-.03.426-3.01.06a68.968 68.968 0 000 5.017h13.407v-5.016c-1.004-.06-2.128.03-3.101-.091l.03-10.671.06-.092 3.01-.03c.031-1.733.061-3.587-.03-5.168l-11.461-.03zM27.12 52.931c-.304 0-.639-.06-.852.03l.76 1.794-.09.091a37.058 37.058 0 00-4.014 1.43l-.121-.062c-.852-.942-1.673-1.976-2.341-3.01-.153-.516-.76-.212-1.095-.273.73 1.338 1.703 2.523 2.675 3.74-.82.486-1.641 1.033-2.493 1.428a22.053 22.053 0 01-4.803-5.138c-.365-.06-.608-.03-.973 0 2.189 3.466 5.594 6.506 9.151 8.3 0 0 0-.03.03-.03s.092.06.03.091c2.403 1.186 4.956 2.037 7.662 2.402 9.334 1.246 18.241-2.797 23.41-10.763a5.215 5.215 0 00-.973 0c-1.277 1.855-2.889 3.649-4.652 5.047-.06.091-.243.06-.304-.03-.76-.487-1.58-.882-2.31-1.368.973-1.186 1.915-2.372 2.645-3.679h-.943c-.76 1.125-1.55 2.31-2.553 3.314-1.338-.547-2.554-1.034-3.922-1.399l-.152-.121c.213-.608.608-1.186.73-1.794H40.8l-.82 1.642c-1.794-.395-3.77-.608-5.594-.73-.092-.274.03-.669-.092-.912h-.79c-.06.365.091.638-.091.943a35.41 35.41 0 00-5.473.668l-.82-1.611zm6.384 6.992c-.638.152-1.338.152-1.946.304-1.246-1.489-2.28-3.1-3.162-4.773l.152-.121c1.581-.304 3.223-.547 4.926-.547l.03 5.137zm5.99-4.53l.03.092c-.852 1.641-1.916 3.222-3.07 4.712-.518.061-1.004-.152-1.521-.182l-.517-.06c-.06-1.795-.091-3.376 0-5.17 1.733.031 3.466.213 5.077.609zm-12.01.274c.882 1.672 1.976 3.253 3.071 4.834-.426.243-.942.395-1.368.639a20.505 20.505 0 01-5.533-4.074v-.092c1.186-.577 2.432-1.003 3.709-1.337l.121.03zm16.722 1.277c-.973 1.125-2.22 2.098-3.375 2.919-.7.425-1.399.881-2.128 1.246l-1.307-.578.09-.212a36.897 36.897 0 002.92-4.621l.09-.061c1.308.304 2.554.73 3.71 1.307zm3.252 1.733c-1.702 1.368-3.678 2.28-5.684 3.04l-1.43.456c-.243-.121-.456-.304-.668-.486l.06-.091c1.946-1.156 3.71-2.554 5.382-4.226.82.334 1.61.79 2.34 1.307zm-19.274 3.01a2.382 2.382 0 01-.608.486c-2.554-.669-4.925-1.824-7.114-3.405v-.091c.73-.456 1.459-.943 2.25-1.277 1.732 1.733 3.526 3.04 5.472 4.287zm10.883.7c.092.181-.152.12-.212.181-3.223.7-6.81.73-10.033-.06-.06-.152.152-.183.243-.274 2.828-1.855 7.236-1.855 10.002.152zm35.525-52.032c1.014 0 1.93.236 2.75.707a5.101 5.101 0 011.951 1.952c.471.819.707 1.73.707 2.735 0 1.003-.24 1.925-.722 2.765a5.381 5.381 0 01-4.717 2.689 5.38 5.38 0 01-2.75-.722 5.363 5.363 0 01-1.952-1.967 5.442 5.442 0 01-.706-2.735c0-.993.235-1.905.706-2.735a5.327 5.327 0 011.967-1.966c.83-.482 1.752-.723 2.766-.723zm-.031 10.003c.85 0 1.618-.205 2.305-.615a4.483 4.483 0 001.644-1.66c.4-.706.599-1.484.599-2.334 0-.85-.195-1.619-.584-2.305a4.288 4.288 0 00-1.613-1.644c-.687-.4-1.46-.6-2.32-.6-.86 0-1.64.205-2.336.615-.696.4-1.244.948-1.644 1.644a4.675 4.675 0 00-.584 2.32c0 .85.195 1.624.584 2.32.4.697.943 1.25 1.629 1.66.696.4 1.47.599 2.32.599zm2.812-5.5c0 .45-.108.834-.323 1.152a1.906 1.906 0 01-.891.722l1.352 2.074H76.19l-1.199-1.844h-1.367v1.844h-1.322v-6.054h2.52c.789 0 1.409.19 1.86.569.46.379.69.891.69 1.536zm-2.628 1.075c.43 0 .763-.092.999-.277.236-.194.353-.46.353-.799 0-.338-.117-.599-.353-.783-.236-.185-.569-.277-.999-.277h-1.137v2.136h1.137z"/></g></svg>