<svg width="80" height="80" fill="none" xmlns="http://www.w3.org/2000/svg"><mask id="a" maskUnits="userSpaceOnUse" x="0" y="0" width="80" height="80"><path fill="#C4C4C4" d="M0 0h80v80H0z"/></mask><g mask="url(#a)" fill="#6C6C6C"><path fill-rule="evenodd" clip-rule="evenodd" d="M32.593 37.394c-3.948-.038-7.674 1.513-9.95 4.82-1.858 2.698-2.743 6.28-2.743 10.172 0 3.759.885 6.81 2.389 9.154l.029-.044c2.124 3.2 5.473 4.953 9.523 4.953 9.287 0 12.515-8.005 12.515-14.948-.044-5.66-2.344-13.974-11.764-14.107zm-.487 23.394c-1.813 0-3.051-1.327-3.582-3.493-.31-1.46-.354-3.008-.354-4.511 0-2.742.177-6.368 1.194-8.137.752-1.239 1.946-1.725 2.875-1.725 1.946 0 2.963 1.592 3.36 3.317.399 1.724.487 4.776.487 6.014 0 3.98-.575 8.535-3.98 8.535z"/><path fill-rule="evenodd" clip-rule="evenodd" d="M50.414 37.394c-3.947-.038-7.673 1.513-9.95 4.82-1.857 2.698-2.742 6.28-2.742 10.172 0 3.759.885 6.81 2.389 9.154l.029-.044c2.124 3.2 5.473 4.953 9.523 4.953 9.287 0 12.515-8.005 12.515-14.948-.044-5.66-2.344-13.974-11.764-14.107zm-.486 23.394c-1.813 0-3.051-1.327-3.582-3.493-.31-1.46-.354-3.008-.354-4.511 0-2.742.177-6.368 1.194-8.137.752-1.239 1.946-1.725 2.875-1.725 1.946 0 2.963 1.592 3.36 3.317.399 1.724.487 4.776.487 6.014 0 3.98-.575 8.535-3.98 8.535z"/><path fill-rule="evenodd" clip-rule="evenodd" d="M68.237 37.394c-3.948-.038-7.674 1.513-9.95 4.82-1.858 2.698-2.743 6.28-2.743 10.172 0 3.759.885 6.81 2.389 9.154l.029-.044c2.124 3.2 5.473 4.953 9.523 4.953C76.772 66.449 80 58.444 80 51.5c-.044-5.66-2.344-13.974-11.763-14.107zm-.487 23.394c-1.813 0-3.051-1.327-3.582-3.493-.31-1.46-.354-3.008-.354-4.511 0-2.742.177-6.368 1.194-8.137.752-1.239 1.946-1.725 2.875-1.725 1.946 0 2.963 1.592 3.36 3.317.399 1.724.487 4.776.487 6.014 0 3.98-.575 8.535-3.98 8.535z"/><path d="M19.989 47.964c-1.68-.973-3.759-1.504-6.059-1.504-1.503 0-3.316.265-4.555.752l-.201.098a5.24 5.24 0 00-.639.344l.398-3.936h14.152l.619-5.793H3.05l-1.547 15.08 6.943.84.04-.059c.484-.706 1.171-1.71 3.365-1.71 2.874 0 4.245 1.813 4.245 4.334 0 2.167-1.194 4.334-4.113 4.334-1.68 0-3.007-.752-3.493-2.344-.221-.663-.221-1.326-.221-2.034L0 57.25l.007.033c.44 2.11.843 4.045 2.646 5.893 3.14 3.184 7.784 3.184 9.287 3.184 2.344 0 6.678-.22 9.73-3.316a7.582 7.582 0 00.874-1.035c1.278-1.754 2-4.007 2-6.218 0-3.45-1.769-6.235-4.555-7.827zM8.906 35.369v-4.694h2.744V19.007H8.906V14h14.69v5.007h-2.743v11.668h2.743v4.694H8.906zm28.009 0v-4.694h2.124v-4.873c0-1.475-1.018-2.146-2.39-2.146-1.681 0-2.964 1.252-2.964 2.95v4.024h2.212v4.65H24.393v-4.605h2.08v-7.019h-2.08v-4.649h9.07v3.219c.133-.134.31-.313.399-.447 1.681-1.923 3.54-2.593 6.062-2.593 3.495 0 6.371 1.43 6.371 5.364v6.17h1.859v4.649h-11.24z"/><path d="M66.472 25.891l-6.194.671c-.089-1.744-.443-3.576-2.523-3.576-2.655 0-2.876 2.235-2.876 4.425v.045c0 2.146.221 4.426 2.876 4.426 1.416 0 2.655-.805 2.655-2.548h6.195l-.133.536c-1.018 5.096-5.575 5.901-8.85 5.901-5.132 0-10.176-2.548-10.176-8.315 0-5.767 5.044-8.315 10.177-8.315.044-.045 8.053-.536 8.85 6.75z"/><path d="M68.64 35.413c1.442 0 2.61-1.18 2.61-2.637s-1.168-2.638-2.61-2.638-2.61 1.181-2.61 2.638c0 1.457 1.168 2.637 2.61 2.637z"/></g></svg>