<svg width="71" height="48" viewBox="0 0 71 48" fill="none" xmlns="http://www.w3.org/2000/svg"><path fill-rule="evenodd" clip-rule="evenodd" d="M0.7229 5.61588C0.7229 2.52765 3.21109 0 6.2551 0H64.6855C67.7295 0 70.22 2.52765 70.22 5.61588V42.2175C70.22 45.3026 67.7191 47.8035 64.634 47.8035H6.30892C3.22385 47.8035 0.7229 45.3026 0.7229 42.2175V5.61588ZM46.0979 23.2784H61.114C61.5829 23.2784 61.9631 22.8925 61.9631 22.416V18.3601C61.9631 17.8842 61.5829 17.4984 61.114 17.4984H46.0979C45.629 17.4984 45.2488 17.8842 45.2488 18.3601V22.416C45.2488 22.8925 45.629 23.2784 46.0979 23.2784ZM44.6693 10.5818C41.2265 10.5818 38.434 13.4154 38.434 16.9101L38.4352 36.3624C38.4352 36.8395 38.8154 37.2254 39.2855 37.2254H43.3061C43.775 37.2254 44.154 36.8395 44.154 36.3624L44.1529 18.3477C44.1529 17.2642 45.0188 16.3848 46.0864 16.3848L61.1952 16.3877C61.6629 16.3877 62.0443 16.0018 62.0443 15.5254V11.4401C62.0443 10.9642 61.6629 10.5783 61.1952 10.5783L44.6693 10.5818ZM12.8426 36.7832L23.2388 17.8309C23.7175 16.9656 24.6298 16.3821 25.6771 16.3821L29.6867 16.385C30.7555 16.385 31.6214 17.2638 31.6214 18.3479L31.6191 36.3626C31.6191 36.8391 31.9981 37.2256 32.467 37.2256H36.4882C36.9577 37.2256 37.3385 36.8391 37.3385 36.3626V16.9103C37.3385 13.415 34.5454 10.5821 31.1027 10.5821L25.6638 10.585C22.4523 10.585 19.6557 12.3868 18.2033 15.0503L6.72272 35.9721C6.65954 36.0915 6.62419 36.2279 6.62419 36.3726C6.62419 36.8415 6.99802 37.2221 7.46054 37.2221L12.1112 37.2209C12.4271 37.2209 12.7006 37.0438 12.8426 36.7832ZM24.1928 18.3843L14.5437 35.9719C14.4817 36.0914 14.4452 36.2284 14.4452 36.3731C14.4452 36.8419 14.819 37.2219 15.2804 37.2219L19.9322 37.2208C20.2481 37.2208 20.5216 37.0437 20.6636 36.7831L27.8338 23.7102C27.9764 23.4525 28.2488 23.2784 28.5606 23.2784H29.6844C30.1545 23.2784 30.5347 22.8925 30.5347 22.4161V18.3602C30.5347 17.8843 30.1545 17.4984 29.6844 17.4984H25.6806C25.0407 17.4984 24.4837 17.8555 24.1928 18.3843Z" fill="#171717"/></svg>