<svg height="38" viewBox="0 0 98 38" width="98" xmlns="http://www.w3.org/2000/svg"><path d="m96.924 11.696c-1.927 2.116-3.993 4.078-6.278 5.8-2.626 1.979-5.443 3.58-8.629 4.466-1.691.469-3.432.736-5.185.796-4.731.167-9.36-.511-13.908-1.803-2.738-.778-5.465-1.594-8.214-2.333-2.309-.62-4.662-1.058-7.039-1.309-1.723-.181-3.448-.227-5.176-.194-2.751.052-5.396.654-7.991 1.545-3.401 1.166-6.694 2.608-10.023 3.957-1.994.806-3.992 1.6-5.996 2.38-.27.106-.38.262-.387.53-.06 1.996-.082 3.988.429 5.942.136.52.179.551.725.476 1.239-.17 2.45-.47 3.662-.789.362-.09 1.155-.331 1.883-.598 1.718-.63 5.09-2.047 5.09-2.047s3.921-1.91 4.409-2.174l-.007-.002 1.79-.948c.02-.01.05-.026.067-.02.369.148.417.556.65.817.137.152.011.268-.097.364-.396.351-9.882 7.77-12.594 9.1-2.093 1.026-4.282 1.639-6.632 1.548-.83-.031-1.653-.123-2.46-.32-1.388-.337-2.288-1.262-2.92-2.499-.757-1.484-1.123-3.077-1.3-4.722-.054-.516-.11-1.034-.125-1.551-.01-.307-.094-.367-.386-.281-1.488.434-2.986.83-4.516 1.085-1.338.223-2.68.456-4.033.094-.514-.137-1.015-.304-1.377-.734-.358-.425-.455-.93-.248-1.339.063-.124.13-.244.298-.19.432.142.865.033 1.287-.023 3.062-.409 6.01-1.262 8.898-2.348.203-.076.26-.208.286-.406.366-2.872 1.163-5.624 2.273-8.29 1.183-2.846 2.81-5.405 4.822-7.732 1.594-1.845 3.35-3.497 5.389-4.829 2.033-1.327 4.267-2.074 6.686-2.266 2.175-.173 4.243.151 6.121 1.325 1.653 1.033 2.607 2.532 2.81 4.491.115 1.103.281 2.21-.06 3.306-.006.024-.009.048-.016.07-.112.358-1.632 2.885-1.998 3.316-.069.212-.287.296-.385.52.228.016.418-.041.606-.094 2.12-.603 4.274-1.024 6.467-1.22 1.842-.165 3.693-.156 5.54-.045 4.215.256 8.3 1.259 12.392 2.216 2.925.684 5.865 1.282 8.85 1.631 1.691.199 3.388.34 5.092.4.997.033 1.993.075 2.988.042 1.82-.06 3.641-.144 5.456-.334 2.138-.224 4.22-.667 6.221-1.462 1.9-.755 3.536-1.936 5.107-3.218.457-.372.907-.753 1.35-1.142.158-.137.254-.123.38.04.318.415.305.622-.044 1.005zm-64.877-6.654c-.146-.192-.338-.34-.536-.481-.325-.232-.652-.252-1.021-.11-1.002.383-1.87.978-2.684 1.667-2.09 1.767-3.627 3.982-5.012 6.313-1.475 2.48-2.678 5.114-3.59 7.855-.038.116-.074.232-.11.349l1.972-.841 3.754-1.82-.02-.015c.588-.285 1.175-.569 1.761-.857 1.77-.869 3.547-1.728 5.058-3.036.419-.363.811-.754 1.168-1.18.074-.086.17-.114.674-1.015.1-.18.17-.764.204-1.152.179-2.095-.34-4-1.618-5.677zm12.723 22.62h-2.89v1.526h2.737v.898h-2.737v1.696h3.04v.949h-4.1v-6h3.949v.931zm2.955 2.823c0 .175.023.348.068.521s.12.326.223.462c.104.136.242.246.413.33.171.085.383.128.635.128.253 0 .465-.043.636-.127.172-.085.309-.195.413-.331.105-.137.18-.294.223-.462.045-.173.067-.346.067-.521v-3.755h1.061v3.797c0 .362-.061.688-.184.979-.124.291-.293.539-.506.741-.218.207-.476.367-.758.471-.305.112-.627.168-.952.165-.324.003-.646-.053-.95-.165-.284-.104-.543-.264-.763-.47-.22-.208-.392-.461-.505-.742-.125-.31-.187-.644-.182-.98v-3.796h1.061zm8.937-3.666c.265.06.5.157.704.293.205.136.369.313.493.533.123.221.185.49.185.806 0 .435-.122.79-.366 1.064s-.577.458-.999.554l1.592 2.662h-1.28l-1.38-2.543h-1.064v2.543h-1.06v-6h2.359c.28 0 .553.03.816.088zm-2.115.81v1.686h1.156c.151 0 .303-.011.454-.033.152-.023.289-.066.41-.128.12-.062.222-.154.298-.267.083-.132.125-.288.118-.444.006-.143-.032-.283-.11-.403-.072-.104-.167-.189-.277-.25-.12-.065-.25-.108-.383-.128-.138-.022-.278-.033-.417-.034h-1.249zm5.901-.204c.291-.276.635-.49 1.01-.627.41-.15.842-.224 1.277-.22.466 0 .895.074 1.289.22.393.147.732.356 1.018.627.287.271.51.6.67.988.16.387.24.82.24 1.3 0 .47-.08.898-.24 1.284-.152.377-.38.717-.67 1-.292.285-.639.506-1.018.653-.411.159-.849.238-1.289.233-.436.004-.87-.075-1.276-.233-.377-.147-.721-.369-1.01-.652-.288-.285-.514-.625-.666-1-.164-.408-.245-.845-.24-1.284 0-.48.08-.914.24-1.301.16-.388.382-.717.665-.988zm.396 3.174c.098.268.239.502.421.7.183.197.399.351.649.46.25.112.526.167.83.167.302 0 .58-.055.833-.166.248-.106.47-.264.653-.462.183-.197.322-.43.421-.7.098-.267.147-.563.147-.884 0-.31-.049-.6-.147-.865-.093-.256-.235-.492-.417-.695-.182-.199-.403-.357-.649-.466-.265-.116-.552-.173-.842-.17-.308 0-.588.057-.838.17s-.465.269-.644.466c-.182.202-.324.438-.417.695-.1.277-.15.57-.147.865 0 .321.049.617.147.885zm7.79 1.2c.245.118.485.178.72.178.124 0 .25-.016.38-.047.129-.031.245-.084.349-.157.103-.074.188-.165.253-.276.068-.126.101-.267.096-.41.006-.14-.033-.278-.109-.394-.079-.11-.179-.203-.295-.272-.138-.083-.285-.15-.438-.199l-.53-.178c-.184-.058-.364-.126-.54-.203-.177-.078-.34-.184-.484-.314-.147-.135-.265-.298-.35-.479-.09-.189-.133-.424-.133-.707 0-.305.062-.568.188-.789.124-.216.294-.403.498-.546.204-.144.437-.252.698-.322.261-.071.527-.106.796-.106.303 0 .61.054.923.161.301.102.578.266.813.483l-.691.763c-.128-.159-.29-.285-.476-.369-.307-.152-.658-.188-.99-.102-.119.03-.233.078-.337.144-.1.065-.185.152-.248.255-.067.114-.1.245-.096.377 0 .136.027.251.083.347.058.099.138.183.232.246.098.068.218.127.358.178s.294.102.463.153c.191.062.389.133.594.212s.393.183.564.313c.172.13.312.294.421.491.11.198.164.444.164.738 0 .322-.058.603-.176.843-.112.232-.273.436-.472.597-.205.163-.44.284-.69.357-.272.08-.552.12-.835.118-.387 0-.766-.072-1.136-.216-.353-.131-.666-.351-.91-.64l.758-.712c.146.204.341.365.586.484zm8.653-4.137h-1.827v5.069h-1.061v-5.069h-1.829v-.932h4.716v.932zm3.732-.932 2.569 6h-1.213l-.556-1.372h-2.586l-.539 1.373h-1.187l2.594-6h.918zm.43 3.712-.919-2.44-.935 2.44h1.853zm6.663-3.623c.263.06.498.157.703.293.204.136.369.313.493.533.123.221.184.49.184.806 0 .435-.122.79-.366 1.064s-.577.458-.997.554l1.59 2.662h-1.279l-1.381-2.543h-1.063v2.543h-1.061v-6h2.36c.28 0 .552.03.817.088zm-2.116.81v1.686h1.156c.15 0 .303-.011.454-.033.152-.023.288-.066.408-.128.121-.062.224-.154.3-.267.083-.132.124-.288.117-.444.007-.143-.032-.284-.109-.403-.072-.104-.167-.19-.278-.25-.12-.065-.249-.108-.383-.128-.138-.022-.277-.033-.417-.034h-1.248zm5.193-.679h-.365v1.03h-.311v-1.03h-.365v-.268h1.041zm1.043.565h.008l.28-.833h.451v1.299h-.306l.008-.92h-.006l-.335.92h-.22l-.325-.92h-.006l.007.92h-.293v-1.3h.443z" fill-rule="evenodd"/></svg>