<svg xmlns="http://www.w3.org/2000/svg" width="98" height="38" viewBox="0 0 98 38"><g fill="#171717" fill-rule="evenodd"><path d="M18.962 20.796c-.73-.748-1.463-1.494-2.19-2.245-.105-.108-.154-.032-.22.035-.706.722-1.414 1.443-2.12 2.163-.04.04-.084.093-.097.137h4.676c-.03-.044-.035-.076-.049-.09zm-2.315 2.544c.004-.026.007-.051-.015-.07.022.019.02.044.015.07zm-.26-.062c.078 0 .158.013.232-.03-.402-.394-.808-.817-1.206-1.233-.36-.377-.752-.717-1.08-1.127-.039.006-.063-.015-.09-.043-.73-.75-1.463-1.495-2.187-2.25-.118-.122-.178-.105-.285.006-.683.705-1.372 1.403-2.058 2.105-.041.042-.107.092-.097.18h4.697c-.813.83-1.579 1.6-2.344 2.374.008.006.01.015.002.023l.092.015c.32-.004.642-.014.962-.015l3.362-.005zm.045.048l.048-.003-.048.003zm-1.82 2.742c-.31-.314-.311-.31-.628.012-.668.677-1.335 1.365-2.031 2.065h4.696c-.703-.744-1.37-1.4-2.037-2.077zm-5.005 4.526h4.63c-.026-.132-.09-.14-.14-.19-.68-.696-1.365-1.396-2.039-2.098-.12-.126-.177-.094-.28.012-.678.699-1.361 1.396-2.041 2.092-.048.05-.114.096-.13.184zm2.398 2.532c-.032-.033-.056-.092-.12-.07 0-.025 0-.052-.016-.07.016.018.016.041.015.067-.002.024-.013.028-.036.02-.749.772-1.498 1.544-2.27 2.33h4.663c-.04-.043-.06-.069-.085-.094-.716-.732-1.433-1.453-2.15-2.183zm4.487-.089c-.03.005-.063 0-.095-.002.032.002.064.007.095.002zm-11.68 2.405h4.682c-.048-.062-.063-.087-.083-.107l-2.167-2.21c-.032-.032-.056-.092-.12-.061l-.034.02c-.514.528-1.028 1.055-1.54 1.584-.248.256-.492.516-.737.774zm2.152-2.414c-.022 0-.045.001-.068.004.023-.003.046-.005.068-.004zm-4.462-.112c-.025.026-.08.058-.003.091.348-.004.696-.012 1.045-.012 1.103-.002 2.207-.001 3.31-.002.078 0 .157.014.232-.023-.735-.751-1.47-1.502-2.204-2.255-.066-.067-.114-.118-.206-.023-.723.744-1.45 1.483-2.174 2.224zM.066 30.55h4.631c-.024-.044-.03-.058-.045-.072-.72-.737-1.444-1.465-2.161-2.205-.097-.1-.148-.058-.222.017-.695.712-1.393 1.417-2.09 2.128-.033.035-.062.088-.113.132zm.043-4.854h4.607c-.053-.044-.072-.09-.096-.114-.71-.725-1.425-1.438-2.131-2.169-.103-.106-.145-.054-.216.018-.693.71-1.39 1.413-2.083 2.123-.037.038-.098.055-.081.142zm.136-4.819c1.428.001 2.855 0 4.283-.001.052 0 .127.03.152-.037.024-.065-.05-.096-.087-.135-.69-.706-1.383-1.41-2.07-2.12-.096-.097-.151-.109-.252-.002-.382.402-.773.796-1.164 1.19-.344.347-.692.69-1.046 1.042.083.08.137.063.184.063zm3.222-3.502c-.338.342-.678.669-1.052 1.062H7.08c-.01-.044-.011-.053-.02-.062-.731-.747-1.464-1.499-2.192-2.249-.096-.098-.138-.04-.203.026-.398.408-.797.818-1.197 1.223zm1.493-1.532c-.037.038-.097.058-.088.145h4.606c-.077-.087-.12-.14-.168-.19-.67-.685-1.345-1.363-2.01-2.054-.126-.131-.189-.103-.299.011-.677.7-1.36 1.391-2.04 2.088zm6.896 7.413c-.736-.753-1.476-1.502-2.206-2.262-.123-.128-.172-.049-.249.03-.62.634-1.243 1.267-1.864 1.9-.096.098-.193.195-.286.296-.07.076 0 .074.048.082.328-.005.656-.014.984-.015 1.122-.002 2.244 0 3.365-.001.07 0 .144.016.208-.03zm-4.615 4.889h4.613c-.028-.044-.039-.073-.057-.091-.72-.736-1.443-1.474-2.16-2.214-.098-.1-.146-.057-.22.02-.56.574-1.12 1.147-1.684 1.717-.174.176-.357.345-.536.516.015.016.03.008.044.052zm-2.35-2.279c-.092-.095-.168-.11-.247-.021-.673.754-1.409 1.444-2.103 2.176-.03.032-.09.036-.06.124h4.603c-.12-.219-.292-.337-.437-.485-.587-.597-1.176-1.191-1.757-1.794zm-.054-4.98h4.666c-.059-.088-.09-.11-.123-.144-.691-.706-1.387-1.415-2.07-2.129-.133-.138-.2-.11-.318.012-.672.695-1.352 1.386-2.027 2.077-.048.049-.116.096-.128.184zm.098.158c-.123-.128-.19-.136-.317-.004-.674.7-1.357 1.39-2.037 2.085-.04.04-.09.08-.11.13-.021.054.041.034.068.045.284-.004.568-.013.853-.013 1.138-.002 2.276-.001 3.415 0 .063 0 .127.008.19.013.217-.066.01-.128-.013-.152-.68-.703-1.37-1.398-2.05-2.104zm1.506 2.283l.161.006-.16-.006zm2.97 2.294c-.722-.737-1.446-1.473-2.164-2.214-.095-.099-.135-.046-.2.02l-2.15 2.197c-.027.028-.074.028-.045.116h4.643c-.043-.088-.061-.095-.085-.119zm-4.562 4.973h4.628c-.041-.088-.054-.092-.073-.111-.72-.737-1.444-1.477-2.16-2.217-.11-.113-.154-.027-.218.038L4.982 30.39c-.05.052-.12.071-.133.203zm2.267 2.405c.008.015.009.032.008.05 0-.018 0-.035-.008-.05zm4.587.031c-.023 0-.046.003-.069.004l.069-.004zm-.109-.037c.085 0 .172.019.253-.021-.725-.742-1.453-1.481-2.172-2.23-.116-.12-.175-.108-.284.005-.692.714-1.391 1.42-2.087 2.13-.032.034-.084.06-.073.123l4.363-.007zm2.433-7.532c-.692-.705-1.38-1.408-2.07-2.116-.034.012-.068.028-.102.04-.757.773-1.515 1.524-2.297 2.355h4.667c.019-.044.038-.056.057-.08-.086-.062-.181-.125-.255-.2zm-4.393-9.332c-.104-.106-.154-.037-.222.033-.393.402-.787.807-1.182 1.207-.338.343-.677.675-1.052 1.068h4.675c-.029-.044-.04-.073-.059-.091-.72-.737-1.443-1.477-2.16-2.217zm.906-1.134c-.312.317-.627.632-.954.961.105.068.178.05.247.05 1.335 0 2.67.002 4.005-.003.12 0 .301.074.35-.047.04-.098-.143-.174-.225-.26-.62-.644-1.247-1.28-1.866-1.924-.131-.136-.216-.166-.366-.002-.383.421-.79.82-1.19 1.225zm3.853 1.133c-.103-.106-.15-.038-.22.034-.458.47-.917.943-1.376 1.41l-.847.865h4.657c-.034-.087-.048-.084-.068-.104-.716-.73-1.433-1.47-2.146-2.205zm2.533 2.084c-.047.048-.134.092-.094.176.037.08.127.047.194.047.615.002 1.23.007 1.844-.002.15-.002.193.035.193.19-.002.685-.026 1.37.015 2.054.009.144-.045.246-.143.345-.675.683-1.346 1.369-2.017 2.056-.062.064-.15.111-.168.214l-.015.044.015-.044 2.167.008.094.001c.026-.01.037 0 .038.028.003.59-.037 1.184.022 1.768.024.24-.005.438-.08.615-.017-.081-.074-.115-.116-.158-.362-.37-.73-.736-1.089-1.11-.351-.367-.731-.705-1.052-1.103-.03.005-.06.013-.089.018-.001.023-.013.035-.033.028-.749.77-1.497 1.522-2.277 2.353h4.653c-.078.175-.202.322-.368.479-.645.606-1.254 1.243-1.887 1.882.087.077.168.05.24.05.636.002 1.272.001 1.908 0 .097 0 .18-.01.18.139-.004.728.002 1.457.004 2.185 0 .02-.01.04-.025.092-.087-.085-.163-.155-.235-.229-.667-.68-1.334-1.36-1.999-2.041-.067-.07-.111-.144-.217-.035-.728.752-1.462 1.498-2.193 2.247-.024.024-.042.054-.062.082-.044.036-.092.07-.131.11-.709.72-1.416 1.44-2.122 2.163-.037.038-.099.065-.086.137l4.564.005.09-.008c-.73-.742-1.451-1.483-2.174-2.227-.052-.053-.131-.087-.14-.176l3.29-.008h1.45l-2.382 2.417c-.014.013-.044.027-.044.04-.772.785-1.528 1.57-2.294 2.354-.762.778-1.528 1.55-2.284 2.334-.132.137-.198.119-.317-.005-.692-.715-1.395-1.42-2.087-2.136-.106-.11-.161-.109-.267 0-.702.726-1.413 1.443-2.118 2.166-.08.082-.136.13-.24.021-.719-.74-1.443-1.475-2.164-2.213-.032-.033-.082-.059-.073-.119-.083 0-.115-.074-.161-.122-1.486-1.51-2.97-3.025-4.458-4.534-.126-.128-.184-.257-.182-.44.009-.67.009-1.34 0-2.009-.001-.157.047-.195.194-.193.7.007 1.399.003 2.102.003.008-.107-.076-.142-.126-.193-.665-.682-1.33-1.363-2-2.037-.123-.123-.172-.249-.17-.422.01-.72.008-1.442.01-2.162.012-.045.047-.05.083-.05l2.181.013c.053-.103-.045-.135-.09-.182-.67-.687-1.34-1.374-2.018-2.054-.117-.117-.166-.237-.165-.402.007-.678.008-1.356.001-2.033-.002-.152.037-.198.19-.196.629.009 1.258.004 1.887.004h.289c-.814-.83-1.583-1.592-2.363-2.377.124-.081.218-.053.307-.053 1.38-.002 2.759 0 4.138-.001.068 0 .163.036.196-.039.037-.08-.06-.118-.107-.165-.645-.662-1.292-1.32-1.938-1.98-.065-.067-.127-.136-.195-.208.076-.055.147-.03.213-.03 1.366-.003 2.73-.002 4.096-.003.057 0 .115.004.171-.001.046-.005.107.018.13-.046.023-.064-.035-.09-.067-.123-.55-.563-1.13-1.097-1.64-1.694-.373-.436-.776-.577-1.333-.559-1.307.042-2.616.014-3.924.014-.02-.09.051-.12.092-.161C1.652 9.473 3.158 7.939 4.661 6.4c.088-.09.133-.093.221-.003C6.178 7.724 7.48 9.045 8.777 10.37c1.01 1.03 2.018 2.064 3.024 3.098.082.085.167.116.283.116 1.444-.004 2.888 0 4.331 0h.233c.014 0 .028.039.042.06-.344.334-.69.664-1.03 1.003-.383.382-.76.769-1.14 1.156-.042.043-.12.082-.092.152.029.071.113.04.174.04 1.408.002 2.817-.007 4.225-.007h.27c-.357.394-.673.69-.989 1.01-.394.401-.79.811-1.182 1.214zM.39 5.617H0c.165-.173.29-.308.419-.439C1.814 3.756 3.21 2.338 4.6.91c.143-.147.215-.134.35.003 2.27 2.323 4.545 4.64 6.823 6.955.128.13.12.201-.003.325-.703.705-1.402 1.416-2.093 2.133-.119.123-.177.102-.285-.009-1.487-1.523-2.98-3.04-4.468-4.564-.104-.107-.208-.152-.355-.151-1.393.008-2.787.011-4.18.015zm14.055.775c1.5 1.54 3.005 3.077 4.51 4.612.039.04.076.087.155.174h-.305c-1.442 0-2.885-.002-4.328-.007-.133 0-.226.038-.318.133-.582.601-1.173 1.194-1.753 1.797-.112.116-.171.116-.284-.001-.696-.722-1.399-1.437-2.106-2.147-.112-.113-.12-.17-.003-.289 1.393-1.411 2.78-2.828 4.167-4.246.087-.089.14-.153.265-.026zM10.01 5.44c-.131-.131-.137-.202-.002-.338 1.384-1.4 2.761-2.807 4.138-4.214.093-.095.149-.141.268-.019 1.5 1.54 3.007 3.074 4.51 4.609.033.034.086.06.08.147h-.396c-1.357 0-2.714 0-4.071-.01-.181 0-.306.054-.43.181-.565.587-1.142 1.163-1.706 1.75-.118.124-.183.147-.315.01-.685-.713-1.378-1.417-2.076-2.116zm7.45 29.578c.814.001 1.43.635 1.43 1.471-.002.85-.618 1.485-1.442 1.486-.805 0-1.425-.655-1.426-1.508-.001-.8.642-1.45 1.437-1.449zm-.004.238c-.632 0-1.144.55-1.144 1.225.001.705.518 1.267 1.16 1.26.632-.005 1.15-.57 1.148-1.252-.002-.683-.522-1.234-1.164-1.233zm-.069.404l.157.005c.205.015.399.07.471.304.068.222.004.373-.238.558.25.18.2.48.281.73.018.053-.015.083-.065.085-.082.002-.183.031-.216-.084-.03-.105-.043-.214-.068-.32-.029-.122-.067-.232-.208-.275-.247-.076-.301-.04-.302.221 0 .11-.003.219 0 .328.004.09-.028.133-.122.132-.092 0-.148-.022-.147-.133.003-.466.002-.931 0-1.397-.001-.105.051-.143.143-.145.157-.003.315-.016.47-.004zm-.016.202c-.232-.011-.162.157-.173.296.056.077-.109.27.131.277.251.007.431-.114.43-.286-.002-.167-.159-.276-.388-.287zM9.472.044c.063 0 .086.042.115.071.738.751 1.475 1.504 2.216 2.253.08.08.055.124-.01.19-.734.745-1.468 1.49-2.198 2.24-.077.08-.125.087-.206.004-.724-.745-1.452-1.487-2.182-2.226-.085-.085-.094-.14-.006-.229.73-.739 1.457-1.482 2.185-2.223.03-.03.062-.058.086-.08zM97.214 20.993c.048.011.097.02.147.025.358.035.364.035.345.409-.024.487-.051.974-.042 1.462.001.05 0 .104-.014.152-.016.06-.027.139-.112.138-.084-.001-.097-.079-.11-.14-.025-.114-.042-.229-.057-.344-.083-.61-.45-.973-1-1.159-.61-.206-1.232-.26-1.848-.03-1.141.429-1.292 1.67-.96 2.44.251.584.72.987 1.177 1.394.764.679 1.603 1.268 2.287 2.04 1.078 1.218 1.263 2.853.442 4.217-.484.804-1.225 1.251-2.117 1.429-1 .2-1.988.145-2.944-.251-.33-.137-.366-.19-.367-.55v-.607c-.017-.327.047-.732.056-1.14 0-.036.01-.072.018-.107.02-.084.025-.19.147-.173.116.016.084.12.084.193 0 .558.13 1.07.523 1.48.359.378.814.558 1.314.625.583.077 1.159.055 1.681-.265.827-.507 1.098-1.327.966-2.25-.108-.754-.576-1.282-1.093-1.777-.495-.474-1.044-.884-1.553-1.34-.724-.649-1.42-1.331-1.67-2.326-.28-1.11-.12-2.129.744-2.944.484-.456 1.083-.662 1.725-.75.753-.105 1.495-.018 2.23.15zm-18.53-.117c.817.08 1.612.305 2.432.358.16.01.181.113.167.244-.07.644-.098 1.29-.097 1.939 0 .181-.016.363-.03.544-.008.111.015.277-.142.266-.15-.01-.118-.174-.117-.286.002-.242-.035-.48-.102-.71-.151-.526-.452-.932-.937-1.192-.668-.358-1.383-.528-2.13-.597-.848-.078-1.685-.02-2.501.216-1.43.412-2.326 1.4-2.716 2.83-.397 1.453-.418 2.927.158 4.345.796 1.958 2.233 3.145 4.294 3.495.778.133 1.566.095 2.34-.078.908-.202 1.465-.769 1.68-1.687.027-.114.057-.226.08-.34.017-.084.04-.164.143-.154.104.011.115.105.113.182-.004.13-.02.261-.038.39-.075.555-.157 1.107-.291 1.65-.06.243-.196.394-.42.483-.376.148-.77.213-1.166.26-.531.064-1.065.11-1.463.098-1.355 0-2.552-.138-3.668-.664-1.865-.878-2.99-2.352-3.327-4.43-.223-1.38-.068-2.71.538-3.974.781-1.629 2.041-2.642 3.773-3.045 1.133-.264 2.276-.254 3.426-.143zm-46.405.118c.055.013.112.021.169.026.336.029.347.03.323.364-.037.508-.044 1.018-.044 1.527 0 .036.003.075-.008.108-.02.066-.02.16-.116.16-.092 0-.104-.09-.12-.158-.023-.106-.035-.215-.05-.322-.073-.53-.364-.895-.838-1.1-.574-.248-1.176-.31-1.782-.165-1.427.344-1.657 1.974-.97 2.903.487.658 1.123 1.158 1.748 1.666.654.53 1.298 1.07 1.798 1.765 1.021 1.417.825 3.387-.468 4.542-.522.467-1.157.676-1.833.774-.247.036-.496.058-.747.046-.677-.006-1.333-.11-1.959-.391-.205-.093-.303-.238-.298-.454.01-.48.03-.96.048-1.44.007-.159.018-.319.042-.477.012-.078.02-.19.146-.173.114.016.094.115.092.19-.012.487.093.94.389 1.332.362.48.865.696 1.435.777.592.084 1.17.05 1.701-.269.97-.582 1.207-1.772.803-2.778-.242-.605-.705-1.037-1.171-1.457-.557-.5-1.16-.946-1.697-1.47-.627-.61-1.179-1.276-1.347-2.18-.172-.923-.051-1.787.572-2.52.507-.597 1.181-.871 1.931-.975.76-.106 1.508-.022 2.251.149zm32.558.139c.005.184-.2.126-.323.134-.398.027-.705.191-.916.551-.393.674-.63 1.418-.925 2.135-1.053 2.564-2.08 5.14-3.167 7.689-.182.427-.38.847-.574 1.268-.044.097-.087.214-.217.215-.134 0-.2-.104-.245-.215-.314-.78-.628-1.561-.936-2.344-1.077-2.743-2.155-5.485-3.223-8.23-.273-.705-.747-1.079-1.498-1.07-.056 0-.113-.012-.168-.024-.045-.01-.075-.044-.076-.093 0-.05.034-.074.076-.094.074-.034.152-.033.231-.034.529-.01 1.057.014 1.584.04.6.029 1.199-.062 1.799-.039.078.003.157.007.233.022.06.011.138.021.127.115-.01.083-.082.097-.144.104-.163.016-.33-.004-.49.044-.254.077-.335.21-.27.474.148.61.401 1.182.615 1.767.883 2.42 1.777 4.836 2.667 7.253.014.038.033.075.066.152.137-.33.265-.627.384-.927.962-2.429 1.897-4.868 2.763-7.335.103-.294.203-.59.261-.898.055-.297-.073-.48-.369-.513-.106-.011-.214-.006-.321-.013-.096-.007-.236.018-.239-.116-.002-.131.136-.127.232-.128.265-.002.531-.018.793.01.65.07 1.298-.009 1.947-.009.119 0 .319-.055.323.109zm-23.32-.069c-.016.152-.057.3-.08.45-.056.374-.065.753-.097 1.13-.01.119.033.334-.152.329-.165-.004-.118-.2-.124-.321-.031-.602-.285-.852-.97-.932-.74-.086-1.485-.042-2.227-.06-.16-.004-.166.09-.165.21v2.12c0 .686.006 1.37-.003 2.056-.003.184.057.236.233.233.722-.012 1.444 0 2.165-.02.36-.01.738-.01.985-.362.03-.043.085-.092.147-.047.063.047.045.123.035.183-.07.416-.126.834-.145 1.256-.01.218-.017.436-.03.654-.005.085-.002.195-.12.195-.12 0-.112-.111-.12-.196l-.007-.218c-.035-.435-.269-.706-.692-.757-.76-.092-1.524-.094-2.287-.096-.124 0-.161.06-.16.175.003 1.406-.01 2.813.015 4.219.012.677.243.91.919 1 .646.085 1.298.08 1.943-.018.604-.09.904-.411 1.029-1.036.021-.107.043-.213.07-.319.014-.058.043-.114.114-.108.072.007.079.075.094.13.033.117-.01.232-.022.346-.043.39-.085.78-.155 1.166-.082.453-.187.526-.634.53-1.214.008-2.428-.015-3.64-.085-.572-.033-1.141.041-1.712.039-.093 0-.186.001-.279-.003-.077-.004-.143-.032-.144-.127 0-.096.077-.088.138-.097.078-.012.155-.023.233-.033.36-.043.488-.156.575-.51.09-.37.117-.75.121-1.126.034-2.864.026-5.727.007-8.59-.001-.175-.02-.35-.047-.522-.058-.369-.315-.572-.77-.621-.1-.01-.2-.007-.3-.014-.083-.006-.195.007-.195-.115 0-.11.1-.13.19-.13.336.001.673-.012 1.007.013.293.023.585.028.877.029 1.086.003 2.173.002 3.26-.006.326-.002.657-.008.968-.136.15-.061.164.043.153.142zm48.152-.007c-.143.583-.13 1.184-.202 1.774-.009.07-.029.153-.123.153-.095 0-.107-.08-.12-.152-.003-.014-.001-.03-.002-.044-.064-.776-.28-.995-1.038-1.074-.713-.075-1.428-.033-2.141-.055-.164-.005-.186.076-.185.214.004.7.002 1.4.002 2.099 0 .685.005 1.37-.004 2.055-.002.182.035.258.234.254.722-.016 1.444-.003 2.166-.022.353-.01.724-.01.965-.358.032-.046.084-.092.147-.059.07.037.066.112.054.175-.128.63-.166 1.268-.179 1.909-.001.087-.002.212-.132.211-.106 0-.1-.099-.105-.18-.042-.76-.25-.984-1.008-1.03-.649-.039-1.298-.064-1.949-.058-.134.002-.206.035-.19.183.002.015.001.03 0 .044-.008 1.165-.023 2.33-.022 3.496 0 .31.019.623.064.934.059.41.291.651.676.71.744.114 1.493.116 2.238-.01.522-.088.812-.418.92-.934.026-.128.054-.256.086-.382.016-.063.038-.135.122-.126.086.008.089.082.09.149.01.38-.07.752-.11 1.127-.014.137-.042.273-.067.409-.067.37-.196.487-.564.485-.814-.007-1.628.004-2.443-.032-.99-.044-1.982-.089-2.974-.014-.106.008-.215 0-.32-.01-.06-.006-.11-.048-.113-.114-.004-.077.056-.09.116-.1.134-.02.267-.042.401-.06.22-.029.341-.168.405-.37.089-.286.119-.583.133-.881.087-1.82.03-3.642.042-5.463.007-1.093 0-2.186-.005-3.28 0-.21-.016-.422-.041-.63-.056-.459-.305-.68-.8-.72-.106-.01-.214-.006-.32-.015-.07-.007-.155-.013-.158-.11-.004-.107.076-.131.16-.131.33 0 .66-.015.987.01.32.025.642.029.962.03 1.08.002 2.159.002 3.238-.006.32-.002.643-.01.947-.139.147-.062.182.046.16.138zm-40.117.224c1.254.407 1.937 1.534 1.906 2.683-.025.957-.387 1.794-.966 2.54-.24.308-.495.603-.779.87-.096.09-.093.151-.014.253 1.037 1.326 2.016 2.7 3.158 3.937.583.63 1.273 1.08 2.165 1.096.085.002.17.02.254.028.06.006.124.014.128.087.005.082-.062.113-.126.123-.085.012-.171.013-.257.013h-.729c-.443 0-.886.015-1.325-.061-.714-.124-1.22-.575-1.661-1.118-.92-1.133-1.757-2.332-2.602-3.524-.158-.223-.322-.342-.614-.334-.505.013-1.014.026-1.52-.03-.175-.02-.239.06-.24.24-.01 1.063.025 2.126.048 3.189.004.202.027.407.06.607.1.59.26.73.847.769.142.01.284.024.426.037.059.006.118.017.114.099-.003.072-.057.105-.114.11-.149.011-.299.012-.449.015-.635.01-1.27-.074-1.905-.035-.357.021-.713.03-1.07.036-.07 0-.143-.007-.211-.023-.05-.012-.088-.054-.084-.113.004-.063.048-.08.103-.087.134-.018.268-.042.402-.06.237-.03.364-.178.428-.4.06-.21.1-.425.111-.642.025-.502.05-1.004.05-1.506.004-2.499 0-4.998-.004-7.497 0-.218-.019-.437-.046-.653-.049-.384-.327-.614-.77-.65-.114-.009-.229-.006-.343-.014-.071-.005-.155-.015-.16-.11-.005-.106.083-.13.163-.13.321-.004.644-.019.964.006.707.054 1.412.016 2.118-.005.857-.026 1.712-.016 2.544.254zm17.098-.25c.55.041 1.097.042 1.646 0 .25-.018.5-.009.75-.008.08 0 .17.01.182.112.014.12-.091.107-.162.127-.02.006-.043.006-.064.008-.646.073-.827.259-.836.938-.016 1.282-.018 2.564-.018 3.846 0 1.624.005 3.248.011 4.872.002.32.028.64.076.956.086.573.252.724.826.766.149.01.298.024.447.038.051.005.102.014.108.081.008.074-.04.111-.097.123-.076.016-.155.02-.233.02-.757.017-1.512-.07-2.27-.036-.342.015-.684.027-1.026.036-.063.002-.128-.01-.188-.028-.05-.016-.084-.062-.073-.12.01-.046.047-.068.095-.073.113-.013.226-.03.34-.043.252-.028.422-.154.494-.41.078-.282.11-.57.126-.861.085-1.601.023-3.203.04-4.235v-3.605l-.003-.92c-.002-.238-.023-.48-.067-.715-.079-.421-.264-.578-.68-.62-.072-.007-.144-.003-.214-.016-.074-.013-.18-.009-.175-.117.005-.11.104-.125.194-.124.257 0 .515-.01.771.009zm-20.14.595c-.172.03-.177.165-.177.3v4.805c0 .375.025.404.39.502.515.139 1.04.149 1.568.135.657-.016 1.15-.32 1.455-.91.468-.905.492-1.865.282-2.843-.144-.67-.457-1.237-1.025-1.63-.772-.534-1.626-.506-2.494-.359zM40.433 5.373c.601.047 1.198-.02 1.797-.014h.45c.076.001.155.016.16.108.004.095-.071.11-.15.116-.077.005-.155.019-.232.032-.5.087-.645.267-.683.78-.042.575-.037 1.15-.037 1.725 0 1.443-.01 2.886.003 4.328.008.847.08 1.695.432 2.475.518 1.146 1.378 1.817 2.649 1.909 1.02.074 1.908-.213 2.64-.939.515-.51.742-1.18.88-1.883.126-.637.172-1.282.172-1.93-.002-1.706 0-3.411-.008-5.116-.002-.268-.015-.538-.073-.802-.057-.261-.215-.421-.462-.492-.2-.058-.404-.09-.613-.09-.08 0-.175.004-.17-.11.004-.108.1-.113.178-.112.5.007 1 .01 1.5.03.476.02.955-.018 1.433-.03.057-.002.114-.001.171.003.07.005.133.033.133.113 0 .082-.064.101-.135.108-.099.008-.2.015-.296.035-.437.094-.596.292-.631.745-.037.473-.041.946-.041 1.419 0 1.457.008 2.915-.008 4.372-.01.816-.105 1.625-.35 2.408-.412 1.318-1.287 2.195-2.551 2.628-1.305.446-2.618.379-3.885-.188-1.062-.476-1.704-1.335-2.039-2.45-.214-.715-.278-1.454-.288-2.197-.012-.932-.003-1.865-.003-2.798h-.011c0-.91.002-1.822-.002-2.732-.001-.196-.019-.393-.045-.587-.045-.339-.263-.545-.637-.609-.147-.025-.297-.033-.446-.046l-.088-.006c-.056-.007-.102-.03-.097-.114.006-.105.105-.104.183-.104.4.002.802-.017 1.2.015zm-5.63-.114c.662.094 1.31.288 1.987.287.161 0 .252.079.229.262-.09.717-.1 1.437-.097 2.158 0 .05-.016.1-.023.15-.009.069-.022.134-.107.139-.099.005-.112-.067-.124-.143-.03-.186-.056-.374-.1-.557-.137-.581-.517-.954-1.021-1.22-.618-.327-1.28-.49-1.966-.563-.828-.089-1.656-.09-2.465.13-1.588.429-2.61 1.46-2.995 3.091-.493 2.09-.182 4.048 1.136 5.757.85 1.1 2.011 1.72 3.371 1.94.807.13 1.607.113 2.393-.13.488-.15.595-.306.594-.816v-1.552h-.009c0-.539.008-1.078-.002-1.617-.012-.696-.286-.973-.97-1.002-.035-.001-.071.003-.106-.002-.092-.012-.234.037-.237-.112-.003-.143.15-.129.234-.128.542.004 1.084.032 1.626.034.477.002.954-.014 1.431-.034.116-.005.227-.002.34.018.062.011.115.038.114.107 0 .081-.06.107-.131.112-.078.006-.157.008-.234.023-.526.1-.667.273-.7.816-.077 1.26-.025 2.52-.042 3.78-.001.086-.008.174-.014.26-.01.162-.096.259-.238.331-.646.332-1.339.5-2.047.598-1.214.169-2.422.102-3.608-.214-1.123-.3-2.138-.815-2.943-1.696-.772-.845-1.22-1.861-1.42-2.984-.247-1.38-.107-2.727.476-4.008.757-1.664 2.035-2.685 3.775-3.104 1.288-.31 2.588-.294 3.892-.11zm31.487.08c.014.002.028.008.042.01.39.07.398.072.353.479-.043.393-.027.785-.034 1.178-.001.08.002.161-.006.24-.01.098.005.239-.12.248-.14.011-.12-.132-.129-.228-.115-1.125-.821-1.45-1.728-1.55-.472-.052-.944-.029-1.377.212-.9.5-1.187 1.72-.612 2.611.338.525.804.924 1.267 1.325.527.458 1.096.864 1.597 1.353.578.566 1.086 1.181 1.293 1.996.456 1.792-.438 3.81-2.666 4.172-.948.154-1.877.091-2.774-.28-.358-.15-.394-.207-.397-.605-.004-.59.045-1.177.085-1.765.002-.036.012-.072.023-.106.02-.064.047-.131.128-.12.08.01.094.078.097.147.006.16-.004.323.023.48.16.948.815 1.56 1.765 1.686.634.085 1.247.05 1.796-.31 1.042-.686 1.245-2.182.451-3.255-.408-.551-.927-.987-1.446-1.423-.722-.605-1.472-1.187-1.99-2-.659-1.037-.783-2.136-.216-3.249.44-.862 1.225-1.243 2.133-1.4.277-.046.554-.051.878-.044.504-.04 1.032.094 1.564.197zm-7.795.047c-.152.582-.13 1.183-.205 1.773-.01.075-.038.155-.122.156-.102.001-.113-.093-.126-.173-.004-.028 0-.058-.002-.087-.02-.649-.263-.904-.9-.997-.433-.064-.868-.037-1.302-.074-.291-.024-.585-.008-.878-.009-.252 0-.278 0-.28.216l-.001 3.445c0 .255.004.51-.003.765-.005.157.046.215.21.212.799-.016 1.6.018 2.398-.042.286-.021.554-.065.74-.321.039-.055.096-.1.165-.072.086.036.065.124.052.192-.12.6-.16 1.21-.174 1.821 0 .022.004.046-.003.065-.028.082.004.224-.13.212-.116-.011-.106-.134-.109-.229-.02-.688-.266-.946-.938-.976-.656-.029-1.312-.05-1.968-.082-.168-.008-.245.039-.243.23.008 1.362.007 2.724.011 4.086 0 .101.013.203.032.303.096.51.275.71.777.784.667.098 1.34.102 2.006-.003.689-.108.955-.399 1.09-1.099.017-.085.03-.172.055-.255.018-.064.05-.128.134-.11.075.017.07.083.072.14.012.388-.062.768-.11 1.15-.023.186-.062.372-.107.555-.045.178-.156.284-.348.301-.563.05-1.127.026-1.69.015-.178-.004-.356-.015-.535-.018-.992-.015-1.983-.093-2.976-.042-.207.01-.413.024-.62.02-.085-.002-.212-.01-.206-.139.006-.118.122-.098.205-.103.557-.034.685-.134.785-.69.097-.539.105-1.086.107-1.631.006-1.253.002-2.506.002-3.76h-.004c0-1.354.002-2.71-.002-4.065-.001-.231-.022-.464-.072-.692-.058-.26-.219-.419-.466-.488-.2-.056-.405-.088-.613-.09-.08 0-.171-.001-.165-.116.004-.096.087-.106.16-.105.521.006 1.043.006 1.564.027.17.007.342.014.513.014 1.078-.004 2.157.02 3.235-.026.277-.012.555-.009.819-.127.123-.054.194.031.166.14zm10.142-.196c.281.145.595.142.899.166.848.068 1.699.043 2.549.044 1.4.002 2.802.006 4.202-.002.414-.003.827-.044 1.231-.139.159-.037.213.01.209.167-.017.589-.031 1.178-.047 1.768-.002.083-.013.173-.118.173-.096 0-.094-.092-.106-.162-.007-.036-.023-.072-.021-.107.022-.55-.334-.785-.816-.906-.652-.163-1.319-.121-1.982-.135-.278-.005-.558.006-.836-.01-.167-.009-.2.055-.2.212.005 1.458.003 2.915.003 4.373h.005c0 1.406-.012 2.813.006 4.219.006.507.006 1.02.113 1.52.086.4.263.55.664.582.178.014.355.032.533.045.072.006.157 0 .166.096.01.11-.084.128-.16.133-.178.013-.357.025-.535.015-.899-.048-1.798-.059-2.697 0-.12.009-.242 0-.363-.013-.07-.007-.147-.028-.134-.131.01-.087.076-.092.142-.1.106-.012.212-.034.318-.04.285-.014.415-.198.477-.45.122-.49.137-.994.138-1.495.006-2.915.005-5.83.012-8.745 0-.173-.047-.226-.218-.22-.863.03-1.727 0-2.591.046-.605.033-1.011.303-1.24.867-.019.047-.038.094-.062.139-.032.059-.073.119-.15.096-.088-.026-.086-.107-.072-.18.107-.564.215-1.127.369-1.68.05-.179.135-.238.312-.146z"/></g></svg>