<svg height="57" viewBox="0 0 82 57" width="82" xmlns="http://www.w3.org/2000/svg"><g fill-rule="evenodd"><g transform="translate(0 40.944)"><path d="m5.827 4.52c0 .213-.103.607-.276.885h-.207c-.172 0-.362-.049-.568-.114-.276-.115-.621-.197-.914-.197-.052 0-.104 0-.19.016-1 .082-1.707.935-1.707 2.82 0 2.263.983 2.739 2 2.739.535 0 1.138-.18 1.586-.394.087.246.155.508.155.623-.017.246-.206.525-.448.705-.344.23-.93.377-1.603.377-1.914 0-3.57-.672-3.57-3.968 0-1.721.604-2.803 1.294-3.41s1.586-.803 2.448-.803c1.087 0 1.914.491 2 .705zm6.69 1.23v5.165c0 .262-.017.459-.173.672-.276.197-.534.213-1.655.213.017-.869.035-1.984.035-3.247l.017-2.738c0-.524-.103-.902-.224-1.23.138-.13.362-.262.741-.41.104-.032.173-.032.241-.032.363 0 .518.098.621.328.328-.213.69-.361 1.018-.476.293-.115.672-.18 1-.131.5.05.81.213.862.46 0 .245-.07.704-.31 1.032-.121.033-.121.033-.277.033-.19 0-.362-.016-.5-.033-.12-.033-.172-.033-.224-.033-.465 0-.845.115-1.172.427m5.345 0v5.165c0 .262-.018.459-.173.672-.276.197-.534.213-1.655.213.017-.869.035-1.984.035-3.247l.017-2.738c0-.524-.104-.902-.224-1.23.138-.13.362-.262.741-.41.103-.032.172-.032.241-.032.362 0 .518.098.621.328.328-.213.69-.361 1.017-.476.294-.115.673-.18 1-.131.5.05.81.213.862.46 0 .245-.069.704-.31 1.032-.12.033-.12.033-.276.033-.19 0-.362-.016-.5-.033-.12-.033-.172-.033-.224-.033-.465 0-.845.115-1.172.427m5.517.196-.172 2.952c0 1.394.43 1.689 1.138 1.689.517.033 1.034-.197 1.31-.509v-5.115c0-.361.034-.574.207-.787.241-.197.43-.197 1.19-.214h.448c-.018.87-.035 1.984-.035 3.23v2.755c0 .525.07.902.19 1.23-.12.115-.345.246-.724.41-.104.033-.207.033-.242.033-.31 0-.517-.164-.62-.361-.345.246-.707.41-1.018.508-.362.115-.706.18-1.12.18-2.104-.081-2.518-1.065-2.552-2.836l.155-3.378c0-.606-.086-1.05-.224-1.443.138-.114.397-.278.862-.491.138-.033.207-.033.241-.033.483 0 .707.328.776.606.104.377.19.738.19 1.574m8.914-2.115c1.086.082 1.603.509 1.672.738 0 .213-.155.607-.344.836-.07-.016-.26-.049-.345-.065-.19-.033-.38-.066-.57-.131-.258-.099-.517-.148-.775-.148-.604 0-.983.312-.983.754 0 .263.103.492.465.77.19.132.449.312.725.493.327.246.706.492 1 .705.724.574 1.069 1.148 1.069 1.836 0 1.558-1.345 2.345-3.018 2.345-1.12 0-2.086-.328-2.293-.787 0-.246.138-.623.345-.885h.172c.156 0 .328.049.518.147v-.016c.362.147.81.262 1.224.262.086 0 .207-.016.31-.033.518-.049.828-.393.828-.885 0-.36-.173-.672-.655-.984-.07-.05-.242-.164-.207-.131-.397-.262-.845-.607-1.173-.87l-.43-.327c-.535-.508-.794-1.017-.794-1.59 0-1.296 1.12-2.066 2.759-2.066.19 0 .379.016.5.032m9.747.181c.138.262.155.492.155 1.18v5.493c0 .377-.069.64-.241.902-.12.18-.414.18-1.603.213v-1.344c0-.476.017-.984.017-1.509v-2.853c0-.738-.017-1.246-.034-1.672.206-.41.793-.46 1.568-.46zm3.793 1.787.052-.05v5.05c0 .362-.035.558-.207.788-.241.197-.43.197-1.19.213h-.448c.017-.869.035-1.984.035-3.23v-2.755c0-.524-.07-.902-.19-1.23.12-.13.345-.262.724-.41.104-.032.207-.032.242-.032.31 0 .517.147.62.344.345-.23.707-.393 1.017-.492.362-.115.707-.18 1.121-.18 2.155 0 2.57 1.05 2.57 2.919v2.475c0 .886.016 1.69.034 2.329-.224.197-.535.262-1.673.262-.138-.246-.19-.492-.19-.738v-4.296c0-1.18-.292-1.607-1.172-1.607-.552 0-1 .279-1.345.64m9.069-1.968c1.087.082 1.604.509 1.673.738 0 .213-.155.607-.345.836-.069-.016-.259-.049-.345-.065-.19-.033-.38-.066-.569-.131-.259-.099-.517-.148-.776-.148-.603 0-.982.312-.982.754 0 .263.103.492.465.77.19.132.448.312.724.493.328.246.707.492 1 .705.725.574 1.07 1.148 1.07 1.836 0 1.558-1.346 2.345-3.018 2.345-1.12 0-2.086-.328-2.293-.787 0-.246.138-.623.345-.885h.172c.155 0 .328.049.517.147v-.016c.362.147.81.262 1.224.262.087 0 .207-.016.31-.033.518-.049.828-.393.828-.885 0-.36-.172-.672-.655-.984-.068-.05-.24-.164-.207-.131-.396-.262-.844-.607-1.172-.87l-.431-.327c-.535-.508-.793-1.017-.793-1.59 0-1.296 1.12-2.066 2.759-2.066.189 0 .379.016.5.032m4.896.181c.138.262.155.492.155 1.18v5.493c0 .377-.069.64-.241.902-.121.18-.414.18-1.604.213v-1.344c0-.476.017-.984.017-1.509v-2.853c0-.738-.017-1.246-.034-1.672.207-.41.793-.46 1.569-.46z"/><path d="m63.333 6.619c.087 1.033.5 1.672 1.345 1.672.776 0 1.086-.77 1-1.804-.103-1-.535-1.59-1.31-1.59-.673 0-1.156.558-1.035 1.722m1.138 2.787c-.31 0-.517-.016-.724-.05l-.345.329c-.069.066-.086.164-.086.23 0 .147.31.295.88.344l.672.049c.275.016.551.05.827.066.224.016.466.032.621.065 1.069.197 1.81.77 1.862 1.738 0 1.443-1.569 3.083-3.707 3.558-.448.082-1.051.148-1.603.148-.863 0-1.655-.18-1.828-.722-.173-.82 1.57-2.23 2.655-2.918.431.213.535.77.224 1.05-.551.442-1.155 1.016-1.086 1.31.035.132.207.165.431.165.345 0 .845-.099 1.155-.148 1.138-.295 2.018-1.328 2-2v-.23c-.138-.344-.31-.623-.896-.688-.38-.05-.759-.066-1.155-.082-.104 0-.224-.017-.328-.017-.793-.065-1.31-.23-1.31-.23-.845-.245-1.276-.688-1.293-1.18 0-.115.086-.23.224-.393.241-.23.569-.492.827-.722.087-.065.07-.082.138-.147-.741-.443-1.103-1.214-1.103-2.23 0-1.853 1.276-2.902 3.052-2.902.603 0 1.138.196 1.534.377-.035-.017-.052-.033 0-.066.38-.016.862-.033 1.224-.05h-.017c.224-.015.586-.032.759-.032.069.131.138.328.138.557 0 .427-.208.738-.62.738-.243 0-.346 0-.553-.016.276.41.397.803.397 1.328 0 1.755-1.121 2.771-2.966 2.771" fill-rule="nonzero"/><path d="m69.213 11.718c.017-.935.034-2.033.034-3.361v-6.182c0-.672-.017-1.148-.034-1.508.224-.427.775-.509 1.637-.509.138.246.19.476.19 1.148v3.116c.276-.181.57-.312.828-.427.31-.115.707-.196 1.172-.196 1.793 0 2.293.901 2.293 3.115v2.376c0 .886 0 1.656.018 2.247-.207.213-.466.262-1.69.262-.103-.262-.155-.525-.155-.82v-3.918c0-.295 0-.508-.035-.672-.051-.967-.414-1.23-.931-1.23-.586 0-1.12.312-1.5.656v4.903c0 .328-.034.59-.19.853-.31.23-.517.23-1.482.23zm12.241-1.278c.017.098.034.229.034.376 0 .148 0 .328-.017.46-.034.114-.12.213-.241.31-.397.247-1.052.394-1.604.394-1.724 0-2.051-1.459-2.051-2.803v-3.903c-.466-.016-.759-.115-1.018-.23 0-.475.017-.475.156-.606.258-.164.517-.23.741-.295.138-.033.172 0 .276-.05.017-.459.069-.967.086-1.426.138-.377.586-.689 1.62-.754v.262c-.016.689-.034 1.214-.034 1.837h2.19c-.052.918-.19 1.131-.534 1.197-.121.016-.294.032-.432.032-.344.017-.586.017-1.224.017-.017.721-.034 1.426-.034 2.115 0 .377.017.721.017 1.066v.803c.069.853.19 1.46.741 1.46.225.016.914-.214 1.035-.312zm-72.764-6.428c.137.262.154.492.154 1.18v5.493c0 .377-.069.64-.24.902-.122.18-.415.18-1.604.213v-1.344c0-.476.017-.984.017-1.509v-2.853c0-.738-.017-1.246-.035-1.672.207-.41.793-.46 1.57-.46l.137.05"/></g><path d="m43.152 17.607c5.625-5.731 2.777-9.62.943-10.113-4.402-1.112-7.887.864-10.27 3.21-6.91 7.53-3.765 16.36-3.467 17.648-3.312-2.845-5.942-8.638-4.536-15.365 2.263-8.887 9.714-12.227 15.663-12.22 1.854.014 12.27.679 10.864 10.245-.918 3.395-5.101 6.234-9.197 6.595zm-3.535-2.642c-2.268 5.984-.03 11.153 5.05 11.213 6.17.076 11.545-5.516 12.635-9.187.018 7.148-4.656 11.468-7.135 13.117-2.481 1.648-7.302 3.619-13.186 1.921-2.72-3.36-3.502-13.767 2.636-17.064z" fill-rule="nonzero"/></g></svg>