<svg xmlns="http://www.w3.org/2000/svg" width="73" height="33" viewBox="0 0 73 33"><g fill="#171717" fill-rule="evenodd"><path d="M0 31.742L0 28.371 0.933 28.371 0.933 29.747 2.058 28.371 3.016 28.371 1.795 29.866 3.111 31.742 2.13 31.742 1.245 30.388 0.933 30.745 0.933 31.742z"/><path fill-rule="nonzero" d="M4.595 31.765c-.239 0-.454-.047-.67-.142-.191-.095-.359-.237-.502-.38-.144-.166-.264-.332-.335-.546-.072-.214-.12-.427-.12-.64 0-.215.048-.428.12-.642.071-.214.191-.38.335-.546.143-.166.31-.285.526-.38.192-.095.407-.142.646-.142.24 0 .455.047.67.142.192.095.36.238.503.38.144.166.24.356.335.546.072.214.12.427.12.641 0 .214-.048.427-.12.641-.072.214-.191.38-.335.546-.143.166-.311.285-.526.38-.192.095-.407.142-.647.142zm-.67-1.709c0 .119.024.214.048.332.024.095.072.19.12.285.048.072.12.143.215.19.096.048.192.072.311.072.12 0 .216-.024.311-.072.096-.047.168-.118.216-.213.048-.095.096-.19.12-.285.024-.119.047-.214.047-.333 0-.118-.023-.213-.047-.332-.024-.095-.072-.19-.12-.285-.048-.071-.12-.142-.216-.19-.095-.047-.191-.071-.31-.071-.12 0-.216.024-.312.071-.096.048-.143.119-.215.19-.048.095-.096.19-.12.285-.048.142-.048.237-.048.356z"/><path d="M9.646 28.371L9.646 31.742 8.712 31.742 8.712 30.412 7.587 30.412 7.587 31.742 6.654 31.742 6.654 28.371 7.587 28.371 7.587 29.605 8.712 29.605 8.712 28.371z"/><path fill-rule="nonzero" d="M10.268 31.742V28.37h1.556c.167 0 .31.023.454.094.144.072.264.167.36.262.095.118.167.237.239.38.048.142.095.284.095.427 0 .19-.047.38-.12.546-.095.166-.215.308-.358.403l.766 1.235h-1.053l-.647-1.045h-.359v1.045l-.933.024zm.933-1.852h.599c.048 0 .12-.024.167-.095.048-.071.072-.142.072-.261 0-.119-.024-.214-.096-.261-.048-.072-.12-.095-.167-.095H11.2v.712z"/><path d="M16.108 31.742L16.108 29.961 15.533 31.219 15.031 31.219 14.456 29.961 14.456 31.742 13.523 31.742 13.523 28.371 14.552 28.371 15.27 29.961 16.012 28.371 17.041 28.371 17.041 31.742z"/><path fill-rule="nonzero" d="M17.257 31.742l1.268-3.371h.766l1.269 3.37h-.982l-.215-.664h-.91l-.191.665h-1.005zm1.651-2.422l-.311 1.14h.622l-.31-1.14z"/><path d="M21.709 30.08L21.709 31.742 20.775 31.742 20.775 28.371 21.517 28.371 22.881 30.08 22.881 28.371 23.815 28.371 23.815 31.742 23.073 31.742zM24.892 32.953L24.892 27.017 25.035 27.017 25.035 32.953zM26.112 30.816s.024.024.072.024c.024.023.072.023.12.047s.096.024.167.048c.072.023.12.023.192.023.096 0 .167-.023.24-.047.071-.024.095-.071.143-.143.024-.07.048-.166.072-.285 0-.118.024-.237.024-.403v-1.71h.933v1.71c0 .261-.024.498-.048.688-.024.214-.096.38-.191.546-.096.143-.24.262-.407.357-.192.07-.431.118-.742.118-.287 0-.527-.071-.742-.213l.167-.76z"/><path fill-rule="nonzero" d="M28.147 31.742l1.268-3.371h.766l1.269 3.37h-.981l-.216-.664h-.91l-.19.665h-1.006zm1.651-2.422l-.31 1.14h.622l-.312-1.14z"/><path d="M31.354 30.032c0-.213.048-.403.12-.617.072-.19.191-.38.31-.546.145-.166.312-.285.527-.38.192-.095.431-.142.695-.142.31 0 .574.071.79.19.215.142.382.308.502.522l-.718.499c-.024-.072-.072-.143-.12-.214-.048-.048-.095-.095-.143-.119-.048-.024-.12-.047-.168-.071-.072-.024-.12-.024-.167-.024-.12 0-.216.024-.312.071-.095.048-.143.12-.215.214-.048.095-.096.19-.12.285-.024.095-.047.214-.047.309 0 .118.023.237.047.332.024.119.072.214.144.285.048.071.12.142.215.19.096.047.192.071.288.071.048 0 .12 0 .167-.024.048-.023.12-.047.168-.07.048-.025.095-.072.143-.12.048-.047.072-.118.096-.19l.766.452c-.048.118-.12.237-.215.332-.096.095-.216.19-.336.237-.12.072-.263.119-.406.143-.144.024-.288.047-.407.047-.24 0-.455-.047-.647-.142-.191-.095-.359-.238-.502-.404-.144-.166-.263-.356-.335-.57-.072-.118-.12-.332-.12-.546zM34.681 31.742L34.681 28.371 35.614 28.371 35.614 29.747 36.739 28.371 37.697 28.371 36.476 29.866 37.792 31.742 36.811 31.742 35.926 30.388 35.614 30.745 35.614 31.742zM40.066 29.463c-.096-.048-.191-.12-.287-.143-.096-.047-.191-.071-.287-.095-.096-.024-.216-.047-.311-.047-.072 0-.144.023-.192.047-.048.024-.072.071-.072.119 0 .047.024.071.048.119.024.023.072.047.12.07.048.025.12.048.191.072.072.024.168.048.264.071.167.048.287.095.43.166.12.048.24.12.312.19.095.072.167.167.215.285.048.119.072.238.072.404 0 .214-.048.38-.12.498-.072.143-.167.238-.287.333-.12.071-.263.142-.407.166-.144.047-.311.047-.455.047-.12 0-.263 0-.383-.023-.12-.024-.263-.048-.383-.071-.12-.024-.263-.072-.383-.12-.12-.047-.239-.094-.335-.165l.407-.808c.12.072.24.143.36.19.095.048.215.095.334.12.12.023.264.047.383.047.096 0 .168-.024.216-.048.048-.024.048-.071.048-.095 0-.047-.024-.095-.048-.119-.048-.023-.096-.07-.168-.095-.072-.023-.143-.047-.24-.07-.095-.025-.19-.048-.286-.096-.144-.047-.288-.095-.383-.166-.12-.047-.192-.119-.264-.19-.071-.071-.12-.166-.143-.261-.024-.095-.048-.214-.048-.332 0-.19.024-.357.096-.499.071-.142.167-.261.287-.356.12-.095.263-.166.407-.214.143-.047.31-.071.478-.071.12 0 .24.024.36.024.12.024.239.047.335.095.12.047.215.07.31.118.096.048.192.072.264.12l-.455.783z"/><path fill-rule="nonzero" d="M42.388 31.765c-.24 0-.455-.047-.67-.142-.192-.095-.36-.237-.503-.38-.144-.166-.263-.332-.335-.546-.072-.214-.12-.427-.12-.64 0-.215.048-.428.12-.642.072-.214.191-.38.335-.546.144-.166.311-.285.527-.38.191-.095.407-.142.646-.142.24 0 .455.047.67.142.192.095.359.238.503.38.143.166.239.356.335.546.072.214.12.427.12.641 0 .214-.048.427-.12.641-.072.214-.192.38-.335.546-.144.166-.311.285-.527.38-.191.095-.407.142-.646.142zm-.67-1.709c0 .119.024.214.048.332.024.095.071.19.12.285.047.072.119.143.215.19.095.048.191.072.31.072.12 0 .216-.024.312-.072.096-.047.167-.118.215-.213.048-.095.096-.19.12-.285.024-.119.048-.214.048-.333 0-.118-.024-.213-.048-.332-.024-.095-.072-.19-.12-.285-.048-.071-.12-.142-.215-.19-.096-.047-.192-.071-.311-.071-.12 0-.216.024-.311.071-.096.048-.144.119-.216.19-.048.095-.095.19-.12.285-.047.142-.047.237-.047.356z"/><path d="M45.38 30.08L45.38 31.742 44.446 31.742 44.446 28.371 45.164 28.371 46.529 30.08 46.529 28.371 47.462 28.371 47.462 31.742 46.72 31.742zM48.563 32.953L48.563 27.017 48.683 27.017 48.683 32.953zM49.855 31.742L49.855 28.371 50.789 28.371 50.789 29.747 51.914 28.371 52.871 28.371 51.627 29.866 52.943 31.742 51.986 31.742 51.076 30.388 50.789 30.745 50.789 31.742z"/><path fill-rule="nonzero" d="M53.158 31.742V28.37h1.556c.168 0 .311.023.455.094.143.072.263.167.359.262.096.118.167.237.24.38.047.142.095.284.095.427 0 .19-.048.38-.12.546-.095.166-.215.308-.359.403l.766 1.235h-1.053l-.646-1.045h-.36v1.045l-.933.024zm.934-1.852h.598c.048 0 .12-.024.168-.095.048-.071.072-.142.072-.261 0-.119-.024-.214-.096-.261-.048-.072-.12-.095-.168-.095h-.574v.712zM56.222 31.742l1.268-3.371h.766l1.269 3.37h-.981l-.216-.664h-.91l-.19.665h-1.006zm1.651-2.422l-.31 1.14h.622l-.312-1.14z"/><path d="M60.674 30.08L60.674 31.742 59.74 31.742 59.74 28.371 60.482 28.371 61.847 30.08 61.847 28.371 62.756 28.371 62.756 31.742 62.038 31.742zM65.939 29.178L64.958 29.178 64.958 31.742 64.025 31.742 64.025 29.178 63.043 29.178 63.043 28.371 65.939 28.371zM66.083 31.053L67.687 29.178 66.155 29.178 66.155 28.371 68.764 28.371 68.764 29.059 67.256 30.935 68.788 30.935 68.788 31.742 66.083 31.742zM7.85 14.221L7.779 14.221 7.779 23.646 0 23.646 0 0 7.755 0 7.755 8.713 7.803 8.713 14.169 0 23.599 0 14.648 10.826 24.03 23.646 14.217 23.646z"/><path d="M37.84 14.79v-3.774h2.705V0h-8.042v15.218c0 .546-.096.973-.263 1.33-.192.356-.527.522-1.053.522-.407 0-.718-.143-.958-.428-.24-.284-.407-.593-.479-.95l-6.869 2.612c.216.855.623 1.638 1.173 2.374.55.736 1.22 1.377 2.01 1.9.766.546 1.652.95 2.61 1.258.957.309 1.986.475 3.063.475 1.82 0 3.303-.285 4.452-.879 1.149-.57 2.034-1.33 2.704-2.231.647-.902 1.101-1.923 1.34-3.04.24-1.115.36-2.207.36-3.275v-.095H37.84zM59.381 10.826L68.357 0 58.927 0 52.56 8.713 52.488 8.713 52.488 0 44.757 0 44.757 9.568 47.438 9.568 47.438 13.295 44.757 13.295 44.757 23.646 52.536 23.646 52.536 14.221 52.584 14.221 58.95 23.646 68.788 23.646z"/><path fill-rule="nonzero" d="M43.106 8.072v2.896h2.92v.903h-3.83v-3.8h.91zm.503-.499H41.67v4.796h4.835v-1.923h-2.92V7.573h.024z"/><path fill-rule="nonzero" d="M43.106 12.44v3.799h-.934v-2.897h-2.896v-.925l3.83.023zm.503-.498h-4.835v1.923h2.896v2.896h1.939v-4.819zM71.277 2.991c.837 0 1.508-.664 1.508-1.495 0-.831-.67-1.496-1.508-1.496s-1.508.665-1.508 1.496c0 .83.67 1.495 1.508 1.495zm0-.166c-.742 0-1.317-.593-1.317-1.33 0-.735.575-1.305 1.317-1.305s1.316.593 1.316 1.33c-.024.712-.574 1.305-1.316 1.305zm-.55-.546h.239v-.688h.335l.383.688h.263l-.383-.712c.215-.048.359-.19.359-.451 0-.309-.215-.475-.598-.475h-.575c-.024.024-.024 1.638-.024 1.638zm.239-.878V.855h.335c.239 0 .383.07.383.26 0 .214-.144.286-.383.286h-.335z"/></g></svg>