<svg height="71" viewBox="0 0 103 71" width="103" xmlns="http://www.w3.org/2000/svg"><g fill="#fff" fill-rule="evenodd"><g transform="translate(0 51)"><path d="m7.31950514 5.6302188c0 .26538406-.12975098.7555852-.34653248 1.10270276h-.25989936c-.2165828 0-.45462518-.06115025-.71452454-.14288374-.34673118-.14288374-.77969808-.24500065-1.14788884-.24500065-.06497484 0-.12994968 0-.23824108.02018358-1.25598154.10231674-2.14416972 1.1644525-2.14416972 3.51314142 0 2.81850663 1.23452196 3.41082473 2.51236048 3.41082473.67120798 0 1.42924778-.2248171 1.99236306-.4902012.1082914.3063507.19492452.6330849.19492452.7761685-.02165828.3063507-.25989936.6534683-.56311528.8780855-.4327682.2859673-1.16934842.4698177-2.01402134.4698177-2.40406908 0-4.48306526-.8373187-4.48306526-4.94277816 0-2.14445509.7580398-3.49235833 1.624371-4.24794353.8661325-.75578503 1.99236306-1.00078568 3.07527706-1.00078568 1.36467034 0 2.40387038.61250162 2.51216178.87808552z"/><path d="m15.7223217 7.16197245v6.43356515c0 .3267341-.0216583.5717348-.2165828.8373187-.3465325.2450006-.6714067.2655839-2.0789962.2655839.0216583-1.0825192.0433166-2.4713891.0433166-4.0441094l.0214595-3.4108247c0-.65346828-.1297509-1.123286-.2813589-1.53175364.1732662-.16326715.4548239-.32673414.9311073-.51058455.1299497-.04076683.2165828-.04076683.303216-.04076683.4548238 0 .6497484.12230049.779698.40846764.4115074-.2655839.8663312-.4494343 1.2778386-.59231804.3681907-.14308358.8444742-.22481707 1.2559815-.16346699.6280901.06135008 1.0179392.2655839 1.082914.57193463 0 .30635073-.0866331.87828535-.389849 1.28675299-.151608.04076683-.151608.04076683-.3465325.04076683-.2380424 0-.4548239-.02038341-.6278914-.04076683-.1518067-.04076683-.2167815-.04076683-.2815577-.04076683-.5847735 0-1.0612557.1426839-1.472763.53096797"/><path d="m22.4359911 7.16197245v6.43356515c0 .3267341-.0216583.5717348-.2165828.8373187-.3465325.2450006-.6714067.2655839-2.0789962.2655839.0216583-1.0825192.0433166-2.4713891.0433166-4.0441094l.0214595-3.4108247c0-.65346828-.1297509-1.123286-.2813589-1.53175364.1732662-.16326715.4548239-.32673414.9311073-.51058455.1299497-.04076683.2165828-.04076683.303216-.04076683.4548238 0 .6497484.12230049.779698.40846764.4115074-.2655839.8663312-.4494343 1.2778386-.59231804.3681907-.14308358.8444742-.22481707 1.2559815-.16346699.6280901.06135008 1.0179392.2655839 1.082914.57193463 0 .30635073-.0866331.87828535-.389849 1.28675299-.151608.04076683-.151608.04076683-.3465325.04076683-.2380424 0-.4548239-.02038341-.6278914-.04076683-.1518067-.04076683-.2167815-.04076683-.2815577-.04076683-.5847735 0-1.0612557.1426839-1.472763.53096797"/><path d="m29.3662433 7.40697309-.2165828 3.67640861c0 1.7359874.541457 2.1034884 1.4294465 2.1034884.6497484.0409667 1.2992981-.2448008 1.6458305-.6330849v-6.37221502c0-.44923447.0433166-.7150182.2598994-.98040227.3032159-.24500064.541457-.24500064 1.4944213-.2655839h.5629166c-.0216583 1.08251918-.0431179 2.47138908-.0431179 4.02372598v3.43140791c0 .6532685.0866332 1.1230862.2380424 1.5317537-.1514092.1428837-.4329669.3061509-.909449.5103847-.1299497.0409666-.2598994.0409666-.303216.0409666-.389849 0-.6497484-.2044336-.779698-.4494343-.4331656.3063508-.8879895.5105846-1.2778386.6332847-.4546251.1428838-.8877907.2246173-1.4075895.2246173-2.6423101-.1019171-3.1619101-1.3277197-3.2052267-3.5335249l.1949245-4.20737651c0-.75558519-.1082914-1.30713641-.2815576-1.79733754.1732662-.14288374.4981404-.34711756 1.082914-.61250162.1732662-.04096666.2597006-.04096666.3030172-.04096666.6064318 0 .8879895.40866747.9746226.75578503.1299497.46961788.2382411.91885235.2382411 1.96060469"/><path d="m40.562978 4.77231686c1.3644716.10211691 2.0140213.63308487 2.1006544.91905219 0 .2655839-.1949245.75578503-.4329669 1.04155251-.0866331-.02038342-.3250729-.06115025-.4333643-.0817335-.2380424-.04076683-.4762834-.08153366-.7145245-.16326715-.3248742-.12270016-.6499471-.18385041-.9746226-.18385041-.7580398 0-1.2343233.38808423-1.2343233.9394356 0 .32693398.129751.61270146.5845749.96001885.2384398.16346699.5631153.38808423.9096477.61270146.4113087.30635073.8877908.6129013 1.2559816.87828536.9096477.71481833 1.343012 1.42963673 1.343012 2.28753863 0 1.9402213-1.6893458 2.9206236-3.790199 2.9206236-1.4075895 0-2.6204531-.4086675-2.8805512-.9804023 0-.3063507.1734649-.7761684.4333643-1.1029026h.2163841c.1949245 0 .411706.0613501.6497484.1838504v-.0203834c.4550226.1838504 1.0181379.3267342 1.5379366.3267342.1082914 0 .2597006-.0203834.389849-.0409667.6497484-.0611502 1.0393988-.4902011 1.0393988-1.1027028 0-.4494343-.2165828-.8375185-.8230147-1.2256027-.0868318-.0613501-.3030172-.204034-.2598993-.1632672-.4981405-.3269339-1.0610571-.755785-1.4725644-1.08251913l-.541457-.40846764c-.6714067-.63308487-.9962809-1.26636958-.9962809-1.98118795 0-1.61348713 1.4075895-2.57330615 3.4649274-2.57330615.2386385 0 .4764822.02018358.6282889.04076683"/><path d="m52.8066619 4.99693409c.1730676.32693398.1949246.61270146.1949246 1.4706034v6.84203281c0 .4696178-.0866332.7965518-.303216 1.123286-.1516079.224817-.5196.224817-2.0140213.2655839v-1.6748372c0-.5923181.0216583-1.225403.0216583-1.8788712v-3.5539083c0-.91905219-.0216583-1.55213706-.0431179-2.08330486.2597007-.51058455.9962809-.57193463 1.9707048-.57193463z"/><path d="m57.5712848 7.22312269.0647762-.06115024v6.29048155c0 .4492345-.0435153.6942351-.2597007.9804023-.3034146.2450006-.5412583.2450006-1.4944213.2655839h-.5631153c.0212609-1.0825192.0435153-2.4713891.0435153-4.023726v-3.4312081c0-.65346828-.0870305-1.12348584-.2384398-1.53175364.1514093-.16326715.4331656-.32673414.9096478-.51058455.1297509-.04076683.2597006-.04076683.3032159-.04076683.3896503 0 .6495497.18365057.7796981.42885106.4329669-.28596732.8877907-.4900013 1.2774411-.61270146.4548239-.14308358.8879895-.22481707 1.4079869-.22481707 2.7068876 0 3.2270837 1.30713641 3.2270837 3.63564175v3.08389074c0 1.1031024.0212609 2.1038881.0429192 2.9002401-.281359.2452005-.6714067.326934-2.1006545.326934-.1734649-.3063508-.2382411-.6129013-.2382411-.9192521v-5.35104591c0-1.4706034-.367992-2.00157136-1.4723656-2.00157136-.6932637 0-1.256379.34711755-1.6893459.79655186"/><path d="m68.9627453 4.77231686c1.3644717.10211691 2.0142201.63308487 2.1006545.91905219 0 .2655839-.1947258.75578503-.4331656 1.04155251-.0864344-.02038342-.3246755-.06115025-.4329669-.0817335-.2384398-.04076683-.4766809-.08153366-.7149219-.16326715-.3248742-.12270016-.649351-.18385041-.9744239-.18385041-.7580398 0-1.2341246.38808423-1.2341246.9394356 0 .32693398.1295523.61270146.5843762.96001885.238241.16346699.5631152.38808423.9096477.61270146.4115073.30635073.8879895.6129013 1.256379.87828536.9096477.71481833 1.3426146 1.42963673 1.3426146 2.28753863 0 1.9402213-1.6893458 2.9206236-3.7903977 2.9206236-1.4075895 0-2.6202545-.4086675-2.8803525-.9804023 0-.3063507.1734649-.7761684.433563-1.1029026h.2165828c.1947258 0 .4113086.0613501.6495497.1838504v-.0203834c.4548239.1838504 1.0175417.3267342 1.5375392.3267342.1082914 0 .2597006-.0203834.3900477-.0409667.649351-.0611502 1.0393987-.4902011 1.0393987-1.1027028 0-.4494343-.2165828-.8375185-.8232133-1.2256027-.086037-.0613501-.3026198-.204034-.259502-.1632672-.4979417-.3269339-1.061057-.755785-1.4729617-1.08251913l-.5412583-.40846764c-.6714067-.63308487-.9962809-1.26636958-.9962809-1.98118795 0-1.61348713 1.4075895-2.57330615 3.4653248-2.57330615.2378437 0 .4760848.02018358.6278914.04076683"/><path d="m75.1131008 4.99693409c.1730675.32693398.1947258.61270146.1947258 1.4706034v6.84203281c0 .4696178-.0864344.7965518-.3030172 1.123286-.1518067.224817-.5196001.224817-2.0142201.2655839v-1.6748372c0-.5923181.021857-1.225403.021857-1.8788712v-3.5539083c0-.91905219-.021857-1.55213706-.0431179-2.08330486.2597007-.51058455.9962809-.57193463 1.9707048-.57193463z"/><path d="m79.5528495 8.24449162c.1082914 1.28655316.6278914 2.08330488 1.6893458 2.08330488.9740265 0 1.3640742-.96001887 1.2557828-2.24697171-.1299496-1.24578633-.6714066-1.98098811-1.6458305-1.98098811-.8448717 0-1.4511048.69443496-1.2992981 2.14465494m1.4288503 3.47197488c-.3896503 0-.6491523-.0203834-.9092503-.06135l-.4331656.4084676c-.0864344.0819333-.1082914.2044337-.1082914.2859673 0 .1838504.3896503.3677008 1.1045723.4288511l.8444742.06135c.3465325.0203835.6930649.0613501 1.0395974.0817335.281359.0205833.5849723.0407669.7796981.0817335 1.342416.2450007 2.2739207.9598191 2.3390942 2.1648386 0 1.7973375-1.9707047 3.8396757-4.6567289 4.4319937-.5631152.1023168-1.3205589.1838504-2.0138226.1838504-1.0831127 0-2.0789962-.2246172-2.2953803-.8986687-.2169802-1.0209693 1.9707048-2.7777398 3.334779-3.635442.5416557.2655839.6718041.9600189.2817564 1.3071365-.6932637.5513513-1.4511048 1.2661697-1.3644717 1.6338705.0433166.163467.2598994.2044337.5412583.2044337.4331656 0 1.0614545-.1227002 1.4511048-.1838504 1.4296452-.3677008 2.5338201-1.6544538 2.5123605-2.4917725v-.2859673c-.173465-.4288511-.3898491-.7759687-1.1262306-.857902-.4764821-.0611502-.9525669-.0817335-1.450906-.1019171-.1301484 0-.281359-.0205832-.4115074-.0205832-.9964795-.0817335-1.6458305-.2859673-1.6458305-.2859673-1.0614545-.3063508-1.6027128-.8577021-1.6245697-1.4704036 0-.1430836.1082914-.2861671.2817563-.4902011.3032159-.2859673.7145245-.6127015 1.0393987-.8986688.1082914-.0817335.0868319-.1021169.1730676-.1838504-.9311074-.5515512-1.3859312-1.51137023-1.3859312-2.77753997 0-2.30792209 1.602514-3.6150585 3.8335155-3.6150585.7576424 0 1.4294465.24500065 1.9273882.46961788-.0435152-.02038341-.0649748-.04076683 0-.08173349.4764822-.02018358 1.0831127-.04076683 1.5375392-.06135008h-.0214596c.281359-.02018358.7363816-.04076683.9527657-.04076683.0866331.16346699.1734649.40866747.1734649.69443495 0 .53096796-.2602968.91925202-.7794994.91925202-.3036133 0-.433563 0-.6932636-.02058325.3465324.51058455.4979417 1.00078568.4979417 1.65425397 0 2.1854218-1.4075895 3.4517913-3.7252242 3.4517913"/><path d="m86.9377268 14.5963233c.0216583-1.1642527.0433166-2.5327392.0433166-4.1869932v-7.69973484c0-.83751853-.0216583-1.42983657-.0433166-1.87927088.2817564-.53096796.9744239-.63308487 2.0571392-.63308487.173465.30635073.2386385.59231804.2386385 1.42983657v3.88044256c.3467312-.22481707.7145246-.38808422 1.0393988-.53096796.3896503-.14328341.8879894-.24500065 1.472763-.24500065 2.2520637 0 2.8803525 1.12328601 2.8803525 3.88044256v2.96159021c0 1.1029026 0 2.0627216.0216583 2.7979234-.2598993.2655839-.5847735.326934-2.1227101.326934-.1295523-.326934-.1945271-.6536682-.1945271-1.021369v-4.8812282c0-.36770081 0-.63308487-.0433166-.83751853-.0649748-1.20481966-.5197987-1.53175364-1.1697458-1.53175364-.7361828 0-1.4075895.38828406-1.883873.81693527v6.1070308c0 .4084677-.0433165.735002-.2386385 1.061936-.3896503.2859673-.6491523.2859673-1.8624133.2859673z"/><path d="m102.314311 13.0032195c.021459.1225004.043118.2859674.043118.4698178s0 .4086674-.021659.5717347c-.043117.1430836-.151409.2655839-.303215.3880843-.498141.3065505-1.320957.4902011-2.014022.4902011-2.1656291 0-2.5773352-1.817721-2.5773352-3.4925582v-4.8608448c-.5847735-.02058325-.9527656-.14308357-1.2776398-.28596731 0-.59231804.0214596-.59231804.1949245-.75578503.3248742-.20403399.6495497-.28596732.9313061-.36750098.1730675-.04096666.2165828 0 .3463338-.06115024.0216582-.57213446.0868318-1.20521934.1084901-1.77715396.1730675-.46981772.7361828-.85770211 2.0356796-.93923577v.32673415c-.0214596.8577021-.0435153 1.51117039-.0435153 2.28733883h2.7504032c-.064578 1.14366942-.238043 1.40945316-.67101 1.49098682-.151806.02038341-.368389.04076683-.541457.04076683-.433165.02038341-.73658.02038341-1.5379362.02038341-.0214596.89866877-.0431178 1.77695413-.0431178 2.63485607 0 .46981772.0216582.89866878.0216582 1.32751978v1.0007857c.0866332 1.0623356.2380424 1.817721.9311078 1.817721.281756.0205832 1.147888-.2655839 1.299298-.3878844z"/><path d="m10.9145809 4.99693409c.1732663.32693398.1949245.61270146.1949245 1.4706034v6.84203281c0 .4696178-.0866331.7965518-.3032159 1.123286-.1516079.224817-.5197987.224817-2.01422002.2655839v-1.6748372c0-.5923181.02185698-1.225403.02185698-1.8788712v-3.5539083c0-.91905219-.02185698-1.55213706-.04351526-2.08330486.26009806-.51058455.99628088-.57193463 1.9709035-.57193463z"/></g><path d="m54.2034039 21.9316074c7.0652104-7.1390972 3.4878337-11.98179653 1.1841377-12.59732024-5.5288704-1.38424926-9.9061642 1.07621574-12.9006977 3.99791614-8.678069 9.3795383-4.7289534 20.378018-4.354501 21.9828344-4.16022-3.5426567-7.4629983-10.7594413-5.6971027-19.1388215 2.8420391-11.06964794 12.20172-15.22782842 19.6744866-15.22022266 2.3281168.01629807 15.4116992.84478321 13.6452609 12.76030086-1.152662 4.2288055-6.4074768 7.764943-11.5515838 8.215313zm-4.4400889-3.29058c-2.849094 7.4531066-.0390733 13.8924734 6.3428973 13.9669012 7.7511638.0939855 14.5016172-6.8712656 15.8702677-11.4439602.0227927 8.9041779-5.8474263 14.2852568-8.9618931 16.3393566-3.1166375 2.0530134-9.171912 4.5069592-16.5627332 2.3925565-3.4167421-4.1842574-4.3995438-17.1488274 3.3114613-21.2548541z"/></g></svg>