<svg viewBox="0 0 250 250" version="1.1" xmlns="http://www.w3.org/2000/svg" xmlns:xlink="http://www.w3.org/1999/xlink"><title>7950A3BE-51CE-4812-B7FE-49DA5A7BE7A5</title><desc>Created with sketchtool.</desc><style>@-webkit-keyframes dash{0%{stroke-dashoffset:100}to{stroke-dashoffset:0}}@-webkit-keyframes dash_big{0%{stroke-dashoffset:460}to{stroke-dashoffset:0}}.line.animated,.polygon.animated{opacity:1;stroke-dasharray:100;stroke-dashoffset:0;-webkit-animation:dash 1s linear forwards;-o-animation:dash 1s linear forwards;-moz-animation:dash 1s linear forwards;animation:dash 1s linear forwards}.polygon.animated{stroke-dasharray:460;-webkit-animation:dash_big 1s linear forwards;-o-animation:dash_big 1s linear forwards;-moz-animation:dash_big 1s linear forwards;animation:dash_big 1s linear forwards}.line{opacity:0}svg{padding:5px;box-sizing:border-box;overflow:hidden}</style><script type="text/javascript">document.animate = function(){ var isAnimated = false; var animatedElement = document.getElementById(&quot;Stroke-20&quot;); animatedElement.setAttribute(&quot;class&quot;,&quot;polygon animated&quot;); animatedElement.addEventListener(&quot;animationstart&quot;, function(){ isAnimated = true; }); if(animatedElement.addEventListener){ animatedElement.addEventListener(&quot;animationend&quot;, function(){ var elemArr = document.getElementsByClassName(&quot;line-path&quot;); for(var i = elemArr.length - 1; i&gt;=0; i--){ elemArr[i].setAttribute(&quot;class&quot;,&quot;line line-path animated&quot;); } }); }else if (animatedElement.attachEvent){ animatedElement.attachEvent(&quot;animationend&quot;, function(){ var elemArr = document.getElementsByClassName(&quot;line-path&quot;); for(var i = elemArr.length - 1; i&gt;=0; i--){ elemArr[i].setAttribute(&quot;class&quot;,&quot;line line-path animated&quot;); } }) } if(!isAnimated){ var elemArr = document.getElementsByClassName(&quot;line-path&quot;); for (var i = elemArr.length - 1; i&gt;=0 ; i-- ){ elemArr[i].setAttribute(&quot;class&quot;, &quot;line line-path animated&quot;); } } }</script><g id="Page-2" stroke="none" stroke-width="1" fill="none" fill-rule="evenodd"><g id="IS_Azure_1200" transform="translate(-96.000000, -2840.000000)" stroke-width="2"><g id="icon3" transform="translate(96.000000, 2840.000000)"><g id="Group-19" stroke="#505050"><polyline id="Stroke-1" class="line line-path" points="0 81.5217391 27.173913 81.5217391 48.9130435 103.26087 65.2173913 103.26087"/><path d="M0,125 L65.2173913,125" id="Stroke-3" class="line line-path"/><polyline id="Stroke-5" class="line line-path" points="0 168.478261 26.7228261 168.478261 48.2391304 146.73913 65.2173913 146.73913"/><path d="M125,250 L125,179.347826" id="Stroke-7" class="line line-path"/><polyline id="Stroke-9" class="line line-path" points="168.478261 250 168.478261 217.391304 146.73913 201.086957 146.73913 179.347826"/><polyline id="Stroke-11" class="line line-path" points="81.5217391 250 81.5217391 217.391304 103.26087 201.086957 103.26087 179.347826"/><path d="M125,0 L125,70.6521739" id="Stroke-13" class="line line-path"/><polyline id="Stroke-15" class="line line-path" points="168.478261 0 168.478261 32.6086957 146.73913 48.9130435 146.73913 70.6521739"/><polyline id="Stroke-17" class="line line-path" points="81.5217391 0 81.5217391 32.6086957 103.26087 48.9130435 103.26087 70.6521739"/></g><polygon id="Stroke-20" stroke="#505050" class="polygon" points="65.2173913 179.347826 184.782609 179.347826 184.782609 70.6521739 65.2173913 70.6521739"/><polygon id="Stroke-21" stroke="#1476F2" points="108.695652 146.73913 141.304348 146.73913 141.304348 103.26087 108.695652 103.26087"/><path d="M86.9565217,97.826087 L86.9565217,108.695652" id="Stroke-22" stroke="#505050"/><path d="M86.9565217,119.565217 L86.9565217,130.434783" id="Stroke-23" stroke="#505050"/><path d="M86.9565217,141.304348 L86.9565217,152.173913" id="Stroke-24" stroke="#505050"/><path d="M163.043478,97.826087 L163.043478,108.695652" id="Stroke-25" stroke="#505050"/><path d="M163.043478,119.565217 L163.043478,130.434783" id="Stroke-26" stroke="#505050"/><path d="M163.043478,141.304348 L163.043478,152.173913" id="Stroke-27" stroke="#505050"/><g id="Group-34" transform="translate(184.782609, 81.521739)" stroke="#505050"><polyline id="Stroke-28" class="line line-path" points="65.2173913 0 38.0434783 0 16.3043478 21.7391304 0 21.7391304"/><path d="M65.2173913,43.4782609 L0,43.4782609" class="line line-path" id="Stroke-30"/><polyline id="Stroke-32" class="line line-path" points="65.2173913 86.9565217 38.4945652 86.9565217 16.9782609 65.2173913 0 65.2173913"/></g><polyline id="Stroke-35" class="line line-path" stroke="#505050" points="173.913043 70.6521739 173.913043 59.7826087 195.652174 38.0434783 195.652174 21.7391304"/><polyline id="Stroke-36" class="line line-path" stroke="#505050" points="76.0869565 70.6521739 76.0869565 59.7826087 54.3478261 38.0434783 54.3478261 21.7391304"/><polyline id="Stroke-37" class="line line-path" stroke="#505050" points="173.913043 179.347826 173.913043 190.217391 195.652174 211.956522 195.652174 228.26087"/><polyline id="Stroke-38" class="line line-path" stroke="#505050" points="76.0869565 179.347826 76.0869565 190.217391 54.3478261 211.956522 54.3478261 228.26087"/></g></g></g></svg>