<svg xmlns="http://www.w3.org/2000/svg" viewBox="0 0 282 266"><style>@-webkit-keyframes dash{0%{stroke-dashoffset:150}to{stroke-dashoffset:0}}.line.animated{opacity:1;stroke-dasharray:150;stroke-dashoffset:0;-webkit-animation:dash 1s linear forwards;-o-animation:dash 1s linear forwards;-moz-animation:dash 1s linear forwards;animation:dash 1s linear forwards}.line{opacity:0;stroke-dasharray:150}svg{padding:5px;box-sizing:border-box;overflow:hidden}</style><g fill="none" fill-rule="evenodd" stroke-width="2"><path stroke="#1476F2" class="line" id="line1" d="M147.74 213.26c0 12.006-9.735 21.74-21.74 21.74-12.005 0-21.74-9.734-21.74-21.74 0-12.005 9.735-21.738 21.74-21.738 12.005 0 21.74 9.733 21.74 21.739z"/><path stroke="#505050" class="line" id="line2" d="M147.74 104.565c0 12.006-9.735 21.74-21.74 21.74-12.005 0-21.74-9.734-21.74-21.74 0-12.005 9.735-21.739 21.74-21.739 12.005 0 21.74 9.734 21.74 21.74zM104.26 23.043c0 12.006-9.733 21.74-21.738 21.74-12.006 0-21.74-9.734-21.74-21.74 0-12.005 9.734-21.739 21.74-21.739 12.005 0 21.739 9.734 21.739 21.74zM126 180.652v-54.348M109.696 71.957L93.39 44.783M164.043 142.609c0 12.005 9.734 21.739 21.74 21.739 12.005 0 21.739-9.734 21.739-21.74 0-12.005-9.734-21.738-21.74-21.738-12.005 0-21.739 9.733-21.739 21.739zM147.74 23.043c0 12.006 9.733 21.74 21.738 21.74 12.006 0 21.74-9.734 21.74-21.74 0-12.005-9.734-21.739-21.74-21.739-12.005 0-21.739 9.734-21.739 21.74zM207.522 110l10.87-16.304M153.174 186.087l19.18-27.174M251 71.957c0 12.005-9.734 21.739-21.74 21.739-12.005 0-21.738-9.734-21.738-21.74 0-12.005 9.733-21.739 21.739-21.739 12.005 0 21.739 9.734 21.739 21.74zM87.957 142.609c0 12.005-9.734 21.739-21.74 21.739-12.005 0-21.739-9.734-21.739-21.74 0-12.005 9.734-21.738 21.74-21.738 12.005 0 21.739 9.733 21.739 21.739zM44.478 110l-10.87-16.304M98.826 186.087l-19.18-27.174M1 71.957c0 12.005 9.734 21.739 21.74 21.739 12.005 0 21.738-9.734 21.738-21.74 0-12.005-9.733-21.739-21.739-21.739C10.734 50.217 1 59.951 1 71.957zM142.304 71.957l16.305-27.174"/></g><script type="text/javascript">document.animate = function(){ var isAnimated = false var animatedElement = document.getElementById(&quot;line1&quot;); animatedElement.addEventListener(&quot;animationstart&quot;, function(){ isAnimated = true; }); animatedElement.setAttribute(&quot;class&quot;, &quot;line animated&quot;); if (animatedElement.addEventListener){ animatedElement.addEventListener(&quot;animationend&quot;, function(){ document.getElementById(&quot;line2&quot;).setAttribute(&quot;class&quot;, &quot;line animated&quot;);; }) }else if (animatedElement.attachEvent){ animatedElement.attachEvent(&quot;animationend&quot;, function(){ document.getElementById(&quot;line2&quot;).setAttribute(&quot;class&quot;, &quot;line animated&quot;); }) } setTimeout(function(){ if(!isAnimated){ document.getElementById(&quot;line2&quot;).setAttribute(&quot;class&quot;, &quot;line animated&quot;); } },100) }</script></svg>