<svg xmlns="http://www.w3.org/2000/svg" viewBox="0 0 250 306"><style>@-webkit-keyframes dash{0%{stroke-dashoffset:250}to{stroke-dashoffset:0}}.line.animated{opacity:1;stroke-dasharray:250;stroke-dashoffset:0;-webkit-animation:dash 1s linear forwards;-o-animation:dash 1s linear forwards;-moz-animation:dash 1s linear forwards;animation:dash 1s linear forwards}.line{opacity:0}svg{padding:5px;box-sizing:border-box;overflow:hidden}</style><g fill="none" fill-rule="evenodd" stroke-width="2" id="figure"><path stroke="#505050" class="line additional" d="M222.283 46.417h-38.928l-25.953 25.952v142.739l-12.976 12.976"/><path stroke="#505050" class="line additional" d="M202.819 65.881l19.464-19.464-19.464-19.465M228.771 124.274l19.465-19.464-19.465-19.465"/><path stroke="#1476F2" class="line" id="blue-line" stroke-linejoin="round" d="M144.426 20.464L124.962 1l-19.465 19.464M124.962 1v253.036"/><path stroke="#505050" class="line additional" d="M248.236 104.81h-38.929l-19.464 19.464v38.929l-12.977 12.976M27.64 46.417h38.929L92.52 72.369v142.739l12.976 12.976"/><path stroke="#505050" class="line additional" d="M47.104 65.881L27.64 46.417l19.464-19.465M21.152 124.274L1.687 104.81l19.465-19.465"/><path stroke="#505050" class="line additional" d="M1.687 104.81h38.93l19.463 19.464v38.929l12.977 12.976"/><path stroke="#1476F2" class="line additional" id="line-small" stroke-linejoin="round" d="M124.962 267.013v12.976M124.962 292.965v12.976"/></g><script type="text/javascript">document.animate = function(){ var isAnimated = false; var animatedElement = document.getElementById(&quot;blue-line&quot;); animatedElement.setAttribute(&quot;class&quot;, &quot;line animated&quot;); animatedElement.addEventListener(&quot;animationstart&quot;, function(){ isAnimated = true; }); if (animatedElement.addEventListener){ animatedElement.addEventListener(&quot;animationend&quot;, function(){ var elemArr = document.getElementsByClassName(&quot;additional&quot;); for (var i = elemArr.length - 1; i&gt;=0 ; i-- ){ elemArr[i].setAttribute(&quot;class&quot;, &quot;line additional animated&quot;); } }) }else if (animatedElement.attachEvent){ animatedElement.attachEvent(&quot;animationend&quot;, function(){ var elemArr = document.getElementsByClassName(&quot;additional&quot;); for (var i = elemArr.length - 1; i&gt;=0 ; i-- ){ elemArr[i].setAttribute(&quot;class&quot;, &quot;line additional animated&quot;); } }) } setTimeout(function(){ if(!isAnimated){ var elemArr = document.getElementsByClassName(&quot;additional&quot;); for (var i = elemArr.length - 1; i&gt;=0 ; i-- ){ elemArr[i].setAttribute(&quot;class&quot;, &quot;line additional animated&quot;); } } },1000) }</script></svg>