<svg width="65" height="62" viewBox="0 0 65 62" version="1.1" xmlns="http://www.w3.org/2000/svg" xmlns:xlink="http://www.w3.org/1999/xlink"><title>Group 25 Copy</title><g id="Page-1" stroke="none" stroke-width="1" fill="none" fill-rule="evenodd"><g id="MKTG-2887-Service-page" transform="translate(-1152.000000, -2534.000000)"><g id="Group-25-Copy" transform="translate(1153.000000, 2535.000000)"><path d="M24.2857143,22.8571429 C23.4971429,22.8571429 22.8571429,22.2171429 22.8571429,21.4285714 L22.8571429,18.5714286 C22.8571429,16.9428571 27.5785714,14.2857143 31.4314286,14.2857143 L31.4257143,14.2857143 C35.2785714,14.2857143 40,16.9428571 40,18.5714286 L40,21.4285714 C40,22.2171429 39.36,22.8571429 38.5714286,22.8571429 L24.2857143,22.8571429 Z" id="Stroke-1" stroke="#1476F2"/><path d="M31.4285714,14.2857143 C34.8642857,14.2857143 37.1428571,11.5457143 37.1428571,8.16428571 L37.1428571,6.12285714 C37.1428571,2.74 34.8642857,0 31.4285714,0 C27.9928571,0 25.7142857,2.74 25.7142857,6.12285714 L25.7142857,8.16428571 C25.7142857,11.5457143 27.9928571,14.2857143 31.4285714,14.2857143 Z" id="Stroke-3" stroke="#1476F2"/><path d="M24.2857143,60 C23.4971429,60 22.8571429,59.36 22.8571429,58.5714286 L22.8571429,55.7142857 C22.8571429,54.0857143 27.5785714,51.4285714 31.4314286,51.4285714 L31.4257143,51.4285714 C35.2785714,51.4285714 40,54.0857143 40,55.7142857 L40,58.5714286 C40,59.36 39.36,60 38.5714286,60 L24.2857143,60 Z" id="Stroke-5" stroke="#1476F2"/><path d="M31.4285714,51.4285714 C34.8642857,51.4285714 37.1428571,48.6885714 37.1428571,45.3071429 L37.1428571,43.2657143 C37.1428571,39.8828571 34.8642857,37.1428571 31.4285714,37.1428571 C27.9928571,37.1428571 25.7142857,39.8828571 25.7142857,43.2657143 L25.7142857,45.3071429 C25.7142857,48.6885714 27.9928571,51.4285714 31.4285714,51.4285714 Z" id="Stroke-7" stroke="#1476F2"/><path d="M1.42857143,42.8571429 C0.64,42.8571429 0,42.2171429 0,41.4285714 L0,38.5714286 C0,36.9428571 4.72142857,34.2857143 8.57428571,34.2857143 L8.56857143,34.2857143 C12.4214286,34.2857143 17.1428571,36.9428571 17.1428571,38.5714286 L17.1428571,41.4285714 C17.1428571,42.2171429 16.5028571,42.8571429 15.7142857,42.8571429 L1.42857143,42.8571429 Z" id="Stroke-9" stroke="#1476F2"/><path d="M8.57142857,34.2857143 C12.0071429,34.2857143 14.2857143,31.5457143 14.2857143,28.1642857 L14.2857143,26.1228571 C14.2857143,22.74 12.0071429,20 8.57142857,20 C5.13571429,20 2.85714286,22.74 2.85714286,26.1228571 L2.85714286,28.1642857 C2.85714286,31.5457143 5.13571429,34.2857143 8.57142857,34.2857143 Z" id="Stroke-11" stroke="#1476F2"/><path d="M47.1428571,42.8571429 C46.3542857,42.8571429 45.7142857,42.2171429 45.7142857,41.4285714 L45.7142857,38.5714286 C45.7142857,36.9428571 50.4357143,34.2857143 54.2885714,34.2857143 L54.2828571,34.2857143 C58.1357143,34.2857143 62.8571429,36.9428571 62.8571429,38.5714286 L62.8571429,41.4285714 C62.8571429,42.2171429 62.2171429,42.8571429 61.4285714,42.8571429 L47.1428571,42.8571429 Z" id="Stroke-13" stroke="#1476F2"/><path d="M54.2857143,34.2857143 C57.7214286,34.2857143 60,31.5457143 60,28.1642857 L60,26.1228571 C60,22.74 57.7214286,20 54.2857143,20 C50.85,20 48.5714286,22.74 48.5714286,26.1228571 L48.5714286,28.1642857 C48.5714286,31.5457143 50.85,34.2857143 54.2857143,34.2857143 Z" id="Stroke-15" stroke="#1476F2"/><path d="M9.29471429,15.7142857 C12.3118571,11.4714286 16.519,8.13428571 21.4275714,6.18714286" id="Stroke-17" stroke="#323232"/><path d="M18.5714286,55.339 C14.8842857,53.3518571 11.7085714,50.5375714 9.29428571,47.1432857" id="Stroke-19" stroke="#323232"/><path d="M53.5617143,15.7142857 C50.5445714,11.4714286 46.3374286,8.13428571 41.4288571,6.18714286" id="Stroke-21" stroke="#323232"/><path d="M44.285,55.339 C47.9721429,53.3518571 51.1478571,50.5375714 53.5621429,47.1432857" id="Stroke-23" stroke="#323232"/></g></g></g></svg>