<svg width="67" height="62" viewBox="0 0 67 62" version="1.1" xmlns="http://www.w3.org/2000/svg" xmlns:xlink="http://www.w3.org/1999/xlink"><title>Group 23 Copy</title><g id="Page-1" stroke="none" stroke-width="1" fill="none" fill-rule="evenodd"><g id="MKTG-2887-Service-page" transform="translate(-910.000000, -2534.000000)"><g id="Group-23-Copy" transform="translate(911.000000, 2535.000000)"><path d="M64.7484545,42.6879273 L42.1813636,26.3030182 L42.1813636,54.1130182 C42.1813636,54.9557455 42.921,55.2453818 43.5935455,54.5924727 L49.9164545,48.4904727 L56.0119091,59.2299273 C56.5257273,60.0677455 57.735,60.2493818 58.7053636,59.6390182 L61.2531818,58.0370182 C62.2055455,57.4381091 62.5835455,56.2713818 62.1057273,55.4352 L56.2540909,45.2733818 L63.9155455,45.2733818 C64.8859091,45.2733818 65.4848182,43.1772 64.7484545,42.6879273 Z" id="Stroke-1" stroke="#323232"/><path d="M21.2367273,29.4545455 L21.2367273,31.0909091 C21.2367273,32.8974545 22.7372727,34.3636364 24.5454545,34.3636364 L27.8181818,34.3636364 C29.6247273,34.3636364 31.0549091,32.8974545 31.0549091,31.0909091 L31.0549091,30.1761818 C31.0549091,28.7689091 30.1712727,27.5170909 28.836,27.072 L23.4834545,25.2916364 C22.1465455,24.8465455 21.2367273,23.5947273 21.2367273,22.1874545 L21.2367273,21.2727273 C21.2367273,19.4661818 22.7372727,18 24.5454545,18 L27.8181818,18 C29.6247273,18 31.0549091,19.4661818 31.0549091,21.2727273 L31.0549091,22.9090909" id="Stroke-15" stroke="#1476F2"/><line x1="26.146" y1="18" x2="26.146" y2="13.091" id="Stroke-17" stroke="#1476F2"/><line x1="26.146" y1="34.364" x2="26.146" y2="39.273" id="Stroke-19" stroke="#1476F2"/><path d="M35.9648182,50.4747818 C32.9424545,51.6938727 29.6402727,52.3631455 26.181,52.3631455 C11.7220909,52.3631455 -0.000818181818,40.6418727 -0.000818181818,26.1813273 C-0.000818181818,11.7224182 11.7220909,-0.000490909091 26.181,-0.000490909091 C40.0900909,-0.000490909091 51.4677273,10.8469636 52.3137273,24.5416909" id="Stroke-21" stroke="#323232"/></g></g></g></svg>