<svg width="180" height="70" viewBox="0 0 180 70" fill="none" xmlns="http://www.w3.org/2000/svg"><mask id="mask0" mask-type="alpha" maskUnits="userSpaceOnUse" x="0" y="0" width="180" height="70"><rect width="180" height="70" fill="#C4C4C4"/></mask><g mask="url(#mask0)"><path fill-rule="evenodd" clip-rule="evenodd" d="M50.1428 37.3368C49.8521 37.039 49.561 36.7414 49.27 36.4439C48.591 35.7496 47.9119 35.0553 47.2361 34.3579C47.1106 34.2284 47.046 34.297 46.9702 34.3774C46.9618 34.3864 46.9533 34.3954 46.9445 34.4044C46.0089 35.3595 45.0723 36.3142 44.1361 37.2686L44.1301 37.2747C44.0782 37.3277 44.0192 37.3978 44.0025 37.4558H50.2069C50.1864 37.4248 50.1746 37.3982 50.1654 37.3774C50.1573 37.3591 50.1511 37.3453 50.1428 37.3368ZM46.7259 40.6298C46.7454 40.6298 46.7651 40.6304 46.7848 40.6311C46.8689 40.6337 46.9536 40.6364 47.0334 40.5894H47.0335C46.4994 40.0671 45.9614 39.5068 45.4325 38.9537C45.2713 38.7851 45.1054 38.6222 44.9397 38.4595L44.9397 38.4595L44.9397 38.4595C44.6136 38.1392 44.2883 37.8197 44.0005 37.459C43.9897 37.4605 43.9797 37.4605 43.9704 37.4592L43.9736 37.4559H43.9552C43.9273 37.4473 43.9049 37.4269 43.8807 37.402C43.5759 37.0887 43.2706 36.7761 42.9653 36.4634L42.9637 36.4618C42.2997 35.7818 41.6357 35.1018 40.9774 34.4162C40.8219 34.2542 40.7415 34.2771 40.5997 34.4236C40.0237 35.0187 39.4441 35.6096 38.8643 36.2005L38.864 36.2008C38.5319 36.5394 38.1998 36.8779 37.8683 37.2173C37.8617 37.2241 37.8546 37.231 37.8473 37.2381C37.7944 37.2898 37.7288 37.3539 37.7396 37.4559H43.9552C43.9601 37.4573 43.9651 37.4585 43.9704 37.4592C43.2214 38.224 42.5031 38.9494 41.7943 39.6652L41.7932 39.6663L41.792 39.6676C41.4809 39.9817 41.1717 40.294 40.8624 40.607C40.8735 40.615 40.8747 40.6261 40.8656 40.6365C40.8766 40.6384 40.8875 40.6402 40.8984 40.6421C40.9072 40.6435 40.916 40.645 40.9248 40.6464C40.9457 40.6498 40.9665 40.6532 40.9874 40.6569C41.1407 40.6548 41.2939 40.6517 41.4472 40.6487C41.7196 40.6432 41.9919 40.6378 42.2643 40.6373L43.7522 40.6346C44.7434 40.6327 45.7346 40.6308 46.7259 40.6298ZM44.3693 44.3331C43.9602 43.918 43.9572 43.9211 43.5411 44.343L43.5361 44.348C43.1824 44.7067 42.8289 45.0678 42.473 45.4312L42.4728 45.4314C41.9371 45.9784 41.3961 46.5309 40.8414 47.0887H47.0728C46.4113 46.3886 45.7734 45.7472 45.142 45.1124L45.1419 45.1123C44.8837 44.8526 44.6265 44.5941 44.3693 44.3331ZM37.7276 50.3384H43.8718C43.8461 50.2092 43.7928 50.1694 43.7405 50.1304L43.7405 50.1304C43.7223 50.1168 43.7043 50.1033 43.6875 50.0862L43.4971 49.8915C42.6571 49.0326 41.8125 48.169 40.9812 47.3028C40.8206 47.1355 40.7453 47.1783 40.609 47.3188C39.9058 48.0438 39.1976 48.768 38.4907 49.4911L37.9005 50.0948C37.8891 50.1064 37.877 50.118 37.8646 50.1297C37.8077 50.1839 37.7457 50.243 37.7276 50.3384ZM40.9108 53.698C40.9016 53.6886 40.8929 53.6777 40.884 53.6667C40.8515 53.6261 40.8173 53.5833 40.7504 53.6068L40.7505 53.6044L40.7505 53.5864C40.7504 53.5583 40.7482 53.5327 40.7303 53.5117C40.7473 53.5316 40.7501 53.5587 40.7505 53.5864L40.7504 53.5997L40.7504 53.6019C40.7478 53.6337 40.7319 53.6383 40.7022 53.6278C39.7083 54.6531 38.7144 55.6766 37.6907 56.7211H43.8775C43.8539 56.6952 43.8355 56.674 43.8194 56.6555C43.7996 56.6326 43.7833 56.6139 43.7652 56.5953C43.2253 56.0441 42.6853 55.4972 42.1451 54.9501L42.145 54.9499C41.7337 54.5335 41.3224 54.1168 40.9108 53.698ZM31.3659 56.7726L37.5785 56.7728C37.5542 56.7411 37.5362 56.7168 37.5218 56.6974C37.4984 56.6658 37.4845 56.647 37.4683 56.6305C36.5102 55.6523 35.5518 54.6746 34.5919 53.6982C34.5831 53.6893 34.5747 53.6787 34.5663 53.668C34.5342 53.6274 34.5002 53.5844 34.4321 53.6164L34.3877 53.643V53.643C34.1841 53.8524 33.9804 54.0616 33.7767 54.2708L33.7755 54.2721C33.298 54.7625 32.8205 55.2529 32.3445 55.7447C32.117 55.9798 31.892 56.2174 31.6671 56.455C31.5668 56.561 31.4665 56.6669 31.3659 56.7726ZM28.2905 53.4294C28.2882 53.4315 28.2858 53.4337 28.2833 53.4359C28.249 53.4668 28.208 53.5038 28.2953 53.541C28.4398 53.5392 28.5842 53.5371 28.7286 53.5349C29.0464 53.5301 29.3643 53.5253 29.6821 53.5248C30.4972 53.5234 31.3124 53.5232 32.1275 53.523C32.7768 53.5228 33.426 53.5227 34.0753 53.5219C34.0982 53.5219 34.1212 53.5229 34.1443 53.5238H34.1444C34.2248 53.5271 34.3056 53.5305 34.3822 53.4923L33.7784 52.875C33.0045 52.0837 32.2305 51.2925 31.4578 50.4999L31.4564 50.4985C31.3695 50.4094 31.3057 50.344 31.1845 50.4687C30.5424 51.1296 29.8978 51.788 29.2531 52.4463L29.2521 52.4473C28.9346 52.7716 28.617 53.0959 28.2998 53.4205C28.297 53.4234 28.2938 53.4264 28.2905 53.4294ZM25.0677 50.28H31.2131L31.2038 50.2631C31.179 50.2181 31.1698 50.2013 31.1531 50.1842C30.7801 49.8028 30.4066 49.4233 30.0333 49.0439C29.4494 48.4505 28.8658 47.8574 28.2849 47.2584C28.156 47.1256 28.0884 47.1813 27.9904 47.2817C27.4679 47.8164 26.9445 48.3486 26.4209 48.8808L26.4206 48.8811L26.4198 48.8819C26.0192 49.2892 25.6186 49.6965 25.2182 50.105C25.2 50.1236 25.1831 50.146 25.165 50.1699L25.165 50.17L25.165 50.17C25.1379 50.2059 25.1082 50.2452 25.0677 50.28ZM25.1237 43.8388H31.2377C31.1925 43.8015 31.1661 43.7633 31.1445 43.7322C31.1325 43.7148 31.122 43.6996 31.1106 43.688C30.7589 43.3293 30.4067 42.9728 30.0546 42.6166L30.0543 42.6162L30.0539 42.6159C29.4615 42.0164 28.8697 41.4175 28.2823 40.8096C28.1512 40.6741 28.0942 40.7327 28.007 40.8224L27.9964 40.8333C27.5282 41.3122 27.0594 41.7887 26.5906 42.2652L26.5897 42.2661C26.1367 42.7266 25.6836 43.187 25.2312 43.6497C25.2198 43.6614 25.2067 43.6715 25.1937 43.6817C25.1502 43.7156 25.1066 43.7495 25.1237 43.8388ZM25.3045 37.4442C27.1991 37.4456 29.0937 37.4451 30.9883 37.4424C31.0046 37.4423 31.0226 37.4446 31.0409 37.4469C31.1006 37.4545 31.1644 37.4626 31.1897 37.394C31.2141 37.3283 31.1639 37.2887 31.1165 37.2513C31.1012 37.2392 31.0863 37.2274 31.0741 37.215C30.7448 36.8777 30.415 36.5409 30.0851 36.2042L30.0847 36.2038C29.4976 35.6044 28.9105 35.0051 28.3265 34.4025C28.2 34.2721 28.1272 34.2569 27.993 34.3982C27.5026 34.915 27.0011 35.4208 26.4997 35.9266L26.4484 35.9783C26.1325 36.2969 25.814 36.613 25.4923 36.9323L25.492 36.9326L25.4915 36.933C25.3487 37.0748 25.2052 37.2172 25.0609 37.3608C25.1551 37.4511 25.2205 37.4479 25.2767 37.4451L25.2768 37.4451C25.2863 37.4447 25.2954 37.4442 25.3045 37.4442ZM29.1268 33.25L29.1267 33.2502L29.1267 33.2502C28.8242 33.5508 28.5141 33.859 28.1847 34.2062H34.3734L34.3682 34.1837C34.3591 34.1446 34.3566 34.1343 34.3469 34.1243C33.3768 33.1328 32.4036 32.1352 31.4379 31.1394C31.3196 31.0173 31.2621 31.0771 31.185 31.1572L31.1684 31.1744L30.8591 31.4915L30.8587 31.4919C30.4336 31.9279 30.0075 32.365 29.5799 32.7971C29.4298 32.9489 29.2793 33.0985 29.1268 33.25ZM31.5618 30.7633C31.5506 30.7747 31.5379 30.785 31.525 30.7953C31.4811 30.8305 31.4356 30.867 31.4452 30.9567H37.5571C37.5184 30.913 37.4862 30.8756 37.4577 30.8426L37.4577 30.8425L37.4577 30.8425C37.4105 30.7878 37.3734 30.7447 37.3335 30.704C37.0423 30.4064 36.7506 30.1099 36.4588 29.8135L36.4587 29.8133L36.4586 29.8133C35.8592 29.2042 35.2601 28.5954 34.6673 27.9784C34.5002 27.8044 34.4161 27.8419 34.27 27.9931C33.6967 28.5863 33.1194 29.1745 32.542 29.7629C32.2151 30.096 31.8881 30.4291 31.5618 30.7633ZM40.7132 40.6013H40.7133C40.4674 40.35 40.2213 40.0991 39.9752 39.8481L39.974 39.8469C39.2418 39.1004 38.5096 38.3539 37.7852 37.5995C37.6375 37.4456 37.5697 37.5173 37.4828 37.6093C37.4737 37.6188 37.4645 37.6286 37.4549 37.6384C36.8956 38.2095 36.3358 38.7802 35.776 39.3509L34.9813 40.1612L34.8931 40.2508L34.8931 40.2509C34.7948 40.3506 34.6965 40.4502 34.6015 40.553C34.5194 40.6418 34.5826 40.6505 34.6423 40.6588C34.6503 40.6599 34.6583 40.661 34.6658 40.6623C34.8014 40.6601 34.9371 40.6574 35.0727 40.6546C35.3724 40.6486 35.672 40.6426 35.9716 40.6422C36.8487 40.6408 37.7258 40.6409 38.6029 40.641C39.2143 40.6411 39.8257 40.6412 40.4371 40.6408C40.4564 40.6408 40.4759 40.6417 40.4954 40.6426H40.4955C40.5701 40.6461 40.6455 40.6497 40.7132 40.6013ZM34.5885 47.0887H40.7103C40.695 47.065 40.6836 47.0446 40.6738 47.0271L40.6738 47.0271C40.6596 47.0018 40.6488 46.9826 40.6348 46.9683L40.1465 46.4692C39.3526 45.6578 38.5576 44.8454 37.7682 44.0305C37.6383 43.8963 37.574 43.9545 37.4755 44.0556C36.7333 44.8178 35.9889 45.5789 35.2414 46.3356C35.0768 46.5023 34.9062 46.6639 34.7358 46.8254C34.6673 46.8903 34.5988 46.9552 34.5307 47.0204C34.5368 47.0272 34.5429 47.0307 34.5491 47.0341C34.5622 47.0416 34.5754 47.0491 34.5885 47.0887ZM31.4692 44.0648C31.3476 43.9384 31.2472 43.9182 31.1419 44.0364C30.6028 44.6412 30.0327 45.2151 29.4627 45.7889L29.4627 45.7889C29.0894 46.1647 28.7161 46.5405 28.3515 46.9249C28.3414 46.9356 28.3289 46.9438 28.3164 46.9521C28.2788 46.977 28.2415 47.0016 28.2725 47.0887H34.3804C34.2632 46.8762 34.1093 46.7348 33.9597 46.5975L33.9597 46.5975C33.9051 46.5473 33.851 46.4977 33.7996 46.4454C33.6377 46.2807 33.4757 46.1162 33.3136 45.9516C32.6966 45.325 32.0794 44.6981 31.4692 44.0648ZM31.3979 37.4558H37.5896C37.5271 37.3625 37.4884 37.325 37.4524 37.2902L37.4523 37.2902C37.4436 37.2817 37.435 37.2734 37.4263 37.2645L37.1354 36.9673L37.1352 36.9671C36.3143 36.1284 35.4907 35.2869 34.6794 34.4403C34.5033 34.2564 34.4137 34.2946 34.2579 34.4558C33.6181 35.1176 32.9729 35.7766 32.3282 36.435L32.3279 36.4353C32.0744 36.6942 31.8211 36.953 31.5682 37.2118C31.5567 37.2235 31.5444 37.2352 31.5317 37.2471C31.4746 37.3011 31.4115 37.3608 31.3979 37.4558ZM31.5278 37.6657C31.3646 37.4961 31.276 37.4854 31.1082 37.6597C30.4644 38.3286 29.8139 38.9908 29.1634 39.6529C28.9102 39.9107 28.6569 40.1685 28.404 40.4268C28.3922 40.4388 28.3798 40.4507 28.3673 40.4626C28.3233 40.5049 28.2782 40.548 28.2578 40.6003C28.2384 40.6499 28.2739 40.6518 28.3091 40.6537C28.3238 40.6545 28.3385 40.6553 28.3491 40.6596C28.4684 40.6577 28.5878 40.6553 28.7071 40.6529H28.7072C28.9648 40.6477 29.2225 40.6425 29.4801 40.6421C30.9908 40.6398 32.5014 40.6405 34.0121 40.6413C34.0696 40.6413 34.1272 40.6467 34.1847 40.6521H34.1847C34.2113 40.6546 34.238 40.6571 34.2647 40.6591C34.4939 40.5899 34.3658 40.5229 34.2892 40.4828L34.2892 40.4828C34.2697 40.4726 34.2536 40.4641 34.2475 40.4579C33.8419 40.0387 33.434 39.622 33.0261 39.2052L33.0261 39.2052C32.5252 38.6935 32.0243 38.1818 31.5278 37.6657ZM36.7667 43.0249L36.7618 43.0198L36.7614 43.0195C36.0384 42.2818 35.3151 41.5438 34.5969 40.8017C34.4771 40.6779 34.4238 40.733 34.3462 40.8132L34.3319 40.8279C33.3815 41.7993 32.4289 42.7724 31.4779 43.7433C31.4698 43.7516 31.4603 43.7581 31.4509 43.7646C31.4189 43.7865 31.3887 43.8073 31.4188 43.8971H37.5795C37.532 43.801 37.5077 43.7782 37.4828 43.7549C37.4776 43.7501 37.4724 43.7453 37.467 43.7397C37.2337 43.5014 37.0002 43.2631 36.7667 43.0249ZM31.4144 50.3382H37.5552C37.5083 50.2384 37.4892 50.2202 37.4688 50.2008C37.4655 50.1977 37.4622 50.1945 37.4587 50.1909C36.5024 49.2139 35.5424 48.231 34.5912 47.2488C34.4662 47.1198 34.4053 47.1872 34.3364 47.2637C34.3256 47.2757 34.3146 47.2878 34.3031 47.2995C33.6667 47.9481 33.0299 48.599 32.3937 49.2494L31.5913 50.0696C31.5756 50.0856 31.5586 50.0993 31.5416 50.113C31.4852 50.1584 31.428 50.2045 31.4144 50.3382ZM40.4471 53.525L40.4472 53.525C40.5329 53.5294 40.619 53.5339 40.701 53.4937C40.4623 53.2494 40.2234 53.0054 39.9844 52.7613L39.9802 52.7571L39.9798 52.7567C39.2572 52.0186 38.5346 51.2807 37.8188 50.536C37.6649 50.3758 37.5866 50.3918 37.442 50.541C36.8316 51.1709 36.2168 51.7964 35.6021 52.4219C35.292 52.7374 34.9819 53.0529 34.6723 53.369C34.6635 53.378 34.6536 53.3867 34.6435 53.3954L34.6435 53.3955C34.6045 53.4295 34.5635 53.4652 34.5753 53.5312L35.6738 53.5297L35.6893 53.5297C37.248 53.5276 38.8066 53.5255 40.3653 53.5223C40.3924 53.5222 40.4197 53.5236 40.4471 53.525ZM43.594 43.5267C42.6753 42.5916 41.7616 41.6581 40.8465 40.7195C40.824 40.7271 40.8014 40.7363 40.7789 40.7455C40.7564 40.7548 40.7339 40.764 40.7115 40.7715C40.4212 41.068 40.1308 41.3619 39.8397 41.6567L39.8396 41.6568C39.1229 42.3825 38.4014 43.113 37.6633 43.897H43.8558C43.8746 43.8537 43.8933 43.8337 43.9121 43.8137C43.9186 43.8068 43.925 43.8 43.9314 43.7922C43.9194 43.7833 43.9071 43.7744 43.8948 43.7655C43.8823 43.7565 43.8697 43.7474 43.857 43.7383C43.7652 43.6724 43.6706 43.6046 43.594 43.5267ZM37.7635 31.1435C37.6366 31.0127 37.5702 31.082 37.4889 31.1668L37.4689 31.1876L37.1057 31.5595C36.7049 31.9702 36.3035 32.3815 35.9013 32.7894C35.7576 32.9351 35.6136 33.0793 35.468 33.2252C35.1592 33.5345 34.8429 33.8514 34.5054 34.2063H40.7089C40.6933 34.1826 40.6813 34.162 40.671 34.1444C40.6562 34.1189 40.6449 34.0995 40.6309 34.0851C39.6747 33.1079 38.7154 32.1249 37.7635 31.1435ZM38.0971 30.5151L38.0968 30.5155C37.9658 30.647 37.8336 30.7797 37.6998 30.9144C37.8152 30.9888 37.9011 30.9847 37.9788 30.981C37.9955 30.9802 38.0118 30.9794 38.0279 30.9794L38.2109 30.9796C39.9216 30.9813 41.6322 30.983 43.3427 30.977C43.3864 30.9769 43.436 30.9841 43.4862 30.9914L43.4863 30.9914C43.6207 31.011 43.7603 31.0313 43.8072 30.914C43.8432 30.8238 43.7392 30.748 43.6353 30.6724C43.5886 30.6384 43.542 30.6044 43.5081 30.5692C43.0863 30.1304 42.6617 29.6943 42.2371 29.2583L42.2367 29.2578C41.8344 28.8447 41.4322 28.4315 41.0322 28.0161C40.8584 27.8355 40.7461 27.7952 40.5473 28.0133C40.1648 28.4332 39.7641 28.836 39.3634 29.2387C39.231 29.3719 39.0985 29.505 38.9668 29.6387C38.6799 29.9298 38.3916 30.2194 38.0971 30.5151ZM44.0799 31.1425C43.9536 31.0123 43.8903 31.0787 43.8079 31.1651L43.7871 31.1868L43.3968 31.5879C42.9191 32.0791 42.4401 32.5715 41.9607 33.0591C41.7847 33.2382 41.608 33.419 41.4267 33.6046L41.4259 33.6054L41.4252 33.6062C41.2358 33.8001 41.0415 33.999 40.8377 34.2063H47.0173C46.981 34.1139 46.9618 34.0981 46.9424 34.0821C46.9374 34.078 46.9324 34.0739 46.9271 34.0685C45.9775 33.0984 45.0248 32.1173 44.0799 31.1425ZM47.4408 33.9078C47.4279 33.921 47.4127 33.934 47.3972 33.9472C47.3378 33.9979 47.2737 34.0526 47.3155 34.1413C47.3541 34.2231 47.4346 34.2151 47.5103 34.2076C47.5321 34.2054 47.5536 34.2033 47.5735 34.2034L47.8558 34.2046C48.5774 34.2079 49.2991 34.2113 50.0205 34.2006C50.2181 34.1977 50.2764 34.2467 50.276 34.453C50.2756 34.6905 50.273 34.928 50.2705 35.1656V35.1656C50.2633 35.8367 50.256 36.5079 50.2963 37.1784C50.3078 37.37 50.2373 37.5053 50.1071 37.6369C49.2113 38.5424 48.3201 39.4526 47.4306 40.3646C47.4097 40.386 47.3866 40.4061 47.3635 40.4262C47.2945 40.486 47.2246 40.5466 47.2072 40.6484L50.0823 40.6592L50.2073 40.6611C50.2418 40.6482 50.2572 40.662 50.2573 40.6977C50.2585 40.9341 50.2546 41.171 50.2507 41.408V41.408C50.2417 41.9557 50.2327 42.5035 50.2871 43.0445C50.3191 43.3626 50.2809 43.6251 50.1805 43.8597C50.1634 43.7758 50.1131 43.7305 50.0655 43.6876L50.0654 43.6875C50.052 43.6755 50.0388 43.6636 50.0266 43.6511C49.8386 43.4583 49.6493 43.2668 49.46 43.0753C49.1658 42.7777 48.8716 42.48 48.582 42.1775C48.4298 42.0185 48.2735 41.8636 48.1173 41.7088L48.1173 41.7088C47.795 41.3892 47.4728 41.0698 47.1861 40.7145C47.1766 40.716 47.1671 40.7178 47.1576 40.7197C47.1474 40.7217 47.1371 40.7238 47.1269 40.7259C47.1072 40.73 47.0875 40.7341 47.0677 40.7374C47.0663 40.768 47.0511 40.7847 47.0233 40.7745C46.7486 41.0571 46.474 41.3379 46.1985 41.6196L46.1983 41.6198C45.4776 42.3565 44.7509 43.0995 44.0021 43.8971H50.1765C50.074 44.1292 49.9087 44.325 49.6882 44.5324C49.0408 45.1414 48.421 45.7729 47.7944 46.4113L47.7937 46.412C47.5918 46.6177 47.3893 46.824 47.1849 47.0306C47.2768 47.1119 47.3636 47.1056 47.4433 47.0998C47.4636 47.0983 47.4836 47.0969 47.503 47.0969C48.3468 47.0995 49.1907 47.0983 50.0347 47.096L50.055 47.0959C50.1753 47.095 50.2734 47.0943 50.2726 47.2813C50.2699 47.9455 50.2729 48.6097 50.2759 49.274V49.274L50.2759 49.2772C50.2772 49.5784 50.2786 49.8796 50.2794 50.1807C50.2794 50.1969 50.2741 50.213 50.2654 50.2396C50.26 50.2559 50.2533 50.2762 50.2458 50.3029C50.208 50.2661 50.1719 50.2314 50.137 50.1978L50.1368 50.1977C50.0652 50.1288 49.9988 50.0649 49.9342 49.9992C49.0493 49.0969 48.1645 48.1945 47.2815 47.2902C47.2716 47.28 47.2621 47.2698 47.2528 47.2598C47.1783 47.1796 47.1183 47.1151 46.9928 47.2447C46.3162 47.9438 45.6358 48.639 44.9553 49.3343L44.9538 49.3358C44.6637 49.6323 44.3735 49.9288 44.0836 50.2255C44.0609 50.2488 44.0421 50.2761 44.0233 50.3033C44.0159 50.3139 44.0086 50.3246 44.001 50.335C43.9828 50.35 43.9641 50.3646 43.9454 50.3792C43.9042 50.4113 43.863 50.4434 43.8266 50.4804C42.8868 51.4362 41.9479 52.3928 41.0109 53.3513C40.9998 53.3626 40.987 53.3732 40.9741 53.3839C40.9299 53.4206 40.8839 53.4588 40.8972 53.5331L46.9532 53.5391H46.9535C46.9665 53.538 46.9778 53.5369 46.989 53.5359L46.9894 53.5358C47.0121 53.5336 47.0349 53.5314 47.0728 53.5291V53.529C46.1053 52.5445 45.1471 51.5609 44.1876 50.5739C44.1693 50.5551 44.1484 50.5381 44.1273 50.5209L44.1273 50.5209C44.0697 50.4739 44.0111 50.426 44.0025 50.34L45.401 50.3367H45.4018C46.3904 50.3343 47.379 50.3319 48.3677 50.33C48.7841 50.3292 49.2002 50.3294 49.6415 50.3296L50.2932 50.3298C49.7228 50.9085 49.1639 51.4753 48.6105 52.0364L48.6091 52.0378C48.1134 52.5404 47.6223 53.0385 47.1313 53.5366C47.1248 53.5427 47.1158 53.5489 47.1068 53.555C47.0898 53.5667 47.0728 53.5783 47.0728 53.5899V53.59C46.4937 54.1786 45.9215 54.7677 45.3498 55.3563L45.3493 55.3568C44.9098 55.8093 44.4705 56.2616 44.0284 56.7133C43.7051 57.0436 43.3811 57.3731 43.0572 57.7025L43.0555 57.7042C42.3673 58.4041 41.6793 59.1038 40.9981 59.8112C40.8233 59.9926 40.7357 59.969 40.577 59.8049C40.1206 59.3332 39.6608 58.8648 39.2011 58.3965C38.7356 57.9222 38.2701 57.4479 37.8081 56.9702C37.667 56.8243 37.5937 56.8256 37.4537 56.9702C36.8741 57.5689 36.2905 58.1635 35.7068 58.7581L35.7062 58.7587C35.3514 59.1202 34.9965 59.4817 34.6426 59.8441C34.5366 59.9527 34.4627 60.0157 34.3235 59.8722C33.6959 59.2246 33.0647 58.5807 32.4335 57.9368L32.4327 57.936C32.106 57.6027 31.7793 57.2695 31.4531 56.9357C31.4443 56.9266 31.4344 56.9179 31.4244 56.9091C31.3862 56.8757 31.3463 56.8407 31.3556 56.7775C31.2732 56.7779 31.2286 56.7218 31.1853 56.6673L31.1853 56.6672C31.1711 56.6493 31.157 56.6316 31.1418 56.6161C30.4054 55.8673 29.6696 55.1179 28.9338 54.3685C27.6989 53.1109 26.464 51.8532 25.2265 50.5983C25.0594 50.4289 24.9822 50.2573 24.9853 50.0155C24.9966 49.1268 24.9966 48.2378 24.9855 47.3491C24.9828 47.1406 25.0477 47.0908 25.2426 47.0927C25.9273 47.0996 26.612 47.0986 27.2989 47.0976C27.5428 47.0973 27.7871 47.0969 28.0317 47.0969C28.0401 46.9877 27.9758 46.9351 27.9155 46.8857C27.8973 46.8708 27.8795 46.8563 27.8642 46.8405C26.9826 45.936 26.1006 45.032 25.2095 44.1372C25.0476 43.9746 24.9825 43.8073 24.9856 43.5773C24.9951 42.8782 24.996 42.1791 24.9969 41.4799C24.9973 41.2227 24.9976 40.9655 24.9984 40.7083C25.0134 40.6487 25.0607 40.6428 25.1083 40.643C25.9843 40.6476 26.8602 40.6526 27.736 40.6577L28.003 40.6593C28.0566 40.554 27.9912 40.5042 27.9309 40.4583C27.9134 40.4449 27.8963 40.4319 27.8826 40.4179C26.9935 39.5058 26.1036 38.5944 25.2046 37.6925C25.0493 37.5367 24.9844 37.3773 24.9865 37.1583C24.9954 36.259 24.9969 35.3597 24.9874 34.4604C24.9853 34.2597 25.0371 34.1985 25.2392 34.2013C25.8526 34.2098 26.4662 34.2085 27.0798 34.2072H27.0801C27.3012 34.2068 27.5222 34.2063 27.7432 34.2063H28.127C27.4029 33.467 26.7053 32.7689 26.0121 32.0753L26.0115 32.0747C25.6712 31.7341 25.3319 31.3947 24.9911 31.0519C25.1226 30.9658 25.2293 30.9724 25.3268 30.9784C25.3511 30.9799 25.3749 30.9814 25.3984 30.9813C26.3772 30.9802 27.356 30.9804 28.3348 30.9805C29.1866 30.9807 30.0383 30.9808 30.89 30.9801C30.9117 30.9801 30.9355 30.9829 30.9598 30.9858H30.9598C31.0359 30.9948 31.1166 31.0044 31.1507 30.929C31.1866 30.8495 31.1232 30.8009 31.0634 30.7551C31.0435 30.7398 31.024 30.7249 31.0087 30.7092C30.4161 30.1017 29.8221 29.4958 29.2281 28.8899C28.964 28.6204 28.6998 28.3509 28.4358 28.0814C28.3774 28.0218 28.321 27.9604 28.2628 27.897L28.2627 27.897C28.2351 27.8669 28.2071 27.8364 28.1783 27.8055C28.2546 27.7501 28.3285 27.7563 28.3984 27.7621C28.4196 27.7638 28.4405 27.7655 28.4609 27.7655C29.9749 27.7632 31.489 27.763 33.0031 27.7628L33.8957 27.7627C33.9178 27.7627 33.9399 27.7631 33.9621 27.7636H33.9621C34.016 27.7646 34.0699 27.7657 34.1232 27.7604C34.1376 27.759 34.1532 27.7596 34.169 27.7602C34.2195 27.7622 34.2719 27.7642 34.2955 27.6996C34.3196 27.6335 34.277 27.5979 34.2367 27.5643C34.2257 27.5551 34.2148 27.5461 34.2056 27.5366C33.9806 27.3061 33.7517 27.0792 33.5228 26.8522C33.0103 26.3441 32.4979 25.8359 32.0297 25.2884C31.5355 24.7103 30.9999 24.5236 30.2607 24.5471C29.0263 24.5864 27.7904 24.5787 26.5542 24.571C26.054 24.5679 25.5538 24.5648 25.0536 24.5648C25.0325 24.472 25.0863 24.4275 25.1367 24.3859L25.1367 24.3859C25.1506 24.3744 25.1642 24.3632 25.1759 24.3512C25.9022 23.6091 26.6289 22.8675 27.3555 22.1258L27.358 22.1233L27.3582 22.1231C28.628 20.8271 29.8977 19.5311 31.1653 18.2329C31.2815 18.1139 31.3407 18.1096 31.458 18.2295C32.4689 19.2636 33.482 20.2954 34.4951 21.3273L34.4951 21.3273C35.2061 22.0515 35.9171 22.7757 36.6273 23.5006C37.9674 24.8684 39.3044 26.2397 40.6393 27.6129C40.7486 27.7254 40.861 27.7666 41.0151 27.7662C42.3465 27.7629 43.678 27.7637 45.0095 27.7645H45.0113C45.5952 27.7648 46.179 27.7652 46.7629 27.7652H47.071C47.0837 27.7652 47.0963 27.7892 47.1089 27.8133L47.1089 27.8133C47.1149 27.8248 47.121 27.8364 47.127 27.8452C46.9752 27.9933 46.8229 28.1406 46.6707 28.2879L46.6696 28.2889L46.6695 28.289C46.3652 28.5833 46.0611 28.8776 45.7609 29.1768C45.2697 29.6666 44.7852 30.1621 44.3001 30.6581L44.2998 30.6584L44.249 30.7103C44.2363 30.7233 44.2212 30.7359 44.2059 30.7488L44.2059 30.7488C44.1528 30.7933 44.0966 30.8404 44.126 30.913C44.1554 30.9855 44.2283 30.9775 44.2973 30.97C44.318 30.9677 44.3385 30.9655 44.3572 30.9655C45.3846 30.9669 46.4121 30.9641 47.4395 30.9613C48.2805 30.959 49.1216 30.9567 49.9627 30.9567H50.3211C49.9899 31.3222 49.6849 31.6248 49.3881 31.9192C49.2608 32.0454 49.1351 32.1702 49.0094 32.2978C48.671 32.6413 48.3325 32.99 47.9948 33.3379L47.9947 33.3379C47.8098 33.5284 47.6251 33.7187 47.4408 33.9078ZM47.1875 40.7078L47.1914 40.696L47.1874 40.7078H47.1875ZM25.4953 17.1942C25.3986 17.1945 25.302 17.1945 25.1848 17.1944L24.9795 17.1943C25.0529 17.1172 25.1203 17.0459 25.184 16.9786C25.3103 16.845 25.4218 16.7271 25.5354 16.6113C26.0084 16.1291 26.4816 15.6472 26.9548 15.1653L26.9551 15.165L26.9552 15.1649C28.3336 13.761 29.7121 12.3572 31.0842 10.9469C31.2735 10.7524 31.3694 10.7699 31.5474 10.9519C34.5608 14.0336 37.5794 17.11 40.6028 20.1814C40.7719 20.3532 40.7616 20.4481 40.5979 20.6123C39.665 21.5481 38.7386 22.4909 37.821 23.4424C37.6636 23.6057 37.5862 23.5777 37.4432 23.4312C36.4582 22.4224 35.4713 21.4154 34.4843 20.4085L34.4835 20.4077C33.4931 19.3972 32.5027 18.3867 31.5142 17.3743C31.3752 17.2319 31.2377 17.1721 31.0429 17.1733C29.5908 17.1824 28.1386 17.1866 26.6864 17.1907L25.4953 17.1942ZM49.6527 23.8544L49.654 23.8557L50.1305 24.3422C50.1602 24.3725 50.1887 24.4051 50.2265 24.4484L50.2266 24.4484L50.2267 24.4486C50.2562 24.4824 50.2915 24.5227 50.3374 24.5736H49.9332C48.0185 24.5736 46.1038 24.5707 44.1892 24.564C44.0125 24.5634 43.8901 24.6145 43.7675 24.741C43.4215 25.0981 43.0733 25.453 42.725 25.8078C42.2956 26.2453 41.8662 26.6828 41.4411 27.1245C41.2929 27.2785 41.2143 27.2796 41.064 27.1239C40.1402 26.1664 39.2083 25.217 38.2698 24.2745C38.1212 24.1252 38.11 24.0492 38.2653 23.8919C40.114 22.0188 41.955 20.1379 43.7957 18.2566L43.8079 18.244C43.9163 18.1329 43.988 18.0594 44.1469 18.2225C45.9777 20.1029 47.816 21.9794 49.6527 23.8544ZM38.2644 16.9591C38.0902 16.7848 38.0829 16.6916 38.2617 16.5106C40.0982 14.6526 41.9259 12.7861 43.7525 10.918C43.8759 10.7917 43.9504 10.7309 44.109 10.8936C45.6851 12.5103 47.266 14.1235 48.8465 15.7363L48.8471 15.7369L50.0937 17.0091C50.1017 17.0173 50.1106 17.0251 50.1196 17.0331C50.1604 17.069 50.2058 17.1091 50.1992 17.204H49.6737C47.8731 17.204 46.0723 17.2034 44.2717 17.1921C44.0311 17.1906 43.8651 17.2631 43.7021 17.4319C43.355 17.7915 43.005 18.1481 42.655 18.5048L42.655 18.5048C42.2476 18.92 41.8402 19.3352 41.4373 19.7549C41.2805 19.9183 41.1937 19.949 41.0188 19.7669C40.1105 18.8211 39.1912 17.8861 38.2644 16.9591ZM37.439 16.1116C36.4775 15.1234 35.5123 14.1388 34.5432 13.1583C34.4312 13.0449 34.4188 12.9725 34.5353 12.8544C35.2397 12.1416 35.9415 11.4262 36.6433 10.7107C36.907 10.4418 37.1707 10.173 37.4345 9.90428C37.4619 9.87645 37.491 9.85042 37.5171 9.82708L37.5171 9.82707C37.5286 9.81678 37.5396 9.80702 37.5495 9.79785C37.6173 9.79766 37.65 9.83501 37.6807 9.86999L37.6807 9.86999C37.6875 9.87782 37.6943 9.88553 37.7013 9.89267C38.0067 10.2033 38.3119 10.5143 38.6171 10.8252C39.2911 11.5117 39.965 12.1983 40.6417 12.8819C40.7483 12.9895 40.715 13.0463 40.6286 13.1339C39.6544 14.1227 38.6815 15.1128 37.7125 16.1071C37.6099 16.2123 37.5469 16.2225 37.439 16.1116ZM48.1658 59.8241C47.3146 59.8319 46.6285 59.0859 46.6274 58.1513C46.6265 57.2558 47.3071 56.5264 48.1449 56.5251C48.9969 56.5239 49.6867 57.2547 49.6894 58.1615C49.6921 59.067 49.0054 59.8164 48.1658 59.8241ZM48.1495 56.21C47.0949 56.2091 46.2408 57.0701 46.242 58.133C46.2432 59.2638 47.0659 60.1331 48.1346 60.133C49.2276 60.1327 50.0461 59.2891 50.0473 58.1615C50.0484 57.0524 49.2301 56.2109 48.1495 56.21ZM47.8087 57.8692C47.7896 57.974 47.7695 58.0846 47.9768 58.09C48.3098 58.0987 48.5488 57.9388 48.5465 57.7102C48.5443 57.489 48.3365 57.3437 48.0328 57.3293C47.7904 57.3177 47.7963 57.4538 47.8027 57.6021C47.8045 57.6423 47.8062 57.6834 47.8031 57.7227C47.8289 57.7583 47.8189 57.8129 47.8087 57.8692ZM48.8873 57.4722C48.9778 57.766 48.8923 57.9667 48.571 58.2119C48.8026 58.3786 48.8406 58.6223 48.8786 58.8666C48.8952 58.9731 48.9118 59.0797 48.9445 59.18C48.9676 59.2509 48.9246 59.2916 48.8579 59.2934C48.841 59.2939 48.8235 59.2952 48.8059 59.2965C48.7095 59.3038 48.6089 59.3114 48.5716 59.1815C48.5481 59.0993 48.5321 59.0148 48.5162 58.9303C48.5053 58.8728 48.4945 58.8152 48.4812 58.7582C48.4432 58.5954 48.3926 58.4496 48.2045 58.3922C47.8771 58.2922 47.8054 58.3382 47.8042 58.6863C47.8041 58.7219 47.8038 58.7575 47.8036 58.793C47.8027 58.9023 47.8019 59.0116 47.8053 59.1207C47.8091 59.24 47.7667 59.2977 47.6421 59.2965C47.5196 59.2954 47.4464 59.2667 47.4474 59.1195C47.4512 58.5016 47.4501 57.8837 47.4464 57.2659C47.4456 57.1263 47.5153 57.0755 47.6374 57.0731C47.696 57.0719 47.7547 57.0697 47.8134 57.0675C47.9631 57.0619 48.1129 57.0562 48.2614 57.0677C48.5338 57.0888 48.791 57.1598 48.8873 57.4722Z" fill="#171717"/><path fill-rule="evenodd" clip-rule="evenodd" d="M72.2311 28.573C72.2311 28.3528 72.232 28.1326 72.233 27.9123C72.2352 27.4171 72.2374 26.9219 72.2285 26.4269C72.2118 25.5034 71.8478 25.1363 70.9416 25.0975C70.923 25.0967 70.9043 25.0971 70.8856 25.0975C70.8567 25.0982 70.8279 25.0988 70.7996 25.095C70.7708 25.0911 70.7382 25.0918 70.7052 25.0924C70.5989 25.0946 70.4881 25.0969 70.485 24.9466C70.4814 24.7706 70.6539 24.7737 70.7684 24.7758L70.7955 24.7762C71.1432 24.7787 71.4908 24.7886 71.8385 24.7985L71.8386 24.7985C72.2103 24.8091 72.5821 24.8197 72.9539 24.8212C73.5869 24.8238 74.2203 24.8028 74.8529 24.7758C75.0065 24.7692 75.1539 24.7739 75.3034 24.8005C75.3863 24.8152 75.456 24.8509 75.4555 24.9421C75.4549 25.0496 75.3765 25.0843 75.2813 25.091C75.2595 25.0926 75.2377 25.094 75.2158 25.0953C75.1336 25.1004 75.0512 25.1055 74.9708 25.1208C74.273 25.2534 74.0862 25.4836 74.0423 26.2046C73.9759 27.2937 73.9819 28.3835 73.9879 29.4733C73.9911 30.0554 73.9943 30.6374 73.9865 31.2194C73.9851 31.3164 73.9786 31.4133 73.972 31.5103L73.9683 31.5659C73.9543 31.7804 73.8399 31.9083 73.6519 32.005C72.7949 32.4456 71.8752 32.6678 70.9354 32.7982C69.3239 33.0217 67.7212 32.9339 66.1479 32.514C64.657 32.1161 63.3101 31.4322 62.2426 30.2632C61.2183 29.1415 60.6229 27.7931 60.3572 26.3038C60.0305 24.4728 60.2152 22.6847 60.989 20.9848C61.9939 18.777 63.6897 17.4217 65.9994 16.8659C67.7079 16.4547 69.4334 16.4756 71.1642 16.7191C71.4646 16.7613 71.7628 16.8192 72.061 16.8771C72.636 16.9888 73.2111 17.1005 73.8021 17.1C74.0154 17.0998 74.1357 17.204 74.1051 17.4475C73.9855 18.3982 73.9732 19.3542 73.9771 20.3109C73.9772 20.3529 73.9687 20.3949 73.9601 20.437C73.9551 20.4615 73.9501 20.486 73.9468 20.5106C73.9347 20.6011 73.9167 20.6873 73.8044 20.6936C73.6737 20.701 73.6565 20.6057 73.6399 20.5044C73.6305 20.447 73.6215 20.3896 73.6125 20.3322L73.6124 20.3321L73.6124 20.3321L73.6124 20.3321C73.5826 20.1419 73.5528 19.9517 73.5084 19.7651C73.3249 18.9942 72.821 18.4994 72.1518 18.1457C71.3322 17.7126 70.4538 17.4959 69.5435 17.3987C68.4449 17.2812 67.3461 17.2809 66.2723 17.5711C64.1645 18.1409 62.808 19.5081 62.2973 21.6737C61.6432 24.4477 62.0567 27.0456 63.806 29.3135C64.9321 30.7734 66.4746 31.5962 68.2791 31.888C69.3494 32.061 70.4117 32.0381 71.4549 31.7164C72.1021 31.5168 72.2432 31.3086 72.2432 30.6325V28.573H72.2311ZM86.4646 42.0828L86.4646 42.9763C86.4647 43.7218 86.4648 44.4673 86.4644 45.2127C86.4642 45.7099 86.4968 45.748 86.9812 45.8784C87.6651 46.0623 88.3623 46.0756 89.0624 46.058C89.9349 46.0363 90.5889 45.6326 90.9934 44.8505C91.615 43.6488 91.6466 42.3747 91.368 41.0776C91.177 40.1889 90.761 39.4352 90.0077 38.9139C88.9834 38.2052 87.8503 38.243 86.6984 38.4379C86.4712 38.4764 86.4645 38.6561 86.4645 38.8369L86.4646 42.0828ZM97.0261 53.4136L96.9304 53.4139L96.797 53.4145C96.2857 53.417 95.7743 53.4196 95.2676 53.3319C94.3204 53.168 93.6488 52.569 93.0635 51.8489C91.9651 50.4973 90.9579 49.0751 89.951 47.6531C89.8376 47.493 89.7242 47.3328 89.6107 47.1728C89.4005 46.8766 89.1827 46.7184 88.7963 46.7283L88.782 46.7287C88.1158 46.7459 87.4459 46.7632 86.7799 46.6896C86.5459 46.6637 86.4622 46.7698 86.4602 47.0075C86.4508 48.1052 86.4765 49.2022 86.5021 50.2992V50.2993V50.2994C86.5095 50.6127 86.5168 50.9259 86.5233 51.2391C86.5289 51.5081 86.5595 51.779 86.6044 52.0444C86.7367 52.8271 86.9491 53.0131 87.7272 53.0651C87.8929 53.0762 88.0582 53.0923 88.2235 53.1085L88.2926 53.1152C88.3709 53.1228 88.4491 53.1374 88.4442 53.2453C88.4399 53.3413 88.3679 53.3855 88.2932 53.3914C88.1157 53.4052 87.9373 53.408 87.7591 53.4108L87.6974 53.4118C87.329 53.418 86.9609 53.4001 86.5929 53.3823C86.1182 53.3592 85.6436 53.3362 85.1688 53.3648C84.6956 53.3933 84.2228 53.4062 83.7494 53.4126C83.6558 53.4139 83.5599 53.4042 83.469 53.3822C83.4028 53.3663 83.3529 53.311 83.3578 53.2327C83.3629 53.1495 83.4213 53.1265 83.4946 53.1169C83.5804 53.1056 83.6661 53.0923 83.7517 53.0789L83.7518 53.0789L83.7519 53.0789L83.752 53.0789L83.7521 53.0789L83.7522 53.0788L83.7523 53.0788L83.7524 53.0788L83.7526 53.0788L83.7527 53.0788L83.7528 53.0788C83.8445 53.0645 83.9362 53.0502 84.0282 53.0385C84.3421 52.9983 84.5111 52.8013 84.5955 52.5074C84.6755 52.2285 84.7293 51.9426 84.7437 51.6546C84.7769 50.9891 84.8091 50.3229 84.8099 49.6569C84.8143 46.3403 84.8099 43.0237 84.8035 39.7071C84.8029 39.4182 84.779 39.1277 84.7428 38.841C84.6786 38.3321 84.3088 38.0264 83.7214 37.9789C83.6429 37.9725 83.5641 37.9706 83.4852 37.9687C83.4123 37.9669 83.3394 37.9651 83.2667 37.9598C83.1719 37.9529 83.0598 37.9396 83.0537 37.8152C83.0466 37.674 83.1634 37.6416 83.2698 37.6407C83.3713 37.6398 83.473 37.638 83.5747 37.6361L83.5749 37.6361C83.9004 37.6302 84.2261 37.6243 84.5494 37.6492C85.3446 37.7104 86.1378 37.6836 86.9317 37.6568L86.9326 37.6567C87.0751 37.6519 87.2177 37.6471 87.3603 37.6428C88.4979 37.6084 89.6325 37.6213 90.7356 37.9795C92.3995 38.5197 93.3062 40.0161 93.2659 41.5406C93.2322 42.8109 92.752 43.9205 91.9828 44.9097C91.6641 45.3196 91.3264 45.7111 90.95 46.0654C90.8222 46.1857 90.8264 46.2663 90.9314 46.4006C91.2878 46.8566 91.6391 47.3169 91.9904 47.7772L91.9905 47.7773L91.9905 47.7774L91.9906 47.7775L91.9906 47.7775L91.9907 47.7776L91.9908 47.7777L91.9908 47.7778L91.9909 47.7778L91.9909 47.7779L91.991 47.778L91.991 47.7781L91.9911 47.7781L91.9912 47.7783C92.9954 49.0941 93.9997 50.4098 95.1223 51.6254C95.8957 52.4629 96.8111 53.0578 97.9942 53.0803C98.0657 53.0816 98.1371 53.0917 98.2085 53.1017L98.2086 53.1017L98.2086 53.1018L98.2087 53.1018C98.2499 53.1076 98.2911 53.1134 98.3323 53.1175C98.4106 53.1254 98.496 53.1354 98.5018 53.2331C98.5081 53.341 98.4195 53.3832 98.334 53.3959C98.2255 53.4119 98.1144 53.4126 98.0043 53.4132L97.9935 53.4133C97.7447 53.4148 97.496 53.4144 97.2472 53.414H97.2458L97.0261 53.4136ZM78.5461 21.4623C78.5458 21.7819 78.5456 22.1014 78.5456 22.4209H78.561C78.561 22.7941 78.5599 23.1674 78.5587 23.5406C78.5561 24.4052 78.5535 25.2698 78.5649 26.1342C78.5779 27.1197 78.6622 28.1003 78.9473 29.0502C79.391 30.529 80.2428 31.6684 81.653 32.2998C83.3338 33.0524 85.0766 33.1421 86.8075 32.5498C88.4849 31.9757 89.6465 30.8113 90.1934 29.0627C90.5184 28.0237 90.6453 26.95 90.6575 25.8671C90.6737 24.4155 90.6717 22.9636 90.6696 21.5118C90.6689 21.0295 90.6682 20.5473 90.6682 20.0651C90.6682 19.437 90.674 18.8097 90.7226 18.1828C90.7692 17.5815 90.9803 17.3179 91.5597 17.1943C91.6724 17.1702 91.7883 17.1605 91.9037 17.1508L91.9532 17.1466C92.0467 17.1386 92.1318 17.1134 92.1319 17.0043C92.132 16.8982 92.0487 16.8604 91.956 16.8539C91.8804 16.8487 91.8043 16.848 91.7285 16.8499C91.5311 16.8549 91.3337 16.8633 91.1362 16.8717C90.6989 16.8903 90.2616 16.9089 89.8258 16.8903C89.2765 16.8669 88.7276 16.8607 88.1786 16.8546C88.0646 16.8533 87.9505 16.852 87.8364 16.8506C87.732 16.8492 87.6055 16.8548 87.6 16.9977C87.5943 17.1463 87.7152 17.1457 87.8196 17.1453L87.8261 17.1452C88.1029 17.1442 88.3738 17.1871 88.639 17.2634C88.9675 17.3579 89.1767 17.5703 89.2526 17.9169C89.3294 18.2679 89.3469 18.626 89.3485 18.981C89.3562 20.7009 89.3571 22.4209 89.3581 24.1409C89.3584 24.6837 89.3587 25.2265 89.3592 25.7694C89.36 26.6305 89.2986 27.4865 89.1318 28.3316C88.948 29.2635 88.6471 30.1523 87.9632 30.8304C86.9922 31.7932 85.8139 32.1741 84.4599 32.0762C82.7741 31.9543 81.6323 31.0632 80.9452 29.5427C80.4776 28.508 80.382 27.383 80.3721 26.2591C80.36 24.8714 80.3628 23.4835 80.3655 22.0956V22.0951C80.3666 21.5684 80.3676 21.0417 80.3679 20.515L80.3678 20.2802V20.2801C80.3675 19.5953 80.3671 18.9107 80.4173 18.2262C80.4672 17.5458 80.6602 17.3067 81.3237 17.1913C81.426 17.1735 81.5289 17.1557 81.6323 17.1484C81.7356 17.1411 81.8359 17.1211 81.8296 16.9952C81.8236 16.8729 81.7182 16.8527 81.6183 16.8517C81.5187 16.8507 81.4191 16.851 81.3195 16.8512C81.2199 16.8515 81.1204 16.8517 81.0208 16.8507C80.7108 16.8476 80.4012 16.8593 80.0915 16.871C79.6072 16.8893 79.1228 16.9076 78.6367 16.8694C78.2597 16.8397 77.8801 16.8437 77.5007 16.8477C77.3484 16.8494 77.1962 16.851 77.0441 16.8504L77.0409 16.8504C76.9377 16.85 76.8085 16.8496 76.8004 16.9879C76.7917 17.1343 76.8978 17.1395 76.9995 17.1445C77.0152 17.1453 77.0308 17.146 77.0459 17.1473C77.0875 17.1509 77.1291 17.1541 77.1708 17.1574L77.1708 17.1574C77.3275 17.1697 77.4843 17.182 77.6387 17.2085C78.1348 17.2938 78.4232 17.5669 78.4836 18.0162C78.5182 18.2738 78.5416 18.5351 78.5429 18.7949C78.5474 19.6837 78.5468 20.5725 78.5461 21.4613V21.4623ZM128.409 53.7063C126.61 53.7052 125.023 53.5227 123.541 52.8253C121.066 51.6597 119.573 49.7044 119.127 46.9469C118.83 45.1152 119.035 43.3506 119.84 41.6725C120.877 39.5116 122.549 38.167 124.846 37.6316C126.35 37.2812 127.867 37.2947 129.394 37.4424C129.893 37.4907 130.385 37.58 130.878 37.6694C131.456 37.7743 132.034 37.8791 132.621 37.9174C132.833 37.9311 132.862 38.0677 132.843 38.2408C132.75 39.096 132.714 39.954 132.715 40.8143C132.715 41.0172 132.7 41.2202 132.684 41.4229L132.676 41.5364C132.674 41.5583 132.673 41.5818 132.673 41.6058C132.668 41.7441 132.664 41.9018 132.487 41.8898C132.316 41.878 132.323 41.7144 132.329 41.5745L132.329 41.5742C132.33 41.552 132.331 41.5304 132.331 41.5101C132.334 41.1881 132.284 40.8733 132.196 40.5674C131.995 39.8688 131.596 39.3303 130.953 38.986C130.066 38.511 129.117 38.2847 128.126 38.1936C127.001 38.0901 125.89 38.1676 124.806 38.48C122.911 39.0269 121.72 40.3389 121.203 42.2355C120.677 44.1634 120.648 46.1199 121.413 48.0008C122.469 50.5993 124.376 52.1754 127.111 52.6398C128.144 52.8152 129.188 52.7654 130.217 52.5362C131.421 52.2681 132.16 51.5158 132.446 50.2965C132.458 50.2453 132.471 50.1942 132.483 50.1431C132.507 50.0444 132.532 49.9457 132.552 49.8462C132.574 49.7344 132.604 49.6279 132.741 49.6422C132.879 49.6565 132.894 49.7808 132.891 49.8838C132.887 50.0566 132.864 50.2295 132.841 50.4012C132.741 51.1365 132.632 51.8697 132.454 52.5915C132.375 52.9131 132.195 53.1136 131.898 53.2309C131.399 53.4281 130.875 53.5134 130.35 53.5764C129.645 53.661 128.936 53.7216 128.409 53.7063ZM103.531 50.3998C103.474 50.5346 103.417 50.6724 103.357 50.8148C103.341 50.7775 103.327 50.7472 103.316 50.7214C103.296 50.6767 103.281 50.6453 103.27 50.613C102.971 49.8032 102.673 48.9936 102.374 48.1839L102.372 48.1792L102.371 48.1744L102.37 48.1731C101.488 45.7793 100.605 43.3854 99.7303 40.9885C99.653 40.7768 99.5719 40.5665 99.4908 40.3561C99.2741 39.794 99.0573 39.2316 98.9138 38.6434C98.8283 38.2927 98.9354 38.1165 99.2731 38.0147C99.4127 37.9726 99.5554 37.9694 99.698 37.9661C99.773 37.9644 99.8479 37.9627 99.9224 37.9554C100.006 37.9472 100.101 37.9283 100.114 37.8176C100.128 37.6987 100.034 37.6814 99.9559 37.6669L99.9457 37.665C99.8442 37.6459 99.7397 37.6404 99.6362 37.6362C99.2476 37.621 98.8597 37.642 98.4717 37.663H98.4717H98.4717H98.4716H98.4716H98.4716H98.4715H98.4715H98.4715C98.0644 37.685 97.6574 37.7071 97.2495 37.6872C96.5491 37.653 95.8486 37.6205 95.1469 37.6346L95.1209 37.6351C95.0252 37.6367 94.9309 37.6382 94.8403 37.68C94.7845 37.7058 94.7397 37.7377 94.74 37.8043C94.7404 37.87 94.7804 37.9139 94.8402 37.9277C94.9133 37.9446 94.9889 37.9609 95.0632 37.96C96.0596 37.9484 96.6884 38.4441 97.0517 39.3788C98.2737 42.5222 99.5064 45.6612 100.739 48.8003L100.741 48.8047L101.328 50.3006C101.716 51.2879 102.112 52.272 102.508 53.256L102.57 53.4123C102.629 53.5587 102.718 53.6969 102.895 53.6966C103.055 53.6963 103.115 53.5634 103.17 53.4421L103.184 53.4123L103.312 53.1356L103.312 53.1351L103.312 53.135C103.528 52.6683 103.744 52.2015 103.945 51.7285C104.945 49.3854 105.905 47.0255 106.866 44.6655L106.866 44.6649L106.866 44.6643L106.866 44.6637L106.867 44.6631L106.867 44.6625L106.867 44.6619L106.867 44.6613L106.868 44.6607C107.293 43.6151 107.719 42.5695 108.148 41.5254C108.253 41.2697 108.352 41.0115 108.452 40.7534C108.723 40.0504 108.994 39.3472 109.376 38.6929C109.655 38.2148 110.062 37.9971 110.59 37.9615C110.625 37.9591 110.665 37.9608 110.706 37.9625C110.857 37.9688 111.024 37.9757 111.02 37.7834C111.015 37.6081 110.841 37.6217 110.691 37.6333C110.656 37.6361 110.621 37.6388 110.591 37.6388C110.293 37.6388 109.995 37.6512 109.697 37.6637C109.134 37.6871 108.572 37.7106 108.007 37.6503C107.741 37.6219 107.471 37.6276 107.202 37.6333L107.202 37.6333C107.119 37.635 107.037 37.6368 106.955 37.6375L106.941 37.6376C106.814 37.6385 106.644 37.6397 106.647 37.8067C106.651 37.9555 106.781 37.9572 106.898 37.9588H106.898H106.898C106.921 37.9591 106.943 37.9594 106.964 37.9608C107.024 37.9649 107.084 37.9659 107.144 37.967H107.144C107.226 37.9685 107.309 37.9699 107.39 37.979C107.783 38.0229 107.953 38.2652 107.88 38.6595C107.803 39.0686 107.67 39.4611 107.533 39.8513C106.384 43.1243 105.144 46.3615 103.867 49.584C103.76 49.8526 103.648 50.1191 103.531 50.3985L103.531 50.3988L103.531 50.3993L103.531 50.3998ZM75.0114 41.5757C75.0114 41.8252 75.0119 42.0747 75.0125 42.3243C75.0139 42.9838 75.0153 43.6433 75.0065 44.3026C75.0033 44.5468 75.0827 44.6163 75.3161 44.6124C75.7325 44.6053 76.149 44.6042 76.5655 44.6032C77.1069 44.6018 77.6483 44.6004 78.1893 44.5859L78.2286 44.5848C78.6937 44.5727 79.1767 44.5601 79.4963 44.1057C79.5365 44.0485 79.6083 43.9828 79.6914 44.0435C79.7693 44.1005 79.7534 44.1918 79.7401 44.2684L79.7371 44.2859C79.6447 44.838 79.5704 45.392 79.5456 45.952C79.5421 46.0315 79.5387 46.111 79.5354 46.1905C79.5266 46.4003 79.5178 46.6102 79.5053 46.8198L79.504 46.8444C79.4984 46.9527 79.492 47.0788 79.3456 47.0788C79.2047 47.0789 79.1974 46.9636 79.1907 46.8591C79.1899 46.8457 79.189 46.8324 79.1879 46.8195C79.1836 46.7701 79.1829 46.7203 79.1822 46.6705C79.1815 46.6235 79.1809 46.5766 79.1772 46.5299C79.1312 45.9531 78.8207 45.5929 78.2597 45.5249C77.2571 45.4033 76.2483 45.4008 75.2399 45.3982L75.2239 45.3982C75.0602 45.3978 75.0106 45.4771 75.011 45.6302C75.0126 46.2128 75.012 46.7954 75.0113 47.378V47.3782C75.0099 48.6618 75.0084 49.9454 75.0315 51.2286C75.0477 52.1275 75.355 52.4358 76.2514 52.5546C77.1087 52.6682 77.9739 52.6611 78.8297 52.5322C79.6315 52.4115 80.0297 51.9865 80.1952 51.1573C80.2234 51.0158 80.2525 50.8743 80.2875 50.7345C80.3068 50.6574 80.3452 50.5822 80.4392 50.591C80.523 50.5989 80.5407 50.6691 80.5573 50.7354L80.5573 50.7355C80.5597 50.7448 80.562 50.754 80.5645 50.7629C80.5952 50.8741 80.5751 50.9835 80.5551 51.092C80.5471 51.1354 80.5391 51.1787 80.5345 51.2219L80.5338 51.2282C80.4782 51.7433 80.4224 52.2599 80.3298 52.769C80.2203 53.3712 80.0808 53.4681 79.4881 53.472C77.8769 53.4828 76.2667 53.4532 74.6578 53.3602C74.2157 53.3347 73.7746 53.3574 73.3334 53.3802C73.0175 53.3965 72.7017 53.4128 72.3855 53.4114C72.3523 53.4113 72.3192 53.4114 72.286 53.4115C72.1958 53.4117 72.1057 53.412 72.0157 53.4075C71.9134 53.4023 71.8255 53.3654 71.8249 53.2399C71.8244 53.1304 71.8991 53.1224 71.9718 53.1147L71.9719 53.1147C71.9842 53.1134 71.9964 53.1121 72.0082 53.1103C72.111 53.0946 72.214 53.0797 72.3173 53.0673C72.795 53.01 72.9649 52.8604 73.08 52.389C73.1998 51.8988 73.2349 51.3951 73.2408 50.8956C73.2856 47.0958 73.2753 43.2957 73.2496 39.4957C73.248 39.2649 73.2241 39.0323 73.188 38.8043C73.1104 38.3145 72.77 38.0447 72.1649 37.9797C72.0888 37.9715 72.0121 37.9697 71.9353 37.9679H71.9353H71.9353H71.9352H71.9352H71.9352H71.9352H71.9352C71.8791 37.9666 71.823 37.9652 71.7672 37.9614C71.7538 37.9605 71.7399 37.96 71.7258 37.9594L71.7257 37.9594L71.7256 37.9594L71.7255 37.9594L71.7255 37.9594L71.7254 37.9594L71.7253 37.9594C71.6229 37.9554 71.5091 37.9509 71.5091 37.8092C71.509 37.6628 71.6412 37.6362 71.7605 37.6365C71.8811 37.6369 72.0017 37.6358 72.1223 37.6348H72.1224H72.1224H72.1224H72.1225H72.1225H72.1225H72.1225C72.448 37.6319 72.7736 37.629 73.0971 37.6538C73.4855 37.6835 73.8734 37.6907 74.2612 37.6917C75.7027 37.6953 77.1443 37.6944 78.5858 37.6841C79.0198 37.6809 79.4583 37.6739 79.8717 37.5038C80.0706 37.422 80.0894 37.5599 80.0746 37.6925C80.0618 37.8066 80.0388 37.9195 80.0158 38.0324L80.0158 38.0325C79.9984 38.1179 79.981 38.2033 79.968 38.2893C79.9173 38.625 79.8954 38.9634 79.8736 39.3017C79.8632 39.4639 79.8527 39.6261 79.839 39.788C79.8365 39.8178 79.8365 39.8521 79.8365 39.8881C79.8363 40.0433 79.8362 40.2301 79.637 40.2251C79.4608 40.2207 79.4661 40.0521 79.4709 39.9029C79.472 39.8663 79.4732 39.8307 79.4716 39.7992C79.4305 39.0005 79.0936 38.6692 78.1842 38.5631C77.5184 38.4854 76.8503 38.4871 76.1822 38.4889C75.8647 38.4898 75.5473 38.4906 75.23 38.483C75.0167 38.4778 75.0098 38.6024 75.0102 38.7618C75.0121 39.4734 75.0118 40.185 75.0116 40.8967L75.0114 41.5757ZM138.918 42.3095C138.917 42.0565 138.917 41.8034 138.917 41.5504L138.917 40.9894L138.917 40.8654V40.8619C138.918 40.1631 138.919 39.4642 138.915 38.7653C138.914 38.5828 138.943 38.4743 139.16 38.4809C139.495 38.4913 139.83 38.4912 140.165 38.491H140.165C140.777 38.4907 141.39 38.4904 142.001 38.5543C143.007 38.6596 143.293 38.9493 143.378 39.9801C143.379 39.9841 143.379 39.9882 143.379 39.9923L143.379 40.0032C143.379 40.0149 143.379 40.0267 143.381 40.038L143.383 40.0467C143.4 40.1406 143.419 40.2405 143.541 40.2401C143.665 40.2397 143.692 40.1306 143.703 40.0372C143.737 39.7603 143.757 39.4818 143.777 39.2032C143.813 38.6932 143.849 38.183 143.971 37.6822C144.001 37.561 143.955 37.4174 143.759 37.5C143.357 37.6703 142.928 37.681 142.503 37.6839C141.071 37.6938 139.639 37.695 138.207 37.6915C137.781 37.6905 137.355 37.6847 136.929 37.6519C136.616 37.6279 136.302 37.6316 135.987 37.6354H135.987C135.865 37.6369 135.743 37.6384 135.621 37.6382C135.508 37.6381 135.403 37.6699 135.407 37.8113C135.411 37.9396 135.522 37.9495 135.614 37.9578L135.617 37.958C135.689 37.9645 135.762 37.9665 135.836 37.9684C135.905 37.9703 135.974 37.9721 136.043 37.9778C136.698 38.0319 137.029 38.3249 137.103 38.9329C137.137 39.2103 137.157 39.4912 137.158 39.7705L137.16 40.0875C137.167 41.4324 137.173 42.7773 137.164 44.1221C137.159 44.9036 137.164 45.6852 137.168 46.4668C137.177 48.1021 137.186 49.7374 137.108 51.372C137.09 51.7672 137.05 52.1615 136.931 52.5416C136.848 52.8098 136.686 52.9943 136.395 53.0322C136.284 53.0466 136.174 53.064 136.063 53.0815L135.98 53.0946C135.941 53.1007 135.901 53.1067 135.862 53.1125C135.783 53.1241 135.704 53.1427 135.709 53.2443C135.713 53.3324 135.779 53.3872 135.857 53.3954C135.998 53.4101 136.142 53.4199 136.283 53.4092C137.599 53.3098 138.916 53.3686 140.23 53.4275C141.023 53.4631 141.816 53.4646 142.609 53.4662C142.896 53.4668 143.184 53.4674 143.471 53.4696C143.96 53.4733 144.131 53.3174 144.221 52.8259L144.237 52.74C144.265 52.5886 144.293 52.4369 144.309 52.284C144.326 52.1287 144.347 51.9739 144.368 51.819C144.416 51.4771 144.463 51.1352 144.455 50.7877C144.453 50.6996 144.449 50.6016 144.335 50.5898C144.223 50.5781 144.195 50.6738 144.174 50.7573C144.131 50.9253 144.094 51.095 144.059 51.2649C143.917 51.949 143.531 52.3875 142.839 52.5044C141.85 52.6716 140.857 52.6687 139.868 52.5174C139.358 52.4394 139.05 52.1187 138.971 51.5748C138.912 51.1625 138.888 50.7476 138.887 50.335C138.886 49.2113 138.896 48.0875 138.906 46.9638C138.91 46.5413 138.914 46.1188 138.917 45.6963C138.917 45.6769 138.919 45.6573 138.917 45.6382C138.894 45.4417 138.991 45.3972 139.168 45.3955C140.032 45.3874 140.894 45.4207 141.754 45.4727C142.761 45.5335 143.037 45.8294 143.092 46.8381L143.093 46.8662C143.098 46.9678 143.103 47.0778 143.232 47.0781C143.402 47.0785 143.405 46.9188 143.407 46.8033L143.407 46.7977C143.424 45.9471 143.474 45.1006 143.644 44.2648C143.661 44.1808 143.665 44.0815 143.572 44.0328C143.489 43.9885 143.42 44.0494 143.378 44.1105C143.065 44.5604 142.588 44.5729 142.129 44.585L142.096 44.5859C141.589 44.5995 141.081 44.6008 140.573 44.6022C140.123 44.6034 139.673 44.6046 139.223 44.6143C138.959 44.6199 138.909 44.5196 138.912 44.2775C138.92 43.6215 138.919 42.9655 138.918 42.3095ZM95.7851 24.2249C95.7851 23.771 95.7853 23.317 95.7854 22.8631C95.786 21.5188 95.7866 20.1746 95.7822 18.8303C95.7813 18.5226 95.7537 18.2142 95.6868 17.9114C95.6103 17.5652 95.397 17.3559 95.0681 17.2638C94.8026 17.1893 94.5318 17.1471 94.2555 17.1457C94.1483 17.1452 94.028 17.1426 94.0356 16.9904C94.0419 16.8634 94.1519 16.85 94.2486 16.8512C94.4033 16.853 94.5581 16.8544 94.7129 16.8559C95.2501 16.8608 95.7873 16.8658 96.3239 16.8875C96.5508 16.8967 96.7779 16.9057 97.0047 16.9049C97.4114 16.9035 97.8182 16.9051 98.225 16.9066C99.2492 16.9106 100.273 16.9146 101.297 16.8704C101.339 16.8687 101.38 16.8671 101.422 16.8656L101.422 16.8656C101.748 16.8536 102.074 16.8416 102.384 16.7032C102.547 16.6302 102.642 16.7439 102.605 16.8872C102.475 17.3853 102.44 17.8939 102.406 18.4024V18.4024V18.4025C102.387 18.6823 102.368 18.9622 102.333 19.2402C102.32 19.3389 102.282 19.446 102.171 19.4471C102.04 19.4484 102.022 19.3313 102.006 19.2278L102.004 19.2172C102 19.1927 102.001 19.1676 102.001 19.1424C102.002 19.1287 102.002 19.115 102.001 19.1014C101.974 18.2407 101.652 17.9017 100.808 17.7782C100.47 17.7288 100.132 17.7207 99.7938 17.7125C99.5554 17.7067 99.317 17.701 99.079 17.6808C98.8046 17.6575 98.528 17.6615 98.2514 17.6655C98.1386 17.6672 98.0258 17.6688 97.9132 17.6686C97.5425 17.6679 97.5409 17.6692 97.5407 18.0608C97.5402 19.0391 97.5403 20.0175 97.5404 20.9958L97.5404 22.5275C97.5404 22.6218 97.5408 22.7161 97.5413 22.8104C97.5425 23.0545 97.5437 23.2986 97.5366 23.5425C97.5306 23.7508 97.5981 23.8277 97.8151 23.8233C98.1851 23.8158 98.5553 23.8164 98.9255 23.817C99.6165 23.818 100.308 23.8191 100.998 23.7679C101.377 23.7397 101.733 23.6809 101.979 23.3411C102.031 23.2688 102.108 23.2077 102.198 23.2459C102.309 23.2927 102.287 23.4019 102.269 23.4906L102.267 23.5003C102.108 24.2981 102.055 25.1061 102.037 25.9176C102.037 25.9261 102.037 25.9349 102.038 25.9436V25.9436V25.9437C102.038 25.9646 102.039 25.9856 102.033 26.0041C102.023 26.033 102.019 26.0675 102.015 26.1024C102.003 26.1984 101.991 26.2965 101.861 26.2846C101.721 26.2716 101.719 26.1374 101.717 26.0182L101.716 26.0015L101.716 25.981C101.689 25.0682 101.362 24.726 100.471 24.6865C100.096 24.6699 99.7214 24.655 99.3467 24.6401L99.3466 24.6401L99.3466 24.6401L99.3465 24.6401L99.3464 24.6401L99.3464 24.6401C98.8508 24.6204 98.3552 24.6006 97.8598 24.577C97.6365 24.5663 97.5348 24.6284 97.5364 24.8812C97.5433 26.0254 97.5453 27.1695 97.5473 28.3137V28.3164C97.5484 28.9792 97.5496 29.642 97.5517 30.3048C97.5521 30.4388 97.5687 30.5744 97.5934 30.7063C97.7207 31.3841 97.9585 31.6491 98.6255 31.7473C99.5104 31.8776 100.404 31.882 101.288 31.7434C102.201 31.6002 102.555 31.214 102.734 30.2852L102.747 30.216C102.764 30.1252 102.781 30.0343 102.806 29.9461C102.831 29.8618 102.873 29.7768 102.985 29.8011C103.076 29.8211 103.078 29.8983 103.08 29.9701L103.08 29.9869C103.092 30.3828 103.037 30.7724 102.982 31.1617C102.965 31.2783 102.949 31.3949 102.934 31.5116C102.903 31.7594 102.852 32.0059 102.792 32.2482C102.733 32.4843 102.585 32.6256 102.33 32.6483C101.7 32.7045 101.07 32.69 100.44 32.6754C100.322 32.6726 100.205 32.6699 100.087 32.6676C99.9745 32.6655 99.8619 32.6609 99.7493 32.6563C99.6256 32.6513 99.5018 32.6463 99.3779 32.6444C98.9434 32.6379 98.5091 32.6222 98.0747 32.6065C97.1928 32.5746 96.3109 32.5427 95.4279 32.5878L95.2906 32.5951C95.0624 32.6074 94.834 32.6198 94.6061 32.6151C94.4932 32.6128 94.3242 32.6022 94.3326 32.431C94.3392 32.298 94.45 32.2967 94.5501 32.2954C94.5686 32.2952 94.5868 32.295 94.6038 32.2939C95.3435 32.2483 95.5126 32.1162 95.646 31.3769C95.7748 30.6633 95.7846 29.9369 95.7879 29.2135C95.7934 28.0323 95.7923 26.8512 95.7912 25.67C95.7908 25.1883 95.7903 24.7066 95.7903 24.2249H95.7851ZM122.658 25.434C122.66 24.9054 122.661 24.3767 122.661 23.8481H122.655L122.655 22.5328C122.655 21.0372 122.656 19.5416 122.65 18.046C122.65 17.8366 122.695 17.7526 122.917 17.7648C123.142 17.7773 123.368 17.7766 123.594 17.7758C123.738 17.7754 123.882 17.7749 124.026 17.7778C124.213 17.7816 124.401 17.7821 124.588 17.7826C125.281 17.7843 125.975 17.7861 126.656 17.9568C127.295 18.1168 127.768 18.4299 127.738 19.1585C127.737 19.1886 127.745 19.2191 127.753 19.2496C127.758 19.2664 127.763 19.2833 127.766 19.3001C127.768 19.3129 127.77 19.3262 127.772 19.3396C127.784 19.4247 127.797 19.5151 127.907 19.5155C128.047 19.5161 128.061 19.3961 128.064 19.2856C128.072 18.9868 128.079 18.688 128.087 18.3892C128.099 17.906 128.112 17.4227 128.125 16.9395C128.131 16.7313 128.059 16.669 127.849 16.7184C127.313 16.8445 126.764 16.8993 126.216 16.9025C124.666 16.9116 123.116 16.9094 121.565 16.9071L120.639 16.9059C120.393 16.9056 120.148 16.907 119.902 16.9083C119.02 16.9131 118.137 16.918 117.256 16.8474C117.192 16.8423 117.128 16.8381 117.063 16.8339C116.722 16.8116 116.377 16.7891 116.063 16.6266C115.828 16.5047 115.715 16.5835 115.649 16.8206C115.445 17.5544 115.301 18.3016 115.159 19.0495C115.141 19.1472 115.138 19.2537 115.256 19.2888C115.357 19.3188 115.412 19.2393 115.454 19.1609C115.486 19.1031 115.511 19.0416 115.535 18.9805L115.535 18.9804L115.537 18.9768C115.84 18.2288 116.38 17.8698 117.182 17.8266C117.822 17.792 118.463 17.7894 119.103 17.7868C119.609 17.7847 120.115 17.7826 120.621 17.7648C120.847 17.7568 120.91 17.8284 120.909 18.0575C120.904 20.205 120.902 22.3526 120.9 24.5002C120.899 26.2207 120.897 27.9411 120.894 29.6616C120.893 30.3275 120.872 30.9947 120.711 31.6459C120.628 31.9807 120.455 32.2247 120.077 32.2443C119.99 32.2488 119.904 32.2618 119.817 32.2747C119.763 32.2827 119.71 32.2907 119.656 32.2967L119.65 32.2974C119.564 32.3069 119.481 32.3162 119.467 32.4285C119.45 32.5654 119.552 32.5939 119.645 32.6034C119.805 32.6197 119.967 32.6318 120.127 32.6211C121.32 32.542 122.513 32.5566 123.706 32.6206C123.941 32.6333 124.179 32.6172 124.415 32.6007C124.516 32.5937 124.642 32.5704 124.629 32.4237C124.618 32.3095 124.526 32.304 124.439 32.2989C124.428 32.2982 124.418 32.2976 124.408 32.2968C124.281 32.2869 124.155 32.2757 124.028 32.2644C123.919 32.2548 123.81 32.2451 123.701 32.2362C123.168 32.193 122.933 31.9943 122.819 31.4648C122.685 30.8376 122.677 30.1963 122.67 29.5605L122.669 29.4469C122.652 28.1094 122.655 26.7717 122.658 25.434ZM110.874 16.5625C111.438 16.518 112.027 16.6374 112.622 16.7582C112.731 16.7803 112.84 16.8025 112.95 16.8237C112.959 16.8255 112.967 16.8283 112.976 16.8312C112.986 16.8341 112.995 16.8371 113.004 16.8388L113.007 16.8392C113.522 16.9319 113.533 16.9339 113.473 17.4735C113.432 17.8471 113.432 18.221 113.431 18.5948C113.431 18.7423 113.431 18.8897 113.428 19.0371C113.427 19.0682 113.427 19.0994 113.427 19.1305C113.427 19.2059 113.427 19.2813 113.42 19.3558C113.417 19.3763 113.416 19.3982 113.415 19.4206C113.408 19.54 113.4 19.6739 113.261 19.6848C113.105 19.6969 113.099 19.5659 113.094 19.4485L113.094 19.4483L113.094 19.4482L113.094 19.448C113.093 19.425 113.092 19.4026 113.09 19.3818C112.936 17.8886 112 17.4564 110.796 17.3249C110.17 17.2565 109.544 17.2864 108.97 17.6059C107.775 18.2707 107.395 19.8885 108.157 21.0717C108.596 21.7519 109.197 22.2732 109.797 22.7938L109.838 22.8295C110.104 23.0604 110.378 23.2814 110.652 23.5024C111.099 23.8626 111.546 24.2228 111.958 24.6253C112.725 25.3756 113.399 26.1927 113.674 27.2729C114.279 29.651 113.092 32.3284 110.135 32.8094C108.878 33.0139 107.645 32.931 106.454 32.4372C105.979 32.2402 105.931 32.1632 105.928 31.6356C105.923 30.9601 105.971 30.2871 106.018 29.6141C106.025 29.5072 106.033 29.4003 106.04 29.2933C106.043 29.2459 106.056 29.1983 106.071 29.1527C106.097 29.0672 106.134 28.9787 106.241 28.9926C106.346 29.0062 106.365 29.0969 106.369 29.1889C106.372 29.2561 106.373 29.3238 106.373 29.3914V29.3915C106.374 29.5372 106.376 29.683 106.4 29.8248C106.611 31.0834 107.481 31.8949 108.742 32.0629C109.584 32.175 110.397 32.1295 111.126 31.6503C112.509 30.7408 112.778 28.7555 111.724 27.3315C111.183 26.6005 110.494 26.0217 109.806 25.4442C109.71 25.3641 109.614 25.2844 109.519 25.2046L109.518 25.2045L109.518 25.204C108.652 24.4829 107.784 23.7606 107.166 22.7892C106.29 21.4133 106.125 19.9544 106.878 18.4785C107.463 17.3336 108.504 16.8283 109.709 16.6215C110.075 16.5586 110.444 16.5519 110.874 16.5625ZM61.3162 53.1846C62.1464 53.5583 63.0175 53.6962 63.9152 53.7042C64.2482 53.7193 64.5786 53.6899 64.907 53.6424C65.8033 53.5129 66.6468 53.2349 67.3389 52.6162C69.0547 51.0825 69.3155 48.4682 67.9604 46.5878C67.2963 45.6662 66.4427 44.9502 65.5742 44.2456L65.4434 44.1396C64.6564 43.502 63.8675 42.863 63.2557 42.0357C62.3434 40.8022 62.6477 38.6388 64.5416 38.1835C65.3466 37.9899 66.1444 38.0733 66.9061 38.4016C67.5362 38.6733 67.9218 39.1574 68.0193 39.861C68.0236 39.8918 68.0277 39.9226 68.0317 39.9534C68.0466 40.0659 68.0615 40.1785 68.0862 40.2888L68.0905 40.309C68.1091 40.3953 68.1312 40.4979 68.2448 40.4987C68.3473 40.4993 68.3664 40.4178 68.3844 40.3406C68.3888 40.3221 68.3931 40.3038 68.3984 40.2869C68.4101 40.2506 68.4095 40.2097 68.4088 40.1696L68.4086 40.1431C68.4089 39.4669 68.4176 38.7913 68.4667 38.1161C68.4989 37.6732 68.4848 37.672 68.041 37.6341L68.0382 37.6339C67.9632 37.6275 67.8878 37.616 67.8143 37.599C66.8289 37.3716 65.8352 37.2608 64.8274 37.4008C63.8326 37.5389 62.9381 37.9033 62.2652 38.6947C61.4374 39.6683 61.2777 40.815 61.5058 42.0397C61.7291 43.2388 62.4617 44.1229 63.2929 44.9326C63.7085 45.3374 64.154 45.7073 64.5996 46.0771L64.5996 46.0771C64.9182 46.3416 65.2369 46.6061 65.5446 46.8834C66.163 47.4407 66.7774 48.0136 67.0995 48.8163C67.6351 50.1509 67.3216 51.731 66.0338 52.5029C65.3298 52.9249 64.5618 52.9709 63.7758 52.8594C63.0203 52.7522 62.3517 52.4664 61.8715 51.8287C61.479 51.3077 61.3402 50.7079 61.3561 50.061C61.3564 50.0494 61.357 50.0374 61.3576 50.0252C61.3624 49.9324 61.3678 49.8276 61.2339 49.8093C61.076 49.7877 61.0574 49.917 61.0427 50.0193L61.0398 50.0391C61.0082 50.2482 60.9931 50.4607 60.9846 50.6725C60.959 51.3089 60.9347 51.9456 60.9205 52.5824C60.9141 52.869 61.044 53.0621 61.3162 53.1846ZM147.153 50.8627L147.153 50.8624C147.17 50.6422 147.188 50.4137 147.193 50.1846C147.194 50.143 147.204 50.1012 147.214 50.0601L147.214 50.0599L147.218 50.0423C147.221 50.0296 147.224 50.0165 147.226 50.0033L147.226 50.0029C147.247 49.9007 147.27 49.7932 147.413 49.8131C147.54 49.8307 147.533 49.9275 147.527 50.0155C147.525 50.034 147.524 50.0522 147.524 50.0692C147.525 50.8095 147.698 51.4881 148.218 52.0342C148.694 52.5343 149.298 52.7741 149.962 52.8619C150.736 52.9644 151.5 52.9356 152.193 52.5105C153.291 51.8379 153.65 50.75 153.474 49.5248C153.331 48.5244 152.711 47.8232 152.025 47.1672C151.645 46.8038 151.241 46.4686 150.838 46.1334L150.837 46.1333C150.543 45.8886 150.248 45.644 149.963 45.3885C149.003 44.528 148.079 43.6224 147.747 42.3023C147.377 40.8283 147.587 39.4768 148.735 38.3956C149.377 37.7906 150.172 37.5168 151.024 37.3989C152.023 37.2605 153.007 37.3758 153.984 37.5983C154.048 37.613 154.114 37.625 154.179 37.6314L154.182 37.6317C154.654 37.6774 154.663 37.6782 154.637 38.1736L154.632 38.2905C154.601 38.8981 154.57 39.5054 154.582 40.1142C154.583 40.1813 154.581 40.2515 154.563 40.3153L154.557 40.3399C154.537 40.4152 154.515 40.4998 154.414 40.4984C154.307 40.497 154.287 40.4016 154.27 40.3219L154.268 40.3125C154.235 40.1622 154.213 40.0095 154.192 39.8569C154.082 39.0457 153.597 38.5646 152.865 38.3184C152.055 38.0456 151.23 37.9731 150.414 38.2795C148.899 38.8479 148.698 40.4937 149.139 41.5153C149.461 42.2646 150.052 42.7893 150.638 43.31L150.702 43.3663C151.034 43.6622 151.378 43.9452 151.722 44.2282C152.424 44.8068 153.127 45.3855 153.736 46.0744C155.167 47.6903 155.412 49.8593 154.323 51.6689C153.68 52.7367 152.697 53.3301 151.514 53.5657C150.186 53.83 148.875 53.7577 147.607 53.2324C147.168 53.0506 147.121 52.9795 147.12 52.502C147.12 52.3485 147.12 52.195 147.12 52.0101L147.12 51.6973C147.107 51.4471 147.129 51.1625 147.153 50.8627ZM113.656 43.8651C113.656 44.4494 113.656 45.0743 113.656 45.7551C113.648 46.2109 113.653 46.7506 113.658 47.3463C113.667 48.5397 113.679 49.9576 113.603 51.3747C113.583 51.7599 113.54 52.1428 113.436 52.5164C113.341 52.8565 113.114 53.0243 112.78 53.0621C112.7 53.0711 112.621 53.0813 112.542 53.0915C112.471 53.1007 112.4 53.1099 112.329 53.1182C112.266 53.1254 112.215 53.155 112.203 53.2165C112.189 53.2922 112.233 53.354 112.3 53.3746C112.38 53.399 112.466 53.4139 112.549 53.4117C113.004 53.3994 113.458 53.3837 113.912 53.3635C114.452 53.3395 114.992 53.362 115.531 53.3844C115.995 53.4038 116.459 53.4231 116.923 53.4129C117.027 53.4106 117.132 53.4066 117.233 53.3856C117.308 53.37 117.372 53.3203 117.362 53.2225C117.353 53.1326 117.286 53.1211 117.218 53.1149C117.02 53.0966 116.822 53.0786 116.624 53.0641C115.863 53.0082 115.643 52.8077 115.528 52.0477C115.465 51.6277 115.43 51.2041 115.428 50.7795C115.42 48.6242 115.412 46.4689 115.413 44.3136C115.413 42.6125 115.415 40.9114 115.437 39.2106C115.448 38.3091 115.689 38.0624 116.547 37.9653C116.555 37.9643 116.564 37.9637 116.573 37.963C116.593 37.9615 116.612 37.9601 116.631 37.9548C116.65 37.9494 116.671 37.9458 116.692 37.9422C116.776 37.9279 116.862 37.9132 116.846 37.7867C116.83 37.6516 116.71 37.6383 116.605 37.6379C116.529 37.6376 116.453 37.6368 116.377 37.6359C116.121 37.633 115.865 37.6301 115.61 37.6491C114.881 37.7037 114.154 37.7031 113.425 37.6489C113.18 37.6307 112.934 37.6331 112.688 37.6355C112.592 37.6364 112.497 37.6373 112.402 37.637C112.283 37.6367 112.151 37.6549 112.145 37.8019C112.139 37.925 112.242 37.9391 112.333 37.9514C112.348 37.9535 112.363 37.9555 112.376 37.9579C112.431 37.9676 112.488 37.9696 112.544 37.9716C112.583 37.973 112.621 37.9743 112.66 37.9782C113.213 38.034 113.459 38.2427 113.564 38.8019C113.622 39.1127 113.65 39.4337 113.652 39.7504C113.658 41.0245 113.657 42.2987 113.656 43.8651Z" fill="#171717"/></g></svg>