<svg width="180" height="70" viewBox="0 0 180 70" fill="none" xmlns="http://www.w3.org/2000/svg"><mask id="mask0" mask-type="alpha" maskUnits="userSpaceOnUse" x="0" y="0" width="180" height="70"><rect width="180" height="70" fill="#C4C4C4"/></mask><g mask="url(#mask0)"><path d="M0.697871 49.2412C0.46905 47.7275 2.53508 47.26 5.58629 47.5433C7.70953 47.6707 12.0985 49.0994 14.3223 49.7217C12.5841 50.5707 9.22068 51.4198 6.05643 51.4344H5.99922C4.07533 51.4344 0.938993 50.7973 0.697871 49.2412ZM29.7435 50.5C27.7054 50.3726 25.1831 49.7923 22.9312 49.2973C25.1534 47.9393 28.0469 46.3548 31.055 45.7747C34.0751 45.1942 36.0145 45.3923 37.4385 45.9443C39.2357 46.6374 38.9356 48.4489 37.6242 49.2835C36.214 50.1747 34.219 50.5707 31.7106 50.5707C31.0829 50.5707 30.4271 50.5569 29.7435 50.5ZM25.0964 39.3226L25.353 38.7138C25.7241 37.9639 26.1509 36.705 26.4649 35.6717C28.2324 29.8422 28.4181 26.1638 31.5388 20.4198C35.2442 23.2492 35.9432 27.2531 34.375 32.2619C32.8779 37.0587 29.1156 38.9687 26.8637 39.2519C26.494 39.2943 26.0225 39.3364 25.5818 39.3364C25.4102 39.3366 25.2401 39.3366 25.0964 39.3226ZM30.257 18.5943C27.6759 17.3494 24.6124 16.6981 21.0772 16.7551C10.1885 16.9532 1.06746 24.2963 1.28086 34.3423C1.36735 39.2521 4.97226 41.6287 9.10608 41.6433C15.7481 41.7138 21.0216 35.1346 20.0087 28.3856C19.5817 25.3435 17.8282 23.8012 16.09 23.7446C13.8524 23.6171 12.3691 25.1879 11.8574 26.1787C11.4722 26.8435 11.2293 27.4946 10.9589 28.23L11.415 28.3858C11.415 28.3858 12.7126 24.4102 15.9895 24.5798C17.4153 24.6504 18.6555 26.1927 18.855 28.2445L18.8691 28.3288C19.3251 33.0122 15.0925 41.0632 9.02115 40.8228C5.89887 40.6247 4.51638 37.5964 4.50232 34.3847C4.5318 24.8337 11.358 17.6327 21.2059 17.4907C24.0419 17.4484 27.0639 17.8866 29.7006 19.2454C26.9928 22.4005 24.5416 26.277 21.7486 34.5258C19.6965 40.596 19.5249 44.3599 16.9452 47.699C12.9121 46.4393 8.7072 45.5198 5.74268 45.3923C1.95229 45.2932 -0.399769 47.1324 0.0563117 49.2833C0.49853 51.4195 3.93319 52.1273 6.29775 52.1698C9.462 52.2403 13.0542 51.3914 15.6617 50.1179C16.4317 50.3588 17.8716 50.8258 19.2402 51.2363C19.2402 51.2363 17.7572 52.255 16.5168 52.9619C16.1749 53.16 14.7786 53.9101 13.5677 54.4902L13.8524 55C14.6798 54.6176 15.7483 54.108 16.8307 53.5C18.0572 52.7355 18.9403 52.2403 20.0522 51.4904C23.0167 52.3677 26.4655 53.4292 29.6865 53.4853C32.1239 53.5283 35.0451 52.6648 37.2829 51.2784C38.0949 50.7686 38.8216 50.1608 39.3923 49.4246C40.0202 48.647 41.1028 46.3825 38.2943 45.1236C36.3427 44.2464 32.7364 44.1188 29.4577 45.3355C24.8124 47.0481 23.6725 48.1512 22.0765 49.0992C20.3367 48.6892 19.0407 48.3353 18.1701 48.0804C18.1701 48.0804 21.9482 44.9676 24.6979 40.0863C25.4402 40.2421 26.4655 40.3272 27.3919 40.3127C30.856 40.1714 36.329 38.7421 38.0532 33.8038C40.2754 27.4372 36.5994 23.0509 33.1216 20.349C32.7659 20.0794 32.3947 19.8109 32.0097 19.5706C33.8483 16.5706 35.9717 15.6088 38.0098 15.453L37.9108 15H37.6959C36.3561 15.0002 33.2354 15.5807 30.257 18.5943Z" fill="#323232"/><path d="M101.653 48.6576C99.4 48.5917 98.2311 46.6893 98.2311 45.105C98.2311 42.9417 99.8067 42.0329 101.117 41.9148C101.715 41.8679 103.249 41.9579 103.364 42.7607L103.464 42.7859L103.8 41.5095C103.195 41.2514 102.295 41.124 101.811 41.124C98.3192 41.124 96.717 43.4716 96.717 45.6708C96.717 46.9983 97.204 47.9944 97.9418 48.6908C98.6747 49.3825 99.7062 49.7301 100.821 49.7301C102.04 49.7301 103.698 49.156 104.41 47.6482L104.287 47.5955C103.724 48.4518 102.813 48.6968 101.653 48.6576Z" fill="#323232"/><path d="M68.9471 36.1348H64.6124L64.6216 36.279C65.4227 36.3404 66.3057 37.3621 66.3057 38.8351C66.3057 39.8791 66.3212 46.6818 66.3227 47.5463C66.3227 48.773 65.1753 49.3793 64.6743 49.4062V49.5159H69.6941V49.4062C69.1945 49.3793 68.0455 48.7929 68.0455 47.5639L68.0393 36.8009C68.149 36.7932 68.2109 36.8009 68.3626 36.8009C70.9731 36.8009 72.7282 38.0775 72.7282 40.0533C72.7282 41.6968 71.2033 43.6003 68.7662 43.7325V43.8721C70.2275 43.8721 71.7153 43.899 72.818 43.2749C73.6731 42.7874 74.7448 41.9086 74.7448 40.0318C74.7446 38.6264 73.8586 36.1348 68.9471 36.1348Z" fill="#323232"/><path d="M77.6628 42.1664L77.6661 40.9858C77.6661 40.9858 76.8617 41.8408 75.3742 41.8408L75.365 41.9699C75.8906 42.1288 76.1118 42.5326 76.1118 43.5957L76.1089 47.5697C76.1089 48.7928 75.0759 49.3775 74.6259 49.406V49.5144H79.1539V49.406C78.6993 49.3775 77.6708 48.785 77.6708 47.559C77.6708 47.559 77.6663 44.7916 77.6663 44.3879C77.6663 43.9888 77.6478 43.2703 77.8163 43.0799C78.6341 42.0168 80.0863 42.1864 80.7824 42.6285L80.8072 42.5403C80.329 41.9207 78.9387 40.8583 77.6628 42.1664Z" fill="#323232"/><path d="M83.9384 47.5729L83.9462 43.4898C83.9462 42.6583 83.9865 41.6806 84.0267 40.9619C84.0267 40.9619 83.0895 41.8409 81.6496 41.8409L81.6373 41.9791C82.1151 42.0437 82.3888 42.5133 82.3888 43.5974L82.3796 47.5592C82.3796 48.7896 81.3388 49.3792 80.8888 49.4046V49.5158H85.4152V49.4046C84.9638 49.379 83.9384 48.7989 83.9384 47.5729Z" fill="#323232"/><path d="M94.8194 47.5538L94.8161 43.6535C94.8161 42.2847 94.1017 41.1256 92.3526 41.1256C91.2826 41.1256 90.0778 41.8615 89.1764 42.4442C89.1764 42.2637 89.178 41.4555 89.2197 40.9858C89.2197 40.9858 88.3289 41.8408 86.8847 41.8408L86.8737 41.979C87.3609 42.0705 87.6223 42.5248 87.6223 43.5973V47.5536C87.6223 48.785 86.5891 49.3789 86.1377 49.406V49.5144H90.6626V49.406C90.2125 49.3791 89.1782 48.785 89.1782 47.5536L89.1828 43.2303C89.4796 42.8442 90.4152 42.1288 91.2828 42.1065C92.7163 42.066 93.2624 42.9633 93.2624 44.1285L93.2639 47.5591C93.2639 48.7881 92.2309 49.3791 91.7762 49.406V49.5144H96.3058V49.406C95.854 49.3791 94.8194 48.7852 94.8194 47.5538Z" fill="#323232"/><path d="M109.364 41.124C106.843 41.124 105.137 43.2259 105.137 45.7307C105.137 46.6312 105.389 47.5906 106.019 48.3812C106.63 49.1596 107.703 49.7299 109.073 49.7299C111.962 49.7299 112.389 47.6703 112.389 47.6703L112.264 47.6197C111.84 48.6375 110.667 48.7111 110.052 48.7111C107.801 48.7111 106.308 46.5963 106.597 44.2289H112.389C112.389 44.2289 112.403 43.8481 112.377 43.5687C112.237 42.2102 111.175 41.124 109.364 41.124ZM110.816 43.6003L106.721 43.5972C106.882 42.7198 107.893 41.8408 109.133 41.8408C111.06 41.841 110.816 43.6003 110.816 43.6003Z" fill="#323232"/><path d="M83.153 39.7375C83.7436 39.7375 84.2262 39.2623 84.2262 38.6699C84.2262 38.0819 83.7436 37.6006 83.153 37.6006C82.5575 37.6006 82.0735 38.0819 82.0735 38.6699C82.0735 39.2624 82.5575 39.7375 83.153 39.7375Z" fill="#323232"/><path d="M144.441 48.5792C143.487 48.5838 143.351 47.4585 143.332 46.1942L143.324 42.1888H145.424V41.4734L143.337 41.4418V39.7944C143.337 39.7944 142.172 41.7149 140.872 41.8032V41.9895C140.872 41.9895 141.721 42.088 141.77 43.1565L141.783 47.2296C141.789 48.6259 142.055 49.7342 143.465 49.7268C144.719 49.7168 145.56 48.9469 145.626 47.744L145.505 47.7126C145.335 48.2536 144.949 48.5745 144.441 48.5792Z" fill="#323232"/><path d="M126.154 36.2489C126.653 36.2758 127.799 36.8953 127.799 38.1266V42.1022H121.612V38.1266C121.612 36.8953 122.758 36.276 123.259 36.2489V36.1392H118.307V36.2489C118.805 36.2758 119.953 36.8953 119.953 38.1266V47.5278C119.953 48.7646 118.807 49.3809 118.307 49.4061V49.5145H123.254V49.4061C122.756 49.3809 121.612 48.7644 121.612 47.5278V43.025H127.799V47.5278C127.799 48.7646 126.655 49.3809 126.154 49.4061V49.5145H131.106V49.4061C130.601 49.3809 129.46 48.7644 129.46 47.5278V38.1266C129.46 36.8953 130.605 36.276 131.107 36.2489V36.1392H126.154V36.2489" fill="#323232"/><path d="M150.789 41.1133C148.262 41.1133 146.55 43.2182 146.55 45.7275C146.55 46.6218 146.808 47.5874 147.438 48.3827C148.045 49.1596 149.125 49.7298 150.489 49.7298C153.389 49.7298 153.812 47.6658 153.812 47.6658L153.692 47.615C153.289 48.5744 152.094 48.7111 151.475 48.7111C149.219 48.7111 147.724 46.5933 148.011 44.2182L153.812 44.2141C153.812 44.2141 153.829 43.842 153.801 43.5539C153.666 42.1933 152.6 41.1133 150.789 41.1133ZM152.243 43.5873L148.138 43.5782C148.299 42.7123 149.311 41.8289 150.555 41.8289C152.484 41.8287 152.243 43.5873 152.243 43.5873Z" fill="#323232"/><path d="M135.655 41.1084C133.28 41.1084 131.353 43.0106 131.353 45.3573C131.353 47.6998 133.28 49.6038 135.655 49.6038C138.03 49.6038 139.961 47.7 139.961 45.3573C139.961 43.0106 138.031 41.1084 135.655 41.1084ZM135.655 48.8899C134.302 48.8899 133.204 47.3131 133.204 45.3574C133.204 43.399 134.302 41.8186 135.655 41.8186C137.015 41.8186 138.114 43.399 138.114 45.3574C138.114 47.3131 137.015 48.8899 135.655 48.8899Z" fill="#323232"/><path d="M157.603 47.5462L157.595 37.7206C157.6 36.9129 157.615 35.5889 157.645 34.9155C157.645 34.9155 156.261 36.1217 155.103 36.1217V36.252C155.732 36.3748 156.022 36.7003 156.022 38.4527L156.05 47.5698C156.05 48.7989 155.024 49.3807 154.57 49.4061V49.5145H159.088V49.4061C158.634 49.3809 157.603 48.7758 157.603 47.5462Z" fill="#323232"/><path d="M111.798 53.5044C86.1685 53.5044 62.4148 53.7308 42.7981 54.1206V54.3785C62.4148 54.7716 86.1685 54.9998 111.798 54.9998C137.431 54.9998 161.184 54.7716 180.801 54.3785V54.1206C161.184 53.7308 137.431 53.5044 111.798 53.5044Z" fill="#323232"/></g></svg>