<svg fill="none" height="70" viewBox="0 0 180 70" width="180" xmlns="http://www.w3.org/2000/svg" xmlns:xlink="http://www.w3.org/1999/xlink"><mask id="a" height="70" maskUnits="userSpaceOnUse" width="180" x="0" y="0"><path d="m0 0h180v70h-180z" fill="#c4c4c4"/></mask><g fill="#323232" mask="url(#a)"><path d="m71.2694 34.9569c.2147 0 .4224.0187.623.056.2007.0327.399.0957.595.189l-.154.532c-.2006-.0933-.3826-.1586-.546-.196-.1586-.042-.322-.063-.49-.063-.266 0-.476.0584-.63.175-.154.1167-.231.28-.231.49 0 .1774.056.3197.168.427.1167.1074.3057.2007.567.28l.441.14c.4014.126.6837.2987.847.518.168.2147.252.4574.252.728 0 .1914-.0396.3664-.119.525-.0746.154-.182.287-.322.399-.1353.1074-.2963.1914-.483.252-.1866.056-.392.084-.616.084s-.4526-.021-.686-.063c-.2286-.0373-.4573-.1096-.686-.217l.154-.525c.2007.098.3967.1704.588.217.1914.0467.392.07.602.07.252 0 .4667-.0583.644-.175.1774-.1166.266-.2893.266-.518 0-.084-.014-.161-.042-.231-.0233-.0746-.0676-.1446-.133-.21-.0606-.0653-.1446-.126-.252-.182-.1073-.056-.2426-.1096-.406-.161l-.441-.14c-.322-.1026-.5693-.2426-.742-.42-.1726-.1773-.259-.4176-.259-.721 0-.3873.126-.693.378-.917.2567-.2286.6277-.343 1.113-.343zm3.5542.063h.84l.924 2.814c.0467.1354.091.2684.133.399.042.126.0817.2544.119.385h.014c.0374-.1306.0747-.2566.112-.378.042-.1213.0887-.2566.14-.406l.903-2.814h.84l.385 4.41h-.644l-.182-2.338c-.0186-.2286-.0326-.455-.042-.679-.0093-.2286-.0186-.4596-.028-.693h-.014c-.0653.2287-.133.4574-.203.686-.0653.2287-.1353.4574-.21.686l-.777 2.338h-.588l-.777-2.345c-.0793-.238-.1516-.4643-.217-.679-.0653-.2193-.1306-.448-.196-.686h-.014c-.0093.2287-.0233.4574-.042.686-.014.2287-.0303.4574-.049.686l-.168 2.338h-.63zm7.6469 0h.574l1.757 4.41h-.672l-.483-1.225h-1.813l-.476 1.225h-.665zm-.462 2.674h1.449l-.294-.763c-.0794-.2006-.1517-.3943-.217-.581-.0654-.1866-.1307-.378-.196-.574h-.014c-.0654.196-.133.385-.203.567s-.1447.378-.224.588zm4.3589-2.674h1.435c.2286 0 .4293.0327.602.098.1773.0654.3243.1564.441.273.1166.1167.2053.2567.266.42.0606.1587.091.3337.091.525 0 .168-.0257.3197-.077.455-.0514.1354-.119.2544-.203.357-.084.098-.182.1844-.294.259-.1074.07-.217.1284-.329.175l1.162 1.848h-.721l-1.043-1.729h-.721v1.729h-.609zm.609 2.156h.532c.1446 0 .2776-.014.399-.042.126-.0326.2333-.0793.322-.14.0933-.0653.1656-.1493.217-.252.056-.1026.084-.2263.084-.371 0-.2846-.0794-.4946-.238-.63-.154-.1353-.3804-.203-.679-.203h-.637zm7.0005-2.156v.546h-1.379v3.864h-.644v-3.864h-1.351v-.546zm4.1746 0h.644v3.864h1.8835v.546h-2.5275zm3.9995 0h.644v2.639c0 .4714.087.8074.259 1.008.173.2007.451.301.833.301.378 0 .654-.112.826-.336.178-.224.266-.5203.266-.889v-2.723h.644v2.702c0 .602-.154 1.0477-.462 1.337-.308.2894-.732.434-1.274.434-.546 0-.973-.1423-1.281-.427-.303-.2893-.455-.749-.455-1.379zm5.814 0 1.057 1.722 1.106-1.722h.707l-1.449 2.17 1.519 2.24h-.742l-1.141-1.792-1.148 1.792h-.707l1.47-2.24-1.407-2.17zm4.41 0h.644v2.639c0 .4714.086.8074.259 1.008.173.2007.45.301.833.301.378 0 .653-.112.826-.336.177-.224.266-.5203.266-.889v-2.723h.644v2.702c0 .602-.154 1.0477-.462 1.337-.308.2894-.733.434-1.274.434-.546 0-.973-.1423-1.281-.427-.303-.2893-.455-.749-.455-1.379zm5.533 0h1.435c.229 0 .43.0327.602.098.178.0654.325.1564.441.273.117.1167.206.2567.266.42.061.1587.091.3337.091.525 0 .168-.025.3197-.077.455-.051.1354-.119.2544-.203.357-.084.098-.182.1844-.294.259-.107.07-.217.1284-.329.175l1.162 1.848h-.721l-1.043-1.729h-.721v1.729h-.609zm.609 2.156h.532c.145 0 .278-.014.399-.042.126-.0326.234-.0793.322-.14.094-.0653.166-.1493.217-.252.056-.1026.084-.2263.084-.371 0-.2846-.079-.4946-.238-.63-.154-.1353-.38-.203-.679-.203h-.637zm4.19-2.156 1.099 1.974 1.106-1.974h.679l-1.491 2.562v1.848h-.644v-1.848l-1.456-2.562zm6.999 4.41v-4.41h.644v1.855h2.093v-1.855h.644v4.41h-.644v-2.009h-2.093v2.009zm7.346-4.473c.299 0 .574.049.826.147.252.0934.469.2357.651.427.187.1867.332.4224.434.707.103.28.154.609.154.987 0 .3687-.053.6954-.161.98-.107.28-.254.5157-.441.707-.186.1914-.408.336-.665.434-.252.098-.527.147-.826.147-.298 0-.574-.0466-.826-.14-.252-.098-.471-.2403-.658-.427-.182-.1913-.324-.427-.427-.707-.102-.2846-.154-.616-.154-.994 0-.3686.054-.693.161-.973.108-.2846.255-.5226.441-.714.187-.1913.406-.336.658-.434.257-.098.535-.147.833-.147zm-1.393 2.268c0 .2987.035.5577.105.777.075.2194.175.4014.301.546.126.1447.273.252.441.322.173.07.355.105.546.105.192 0 .369-.035.532-.105.168-.07.313-.1773.434-.322.126-.1446.224-.3266.294-.546.07-.2193.105-.4783.105-.777 0-.308-.037-.5716-.112-.791-.07-.2193-.168-.399-.294-.539-.126-.1446-.275-.2496-.448-.315-.168-.07-.347-.105-.539-.105-.191 0-.371.035-.539.105s-.312.1774-.434.322c-.121.1447-.217.3267-.287.546-.07.2194-.105.4784-.105.777zm7.975-2.205v.546h-1.379v3.864h-.644v-3.864h-1.351v-.546zm1.623 0h2.66v.532h-2.016v1.323h1.834v.525h-1.834v1.498h2.037v.532h-2.681zm4.507 0h.644v3.864h1.883v.546h-2.527z"/><path clip-rule="evenodd" d="m32.4624 44.0585c6.0205-4.946 10.8793-9.2805 14.5817-13.005 3.7227-3.7853 6.5523-6.7019 8.4906-8.7514 1.9419-2.0532 4.2483-4.5096 6.9194-7.3692l.0035-.0037c2.7123-2.8603 4.777-5.03591 6.1941-6.52678l.0129-.01355c.1445-.14377.2995-.27443.4641-.37271.161-.09613.3735-.18633.6204-.18633.2775 0 .5626.11958.7435.38963.1487.22201.1741.47011.1741.64437 0 1.33407-.4029 3.74077-1.17 7.15617-.7752 3.4513-1.9153 7.4613-3.4177 12.0272l-.0005.0017c-1.5044 4.5319-3.1922 8.9031-5.0635 13.1135-1.8846 4.2403-4.1252 7.8457-6.7279 10.8058l-.0031.0036c-2.6131 2.9307-5.3321 4.5161-8.1556 4.5161-1.8769 0-3.3317-1.0085-4.3531-2.8204l-.0028-.005c-.9637-1.7437-1.4194-3.9819-1.4194-6.6685 0-2.772.6766-5.3258 2.0335-7.6474.1751-.3047.361-.573.5626-.7737.1902-.1892.4851-.4081.8718-.4081.3092 0 .576.1342.7658.3501.1697.193.2603.429.3138.6419l.0669.2665-.1399.2368c-.3414.5776-.6895 1.6667-1.0118 3.3504l-.0005.003c-.3155 1.6091-.4733 3.2379-.4733 4.8869 0 2.3381.3223 3.9864.8899 5.0278.2783.5106.6073.8604.9746 1.0851.3657.2236.8066.3462 1.347.3462.5829 0 1.2562-.2324 2.0324-.7934.777-.5615 1.6216-1.4274 2.5295-2.6255 1.8231-2.406 3.5185-5.3789 5.0815-8.9281 1.5717-3.6096 3.0228-7.3201 4.3531-11.1314l.0021-.006c1.3713-3.813 2.4372-7.1965 3.1998-10.1523.3836-1.5067.6695-2.7004.8592-3.5845.1123-.5237.1858-.9172.228-1.1948-.2592.234-.5702.5265-.9344.8794-1.1435 1.1081-2.7754 2.7769-4.899 5.011l-.002.0022c-4.252 4.4328-7.6363 7.9017-10.1515 10.4048-2.5185 2.5063-5.4608 5.2929-8.8261 8.3595l-.0023.0021c-6.1669 5.5663-13.0882 10.5798-20.7618 15.0416 40.0871 5.6776 80.1941 4.1529 147.738-10.4143-66.396 16.0491-105.523 20.7679-152.4333 12.4667l.0422-.0662c-.073-.0253-.1465-.06-.2174-.107-.2713-.18-.3915-.4638-.3915-.7399 0-.5967.5058-.8962.8106-1.0301 5.9369-3.0358 11.8209-6.9327 17.6518-11.6948zm18.9376-2.2287c1.8778 0 3.4-1.5222 3.4-3.4 0-1.8777-1.5222-3.4-3.4-3.4s-3.4 1.5223-3.4 3.4c0 1.8778 1.5222 3.4 3.4 3.4z" fill-rule="evenodd"/></g></svg>