<svg width="1440" height="476" viewBox="0 0 1440 476" fill="none" xmlns="http://www.w3.org/2000/svg">
<mask id="mask0" mask-type="alpha" maskUnits="userSpaceOnUse" x="0" y="0" width="1440" height="476">
<rect width="1440" height="476" transform="matrix(1 0 0 -1 0 476)" fill="white"/>
</mask>
<g mask="url(#mask0)">
<path fill-rule="evenodd" clip-rule="evenodd" d="M720 476C79.3497 476 -440 -43.3497 -440 -684C-440 -1324.65 79.3497 -1844 720 -1844C1360.65 -1844 1880 -1324.65 1880 -684C1880 -43.3497 1360.65 476 720 476ZM720 310.286C171.429 310.286 -273.275 -134.419 -273.275 -682.99C-273.275 -1231.56 171.429 -1676.26 720 -1676.26C1268.57 -1676.26 1713.28 -1231.56 1713.28 -682.99C1713.28 -134.419 1268.57 310.286 720 310.286Z" fill="white"/>
<path fill-rule="evenodd" clip-rule="evenodd" d="M720 476C79.3497 476 -440 -43.3497 -440 -684C-440 -1324.65 79.3497 -1844 720 -1844C1360.65 -1844 1880 -1324.65 1880 -684C1880 -43.3497 1360.65 476 720 476ZM720 310.286C171.429 310.286 -273.275 -134.419 -273.275 -682.99C-273.275 -1231.56 171.429 -1676.26 720 -1676.26C1268.57 -1676.26 1713.28 -1231.56 1713.28 -682.99C1713.28 -134.419 1268.57 310.286 720 310.286Z" fill="#F1F8FF"/>
</g>
</svg>
