<svg fill="none" height="70" viewBox="0 0 180 70" width="180" xmlns="http://www.w3.org/2000/svg" xmlns:xlink="http://www.w3.org/1999/xlink"><mask id="a" height="70" maskUnits="userSpaceOnUse" width="180" x="0" y="0"><path d="m0 0h180v70h-180z" fill="#c4c4c4"/></mask><g clip-rule="evenodd" fill="#171717" fill-rule="evenodd" mask="url(#a)"><path d="m113.124 22.2754h.515v3.5378h1.69v.4291h-2.205z"/><path d="m119.212 24.5926-.396-1.1379c-.079-.2592-.139-.4942-.198-.7247h-.015c-.055.23-.119.4765-.195.7176l-.389 1.145zm-1.298.4037-.41 1.246h-.527l1.342-3.9669h.617l1.348 3.9669h-.543l-.425-1.246z"/><path d="m122.064 25.1271c.228.1478.558.2592.91.2592.523 0 .828-.2702.828-.6762 0-.3646-.21-.5814-.746-.7827-.646-.2327-1.044-.5747-1.044-1.1274 0-.6205.511-1.0761 1.28-1.0761.398 0 .698.0926.867.1914l-.139.4192c-.125-.075-.389-.1887-.746-.1887-.541 0-.747.3244-.747.5963 0 .3684.241.5527.786.7634.671.2642 1.004.5819 1.004 1.166 0 .6106-.445 1.144-1.38 1.144-.382 0-.798-.1164-1.006-.2571z"/><path d="m128.733 26.2429-1.298-3.967h.56l.616 1.9548c.165.5329.31 1.0227.421 1.4832h.012c.112-.4605.272-.9614.452-1.4788l.671-1.9597h.547l-1.416 3.9669h-.565z"/><path d="m134.437 24.3808h-1.531v1.4324h1.713v.4291h-2.23v-3.9669h2.143v.4286h-1.626v1.2548h1.531z"/><path d="m139.494 25.5546c-.229.086-.686.2173-1.22.2173-.601 0-1.092-.155-1.481-.5235-.337-.3298-.551-.8582-.551-1.4787 0-1.1804.814-2.0458 2.143-2.0458.457 0 .824.102.991.1842l-.126.4148c-.213-.0982-.478-.1699-.877-.1699-.963 0-1.592.5996-1.592 1.5952 0 1.0049.601 1.5995 1.53 1.5995.332 0 .563-.0457.678-.1037v-1.1831h-.798v-.4148h1.303z"/><path d="m143.435 24.5926-.397-1.1379c-.081-.2592-.139-.4942-.2-.7247h-.016c-.054.23-.115.4765-.194.7176l-.386 1.145zm-1.3.4037-.412 1.246h-.527l1.344-3.9669h.615l1.353 3.9669h-.547l-.424-1.246z"/><path d="m145.736 25.1271c.229.1478.558.2592.909.2592.522 0 .827-.2702.827-.6762 0-.3646-.211-.5814-.744-.7827-.646-.2327-1.046-.5747-1.046-1.1274 0-.6205.51-1.0761 1.28-1.0761.399 0 .699.0926.867.1914l-.14.4192c-.124-.075-.388-.1887-.745-.1887-.539 0-.744.3244-.744.5963 0 .3684.238.5527.785.7634.671.2642 1.003.5819 1.003 1.166 0 .6106-.445 1.144-1.378 1.144-.382 0-.797-.1164-1.011-.2571z"/><path d="m36.1422 33.6405c-.2108.0171-.0028.4705-.0606.7198-.0605.2482-.2058 1.3299-.2284 1.5654-.2405 2.3646 1.6364 2.005 3.165 2.4832.906.118 4.8041-.4782 9.6181-5.0282 1.976-1.8665 3.859-3.4468 6.6189-6.9846 3.2508-4.1732 2.1367-3.743 5.1195-7.8864.7304-1.1319 1.4564-2.2659 2.183-3.4011 1.0425-1.5003 2.4642-3.1627 2.9414-4.8969.4332-1.58298-.655-4.34417-2.3272-4.45835-.0346-.12686-1.1608.23276-1.0788.8588.2213 1.12081.3275 2.82407-.082 3.78215-.9495 2.2058-2.5243 4.1401-3.6879 6.3216-5.0386 9.4491-11.0277 14.9489-16.7896 18.6582-.4304.2796-2.6074 1.0491-3.0015.2515-1.2032-2.4286 4.251-7.8947 5.0298-10.0872.027-.315.0474-.6316.0738-.9515-.1063-.2278-.2174-.46-.3237-.6933-.3071-.2675-.7689-.2945-1.1999-.2581-.0699.011-.1442.0204-.2163.0314-.0765.0254-.1552.0496-.2323.0728-1.5566.6145-2.3811 2.3547-3.6245 3.4529-1.5919 1.3916-3.3516 2.6977-5.0942 3.8152-.998.6376-2.5001 1.7623-3.0241 2.1633-.5234.4021-2.2875 1.6591-3.4831 1.3006-.5928-.1748-.6583-.9382-.524-1.4617.4607-1.8979 2.51-3.6045 3.8811-4.9228 1.4415-1.3999 2.8022-3.3089 3.8023-5.0055.4282-.7413 1.0403-1.5251 1.0266-2.4264-.0776-3.6261-4.633 1.0507-5.1597 2.2096.0413-.0011.0776-.005.1189-.0061-.3644.3928-.7233.7816-1.0888 1.1699-2.1257 3.4987-8.9917 10.3939-3.6482 13.8518.7992.482 1.9617.669 3.8915-.4738 1.4515-.8588 6.0217-4.0845 7.4049-3.7662z"/><path d="m112.201 38.5056c.645-.1086 9.777-2.6128 13.983-2.1721 1.913 0 7.561 1.754 9.369 1.8616 1.502.1754 6.94.2896 7.056.2896 1.794.0033 3.694.1246 4.863-1.5213.251-.3612-.043-.647-.371-.7551-1.527-.5008-4.483-.3375-5.265-.2057-7.304.5681-9.271-1.2013-16.154-1.6917-1.847-.1335-13.304 2.0783-13.659 2.1412 0 0-1.46.2946-2.984.7033-1.521.4093-1.638-1.0546-1.697-1.5251-.057-.47.588-3.4137.764-4.106.351-1.4059-.352-2.4043-.996-2.4627-.703-.0657-2.049.8218-2.575 1.2895-.526.4689-4.39 3.1098-5.4994 4.0475-1.1114.9404-1.4603-.2907-1.1708-.7612.2923-.4694.9363-2.171 1.2869-3.1693.3545-.9973-.3506-1.6426-.933-1.9328-.5851-.2961-1.8142.4678-2.1659.8191-.3528.3542-2.221 1.6432-3.4517 2.5235-1.228.8798-4.5064 2.6967-5.9688 3.401-1.4647.7027-1.4647-1.0562-1.3453-1.8775.1156-.8219.4613-2.1369.644-3.5792.2334-1.8759-1.5808-1.4639-2.2809-1.1114-.7051.3502-6.3795 4.3375-7.1391 4.9266-.7595.5853-.7595-.4137-.7018-.765.0589-.3514.1773-1.0546.8202-2.4611.6412-1.4082.1178-1.8191 0-2.465-.1184-.6443-1.5214-.353-2.6344.1175-.6137.2592-7.379 2.7098-7.63 2.7694-.2124.0166-.4298.0337-.6417.0497-.0039-.0331-.1178-.0668-.1211-.2074-.0232-.7441-.3386-1.3029-1.1768-1.1804-1.7559.2383-2.7092 1.8417-3.9912 2.8709-1.7988 1.4479-3.6477 3.0144-5.7162 4.0188-.6313.3404-.5102-1.1285-.0588-1.6652 2.8286-3.3878 1.7498-2.2311 3.0972-3.6773 1.0161-1.3178 2.3828-2.7579 2.8985-4.3078.4662-1.4165-.2306-3.7243-1.7388-3.9063-.5597-.0292-.9698.4457-.9687.8494.076.9989-.0705 2.1765-.4695 3.0558-.9027 1.9873-2.1896 3.8538-3.6394 5.5654-2.095 2.4765-2.2078 4.5609-2.2078 4.5609s-3.2337 2.1402-4.4964 3.2483c-2.0377 1.69-4.0809 3.3762-6.1246 5.0679-3.5266 3.1875-12.2046 9.0745-9.3226 14.8026.6099 1.2168 1.6205 2.3028 2.8568 2.9647 1.8962 1.0144 4.4023 2.1153 6.746 1.9317.1524.0435.3643.0744.5394.0755 1.8478.0315 3.8761-.2074 5.5587-.7457 11.1583-3.5858 18.18-15.7922 17.257-27.7244-.0529-.6713.3236-1.4661.8267-1.9162 1.1449-1.0304 5.6011-3.8522 7.0009-4.0966 1.6969-.2945.9357 2.2896.7034 3.1087-.235.8219-.939 1.9967-1.0552 2.994-.1155.9939.9027 1.4385 1.6376 1.6988.9968.3547 2.4593-.9382 2.9271-1.3469.4673-.4104 4.7364-4.1065 5.4982-4.6349.7596-.5262.878.6475.7596 1.1732-.115.5284-.4656 1.9355-.5251 2.8152-.0578.8792.1161 1.8197.8757 2.2863.7624.4705 1.522.1175 2.3999-.4082.8779-.5284 6.3794-4.1644 6.8478-4.401.4684-.2333 1.812-1.2885 2.69-1.5234.8795-.2356.8195.7617.4095 1.6409-.1497.3249-.5251 1.9973-.7007 2.8163-.1778.8202-.2345 1.7017.7585 2.5207.7717.636 2.5765-1.1125 3.0444-1.5262.4651-.4076 4.5027-4.0441 5.2637-4.5135.762-.47 1.111.6823.818 1.759-.351 1.2918-.428 2.4964-.194 2.9366.527.9978 1.555 1.5245 3.996 1.2857.414-.0386 3.574-.6432 3.574-.6432zm-51.4244 5.4238c-1.2445 8.288-3.9846 13.6361-12.1666 16.5964-.5488.2085-2.467.7436-2.745.7529-4.2179.3304-7.3295.4192-10.4619-1.7154-.6605-.4512-1.3354-1.9503-1.1906-2.8913.4161-2.834 2.7092-4.6895 4.7072-6.6763 2.7929-2.7926 5.6837-5.3564 8.7568-7.71 1.8521-1.3866 3.7054-2.776 5.5609-4.1577.6313-.0513 1.2605.1864 1.9859.0833 1.4455-.2119 4.371-1.4275 5.4982-2.2913.0545-.1495.8609-.4231.9649-.0723.0859.4248.1641.8434.2466 1.267-.0121 2.4043-.8185 4.5605-1.1564 6.8147z"/><path d="m150.064 37.4686c.258.7413.691 1.316 1.903 1.5438.56.1037 1.261-.2305 1.36-.5962.131-.4821.389-.7331.275-1.3404-.142-.7639-.691-1.3166-1.908-1.5433-.551-.1037-1.258.2317-1.352.5974-.133.4799-.479.749-.278 1.3387z"/><path d="m155.802 39.7649h.154c.132 0 .278-.0089.278-.1661 0-.1555-.146-.1665-.278-.1627h-.154zm-.217-.5107h.45c.281 0 .414.1268.414.3541 0 .2024-.121.3006-.281.3216l.304.4953h-.224l-.292-.4799h-.154v.4799h-.217zm.394 1.4352c.465 0 .839-.3773.839-.8423s-.375-.8433-.839-.8433-.841.3783-.841.8433.377.8423.841.8423zm0-1.8666c.562 0 1.021.4594 1.021 1.0237 0 .5637-.459 1.0232-1.021 1.0232-.563 0-1.023-.4595-1.023-1.0232 0-.5643.46-1.0237 1.023-1.0237z"/></g></svg>