<svg width="86" height="82" viewBox="0 0 86 82" fill="none" xmlns="http://www.w3.org/2000/svg"><g filter="url(#filter0_d)"><path d="M40.652 25.791H64.13C64.4369 25.7895 64.741 25.8484 65.0251 25.9644C65.3092 26.0804 65.5676 26.2512 65.7857 26.4671C66.0037 26.683 66.1771 26.9398 66.2959 27.2227C66.4147 27.5056 66.4766 27.8092 66.478 28.116V57.186M66.478 63H19.522C17.577 63 16 61.438 16 59.512V57.186H37.13L38.304 58.349H47.696L48.87 57.186H70V59.512C70 61.438 68.423 63 66.478 63ZM19.522 57.186V53.698V57.186Z" stroke="#323232"/><path d="M38.304 39.744V49.047C38.3025 49.3538 38.2407 49.6573 38.122 49.9401C38.0033 50.223 37.83 50.4797 37.612 50.6956C37.3941 50.9115 37.1357 51.0824 36.8518 51.1984C36.5678 51.3145 36.2638 51.3735 35.957 51.372H18.347C18.0402 51.3735 17.7362 51.3145 17.4522 51.1984C17.1682 51.0824 16.9099 50.9115 16.692 50.6956C16.474 50.4797 16.3007 50.223 16.182 49.9401C16.0633 49.6573 16.0014 49.3538 16 49.047V15.326C16.0013 15.0191 16.0631 14.7154 16.1818 14.4324C16.3006 14.1493 16.4739 13.8925 16.692 13.6764C16.91 13.4604 17.1685 13.2895 17.4527 13.1734C17.7368 13.0574 18.0411 12.9985 18.348 13H35.957C36.2639 12.9986 36.568 13.0576 36.852 13.1737C37.1361 13.2899 37.3944 13.4608 37.6124 13.6768C37.8303 13.8928 38.0036 14.1496 38.1223 14.4326C38.2409 14.7156 38.3027 15.0192 38.304 15.326V32.767" stroke="#1476F2"/><path d="M25.391 47.884H28.913M16 44.395H38.304H16ZM38.304 18.814H16H38.304Z" stroke="#1476F2" stroke-linejoin="round"/><path d="M48.87 36.256H27.74M48.87 36.256L45.348 39.744M48.87 36.256L45.348 32.767M27.74 36.256L31.26 39.744M27.74 36.256L31.26 32.767" stroke="#1476F2"/></g><defs><filter id="filter0_d" x=".5" y=".5" width="85" height="81" filterUnits="userSpaceOnUse" color-interpolation-filters="sRGB"><feFlood flood-opacity="0" result="BackgroundImageFix"/><feColorMatrix in="SourceAlpha" type="matrix" values="0 0 0 0 0 0 0 0 0 0 0 0 0 0 0 0 0 0 127 0"/><feOffset dy="3"/><feGaussianBlur stdDeviation="7.5"/><feColorMatrix type="matrix" values="0 0 0 0 0 0 0 0 0 0 0 0 0 0 0 0 0 0 0.03 0"/><feBlend mode="normal" in2="BackgroundImageFix" result="effect1_dropShadow"/><feBlend mode="normal" in="SourceGraphic" in2="effect1_dropShadow" result="shape"/></filter></defs></svg>