<svg width="86" height="71" viewBox="0 0 86 71" fill="none" xmlns="http://www.w3.org/2000/svg"><g filter="url(#filter0_d)"><path d="M61.783 20.09V13H47.696V20.09M44.174 35.455V42.545C44.1728 42.8544 44.2327 43.1611 44.3501 43.4474C44.4674 43.7337 44.6401 43.994 44.8581 44.2136C45.0762 44.4331 45.3354 44.6075 45.6209 44.7269C45.9064 44.8462 46.2126 44.9081 46.522 44.909H62.957C63.2663 44.9079 63.5725 44.846 63.8579 44.7266C64.1433 44.6072 64.4023 44.4328 64.6203 44.2132C64.8382 43.9937 65.0108 43.7334 65.1281 43.4471C65.2454 43.1609 65.3052 42.8543 65.304 42.545V22.455C65.3052 22.1457 65.2454 21.8391 65.1281 21.5529C65.0108 21.2666 64.8382 21.0063 64.6203 20.7868C64.4023 20.5672 64.1433 20.3928 63.8579 20.2734C63.5725 20.154 63.2663 20.092 62.957 20.091H46.522C46.2126 20.0919 45.9064 20.1538 45.6209 20.2731C45.3354 20.3925 45.0762 20.5669 44.8581 20.7864C44.6401 21.006 44.4674 21.2663 44.3501 21.5526C44.2327 21.8389 44.1728 22.1456 44.174 22.455V28.364V35.455ZM47.696 44.909V52H61.783V44.91L47.696 44.909Z" stroke="#494946"/><path d="M54.74 31.91L30.087 31.9095L26.565 31.91M30.087 35.455L26.565 31.909L30.087 28.364M51.217 35.454L54.739 31.909L51.217 28.364M67.652 28.364H68.826C69.474 28.364 70 28.894 70 29.545V34.273C70 34.925 69.474 35.455 68.826 35.455H67.652" stroke="#494946"/><path d="M25.391 48.455H28.913M16 44.91H38.304H16ZM38.304 18.91H16H38.304Z" stroke="#1476F2" stroke-linejoin="round"/><path d="M38.304 35.455V49.636C38.3052 49.9453 38.2454 50.2519 38.1281 50.5381C38.0108 50.8244 37.8382 51.0847 37.6203 51.3042C37.4023 51.5238 37.1433 51.6982 36.8579 51.8176C36.5725 51.937 36.2663 51.999 35.957 52H18.347C18.0377 51.999 17.7316 51.937 17.4462 51.8176C17.1608 51.6982 16.9017 51.5238 16.6838 51.3042C16.4658 51.0847 16.2932 50.8244 16.1759 50.5381C16.0586 50.2519 15.9988 49.9453 16 49.636V15.364C15.9988 15.0546 16.0587 14.7479 16.176 14.4616C16.2934 14.1753 16.466 13.915 16.6841 13.6954C16.9022 13.4759 17.1614 13.3015 17.4469 13.1821C17.7324 13.0628 18.0386 13.0009 18.348 13H35.957C36.2663 13.001 36.5725 13.063 36.8579 13.1824C37.1433 13.3018 37.4023 13.4762 37.6203 13.6958C37.8382 13.9153 38.0108 14.1756 38.1281 14.4619C38.2454 14.7481 38.3052 15.0547 38.304 15.364V28.364" stroke="#1476F2"/></g><defs><filter id="filter0_d" x=".5" y=".5" width="85" height="70" filterUnits="userSpaceOnUse" color-interpolation-filters="sRGB"><feFlood flood-opacity="0" result="BackgroundImageFix"/><feColorMatrix in="SourceAlpha" type="matrix" values="0 0 0 0 0 0 0 0 0 0 0 0 0 0 0 0 0 0 127 0"/><feOffset dy="3"/><feGaussianBlur stdDeviation="7.5"/><feColorMatrix type="matrix" values="0 0 0 0 0 0 0 0 0 0 0 0 0 0 0 0 0 0 0.03 0"/><feBlend mode="normal" in2="BackgroundImageFix" result="effect1_dropShadow"/><feBlend mode="normal" in="SourceGraphic" in2="effect1_dropShadow" result="shape"/></filter></defs></svg>