<svg width="56" height="56" viewBox="0 0 56 56" fill="none" xmlns="http://www.w3.org/2000/svg"><path d="M6.27728 19.4092C8.73183 13.3955 13.3955 8.73189 19.4091 6.27734" stroke="#323232"/><path d="M28 55C30.0334 55 31.6818 53.3516 31.6818 51.3182C31.6818 49.2848 30.0334 47.6364 28 47.6364C25.9666 47.6364 24.3182 49.2848 24.3182 51.3182C24.3182 53.3516 25.9666 55 28 55Z" stroke="#1476F2" stroke-linejoin="round"/><path d="M28 8.36364C30.0334 8.36364 31.6818 6.71523 31.6818 4.68182C31.6818 2.64841 30.0334 1 28 1C25.9666 1 24.3182 2.64841 24.3182 4.68182C24.3182 6.71523 25.9666 8.36364 28 8.36364Z" stroke="#1476F2" stroke-linejoin="round"/><path d="M51.3182 31.6818C53.3516 31.6818 55 30.0334 55 28C55 25.9666 53.3516 24.3182 51.3182 24.3182C49.2848 24.3182 47.6364 25.9666 47.6364 28C47.6364 30.0334 49.2848 31.6818 51.3182 31.6818Z" stroke="#1476F2" stroke-linejoin="round"/><path d="M4.68182 31.6818C6.71523 31.6818 8.36364 30.0334 8.36364 28C8.36364 25.9666 6.71523 24.3182 4.68182 24.3182C2.64841 24.3182 1 25.9666 1 28C1 30.0334 2.64841 31.6818 4.68182 31.6818Z" stroke="#1476F2" stroke-linejoin="round"/><path d="M13.2727 4.92719L19.4091 6.27719L18.0591 12.5363" stroke="#323232"/><path d="M50.0909 36.8363C47.7591 42.8499 42.9727 47.5136 36.9591 49.9681" stroke="#323232"/><path d="M43.2182 51.3182L36.9591 49.9682L38.3091 43.8318" stroke="#323232"/><path d="M19.4091 50.091C13.5182 47.6364 8.73184 42.8501 6.40002 36.9592" stroke="#323232"/><path d="M5.04999 43.0955L6.39999 36.9592L12.5364 38.3092" stroke="#323232"/><path d="M36.9591 6.27734C42.85 8.60916 47.6364 13.3955 50.0909 19.4092" stroke="#323232"/><path d="M51.3182 13.15L50.0909 19.4091L43.8318 18.0591" stroke="#323232"/><path d="M31.6818 28C31.6818 30.0864 29.9636 31.6818 28 31.6818C25.9136 31.6818 24.3182 29.9636 24.3182 28C24.3182 25.9136 26.0364 24.3182 28 24.3182C30.0864 24.3182 31.6818 25.9136 31.6818 28Z" stroke="#1476F2" stroke-linejoin="round"/><path d="M36.5909 28C36.5909 27.2636 36.4682 26.65 36.3455 26.0363L38.8 24.6863L36.3455 20.3909L33.8909 21.7409C32.9091 20.7591 31.6818 20.1454 30.4546 19.7773V16.9545H25.5455V19.7773C24.1955 20.1454 23.0909 20.8818 22.1091 21.7409L19.6546 20.3909L17.2 24.6863L19.6546 26.1591C19.5318 26.7727 19.4091 27.3863 19.4091 28.1227C19.4091 28.8591 19.5318 29.4727 19.6546 30.0863L17.2 31.5591L19.6546 35.8545L22.1091 34.3818C23.0909 35.2409 24.1955 35.9773 25.5455 36.3454V39.0454H30.4546V36.2227C31.8046 35.8545 32.9091 35.1182 33.8909 34.2591L36.3455 35.7318L38.8 31.4363L36.3455 30.0863C36.4682 29.35 36.5909 28.6136 36.5909 28Z" stroke="#1476F2" stroke-linejoin="round"/></svg>