<svg width="54" height="47" viewBox="0 0 54 47" fill="none" xmlns="http://www.w3.org/2000/svg"><path d="M27 39.25V33.625" stroke="#323232"/><path d="M13.5 39.25V35.875L18 31.375H20.25" stroke="#323232"/><path d="M7.875 14.5H11.25L18 21.25H20.25" stroke="#323232"/><path d="M4.5 17.875C6.36396 17.875 7.875 16.364 7.875 14.5C7.875 12.636 6.36396 11.125 4.5 11.125C2.63604 11.125 1.125 12.636 1.125 14.5C1.125 16.364 2.63604 17.875 4.5 17.875Z" stroke="#1476F2" stroke-linejoin="round"/><path d="M7.875 32.5H11.25L18 25.75H20.25" stroke="#323232"/><path d="M4.5 35.875C6.36396 35.875 7.875 34.364 7.875 32.5C7.875 30.636 6.36396 29.125 4.5 29.125C2.63604 29.125 1.125 30.636 1.125 32.5C1.125 34.364 2.63604 35.875 4.5 35.875Z" stroke="#1476F2" stroke-linejoin="round"/><path d="M27 39.25C25.0875 39.25 23.625 40.7125 23.625 42.625C23.625 44.5375 25.0875 46 27 46C28.9125 46 30.375 44.5375 30.375 42.625C30.375 40.7125 28.9125 39.25 27 39.25Z" stroke="#1476F2" stroke-linejoin="round"/><path d="M27 7.75V13.375" stroke="#323232"/><path d="M27 7.75C25.0875 7.75 23.625 6.2875 23.625 4.375C23.625 2.4625 25.0875 1 27 1C28.9125 1 30.375 2.4625 30.375 4.375C30.375 6.2875 28.9125 7.75 27 7.75Z" stroke="#1476F2" stroke-linejoin="round"/><path d="M13.5 39.25C11.5875 39.25 10.125 40.7125 10.125 42.625C10.125 44.5375 11.5875 46 13.5 46C15.4125 46 16.875 44.5375 16.875 42.625C16.875 40.7125 15.4125 39.25 13.5 39.25Z" stroke="#1476F2" stroke-linejoin="round"/><path d="M13.5 7.75V11.125L18 15.625H20.25" stroke="#323232"/><path d="M13.5 7.75C11.5875 7.75 10.125 6.2875 10.125 4.375C10.125 2.4625 11.5875 1 13.5 1C15.4125 1 16.875 2.4625 16.875 4.375C16.875 6.2875 15.4125 7.75 13.5 7.75Z" stroke="#1476F2" stroke-linejoin="round"/><path d="M40.5 39.25V35.875L36 31.375H33.75" stroke="#323232"/><path d="M46.125 14.5H42.75L36 21.25H33.75" stroke="#323232"/><path d="M49.5 17.875C51.364 17.875 52.875 16.364 52.875 14.5C52.875 12.636 51.364 11.125 49.5 11.125C47.636 11.125 46.125 12.636 46.125 14.5C46.125 16.364 47.636 17.875 49.5 17.875Z" stroke="#1476F2" stroke-linejoin="round"/><path d="M46.125 32.5H42.75L36 25.75H33.75" stroke="#323232"/><path d="M49.5 35.875C51.364 35.875 52.875 34.364 52.875 32.5C52.875 30.636 51.364 29.125 49.5 29.125C47.636 29.125 46.125 30.636 46.125 32.5C46.125 34.364 47.636 35.875 49.5 35.875Z" stroke="#1476F2" stroke-linejoin="round"/><path d="M40.5 39.25C42.4125 39.25 43.875 40.7125 43.875 42.625C43.875 44.5375 42.4125 46 40.5 46C38.5875 46 37.125 44.5375 37.125 42.625C37.125 40.7125 38.5875 39.25 40.5 39.25Z" stroke="#1476F2" stroke-linejoin="round"/><path d="M40.5 7.75V11.125L36 15.625H33.75" stroke="#323232"/><path d="M40.5 7.75C42.4125 7.75 43.875 6.2875 43.875 4.375C43.875 2.4625 42.4125 1 40.5 1C38.5875 1 37.125 2.4625 37.125 4.375C37.125 6.2875 38.5875 7.75 40.5 7.75Z" stroke="#1476F2" stroke-linejoin="round"/><path d="M31.5 15.625H22.5V31.375H31.5V15.625Z" stroke="#1476F2" stroke-linejoin="round"/><path d="M14.625 23.5H0" stroke="#323232"/><path d="M54 23.5H39.375" stroke="#323232"/></svg>