<svg width="56" height="48" viewBox="0 0 56 48" fill="none" xmlns="http://www.w3.org/2000/svg"><path d="M51.4783 46.7827H4.52174C2.52609 46.7827 1 45.2566 1 43.2609V40.9131H22.1304L23.3043 42.087H32.6957L33.8696 40.9131H55V43.2609C55 45.2566 53.4739 46.7827 51.4783 46.7827Z" stroke="#323232"/><path d="M4.52173 40.913V35.0435" stroke="#323232"/><path d="M32.6957 8.04346H49.1305C50.4218 8.04346 51.4783 9.09998 51.4783 10.3913V40.913" stroke="#323232"/><path d="M30.3478 11.5652H1V2.17391C1 1.46957 1.46957 1 2.17391 1H29.1739C29.8783 1 30.3478 1.46957 30.3478 2.17391V11.5652Z" stroke="#1476F2" stroke-linejoin="round"/><path d="M17.4348 22.1304H1V11.5652" stroke="#1476F2" stroke-linejoin="round"/><path d="M30.3478 25.6522V31.5218C30.3478 32.2261 29.8783 32.6957 29.1739 32.6957H2.17391C1.46957 32.6957 1 32.2261 1 31.5218V22.1305" stroke="#1476F2" stroke-linejoin="round"/><path d="M4.52173 6.86951H6.86955" stroke="#1476F2" stroke-linejoin="round"/><path d="M4.52173 17.4348H6.86955" stroke="#1476F2" stroke-linejoin="round"/><path d="M4.52173 28H6.86955" stroke="#1476F2" stroke-linejoin="round"/><path d="M42.087 22.1305H20.9565" stroke="#1476F2" stroke-linejoin="round"/><path d="M24.4783 25.6521L20.9565 22.1304L24.4783 18.6086" stroke="#1476F2" stroke-linejoin="round"/><path d="M38.5652 25.6521L42.0869 22.1304L38.5652 18.6086" stroke="#1476F2" stroke-linejoin="round"/><path d="M30.3478 11.5652V18.6087" stroke="#1476F2" stroke-linejoin="round"/></svg>