<svg width="56" height="53" viewBox="0 0 56 53" fill="none" xmlns="http://www.w3.org/2000/svg"><path d="M8.28088 13.1342H13.1348L17.9888 20.4151H21.6292" stroke="#323232" stroke-linejoin="round"/><path d="M8.28088 26.4825H26.4831" stroke="#1476F2" stroke-linejoin="round"/><path d="M8.2809 13.1352C8.2809 15.1981 6.70337 16.7757 4.64045 16.7757C2.57753 16.7757 1 15.1981 1 13.1352C1 11.0723 2.57753 9.49475 4.64045 9.49475C6.70337 9.49475 8.2809 11.0723 8.2809 13.1352Z" stroke="#323232" stroke-linejoin="round"/><path d="M8.2809 26.4835C8.2809 28.5464 6.70337 30.1239 4.64045 30.1239C2.57753 30.1239 1 28.5464 1 26.4835C1 24.4205 2.57753 22.843 4.64045 22.843C6.70337 22.843 8.2809 24.4205 8.2809 26.4835Z" stroke="#1476F2" stroke-linejoin="round"/><path d="M17.9888 7.06775L22.8427 14.3487H28.9101" stroke="#1476F2" stroke-linejoin="round"/><path d="M19.2022 4.64045C19.2022 6.70337 17.6246 8.2809 15.5617 8.2809C13.4988 8.2809 11.9213 6.70337 11.9213 4.64045C11.9213 2.57753 13.4988 1 15.5617 1C17.6246 1 19.2022 2.57753 19.2022 4.64045Z" stroke="#1476F2" stroke-linejoin="round"/><path d="M8.2809 39.8319C8.2809 37.7689 6.70337 36.1914 4.64045 36.1914C2.57753 36.1914 1 37.7689 1 39.8319C1 41.8948 2.57753 43.4723 4.64045 43.4723C6.70337 43.4723 8.2809 41.8948 8.2809 39.8319Z" stroke="#323232" stroke-linejoin="round"/><path d="M17.9888 45.8989L22.8427 38.618H28.9101" stroke="#1476F2" stroke-linejoin="round"/><path d="M19.2022 48.3264C19.2022 46.2634 17.6246 44.6859 15.5617 44.6859C13.4988 44.6859 11.9213 46.2634 11.9213 48.3264C11.9213 50.3893 13.4988 51.9668 15.5617 51.9668C17.6246 51.9668 19.2022 50.3893 19.2022 48.3264Z" stroke="#1476F2" stroke-linejoin="round"/><path d="M28.9102 26.4825H26.4832" stroke="#1476F2" stroke-linejoin="round"/><path d="M8.28088 39.832H13.1348L17.9888 32.5511H41.0449V36.0702L55 26.605L41.0449 16.6544V20.4162H28.9101" stroke="#323232" stroke-linejoin="round"/><path d="M36.1909 26.4825H38.6179" stroke="#1476F2" stroke-linejoin="round"/><path d="M31.3371 26.4825H33.7641" stroke="#1476F2" stroke-linejoin="round"/><path d="M31.3371 14.3484H33.7641" stroke="#1476F2" stroke-linejoin="round"/><path d="M31.3371 38.618H33.7641" stroke="#1476F2" stroke-linejoin="round"/><path d="M26.4832 20.4161H24.0562" stroke="#323232" stroke-linejoin="round"/></svg>