<svg width="82" height="57" viewBox="0 0 82 57" fill="none" xmlns="http://www.w3.org/2000/svg"><g id="Cirrus"><g id="Insight-Logo-full-blue-on-white-copy-01"><path id="Fill 5" fill-rule="evenodd" clip-rule="evenodd" d="M5.74144 44.6961C5.74144 44.9091 5.63814 45.3027 5.46556 45.5813H5.25865C5.08623 45.5813 4.89672 45.5323 4.68981 45.4666C4.41377 45.3519 4.06908 45.2699 3.77595 45.2699C3.72422 45.2699 3.6725 45.2699 3.58628 45.2861C2.58638 45.3683 1.87928 46.221 1.87928 48.1066C1.87928 50.3693 2.8621 50.8448 3.87941 50.8448C4.41377 50.8448 5.01725 50.6643 5.46556 50.4513C5.55177 50.6972 5.62074 50.9595 5.62074 51.0744C5.6035 51.3203 5.41383 51.599 5.17244 51.7793C4.8279 52.0089 4.2415 52.1565 3.56904 52.1565C1.65512 52.1565 0 51.4843 0 48.1884C0 46.4668 0.603488 45.3847 1.29319 44.7781C1.98273 44.1713 2.87934 43.9746 3.74147 43.9746C4.8279 43.9746 5.65523 44.4663 5.74144 44.6796V44.6961Z" fill="#000"/><path id="Fill 6" fill-rule="evenodd" clip-rule="evenodd" d="M12.4311 45.9257V51.0907C12.4311 51.353 12.4138 51.5497 12.2586 51.7629C11.9828 51.9596 11.7241 51.9761 10.6035 51.9761C10.6208 51.1071 10.638 49.992 10.638 48.7294L10.6551 45.9912C10.6551 45.4666 10.5518 45.0894 10.4311 44.7615C10.569 44.6304 10.7932 44.4991 11.1724 44.3516C11.2758 44.3188 11.3448 44.3188 11.4138 44.3188C11.7758 44.3188 11.931 44.417 12.0345 44.6467C12.3621 44.4335 12.7242 44.2859 13.0518 44.1712C13.3449 44.0564 13.7241 43.9907 14.0517 44.04C14.5517 44.0892 14.8621 44.2532 14.9138 44.4991C14.9138 44.7451 14.8449 45.2043 14.6035 45.5322C14.4828 45.5649 14.4828 45.5649 14.3276 45.5649C14.1381 45.5649 13.9655 45.5485 13.8277 45.5322C13.7069 45.4994 13.6551 45.4994 13.6036 45.4994C13.138 45.4994 12.7587 45.614 12.4311 45.9257Z" fill="#000"/><path id="Fill 7" fill-rule="evenodd" clip-rule="evenodd" d="M17.7759 45.9257V51.0907C17.7759 51.353 17.7587 51.5497 17.6035 51.7629C17.3276 51.9596 17.069 51.9761 15.9484 51.9761C15.9656 51.1071 15.9829 49.992 15.9829 48.7294L15.9999 45.9912C15.9999 45.4666 15.8966 45.0894 15.7759 44.7615C15.9139 44.6304 16.138 44.4991 16.5172 44.3516C16.6207 44.3188 16.6896 44.3188 16.7586 44.3188C17.1207 44.3188 17.2759 44.417 17.3793 44.6467C17.7069 44.4335 18.069 44.2859 18.3966 44.1712C18.6898 44.0564 19.0689 43.9907 19.3966 44.04C19.8966 44.0892 20.2069 44.2532 20.2587 44.4991C20.2587 44.7451 20.1897 45.2043 19.9483 45.5322C19.8276 45.5649 19.8276 45.5649 19.6724 45.5649C19.4829 45.5649 19.3103 45.5485 19.1726 45.5322C19.0517 45.4994 19 45.4994 18.9484 45.4994C18.4829 45.4994 18.1035 45.614 17.7759 45.9257Z" fill="#000"/><path id="Fill 8" fill-rule="evenodd" clip-rule="evenodd" d="M23.2932 46.1227L23.1208 49.0741C23.1208 50.4678 23.5518 50.7629 24.2588 50.7629C24.776 50.7957 25.2932 50.5663 25.569 50.2546V45.1389C25.569 44.7782 25.6035 44.5649 25.776 44.3518C26.0173 44.1551 26.207 44.1551 26.9657 44.1386H27.4138C27.3966 45.0076 27.3795 46.1227 27.3795 47.3689V50.1237C27.3795 50.6481 27.4485 51.0253 27.569 51.3534C27.4485 51.4681 27.2243 51.5992 26.845 51.7632C26.7415 51.796 26.6381 51.796 26.6036 51.796C26.2932 51.796 26.0863 51.6319 25.9829 51.4352C25.638 51.6812 25.2759 51.8451 24.9656 51.9436C24.6036 52.0584 24.2588 52.124 23.8449 52.124C21.7414 52.0421 21.3277 51.0581 21.2932 49.2872L21.4484 45.9094C21.4484 45.3028 21.3622 44.8601 21.2242 44.4665C21.3622 44.3518 21.6208 44.1878 22.0864 43.9748C22.2243 43.9419 22.2931 43.9419 22.3276 43.9419C22.8104 43.9419 23.0345 44.27 23.1035 44.5487C23.207 44.9257 23.2932 45.2863 23.2932 46.1227Z" fill="#000"/><path id="Fill 9" fill-rule="evenodd" clip-rule="evenodd" d="M32.2071 44.0073C33.2934 44.0893 33.8105 44.5156 33.8795 44.7452C33.8795 44.9584 33.7243 45.3519 33.5348 45.5813C33.4658 45.565 33.276 45.5323 33.1898 45.5157C33.0003 45.483 32.8106 45.4503 32.621 45.3847C32.3623 45.2861 32.1035 45.2371 31.845 45.2371C31.2416 45.2371 30.8624 45.5486 30.8624 45.9913C30.8624 46.2537 30.9657 46.4831 31.3278 46.762C31.5176 46.8932 31.7761 47.0735 32.052 47.2539C32.3794 47.4998 32.7587 47.7459 33.0519 47.959C33.776 48.5328 34.1211 49.1067 34.1211 49.7954C34.1211 51.3531 32.7761 52.1402 31.1036 52.1402C29.983 52.1402 29.0174 51.8121 28.8104 51.3531C28.8104 51.1071 28.9485 50.73 29.1554 50.4676H29.3276C29.4828 50.4676 29.6554 50.5169 29.8449 50.6152V50.5989C30.2072 50.7465 30.6555 50.8612 31.0693 50.8612C31.1555 50.8612 31.276 50.8448 31.3797 50.8283C31.8969 50.7792 32.2071 50.4348 32.2071 49.943C32.2071 49.5822 32.0347 49.2707 31.5519 48.9591C31.4828 48.9098 31.3107 48.7953 31.345 48.828C30.9484 48.5656 30.5003 48.2213 30.1727 47.959L29.7416 47.631C29.2071 47.1228 28.9485 46.6144 28.9485 46.0405C28.9485 44.7452 30.0691 43.9746 31.7069 43.9746C31.8969 43.9746 32.0863 43.9908 32.2071 44.0073Z" fill="#000"/><path id="Fill 10" fill-rule="evenodd" clip-rule="evenodd" d="M41.9545 44.1879C42.0923 44.4504 42.1097 44.6798 42.1097 45.3686V50.8614C42.1097 51.2385 42.0407 51.5009 41.8683 51.7632C41.7476 51.9437 41.4546 51.9437 40.2649 51.9765V50.6319C40.2649 50.1563 40.2821 49.6481 40.2821 49.1235V46.2703C40.2821 45.5325 40.2649 45.0243 40.2478 44.5978C40.4546 44.1879 41.041 44.1387 41.8167 44.1387L41.9545 44.1879Z" fill="#000"/><path id="Fill 11" fill-rule="evenodd" clip-rule="evenodd" d="M45.7477 45.9748L45.7993 45.9257V50.9758C45.7993 51.3365 45.7646 51.5332 45.5925 51.7629C45.351 51.9596 45.1616 51.9596 44.4028 51.9761H43.9545C43.9714 51.107 43.9891 49.992 43.9891 48.7458V45.9912C43.9891 45.4665 43.9199 45.0892 43.7993 44.7614C43.9199 44.6304 44.1442 44.4991 44.5235 44.3515C44.6268 44.3188 44.7303 44.3188 44.7649 44.3188C45.0751 44.3188 45.282 44.4662 45.3856 44.6631C45.7303 44.4335 46.0924 44.2697 46.4026 44.1712C46.7647 44.0563 47.1096 43.9907 47.5235 43.9907C49.6785 43.9907 50.0927 45.0401 50.0927 46.9095V49.3853C50.0927 50.2709 50.1096 51.0743 50.1268 51.7136C49.9029 51.9105 49.5923 51.9761 48.4545 51.9761C48.3164 51.7302 48.2648 51.4841 48.2648 51.2381V46.9422C48.2648 45.7616 47.9718 45.3353 47.0926 45.3353C46.5407 45.3353 46.0924 45.614 45.7477 45.9748Z" fill="#000"/><path id="Fill 12" fill-rule="evenodd" clip-rule="evenodd" d="M54.8167 44.0073C55.903 44.0893 56.4203 44.5156 56.4891 44.7452C56.4891 44.9584 56.334 45.3519 56.1442 45.5813C56.0754 45.565 55.8857 45.5323 55.7995 45.5157C55.6097 45.483 55.42 45.4503 55.2304 45.3847C54.9717 45.2861 54.7134 45.2371 54.4546 45.2371C53.8511 45.2371 53.4721 45.5486 53.4721 45.9913C53.4721 46.2537 53.5752 46.4831 53.9373 46.762C54.127 46.8932 54.3856 47.0735 54.6615 47.2539C54.9891 47.4998 55.3685 47.7459 55.6617 47.959C56.3859 48.5328 56.7306 49.1067 56.7306 49.7954C56.7306 51.3531 55.3857 52.1402 53.713 52.1402C52.5924 52.1402 51.627 51.8121 51.4199 51.3531C51.4199 51.1071 51.558 50.73 51.7651 50.4676H51.9375C52.0925 50.4676 52.265 50.5169 52.4546 50.6152V50.5989C52.8167 50.7465 53.2647 50.8612 53.6787 50.8612C53.7649 50.8612 53.8854 50.8448 53.9892 50.8283C54.5062 50.7792 54.8167 50.4348 54.8167 49.943C54.8167 49.5822 54.6443 49.2707 54.1613 48.9591C54.0928 48.9098 53.9204 48.7953 53.9547 48.828C53.5583 48.5656 53.11 48.2213 52.7821 47.959L52.3512 47.631C51.8167 47.1228 51.558 46.6144 51.558 46.0405C51.558 44.7452 52.6786 43.9746 54.3168 43.9746C54.5062 43.9746 54.6958 43.9908 54.8167 44.0073Z" fill="#000"/><path id="Fill 13" fill-rule="evenodd" clip-rule="evenodd" d="M59.713 44.1879C59.8508 44.4504 59.8681 44.6798 59.8681 45.3686V50.8614C59.8681 51.2385 59.7993 51.5009 59.6268 51.7632C59.506 51.9437 59.2132 51.9437 58.0233 51.9765V50.6319C58.0233 50.1563 58.0407 49.6481 58.0407 49.1235V46.2703C58.0407 45.5325 58.0233 45.0243 58.0063 44.5978C58.2131 44.1879 58.7995 44.1387 59.5753 44.1387L59.713 44.1879Z" fill="#000"/><path id="Fill 14" fill-rule="evenodd" clip-rule="evenodd" d="M63.2476 46.795C63.3338 47.8279 63.7475 48.4675 64.5925 48.4675C65.3679 48.4675 65.6785 47.6968 65.5923 46.6636C65.4888 45.6635 65.0577 45.0732 64.282 45.0732C63.6094 45.0732 63.1267 45.6307 63.2476 46.795ZM64.3851 49.5822C64.0749 49.5822 63.8683 49.5659 63.6612 49.533L63.3164 49.8609C63.2475 49.9267 63.2301 50.025 63.2301 50.0905C63.2301 50.2381 63.5403 50.3857 64.1095 50.4348L64.7818 50.484C65.0577 50.5004 65.3336 50.5333 65.6094 50.5496C65.8334 50.5662 66.0752 50.5824 66.2302 50.6152C67.2989 50.8119 68.0405 51.3858 68.0924 52.3532C68.0924 53.7961 66.5235 55.4358 64.3851 55.9113C63.9368 55.9934 63.3338 56.0589 62.7818 56.0589C61.9195 56.0589 61.1267 55.8786 60.9544 55.3374C60.7817 54.5178 62.5234 53.1074 63.6093 52.4188C64.0405 52.632 64.1441 53.1896 63.8336 53.4682C63.2817 53.9109 62.6784 54.4847 62.7473 54.7799C62.7818 54.9112 62.9543 54.944 63.1783 54.944C63.5231 54.944 64.0233 54.8455 64.3335 54.7964C65.4717 54.5012 66.3507 53.4682 66.3336 52.796V52.5664C66.1955 52.2221 66.0233 51.9435 65.437 51.8777C65.0577 51.8286 64.6787 51.8121 64.2819 51.7959C64.1783 51.7959 64.0579 51.7793 63.9543 51.7793C63.161 51.7137 62.6441 51.5498 62.6441 51.5498C61.799 51.3038 61.3681 50.8612 61.3507 50.3693C61.3507 50.2544 61.4369 50.1396 61.575 49.9758C61.8164 49.7462 62.1439 49.4839 62.4025 49.2543C62.4887 49.1887 62.4716 49.1723 62.5403 49.1067C61.799 48.6639 61.4369 47.8933 61.4369 46.8768C61.4369 45.024 62.7127 43.9746 64.4888 43.9746C65.092 43.9746 65.6268 44.1713 66.0233 44.3516C65.9886 44.3353 65.9715 44.3189 66.0233 44.286C66.4026 44.2698 66.8856 44.2533 67.2473 44.2368H67.2302C67.4542 44.2206 67.8165 44.204 67.9888 44.204C68.0577 44.3353 68.1269 44.5321 68.1269 44.7615C68.1269 45.1878 67.9196 45.4995 67.5063 45.4995C67.2646 45.4995 67.1611 45.4995 66.9544 45.483C67.2302 45.8929 67.3508 46.2864 67.3508 46.8111C67.3508 48.5656 66.2302 49.5822 64.3851 49.5822Z" fill="#000"/><path id="Fill 15" fill-rule="evenodd" clip-rule="evenodd" d="M69.1268 51.8943C69.1441 50.9596 69.1613 49.861 69.1613 48.5329V42.3514C69.1613 41.6791 69.1441 41.2035 69.1268 40.8427C69.3511 40.4165 69.9026 40.3345 70.7646 40.3345C70.9027 40.5804 70.9545 40.81 70.9545 41.4824V44.5977C71.2306 44.4172 71.5234 44.2861 71.782 44.1714C72.0922 44.0564 72.489 43.9747 72.9545 43.9747C74.7474 43.9747 75.2476 44.8765 75.2476 47.09V49.4676C75.2476 50.353 75.2476 51.1236 75.2648 51.7138C75.0579 51.927 74.7993 51.9763 73.5749 51.9763C73.4718 51.7138 73.4201 51.4515 73.4201 51.1563V47.2376C73.4201 46.9424 73.4201 46.7293 73.3856 46.5652C73.3338 45.598 72.9718 45.3355 72.4543 45.3355C71.8682 45.3355 71.3337 45.6472 70.9545 45.9913V50.8942C70.9545 51.2221 70.9201 51.4842 70.7646 51.7467C70.4543 51.9763 70.2478 51.9763 69.2819 51.9763L69.1268 51.8943Z" fill="#000"/><path id="Fill 16" fill-rule="evenodd" clip-rule="evenodd" d="M81.3684 50.6156C81.3855 50.7139 81.4027 50.8451 81.4027 50.9927C81.4027 51.1403 81.4027 51.3208 81.3855 51.4517C81.3512 51.5666 81.2649 51.6649 81.1441 51.7633C80.7475 52.0094 80.0924 52.1568 79.5407 52.1568C77.8166 52.1568 77.4888 50.6975 77.4888 49.353V45.4506C77.0233 45.4341 76.7303 45.3357 76.4717 45.221C76.4717 44.7455 76.4888 44.7455 76.6269 44.6142C76.8855 44.4504 77.144 44.3847 77.3683 44.3192C77.5061 44.2863 77.5407 44.3192 77.644 44.2701C77.6613 43.8108 77.7131 43.3025 77.7304 42.8434C77.8682 42.4662 78.3165 42.1548 79.351 42.0894V42.3517C79.3339 43.0402 79.3164 43.5649 79.3164 44.188H81.506C81.4546 45.1061 81.3165 45.3195 80.9718 45.385C80.851 45.4013 80.6785 45.4177 80.5408 45.4177C80.1959 45.4341 79.9544 45.4341 79.3164 45.4341C79.2993 46.1555 79.2821 46.8606 79.2821 47.5494C79.2821 47.9265 79.2993 48.2708 79.2993 48.6151V49.4186C79.3683 50.2714 79.4888 50.8779 80.0406 50.8779C80.2649 50.8944 80.9544 50.6647 81.075 50.5665L81.3684 50.6156Z" fill="#000"/><path id="Fill 17" fill-rule="evenodd" clip-rule="evenodd" d="M8.60355 44.1879C8.74149 44.4504 8.75874 44.6798 8.75874 45.3686V50.8614C8.75874 51.2385 8.68977 51.5009 8.51734 51.7632C8.39664 51.9437 8.10352 51.9437 6.91379 51.9765V50.6319C6.91379 50.1563 6.93119 49.6481 6.93119 49.1235V46.2703C6.93119 45.5325 6.91379 45.0243 6.89655 44.5978C7.10361 44.1879 7.6897 44.1387 8.46561 44.1387L8.60355 44.1879Z" fill="#000"/></g><path id="Combined Shape" fill-rule="evenodd" clip-rule="evenodd" d="M44.0092 6.72624C45.8432 7.2204 48.6912 11.1082 43.0665 16.8396C47.1618 16.478 51.3453 13.6392 52.2629 10.2442C53.6692 0.678215 43.2531 0.0130927 41.3997 8.35949e-06C35.4505 -0.00609768 27.9991 3.33216 25.7365 12.2191C24.3306 18.9462 26.96 24.7399 30.2721 27.584C30.2501 27.4893 30.2128 27.3537 30.1652 27.1809C29.5659 25.0039 27.3381 16.9121 33.7388 9.93584C36.1228 7.59025 39.6076 5.61494 44.0092 6.72624ZM36.8953 31.2615C34.1752 27.9023 33.3928 17.4941 39.5316 14.1978C37.2634 20.1812 39.5005 25.3509 44.5813 25.4106C50.7522 25.4861 56.1263 19.8943 57.2159 16.2232C57.2341 23.3716 52.5607 27.6917 50.0812 29.3407C47.6 30.9889 42.7793 32.959 36.8953 31.2615Z" fill="#000"/></g></svg>