<svg width="105" height="37" viewBox="0 0 105 37" fill="none" xmlns="http://www.w3.org/2000/svg"><g id="eurostar"><path id="Shape" fill-rule="evenodd" clip-rule="evenodd" d="M104.02 10.8904C101.952 13.0063 99.7348 14.9686 97.2822 16.6907C94.464 18.6691 91.4406 20.2708 88.0216 21.1561C86.2063 21.6251 84.3385 21.8924 82.4567 21.9525C77.379 22.1198 72.4108 21.4415 67.5305 20.1495C64.5925 19.3717 61.6648 18.5559 58.7147 17.8169C56.2372 17.1961 53.7116 16.7584 51.1611 16.508C49.311 16.326 47.4601 16.2808 45.6057 16.3139C42.6531 16.3657 39.8142 16.9672 37.0296 17.8582C33.3795 19.0249 29.8458 20.4664 26.2725 21.815C24.1332 22.6218 21.9883 23.4152 19.8378 24.1953C19.5473 24.3012 19.4309 24.4572 19.4223 24.7257C19.3576 26.7211 19.3343 28.7132 19.8826 30.6674C20.0292 31.1881 20.0749 31.2188 20.6611 31.1436C21.9904 30.973 23.2896 30.6731 24.5914 30.3545C24.9793 30.2648 25.8311 30.023 26.6121 29.7562C28.4561 29.1264 32.0743 27.7091 32.0743 27.7091C32.0743 27.7091 36.2831 25.7994 36.8064 25.5358L36.7986 25.5334L38.7193 24.5858C38.7418 24.5753 38.7728 24.5591 38.7918 24.5656C39.1875 24.7135 39.2392 25.1218 39.4901 25.3822C39.6366 25.5342 39.5013 25.6506 39.3849 25.7468C38.9607 26.0977 28.7794 33.5158 25.869 34.8466C23.6232 35.8726 21.2732 36.4855 18.7516 36.3949C17.8619 36.3634 16.9774 36.2712 16.111 36.0747C14.6221 35.7376 13.6557 34.8126 12.9781 33.5756C12.1652 32.092 11.7721 30.4984 11.5833 28.8531C11.5246 28.3373 11.4652 27.8198 11.4479 27.3024C11.4376 26.9952 11.3479 26.9353 11.0341 27.021C9.43751 27.456 7.82971 27.8522 6.18742 28.106C4.75118 28.3292 3.31062 28.562 1.85886 28.2006C1.30712 28.0632 0.770034 27.8966 0.38123 27.4665C-0.00326336 27.0412 -0.106714 26.5367 0.115705 26.1276C0.182949 26.0039 0.255364 25.8834 0.435542 25.9384C0.898485 26.0791 1.36315 25.9708 1.81575 25.9142C5.10205 25.5059 8.26679 24.6521 11.366 23.5663C11.5841 23.4903 11.6453 23.3585 11.6729 23.1604C12.066 20.2886 12.9212 17.5364 14.1118 14.8707C15.3816 12.0248 17.1282 9.46503 19.2869 7.13813C20.9982 5.29392 22.8818 3.64132 25.0707 2.30971C27.2527 0.98294 29.6501 0.235877 32.2459 0.043451C34.5804 -0.12957 36.8012 0.194642 38.8159 1.3686C40.5892 2.40107 41.6134 3.90086 41.8315 5.85988C41.9548 6.96269 42.1332 8.06954 41.7677 9.16588C41.7599 9.18932 41.7574 9.21358 41.7496 9.23622C41.6298 9.59358 39.9978 12.1202 39.6056 12.5519C39.5314 12.7637 39.297 12.847 39.1926 13.071C39.4366 13.088 39.6409 13.0306 39.8427 12.9772C42.1169 12.3749 44.4299 11.9536 46.7825 11.7572C48.7601 11.5922 50.7464 11.6011 52.7284 11.7127C57.2518 11.9682 61.6364 12.9715 66.0279 13.9288C69.1667 14.6128 72.3229 15.2103 75.5255 15.5596C77.3411 15.7585 79.1618 15.9 80.9912 15.959C82.0611 15.9929 83.1301 16.0342 84.1973 16.001C86.1517 15.9412 88.1052 15.8571 90.0535 15.6671C92.3475 15.4432 94.5812 15.0009 96.7296 14.2053C98.7693 13.451 100.524 12.2697 102.211 10.9875C102.701 10.6151 103.184 10.2345 103.66 9.84583C103.829 9.70839 103.932 9.72213 104.067 9.88464C104.408 10.3002 104.394 10.508 104.02 10.8904ZM34.3924 4.2365C34.2355 4.04489 34.0295 3.89612 33.8174 3.75544C33.4691 3.5234 33.1174 3.50399 32.7217 3.64548C31.6458 4.02872 30.7156 4.62378 29.8415 5.31263C27.5983 7.08004 25.9482 9.29455 24.462 11.6255C22.8792 14.1058 21.5878 16.7397 20.6102 19.481C20.5688 19.5966 20.53 19.713 20.4921 19.8294L22.6076 18.9886L26.6362 17.1686L26.6155 17.1541C27.2457 16.8687 27.8759 16.5849 28.5052 16.2971C30.4053 15.4279 32.3114 14.5685 33.9329 13.2603C34.383 12.8973 34.8037 12.5068 35.1873 12.0815C35.2657 11.995 35.3683 11.9667 35.9097 11.066C36.0175 10.8865 36.0934 10.3011 36.1287 9.91387C36.3209 7.81821 35.7649 5.91416 34.3924 4.2365ZM48.0471 26.857H44.9471V28.3827H47.8842V29.2809H44.9471V30.9764H48.2092V31.9256H43.8082V25.9248H48.0471V26.857ZM51.2189 29.6795C51.2189 29.855 51.243 30.028 51.2913 30.201C51.3396 30.3732 51.4197 30.5268 51.5309 30.6627C51.6421 30.7985 51.7904 30.9085 51.9741 30.9934C52.1577 31.0774 52.3853 31.1203 52.656 31.1203C52.9275 31.1203 53.1551 31.0774 53.3387 30.9934C53.5224 30.9085 53.6698 30.7985 53.7819 30.6627C53.8937 30.5254 53.9749 30.3684 54.0207 30.201C54.0689 30.028 54.0931 29.855 54.0931 29.6795V25.9248H55.2319V29.7216C55.2319 30.0838 55.1655 30.4096 55.0336 30.7007C54.9009 30.9917 54.7198 31.2391 54.4914 31.4421C54.2567 31.6488 53.9799 31.8089 53.6775 31.9126C53.3504 32.0249 53.0043 32.0808 52.656 32.0776C52.3079 32.0807 51.9621 32.0249 51.6353 31.9126C51.3318 31.8086 51.0536 31.6486 50.8171 31.4421C50.5817 31.2344 50.3967 30.9815 50.2749 30.7007C50.1407 30.3898 50.0745 30.0569 50.08 29.7216V25.9248H51.2189V29.6795ZM60.8104 26.0137C61.0941 26.0736 61.3458 26.1706 61.5656 26.3064C61.7855 26.4423 61.9613 26.6201 62.0941 26.84C62.2269 27.0608 62.2932 27.3292 62.2932 27.6453C62.2932 28.0803 62.1622 28.4352 61.9001 28.7093C61.6381 28.9834 61.2812 29.1677 60.8286 29.264L62.5372 31.9256H61.163L59.6811 29.3828H58.5406V31.9256H57.4017V25.9248H59.9337C60.2354 25.9248 60.5277 25.9547 60.8104 26.0137ZM58.5405 26.8228V28.5093H59.7802C59.9432 28.5093 60.1061 28.498 60.2682 28.4762C60.4311 28.4535 60.5777 28.4107 60.707 28.3484C60.8362 28.2863 60.9465 28.1945 61.0277 28.0816C61.1173 27.949 61.1615 27.7938 61.1544 27.6369C61.1606 27.4946 61.1197 27.3539 61.0371 27.2343C60.9593 27.1308 60.8573 27.0453 60.7389 26.9845C60.6108 26.9198 60.4716 26.8765 60.3276 26.8567C60.1797 26.8345 60.0301 26.8232 59.8802 26.8228H58.5405ZM64.8735 26.62C65.1857 26.3439 65.5548 26.1304 65.958 25.9926C66.3968 25.8428 66.8608 25.7683 67.3278 25.7726C67.8279 25.7726 68.2882 25.8462 68.7106 25.9926C69.1322 26.1397 69.4969 26.3483 69.8038 26.62C70.1115 26.8908 70.3512 27.2199 70.5228 27.6072C70.6943 27.9944 70.7805 28.4278 70.7805 28.908C70.7805 29.377 70.6943 29.8055 70.5228 30.192C70.3591 30.5682 70.1143 30.9087 69.8038 31.1921C69.4897 31.4761 69.1179 31.6979 68.7106 31.8446C68.2694 32.003 67.8003 32.082 67.3278 32.0774C66.8596 32.0819 66.3947 32.0029 65.958 31.8446C65.5533 31.6978 65.1844 31.4759 64.8735 31.1921C64.5656 30.9076 64.3228 30.5673 64.1597 30.192C63.9837 29.7843 63.896 29.3478 63.9019 28.908C63.9019 28.4278 63.9881 27.9944 64.1597 27.6072C64.3312 27.2199 64.5691 26.8908 64.8735 26.62ZM65.2985 29.7935C65.4037 30.0619 65.5546 30.2956 65.7503 30.4929C65.946 30.691 66.1779 30.8446 66.446 30.9545C66.7141 31.0653 67.0115 31.1203 67.3365 31.1203C67.6615 31.1203 67.9607 31.0653 68.2314 30.9545C68.4969 30.8484 68.7357 30.6911 68.9322 30.4929C69.1279 30.2956 69.2779 30.0619 69.384 29.7935C69.4892 29.5259 69.5417 29.23 69.5417 28.9082C69.5417 28.5977 69.4892 28.3091 69.384 28.0439C69.2839 27.7873 69.1319 27.5512 68.9366 27.3486C68.7413 27.1497 68.5041 26.9911 68.24 26.8829C67.955 26.767 67.6471 26.7091 67.3365 26.7131C67.0055 26.7131 66.7055 26.7697 66.4373 26.8829C66.1692 26.9961 65.9382 27.1513 65.7459 27.3486C65.55 27.5508 65.398 27.787 65.2985 28.0439C65.1905 28.3207 65.1368 28.6135 65.1399 28.9082C65.1399 29.23 65.1925 29.5259 65.2985 29.7935ZM73.6591 30.993C73.9211 31.1111 74.1789 31.1709 74.4315 31.1709C74.5643 31.1709 74.6996 31.1555 74.8384 31.124C74.9772 31.0933 75.1022 31.0407 75.2134 30.9671C75.3246 30.8936 75.4152 30.8022 75.485 30.6914C75.5581 30.5657 75.5939 30.4239 75.5884 30.2807C75.5942 30.1412 75.5532 30.0035 75.4712 29.887C75.3868 29.777 75.2791 29.6845 75.1548 29.6153C75.0066 29.5328 74.849 29.4661 74.685 29.4164L74.1151 29.2385C73.9185 29.1805 73.7254 29.1125 73.5367 29.0348C73.3465 28.9572 73.1709 28.8513 73.0168 28.7211C72.8593 28.5863 72.7319 28.4237 72.6418 28.2425C72.5452 28.0533 72.4978 27.818 72.4978 27.535C72.4978 27.2302 72.5651 26.9674 72.7004 26.7467C72.8332 26.5299 73.0154 26.3433 73.2341 26.2002C73.4539 26.0562 73.7039 25.9487 73.9841 25.8784C74.2643 25.8072 74.5488 25.7725 74.8384 25.7725C75.1634 25.7725 75.4936 25.8258 75.8281 25.9334C76.1518 26.035 76.4491 26.1995 76.7005 26.416L75.9591 27.1793C75.8224 27.0203 75.6476 26.894 75.4488 26.8106C75.1192 26.6582 74.7423 26.6221 74.3867 26.7087C74.2584 26.7379 74.1361 26.7865 74.0246 26.8526C73.9165 26.9176 73.8254 27.0047 73.7582 27.1073C73.6865 27.2212 73.6506 27.3518 73.6548 27.4841C73.6548 27.6199 73.6841 27.7355 73.7444 27.8317C73.8069 27.9301 73.892 28.014 73.9936 28.0775C74.0987 28.1454 74.2272 28.2045 74.3772 28.2554C74.5281 28.3063 74.6936 28.3573 74.8746 28.4082C75.0798 28.4705 75.2919 28.5408 75.5117 28.62C75.7315 28.6993 75.9333 28.8036 76.1169 28.9329C76.3014 29.0631 76.4522 29.2272 76.5695 29.4245C76.6867 29.6226 76.7454 29.8684 76.7454 30.1619C76.7454 30.4845 76.6824 30.765 76.5557 31.0051C76.4361 31.2369 76.2633 31.441 76.0497 31.6026C75.8296 31.7655 75.5777 31.8866 75.3083 31.9592C75.0176 32.0388 74.7162 32.0786 74.4134 32.0772C73.9979 32.0772 73.591 32.0053 73.1935 31.8614C72.8152 31.7301 72.4792 31.5099 72.2177 31.2218L73.0306 30.5095C73.1875 30.7133 73.397 30.8742 73.6591 30.993ZM82.9456 26.857H80.9844V31.9256H79.8455V26.857H77.8843V25.9248H82.9456V26.857ZM86.95 25.9248L89.7069 31.9256H88.4052L87.8086 30.5527H85.0335L84.4551 31.9256H83.1809L85.9646 25.9248H86.95ZM87.4112 29.6364L86.4258 27.1963L85.4224 29.6364H87.4112ZM94.5623 26.0137C94.8451 26.0736 95.0968 26.1706 95.3166 26.3064C95.5365 26.4423 95.7132 26.6201 95.8459 26.84C95.9778 27.0608 96.0442 27.3292 96.0442 27.6453C96.0442 28.0803 95.9132 28.4352 95.6511 28.7093C95.389 28.9834 95.0321 29.1677 94.5804 29.264L96.2882 31.9256H94.9149L93.4321 29.3828H92.2915V31.9256H91.1527V25.9248H93.6855C93.9864 25.9248 94.2787 25.9547 94.5623 26.0137ZM92.2915 26.8228V28.5093H93.5321C93.6941 28.5093 93.8571 28.498 94.02 28.4762C94.1829 28.4535 94.3286 28.4107 94.4579 28.3484C94.5873 28.2865 94.6977 28.1947 94.7786 28.0816C94.8683 27.949 94.9125 27.7938 94.9054 27.6369C94.9121 27.4945 94.8711 27.3537 94.7881 27.2343C94.7105 27.1306 94.6084 27.0451 94.4898 26.9845C94.3617 26.9198 94.2226 26.8765 94.0786 26.8567C93.9306 26.8345 93.7811 26.8231 93.6312 26.8228H92.2915ZM97.865 26.1444H97.4736V27.1753H97.1391V26.1444H96.7477V25.876H97.865V26.1444ZM98.9848 26.7096H98.9925L99.2943 25.876H99.7779V27.1753H99.4494L99.4572 26.256H99.4511L99.0917 27.1753H98.8563L98.5063 26.256H98.5003L98.508 27.1753H98.1934V25.876H98.6692L98.9848 26.7096Z" fill="#000"/></g></svg>