<svg width="69" height="73" viewBox="0 0 69 73" fill="none" xmlns="http://www.w3.org/2000/svg"><g id="EY"><path id="Shape" fill-rule="evenodd" clip-rule="evenodd" d="M0.0103458 23.1153L0.00689697 23.1025L68.1075 0V11.9423L0.0103458 23.1153ZM1.52436 68.5159L1.71146 69.493L1.85803 68.9836L1.97443 68.4806L2.44002 67.0029H3.37895L3.80574 68.4806L4.06871 69.4938L4.29374 68.4806L4.30064 68.4822L4.29374 68.4806L4.68173 67.0029H5.78017L4.5386 71.0749H3.59967L3.13408 69.3822L2.87111 68.5095L2.64522 69.4175L2.1805 71.0749H1.24329L1.24156 71.0733L1.20104 71.0356L0 67.0029H1.09758L1.52436 68.5159ZM0.0508832 67.0156H0.0189819L0.0508832 67.1255V67.0156ZM6.89844 62.1244V62.3755L6.93724 62.5897L7.01398 62.7325L7.09071 62.8745L7.20538 62.982L7.32006 63.0526L7.51146 63.1232H7.8572L8.04861 63.0526L8.16328 62.982L8.27796 62.8737L8.39349 62.7325L8.43143 62.5905L8.47023 62.3747L8.50816 62.1597V59.8911H9.56694V63.9631H8.50816V63.6478L8.2883 63.8179L8.05465 63.9631L7.74339 64.0353L7.43387 64.0706H7.43214L7.20021 64.0353L6.96742 63.9992L6.77342 63.9631L6.7717 63.9623L6.57943 63.8548L6.42337 63.7826L6.42251 63.781L6.30611 63.6374L6.07418 63.3855L5.91812 63.0967L5.84053 62.7718L5.80173 62.4846V59.8911H6.89844V62.1244ZM6.11124 68.1925L6.30523 67.7954L6.53803 67.5074L6.84842 67.2555L7.15881 67.075L7.5468 66.9306L7.97358 66.8945H7.97445L8.40123 66.9306L8.78922 67.075L9.10047 67.2547L9.41086 67.5074L9.6428 67.7954L9.83679 68.1925L9.91525 68.5888L9.95319 69.0204L9.91439 69.488L9.83679 69.8851L9.6428 70.2453L9.41086 70.5702L9.10047 70.8221L8.78922 71.0026L8.40123 71.1101L7.97445 71.1462L7.54766 71.1101L7.15967 71.0026L6.84842 70.8221L6.53803 70.5702L6.30523 70.2453L6.11124 69.8851L6.03364 69.488L5.99484 69.0204L6.03364 68.5888L6.11124 68.1925ZM7.13037 69.2705L7.16917 69.5224L7.24677 69.7005L7.32351 69.8786L7.47698 70.0214L7.62959 70.1281L7.7822 70.1626L7.97446 70.1987L8.16587 70.1626L8.31934 70.1281L8.47195 70.0214L8.62542 69.8786L8.70302 69.7005L8.77976 69.5216L8.85649 69.2705V68.77L8.77976 68.5558L8.70302 68.3392L8.62629 68.1627L8.47281 68.056L8.31848 67.9485L8.16587 67.8779H7.78306L7.63045 67.9485L7.47612 68.056L7.32351 68.1627L7.24677 68.34L7.16917 68.555L7.13037 68.77L7.09244 69.0203L7.13037 69.2705ZM11.6552 58.3096V59.3276H10.5576V58.3096H11.6552ZM11.6552 59.8896V63.9632H10.5576V59.8896H11.6552ZM11.7319 67.0092V67.3494L11.9138 67.1472L12.1475 67.0028H12.1483L12.3811 66.9306L12.6915 66.8945H12.6933L12.8855 66.9306L13.1192 66.9659V66.9667L13.314 67.0381L13.5072 67.1472L13.5123 67.1496L13.1985 68.1315L13.1907 68.1283L13.0364 68.0569L12.8441 67.9847L12.6898 67.9494L12.4984 67.9141L12.307 67.9494L12.1527 67.9847L12.0009 68.0561L11.9242 68.1628H11.9233L11.8086 68.2687L11.7707 68.4468L11.7319 68.6257V71.0748H10.6352V67.0028H11.7319V67.0092ZM12.5682 63.9632V58.708L13.6658 58.1978V63.9632H12.5682ZM15.0962 68.5328L15.4695 68.0467L16.3222 67.0022H17.6173L16.4507 68.3387L17.7681 71.075H16.5542L15.629 69.177L15.0962 69.8492V71.075H13.9995V65.819L15.0962 65.3096V68.5328ZM17.0922 63.9559V63.6816L16.8715 63.818L16.6387 63.9623H16.6378L16.405 64.0353H16.4042L16.1334 64.0706L15.7446 64.0353L15.3954 63.9262L15.1229 63.7458L14.8513 63.4939L14.6574 63.169L14.541 62.8088L14.4634 62.3764L14.4246 61.9087L14.4634 61.441L14.541 61.0087L14.6953 60.6838L14.8901 60.3605L15.1229 60.1423L15.4333 59.9626L15.7446 59.8543L16.1326 59.8182H16.4042L16.4059 59.819L16.6766 59.8904H16.6775L16.9103 59.9995L17.0922 60.168V58.708L18.1889 58.1978V63.9632H17.0922V63.9559ZM17.0922 61.1211L16.9784 61.0161L16.8249 60.8725L16.5947 60.7658L16.3266 60.7305L16.2119 60.7658L16.0576 60.8019L15.9049 60.8372L15.7903 60.9431L15.6756 61.0858L15.5989 61.3L15.5601 61.5503L15.5213 61.8728L15.5601 62.2314L15.5989 62.5178L15.6756 62.732L15.7903 62.8739L15.9437 62.9814L16.0593 63.0528L16.2119 63.1234H16.3645L16.5947 63.0881L16.8249 62.9814L16.9784 62.8739L17.0922 62.7328V61.1211ZM19.5038 65.4209V66.4405H18.407V65.4209H19.5038ZM19.5038 71.0737H18.407V67.001H19.5038V71.0737ZM19.1416 63.9624V59.8896H20.2383V63.9624H19.1416ZM21.5532 67.0067V67.3163L21.7756 67.1479L22.0464 67.0019L22.318 66.9297L22.6671 66.8936L23.0163 66.9297L23.3672 67.0379L23.6388 67.1815L23.8716 67.362L24.0268 67.6524L24.1432 67.9773L24.2208 68.3351L24.2588 68.7675V71.0738H23.1629V68.5894L23.125 68.376L23.0474 68.1979L22.9724 68.0896L22.856 67.9845L22.7422 67.9123L22.5895 67.8401H22.2041L22.0127 67.9123L21.8998 67.9821L21.7834 68.0896L21.6696 68.2316L21.6308 68.3736L21.592 68.5894L21.5532 68.806V71.0738H20.4573V67.0019H21.5532V67.0067ZM25.0968 68.1185L25.252 67.7583L25.446 67.4727L25.6779 67.2176L25.9883 67.0379L26.3013 66.9297L26.6884 66.8936L26.96 66.9297L27.2316 67.0019H27.2342L27.467 67.1093L27.648 67.2778V67.0019H28.7465V70.6727L28.7077 71.1412L28.6301 71.5736L28.4749 71.9338H28.4723L28.3559 72.0782L28.2395 72.1865L28.0843 72.3284V72.3308L27.9291 72.4383L27.542 72.5827L27.1152 72.691L26.6056 72.7271L26.2133 71.9241H26.2625L26.7246 71.8864L27.0712 71.8166L27.304 71.6722L27.4954 71.5303L27.5704 71.3891L27.648 71.211V70.7593L27.467 70.9294L27.1954 71.0377L26.96 71.146H26.6884L26.3013 71.1099L25.9495 71.0016L25.6779 70.8219L25.4072 70.5692L25.2132 70.2812L25.0968 69.8825L25.0192 69.4526L24.9804 68.9833L25.0192 68.5148L25.0968 68.1185ZM26.1151 69.3059L26.1539 69.5939L26.2315 69.8081L26.3453 69.9854L26.5005 70.0913L26.6134 70.1635L26.766 70.1996H27.1514L27.3428 70.0913L27.5342 69.9501L27.648 69.8081V68.2318L27.5342 68.0898L27.3816 67.9847L27.1514 67.8764L26.8824 67.8403H26.766L26.6134 67.8764L26.4617 67.9486L26.3453 68.0537L26.2315 68.1957L26.1539 68.3762L26.1151 68.6618L26.0763 68.9482L26.1151 69.3059ZM28.2766 65.4715L27.8498 65.5797L27.3411 65.6158L26.9479 64.8112H26.9979L27.4609 64.7759L27.8075 64.7045L28.0378 64.5971L28.2292 64.4551L28.3059 64.2778L28.3826 64.0989V63.6817L28.1619 63.8181L27.9291 63.9625H27.9283L27.6955 64.0347H27.6946L27.3851 64.0708L27.035 64.0347L26.685 63.8895L26.4134 63.7098L26.1418 63.494L25.9478 63.1683L25.8305 62.809L25.715 62.3766V61.4404L25.8314 61.0088L25.9478 60.6486L26.1806 60.3598L26.4134 60.1072L26.7246 59.9628L27.035 59.8545L27.423 59.8184H27.6946L27.6955 59.8192L27.9679 59.8906L28.2007 60.035L28.2016 60.0358L28.3826 60.1705V59.8898H29.4793V63.5975L29.4414 64.0644L29.3638 64.4615L29.1698 64.8209L29.0914 64.9661L29.0905 64.9669L28.9362 65.1105L28.8198 65.2188L28.6646 65.3279L28.2766 65.4715ZM28.3827 61.1202L28.2688 60.9798L28.1154 60.8723L27.8852 60.7656L27.6162 60.7295H27.4636L27.3489 60.7648L27.1954 60.8362L27.0807 60.9429L26.9661 61.0857L26.8893 61.2999L26.8505 61.5501L26.8117 61.8726L26.8505 62.2304L26.8893 62.4815L26.9661 62.7318L27.0807 62.8738L27.1954 62.9805L27.3489 63.0527L27.5024 63.1232H27.6162L27.8843 63.0872L28.0766 62.9805L28.2697 62.8738L28.3827 62.7326V61.1202ZM32.8825 68.5157L33.1066 69.4896L33.2161 68.9834L33.3713 68.4788L33.8369 67.002H34.737L35.2018 68.4796L35.4647 69.492L35.6906 68.4796L35.6984 68.4812L35.6915 68.4796L36.0795 67.002H37.1771L35.9355 71.0747H34.9966L34.4922 69.3805L34.2671 68.5101L34.0421 69.4174L33.5377 71.0747H32.5971V71.033L31.3581 67.002H32.4945L32.8825 68.5157ZM37.5081 68.1917L37.7021 67.8315L37.9349 67.5074L38.2065 67.2547L38.5557 67.0742L38.9437 66.9298L39.3705 66.8945H39.3713L39.7593 66.9298L40.1473 67.0742L40.4965 67.2547L40.7681 67.5074L41.0405 67.8315L41.1949 68.1925L41.3113 68.5872L41.3501 69.0196L41.3113 69.4888L41.1949 69.8851L41.0405 70.2445L40.7681 70.5694L40.4965 70.8221L40.1473 71.0026L39.7593 71.1101L39.3713 71.1462L38.9437 71.1101L38.5557 71.0026L38.2065 70.8221L37.9349 70.5686L37.7021 70.2445L37.5081 69.8851L37.3917 69.4888L37.3538 69.0196L37.3917 68.5872L37.5081 68.1917ZM38.5281 69.5207L38.604 69.6995L38.7195 69.8784L38.8342 70.0212L38.9877 70.1271L39.1791 70.1624L39.3714 70.1985L39.5628 70.1624L39.7154 70.1279L39.8688 70.0212L39.9835 69.8784L40.099 69.6995L40.1758 69.5207L40.2146 69.2712V68.769L40.1758 68.5548L40.099 68.3398L39.9835 68.1617L39.8688 68.055L39.7145 67.9483L39.5628 67.877H39.1791L38.9877 67.9483L38.8342 68.055L38.7195 68.1617L38.6049 68.3398L38.5281 68.5548L38.4885 68.769V69.2712L38.5281 69.5207ZM34.7241 61.0834L34.6853 60.9414L34.6094 60.8347L34.5336 60.7641L34.4189 60.6936L34.2654 60.6575L33.9576 60.6222L33.6489 60.6575L33.3411 60.6936L33.0713 60.8019L32.8393 60.9093L32.8333 60.9118L32.4013 60.2171L32.7954 60.0341L33.1825 59.8906L33.6093 59.8184H34.4223L34.7724 59.8906L35.0819 60.035L35.3544 60.1793L35.5492 60.3951L35.7044 60.6133L35.782 60.9021L35.8208 61.2262V63.9633H34.7241V63.6464L34.5025 63.8181L34.1921 63.9625H34.1913L33.9214 64.0347H33.9205L33.6877 64.0708H33.686L33.3765 64.0347L33.1049 63.9986L32.8333 63.8895L32.5996 63.7459L32.3669 63.5293L32.2117 63.2758L32.0953 62.9878L32.0556 62.6277L32.0953 62.2667L32.2117 61.9771L32.4057 61.7605L32.6393 61.5792L32.9109 61.4348H32.9118L33.1825 61.3634L33.4929 61.292H34.0361L34.3077 61.3273H34.3085L34.5405 61.4003L34.7241 61.4677V61.0834ZM34.5353 62.1664L34.3421 62.095L34.1119 62.0581H33.7265L33.5731 62.0942L33.4584 62.1303L33.3437 62.2009L33.2678 62.2723L33.1911 62.3782L33.1532 62.4841V62.7336L33.1911 62.8755L33.2678 62.9814L33.3437 63.0536L33.4584 63.1242L33.5731 63.1595L33.7274 63.1956L33.8809 63.2317L34.149 63.1956L34.418 63.0881L34.5715 62.9461L34.7241 62.8041V62.2362L34.5353 62.1664ZM22.2878 63.9633H21.1911V59.8914H22.2878V60.2403L22.5085 60.0358L22.781 59.9275L23.0526 59.8184H23.7509L24.0622 59.9275L24.3346 60.0711L24.5674 60.2884L24.7614 60.5411L24.8787 60.8652L24.9563 61.2254L24.9942 61.657V63.9633H23.8975V61.4781L23.8587 61.3L23.782 61.1211L23.7052 60.9791L23.5906 60.8724L23.4768 60.8019L23.2845 60.7666V60.7658L23.131 60.7305L22.9396 60.7666L22.7473 60.8019L22.6335 60.8724L22.518 60.9791L22.4033 61.1219L22.3266 61.3L22.2878 61.4781V63.9633ZM29.0086 37.4283L33.1782 29.9671L33.1799 29.9639H41.2785L32.6505 43.8026V52.8249H25.2891V43.8026L16.6999 29.9639H24.8761L29.0086 37.4283ZM20.2383 58.3086V59.3274H19.1416V58.3086H20.2383ZM0.427643 29.9639H14.397L17.6535 35.2215H7.78821V38.9806H16.7197V43.8074H7.78821V47.5665H20.1228V52.8249H0.427643V29.9639ZM4.42134 61.0777L4.57653 61.186L4.57739 61.1868L4.73173 61.3304H4.73259L4.84899 61.4748V61.4756L4.96538 61.6922V61.693L5.00418 61.9088L5.04298 62.196V62.1968L5.00418 62.5931L4.88779 62.9532L4.73259 63.242L4.4998 63.4947L4.18854 63.7113L3.83935 63.8557L3.41257 63.9271L2.94784 63.9632H0.427643V58.3823H2.98664L3.37463 58.4184L3.76176 58.4898L4.07301 58.5973L4.3446 58.7786L4.57739 58.996L4.73345 59.2487L4.81105 59.5367L4.84985 59.8624V59.8632L4.81105 60.0068L4.77225 60.1857L4.73345 60.3309L4.65499 60.5122L4.65413 60.513L4.5386 60.6197L4.42306 60.764H4.4222L4.30494 60.8731H4.30408L4.16182 60.9397L4.42134 61.0777ZM3.63673 59.7925L3.59794 59.6842L3.56086 59.5775L3.48499 59.5077L3.37032 59.4363L3.21684 59.4002L2.87024 59.3657H1.52435V60.5377H2.94698L3.13925 60.5016L3.29358 60.4655L3.44619 60.3949L3.52292 60.3235L3.5988 60.253L3.63673 60.1471L3.67553 59.9337L3.63673 59.7925ZM3.82987 62.0549L3.79193 61.876L3.71433 61.7332L3.63846 61.6281L3.48585 61.5559L3.33238 61.4853L3.17891 61.4492H1.52435V63.0167H3.14011L3.33238 62.9806L3.48499 62.91L3.59966 62.8025L3.71519 62.695L3.79193 62.5538L3.82987 62.4111L3.86867 62.233L3.82987 62.0549ZM40.6853 64.0709H40.6845L40.4129 64.0356L40.1413 63.9626L39.9076 63.8182V63.8174L39.7257 63.6826V63.9634H38.629V58.8157L39.7257 58.3047V60.1706L39.9076 60.035L40.1801 59.8906H40.181L40.4137 59.8184H40.6862L41.0742 59.8545L41.3846 59.9628L41.6958 60.1425L41.9295 60.3607L42.1235 60.684L42.2778 61.0089L42.3554 61.4413L42.3942 61.909L42.3554 62.3766L42.2778 62.809L42.1614 63.1684L41.9674 63.4941L41.6958 63.746L41.4242 63.9265L41.0742 64.0356L40.6853 64.0709ZM41.1811 62.6251L41.2199 62.4101L41.2587 62.159L41.2966 61.8726L41.2587 61.587L41.2208 61.3352L41.1432 61.1579L41.0285 60.979L40.9138 60.8723L40.7603 60.8017L40.606 60.7656L40.4922 60.7295L40.2629 60.7656L40.0318 60.837L39.8792 60.979L39.7257 61.1571V62.7318L39.8395 62.8377L39.9939 62.9813L40.2241 63.088L40.3387 63.1232H40.4922L40.6845 63.088L40.8379 63.0519L40.9897 62.946L41.1044 62.804L41.1811 62.6251ZM43.0909 67.0084V67.3518L43.3099 67.1472L43.5435 67.0028L43.5452 67.002L43.7772 66.9306H43.778L44.0505 66.8945H44.0513L44.2824 66.9306L44.5161 66.9659V66.9667L44.7109 67.0381V67.0389L44.8653 67.1472L44.8687 67.1496L44.5954 68.1323L44.5876 68.1283L44.4342 68.0569L44.241 67.9847L44.0488 67.9494L43.8565 67.9133L43.703 67.9494L43.5495 67.9847L43.3961 68.0561L43.2823 68.1628L43.2055 68.2687L43.1676 68.4468L43.1279 68.6257L43.0909 68.8768V71.0748H41.9933V67.002H43.0909V67.0084ZM44.1238 63.8903L43.7746 63.7098L43.5021 63.494L43.2314 63.1691L43.0762 62.809L42.9598 62.4127L42.9201 61.9442L42.9598 61.4765L43.0762 61.0794L43.2314 60.72L43.465 60.3951L43.7746 60.1424L44.085 59.9628L44.4729 59.8545L44.8997 59.8184L45.2886 59.8545L45.6378 59.9628L45.9482 60.1424L46.2206 60.3951L46.4534 60.6839L46.6086 61.0449L46.6862 61.4765L46.7241 61.9442V62.2386H44.0203L44.0944 62.5178L44.172 62.7311L44.3255 62.8739L44.4411 62.9806L44.6325 63.052L44.7471 63.0873L45.017 63.1234L45.2851 63.0873L45.5162 63.0159L45.7076 62.9084L45.8619 62.7656L45.8671 62.7616L46.5741 63.4178L46.5681 63.4226L46.375 63.5662L46.2198 63.7098L46.2189 63.7106L46.024 63.8181L46.0232 63.8189L45.83 63.8903L45.4429 64.0347L45.017 64.0708L44.5505 64.0347L44.1238 63.8903ZM44.0574 61.5068H45.6654L45.6274 61.1915L45.5507 61.0503L45.4748 60.9428L45.3593 60.8353L45.2067 60.7294L45.0523 60.6933L44.8609 60.6572L44.7083 60.6933L44.5549 60.7294L44.4014 60.8008L44.2867 60.9067L44.21 61.0134L44.1332 61.157L44.0574 61.3351V61.5068ZM46.4922 71.0742H45.3964V65.819L46.4922 65.3096V71.0742ZM47.6769 58.851L48.7736 58.3408V59.8899H49.7022V60.8373H48.7736V62.554L48.8133 62.805L48.8891 62.947L48.9641 63.0168L49.0392 63.0521L49.2314 63.0866H49.4228L49.5763 63.0521L49.885 62.9085L49.897 62.9029L49.7789 63.8527L49.7763 63.8543L49.5815 63.9626H49.5806L49.3478 63.9987L49.1159 64.034L48.8434 64.0709H48.8426L48.571 64.034L48.3003 63.9257H48.2994L48.1045 63.8174L48.1037 63.8166L47.9493 63.6361H47.9485L47.8321 63.4564V63.4556L47.7545 63.239V63.2382L47.7166 63.0232L47.6769 62.8075V60.8373H47.0199V59.8899H47.6769V58.851ZM47.3294 68.1205L47.4837 67.7603L47.6777 67.4723L47.9114 67.2188L48.2226 67.0391L48.5718 66.9308L48.9598 66.8947H48.9615L49.1943 66.9308L49.4651 67.003H49.4659L49.6987 67.1113L49.9194 67.2822V65.8198L51.017 65.3096V71.075H49.9194V70.7597L49.6987 70.9306L49.4263 71.075H49.4254L49.1935 71.1472H48.921L48.533 71.1119L48.2226 71.0028L47.9114 70.8223L47.6777 70.5696L47.4837 70.2808L47.3294 69.8853L47.2518 69.4882L47.213 68.9852L47.2518 68.5168L47.3294 68.1205ZM48.4261 69.5928L48.5029 69.8078L48.6184 69.9859L48.7322 70.0926L48.8857 70.164L49.0004 70.1993H49.422L49.6125 70.0926L49.7677 69.9498L49.9195 69.8078V68.2331L49.8057 68.0919L49.6134 67.9852L49.4211 67.8769L49.153 67.8408H49.0004L48.8469 67.8769L48.7322 67.9483L48.6175 68.055L48.5029 68.197L48.4261 68.3751L48.3485 68.6623V69.3072L48.4261 69.5928ZM50.9256 63.4556L50.848 63.239V63.2382L50.8092 63.0232L50.7696 62.8075V60.8373H50.1126V59.8899H50.7696V58.851L51.8671 58.3408V59.8899H52.8725V60.8373H51.8671V62.554L51.9059 62.805L51.9818 62.947L52.0577 63.0168L52.1327 63.0521L52.325 63.0866H52.5164L52.6699 63.0521L52.9897 62.9029L52.8725 63.8527L52.869 63.8543L52.675 63.9626H52.6733L52.4414 63.9987L52.2086 64.0348L51.937 64.0709H51.9361L51.6645 64.034L51.3929 63.9257L51.1981 63.8174L51.1972 63.8166L51.042 63.6361L50.9256 63.4564V63.4556ZM53.4777 61.0794L53.6709 60.72L53.9037 60.3951L54.1753 60.1424L54.5262 59.9628L54.9133 59.8537L55.3021 59.8184L55.7272 59.8537L56.0781 59.9628L56.3885 60.1424L56.661 60.3951L56.855 60.6839L57.0093 61.0449L57.1257 61.4765L57.1645 61.9442V62.2386H54.4589L54.496 62.5178L54.6115 62.7303L54.7271 62.8739L54.8797 62.9806L55.0331 63.052L55.1866 63.0873L55.4177 63.1234L55.6867 63.0873L55.9169 63.0159L56.1092 62.9084L56.3014 62.7656L56.3066 62.7616L56.9739 63.417L56.9688 63.4218L56.8144 63.5662H56.8136L56.6204 63.7098L56.4652 63.8181L56.4644 63.8189L56.2712 63.8903L55.8445 64.0347L55.4177 64.0708L54.9909 64.0347L54.5632 63.8903L54.2149 63.7098L53.9045 63.494L53.6709 63.1691L53.4777 62.809L53.3993 62.4127L53.3605 61.9442L53.3993 61.4765L53.4777 61.0794ZM54.4969 61.506H56.104L56.029 61.1915L55.991 61.0495L55.9143 60.9428L55.7996 60.8353L55.6462 60.7294L55.4936 60.6933L55.3021 60.6572L55.1107 60.6933L54.9555 60.7294L54.8417 60.7992L54.7271 60.9067L54.6115 61.0142L54.5357 61.1562L54.4969 61.3343V61.506ZM58.9432 59.897V60.2371L59.1242 60.035L59.126 60.0341L59.3588 59.9259L59.6304 59.8184H60.0968L60.3305 59.8537L60.3322 59.8545L60.5245 59.9628L60.7176 60.0341L60.7236 60.0358L60.4089 61.057L60.4012 61.0513L60.2477 60.9438L60.0934 60.8732L59.902 60.8372H59.5165L59.3648 60.8724L59.2501 60.9438L59.1346 61.0497L59.0587 61.1925L58.982 61.3353L58.9432 61.5503V63.9625H57.8456V59.8898H58.9432V59.897Z" fill="#000"/></g></svg>