<svg width="87" height="49" viewBox="0 0 87 49" fill="none" xmlns="http://www.w3.org/2000/svg"><g id="Guinness"><path id="Shape" fill-rule="evenodd" clip-rule="evenodd" d="M85.5946 34.1626C85.2767 34.1732 84.9787 33.9937 84.8169 33.694C84.6551 33.3944 84.6551 33.0221 84.8169 32.7224C84.9787 32.4228 85.2767 32.2432 85.5946 32.2539C86.0658 32.2696 86.4403 32.6922 86.4403 33.2082C86.4403 33.7242 86.0658 34.1468 85.5946 34.1626ZM85.5945 32.44C85.4079 32.4376 85.2281 32.517 85.0953 32.6606C84.9624 32.8041 84.8876 32.9999 84.8874 33.2042C84.8858 33.4098 84.9599 33.6075 85.0929 33.7527C85.2259 33.8979 85.4066 33.9786 85.5945 33.9764C85.9822 33.9764 86.2964 33.6325 86.2964 33.2082C86.2964 32.7839 85.9822 32.44 85.5945 32.44ZM85.7199 33.2381L85.9852 33.6808H85.8362L85.5848 33.2381H85.4302V33.6808H85.3008V32.7162H85.6841C85.7579 32.7114 85.8318 32.7267 85.8989 32.7607C85.964 32.8035 85.9966 32.8899 85.9966 32.9718C85.9966 33.1606 85.8745 33.2319 85.7199 33.2381ZM85.6588 32.8257H85.4302V33.116H85.5734C85.6963 33.116 85.8647 33.141 85.8647 32.9682C85.8647 32.8435 85.7679 32.8257 85.6588 32.8257ZM81.6356 39.0984C83.8962 40.7587 84.5944 41.9593 84.5944 44.0292C84.5944 47.0699 82.6601 48.935 79.8176 48.935C77.8133 48.935 76.6488 48.2465 76.0189 48.2465V44.6678H76.3453C76.6252 46.2274 78.0932 47.3006 79.654 47.3006C80.9829 47.3006 82.0319 46.5329 82.0319 45C82.0319 43.9526 81.5656 43.0325 80.3539 42.1134L78.6523 40.8353C77.1843 39.7371 75.9498 38.4848 75.9498 36.2358C75.9498 33.5781 77.5806 31.8662 80.2831 31.8662C81.8919 31.8662 82.5673 32.2759 83.4999 32.3775V35.469H83.1736C82.9628 34.2942 81.8455 33.3483 80.3539 33.3483C78.955 33.3483 78.326 34.1926 78.326 35.3158C78.326 36.2875 78.8622 37.0535 80.1675 38.0243L81.6356 39.0984ZM72.0575 39.0984C74.3181 40.7587 75.0172 41.9593 75.0172 44.0292C75.0172 47.0699 73.0828 48.935 70.2404 48.935C68.2352 48.935 67.0707 48.2465 66.4409 48.2465V44.6678H66.768C67.0471 46.2274 68.5152 47.3006 70.076 47.3006C71.4057 47.3006 72.4538 46.5329 72.4538 45C72.4538 43.9526 71.9875 43.0325 70.7758 42.1134L69.0742 40.8353C67.6062 39.7371 66.3717 38.4848 66.3717 36.2358C66.3717 33.5781 68.0025 31.8662 70.7066 31.8662C72.3138 31.8662 72.9893 32.2759 73.9218 32.3775V35.469H73.5955C73.3856 34.2942 72.2666 33.3483 70.7758 33.3483C69.3778 33.3483 68.7487 34.1926 68.7487 35.3158C68.7487 36.2875 69.2842 37.0535 70.5895 38.0243L72.0575 39.0984ZM57.1891 48.3475C57.3063 48.221 57.3299 47.5557 57.3299 47.1985V34.1662C57.3299 33.0939 57.0036 32.5319 56.6537 32.4553V32.123H64.8329V34.3711H64.5301C64.4602 33.9881 63.7619 33.7325 63.3184 33.7325H60.2196V39.4052H62.8286C63.1785 39.4052 63.9947 39.3018 64.0875 39.0471H64.391V41.1936H64.0875C63.9703 41.0654 63.3184 41.0146 62.9221 41.0146H60.2196V47.0703H63.2948C64.1347 47.0703 64.6473 46.7122 64.7401 46.3043H65.0428V48.6806H57.1891V48.3475ZM55.2996 26.093L55.302 25.9033C55.8676 25.9265 56.1858 25.5604 56.1963 24.9565C56.1451 25.0509 55.997 25.1436 55.8383 25.1623C55.4135 25.2104 55.1515 24.9752 55.1197 24.5548C55.0847 24.1033 55.35 23.7247 55.7512 23.6873C56.2834 23.6357 56.5756 24.0133 56.5967 24.635C56.6333 25.7216 56.0181 26.1937 55.2996 26.093ZM55.8294 23.8706C55.5551 23.8706 55.5291 24.2536 55.5283 24.4184C55.5275 24.7176 55.6015 24.9367 55.8261 24.9367C56.1256 24.9367 56.1272 24.527 56.1272 24.3908C56.128 24.226 56.0792 23.8706 55.8294 23.8706ZM45.1893 33.7325C44.9322 33.2204 44.4431 32.5319 44.0004 32.4553V32.123H47.7283L53.1114 42.7006V34.1662C53.1114 33.0939 52.855 32.5319 52.5287 32.4553V32.123H54.743V48.6806H52.9014L45.1893 33.7325ZM54.1156 25.2717C54.1156 25.7366 53.7909 26.1054 53.2595 26.1054C53.1032 26.1054 52.938 26.0813 52.794 26.0083L52.8021 25.8114C52.9299 25.864 53.0805 25.9032 53.2538 25.88C53.5107 25.8485 53.7038 25.6089 53.7005 25.326C53.7005 24.9947 53.5085 24.813 53.2115 24.813C53.0861 24.813 52.969 24.8353 52.8583 24.8843L52.9332 23.7246H54.0244V24.031C53.9506 24.0094 53.8746 23.9987 53.7982 23.9989H53.2709L53.24 24.5886C53.323 24.5761 53.3954 24.5654 53.5012 24.5716C53.8796 24.5939 54.1156 24.8771 54.1156 25.2717ZM53.7949 6.01993H53.7697L53.5207 7.06023H53.3702L53.1211 6.01993V7.06023H52.921V5.74561H53.2204L53.445 6.67725L53.6696 5.74561H53.9691V7.06023H53.7949V6.01993ZM52.4717 7.06023H52.2471V5.9656H51.9485V5.74561H52.7712V5.9656H52.4717V7.06023ZM46.0593 6.0619C44.6564 5.9853 43.3885 5.59875 41.6194 4.74193C40.9497 4.41149 40.2917 4.05348 39.6468 3.66867C39.6403 3.71231 39.458 4.6199 38.9706 5.77866C38.4969 6.94277 37.9957 7.68915 37.968 7.72656L38.5979 9.24604C38.6084 9.18548 38.8412 8.07837 39.4393 6.65865C40.0219 5.22467 40.6306 4.30193 40.6616 4.25829C40.6526 4.31262 40.4199 5.42329 39.8201 6.84747C39.2383 8.27788 38.632 9.19973 38.5979 9.24693L39.27 10.8688C39.2822 10.7967 39.5622 9.45268 40.2881 7.72656C40.996 5.98619 41.7374 4.86751 41.7748 4.81585C41.7642 4.88087 41.4843 6.22934 40.756 7.95991C40.0496 9.69672 39.3107 10.8136 39.2708 10.8697L39.9943 12.6137C40.0097 12.5255 40.3523 10.9169 41.2231 8.8488C42.0726 6.76018 42.9572 5.41438 43.0012 5.35203C42.9881 5.42952 42.6447 7.04431 41.7699 9.12135C40.9228 11.2028 40.0431 12.5469 39.9943 12.6154L40.7714 14.4876C40.791 14.3816 41.2027 12.4605 42.2435 9.98619C43.2632 7.48697 44.3162 5.87664 44.3691 5.80182C44.3536 5.89534 43.9411 7.82364 42.8954 10.3077C41.879 12.7998 40.8308 14.4066 40.7722 14.4885L41.6161 16.5228C41.6405 16.3901 42.1475 14.077 43.4015 11.1004C44.6262 8.09173 45.8876 6.14562 45.9511 6.05566C45.9315 6.16789 45.4262 8.49075 44.1681 11.4816C42.9458 14.4823 41.6861 16.4257 41.6169 16.5246L42.5292 18.7201C42.5576 18.5705 43.207 15.7604 44.7361 12.1202C46.2318 8.45067 47.7389 6.0619 47.8146 5.95145C47.7886 6.08595 47.1408 8.90403 45.6085 12.5531C44.1152 16.2155 42.6105 18.6016 42.5292 18.721L43.0622 20.0044C43.2371 20.4426 43.5374 20.7152 43.8621 20.7704C43.2624 21.7288 41.3126 23.8628 40.8642 24.1915L35.0987 6.78601C34.8083 6.92935 34.4936 7.0043 34.175 7.00601C32.777 7.00601 31.7036 5.82854 31.7036 4.1051C31.7036 1.99777 33.3507 0 36.5708 0C37.7939 0 39.266 0.300156 40.9383 0.98419C45.2349 2.76375 48.8033 1.97016 51.0998 0L52.3977 3.69361C51.0355 5.09908 48.4241 6.19104 46.0593 6.0619ZM34.1001 3.44775C33.6005 3.44775 33.1765 3.91268 33.1765 4.46045C33.1765 5.00821 33.6005 5.47314 34.1001 5.47314C34.599 5.47314 35.023 5.00821 35.023 4.46045C35.023 3.91268 34.599 3.44775 34.1001 3.44775ZM37.8272 2.64352C36.9939 2.2739 36.0011 2.23025 35.3989 2.4645C35.9018 2.76109 36.216 3.43355 36.5944 4.3928C36.6627 4.56559 36.9548 5.27456 37.3731 6.28815C37.3796 6.24896 37.5139 5.53553 37.8964 4.62972C38.2675 3.71589 38.6695 3.13339 38.6906 3.10489C38.4098 2.93584 38.1217 2.78186 37.8272 2.64352ZM38.6914 3.10498C38.6857 3.1415 38.5514 3.85671 38.1681 4.7643C37.7971 5.67813 37.3959 6.25973 37.3739 6.28912L37.968 7.72667C37.9761 7.67768 38.1576 6.77276 38.6442 5.61756C39.1186 4.45078 39.6215 3.70351 39.6468 3.66877C39.2976 3.46392 38.9795 3.27332 38.6914 3.10498ZM31.2292 23.8957C31.0087 23.8957 30.8516 24.0195 30.8345 24.203C30.8264 24.2911 30.8532 24.3811 30.9232 24.4568C30.9834 24.5236 31.0795 24.5762 31.23 24.6563C31.623 24.8434 31.7793 25.0393 31.7793 25.3956C31.7793 25.751 31.5539 26.1072 31.0298 26.1072C30.8036 26.1072 30.5977 26.028 30.4805 25.9246V25.6966C30.6359 25.8106 30.8044 25.8854 31.0314 25.8685C31.2235 25.8543 31.3846 25.7278 31.3944 25.5203C31.4041 25.3119 31.2845 25.2041 31.0298 25.0669C30.6327 24.8665 30.4756 24.7053 30.4805 24.3553C30.4862 23.9865 30.7442 23.6819 31.1551 23.6712C31.339 23.6668 31.5197 23.706 31.6458 23.7861L31.6442 24.032C31.5212 23.9428 31.3768 23.8953 31.2292 23.8957ZM30.4805 48.6806H27.1953V48.3475C27.2881 48.2718 27.358 47.5557 27.358 47.121V34.1662C27.358 33.0939 27.0317 32.5319 26.6826 32.4553V32.123H30.2241V46.8414C30.2241 47.7864 30.3869 48.3217 30.4805 48.3475V48.6806ZM28.4599 25.67V24.0552C28.4599 23.9172 28.4599 23.8628 28.4347 23.7266H29.6073V24.0285C29.5223 24.0086 29.4355 23.999 29.3486 24H28.8839V24.7125H29.233C29.2826 24.7125 29.3746 24.709 29.4576 24.6912V25.0047C29.3834 24.9905 29.3083 24.984 29.233 24.9851H28.8839V25.7787H29.4332C29.5325 25.7787 29.587 25.7609 29.6578 25.7404V26.0521H28.4347C28.4599 25.9149 28.4599 25.7787 28.4599 25.67ZM20.0643 48.9353C16.5219 48.9353 15.0303 46.7639 15.0303 43.4417V34.1662C15.0303 33.0939 14.704 32.5319 14.3549 32.4553V32.123H17.9436V43.5183C17.9436 44.6174 18.0599 45.2052 18.2699 45.6648C18.7354 46.6614 19.5744 46.9687 20.4842 46.9687C21.4395 46.9687 22.3477 46.6614 22.814 45.6648C23.0239 45.2052 23.1403 44.6174 23.1403 43.3909V34.1662C23.1403 33.0939 22.814 32.5319 22.4641 32.4553V32.123H24.8647V43.1611C24.8647 44.4633 24.7719 45.1794 24.5855 45.818C24.0257 47.8879 22.5113 48.9353 20.0643 48.9353ZM12.7005 48.1681C12.5369 48.2465 10.4862 48.9866 7.78288 48.9866C3.56512 48.9866 0 45.6395 0 38.6388C0 32.5823 3.12243 28.5698 7.64291 28.5698C9.85717 28.5698 10.9053 29.1835 11.5588 29.1835C11.6515 29.1835 11.6979 29.1577 11.7215 29.1318H11.9543V33.2467H11.5815C11.1389 31.1519 9.67082 30.2318 8.03921 30.2318C5.38307 30.2318 3.2152 32.6589 3.2152 38.5106C3.2152 44.7702 5.61581 47.2489 8.1328 47.2489C8.85542 47.2489 9.36728 47.1465 9.69442 46.9942V41.0143C9.69442 40.1459 9.48446 39.0468 8.62187 38.8419V38.4848H12.8632V38.817C12.7469 38.8936 12.7005 40.0684 12.7005 40.5805V48.1681ZM32.6525 24.0276C32.5784 24.0276 32.5027 24.0276 32.4279 24.0552V23.7266H34.0001V24.0552C33.9252 24.0276 33.8503 24.0276 33.7755 24.0276H33.4263V25.67C33.4263 25.7787 33.4263 25.9149 33.4508 26.0521H32.9771C33.0016 25.9149 33.0016 25.7787 33.0016 25.67V24.0267L32.6525 24.0276ZM40.8511 42.7006V34.1662C40.8511 33.0939 40.5948 32.5319 40.2685 32.4553V32.123H42.4836V48.6806H40.6412L32.9283 33.7325C32.6711 33.2204 32.1821 32.5319 31.7394 32.4553V32.123H35.4681L40.8511 42.7006ZM32.7647 35.6479L34.3955 38.9443V46.9942C34.3955 47.6328 34.5127 48.2714 34.6291 48.3471V48.6802H32.6248V48.3471C32.7411 48.2206 32.7647 47.2489 32.7647 47.0699V35.6479ZM35.6975 25.7866V26.0734C35.6492 26.0568 35.5985 26.0495 35.5478 26.052H35.298C35.2483 26.052 35.1881 26.052 35.1483 26.0707V25.7866C35.197 25.8012 35.2475 25.8078 35.298 25.8062H35.5478C35.5982 25.8059 35.6485 25.7993 35.6975 25.7866ZM34.8732 25.2042V23.8628C34.8732 23.8352 34.8732 23.7809 34.8488 23.7266H35.3981C35.8969 23.7266 36.1964 23.9172 36.1964 24.4925C36.1964 24.9851 35.8969 25.3413 35.473 25.3413H34.8488C34.8732 25.2861 34.8732 25.2318 34.8732 25.2042ZM35.2231 25.126H35.3729C35.6471 25.126 35.8221 24.9514 35.8221 24.4874C35.8221 24.1097 35.6471 23.936 35.4225 23.936H35.2231V25.126ZM50.5618 24.0346V23.7246H51.951L50.9785 26.051H50.5366L51.4342 23.9998H50.7864C50.7103 23.996 50.6341 24.0078 50.5618 24.0346ZM39.3408 27.3658L34.2498 8.456C34.1994 8.2645 34.1001 7.90824 34.1001 7.74435C34.1001 7.52525 34.2498 7.38898 34.4492 7.38898C34.5989 7.38898 34.7243 7.47092 34.7739 7.63569L40.24 25.9434C46.0828 20.7704 49.2028 14.3674 48.6535 6.45823C49.4526 6.26673 50.4755 5.85524 51.0737 5.47314C52.4465 13.9016 49.8766 21.6192 43.6366 27.3658H39.3408ZM48.7838 23.8842L49.3485 23.6704V25.6682C49.3485 25.7768 49.3485 25.914 49.3737 26.0512H48.9278C48.9522 25.914 48.9522 25.7768 48.9522 25.6682V24.2378C48.9559 24.0959 48.8922 23.962 48.7838 23.8842ZM45.025 35.6479L46.6566 38.9443V46.9942C46.6566 47.6328 46.7729 48.2714 46.8893 48.3471V48.6802H44.8858V48.3471C45.0022 48.2206 45.025 47.2489 45.025 47.0699V35.6479Z" fill="#000"/></g></svg>