<svg width="81" height="62" viewBox="0 0 81 62" fill="none" xmlns="http://www.w3.org/2000/svg"><g id="Harley"><path id="Shape" fill-rule="evenodd" clip-rule="evenodd" d="M80.6 19.6233H63.4868C63.5922 17.7561 65.1107 16.2786 66.9688 16.2786V8.48055C51.1612 7.91684 43.7623 2.65909 40.3573 0C36.9523 2.65909 29.534 7.91684 13.7254 8.48055V16.2786C15.5836 16.2786 17.1021 17.7561 17.2075 19.6233H0V41.1857H15.9931C15.9931 41.8745 15.6353 43.9146 11.3382 44.4023C14.283 47.1593 31.4459 62 40.3573 62C49.2687 62 66.4772 47.1593 69.422 44.4023C65.4037 43.9563 64.7671 42.1579 64.7671 41.1857H80.6V19.6233ZM15.472 14.9471L15.4751 10.0832C29.7804 9.32673 36.8397 4.95152 40.3573 2.26221C44.1303 4.98903 50.9139 9.32673 65.2192 10.0832L65.2121 14.9471C63.2658 15.6629 61.8608 17.4082 61.7949 19.6234H60.0777C60.1335 17.1154 61.4786 15.0596 63.4635 13.8603L63.4685 11.6576C51.9165 10.8282 44.3746 7.17924 40.3573 4.36281C36.8499 6.98751 29.7976 10.5041 17.2268 11.6576L17.2308 13.8603C19.2166 15.0596 20.5608 17.1154 20.6166 19.6234H18.8994C18.8335 17.4082 17.4183 15.6629 15.472 14.9471ZM58.5207 17.6406V19.6235H56.6514V18.0657C56.6514 17.5791 56.0746 17.3561 55.8151 17.3561H54.0249V19.6235H52.1557V11.2544L56.6514 12.2078C57.288 12.3485 58.5207 12.7746 58.5207 14.0323V15.39C58.5207 15.8765 58.4609 16.3027 57.8648 16.607C58.1426 16.7685 58.5207 17.3155 58.5207 17.6406ZM50.5642 12.6538V17.7626C50.5845 18.3909 50.2256 19.6235 48.5946 19.6235H46.1485C45.3325 19.6235 44.2783 19.1807 44.2783 17.6813V10.2208C44.2783 9.32785 45.1734 8.75998 46.1688 9.12571L49.4309 10.4032C50.2256 10.7272 50.5845 11.4368 50.5642 12.6538ZM36.9583 10.3216V8.21262L40.3573 6.32666L43.9204 8.31473V10.4226L41.4541 9.0639V19.6232H39.4257V8.94303L36.9583 10.3216ZM36.7201 10.2208V17.6813C36.7201 19.1807 35.6659 19.6235 34.8499 19.6235H32.4038C30.7728 19.6235 30.4139 18.3909 30.4342 17.7626V12.6538C30.4139 11.4368 30.7728 10.7272 31.5685 10.4032L34.8306 9.12571C35.825 8.75998 36.7201 9.32785 36.7201 10.2208ZM25.9983 19.6231L24.4666 16.2816V19.6231H22.5973V12.592L24.4666 12.2471L25.9385 15.4501L27.5695 11.5781L29.3202 11.1113V19.6231H27.4509V16.1607L25.9983 19.6231ZM65.4432 45.1315C60.7488 49.9974 46.5641 60.1347 40.3573 60.1347C34.1514 60.1347 20.0114 49.9974 15.317 45.1315C17.7437 44.0364 18.1411 42.4422 18.3003 41.1855H20.2496C20.131 42.3609 19.8918 44.2395 18.3003 45.3742C20.131 47.1591 33.8331 58.3498 40.3573 58.3498C46.8824 58.3498 60.6292 47.1591 62.4589 45.3742C60.8684 44.2395 60.6292 42.3609 60.5096 41.1855H62.4589C62.618 42.4422 63.0164 44.0364 65.4432 45.1315ZM24.2952 46.263C24.4027 46.3349 28.6024 49.6723 28.6024 49.6723V51.7031C28.6024 51.7031 22.6936 47.206 22.5162 47.0966C22.3023 46.9518 22.0175 46.4443 21.9465 46.0817C21.8756 45.7181 21.9465 42.8162 21.9465 42.4901C21.9465 42.1629 22.3023 41.1855 22.8011 41.1855H27.3921V43.1069H24.6511C24.2243 43.0705 23.9749 43.2153 23.9749 43.6144V45.7546C23.9749 45.9004 24.1533 46.1901 24.2952 46.263ZM28.494 41.1855H30.4149L31.4479 44.45L33.1205 41.1855H34.935L32.3369 46.9174V53.7725C32.3369 54.0997 30.5224 53.0837 30.4859 52.8295C30.4149 52.5753 30.4859 46.8445 30.4859 46.8445L28.494 41.1855ZM37.4662 53.6214C37.5726 53.8392 39.9214 54.9634 39.9214 54.9634V57.212C39.9214 57.212 36.1494 55.5803 35.7926 55.2177C35.5223 54.9525 35.3683 54.5859 35.3658 54.2018V42.811C35.3658 42.1223 36.7181 41.1855 37.0384 41.1855H39.8149V43.2466C39.8149 43.3184 38.2133 43.3184 37.822 43.2466C37.6081 43.2111 37.3233 43.5008 37.3233 44.5167V52.9316C37.3233 53.1129 37.3233 53.4401 37.4662 53.6214ZM45.4724 53.0775V55.0353C45.4724 55.0353 42.3401 56.4503 41.8423 56.7046C41.5575 56.8494 41.2372 56.5952 41.2372 56.1596V41.1855H43.373V53.9475L45.4724 53.0775ZM50.0614 46.1891V47.8583H48.0685V51.8855L50.4892 50.7237V52.5023L47.2859 54.134C46.8946 54.3153 46.3959 54.134 46.3959 53.7714V41.9087C46.3959 41.4377 46.7871 41.1855 47.1075 41.1855H50.845V43.2518H48.0685V46.1891H50.0614ZM56.2155 46.3298C56.2155 46.3298 53.0832 46.4028 52.5135 46.3298C51.9803 46.2569 51.7664 46.1485 51.7664 45.7494C51.7664 45.3868 51.7309 42.9924 51.7664 42.3047C51.8374 41.6139 52.9058 41.2565 53.4035 41.1856C53.8668 41.1492 58.101 41.1856 58.101 41.1856V43.0653H53.582C53.4035 43.0653 53.439 44.6252 53.582 44.6252H57.6388C58.2085 44.6252 58.1365 44.77 58.1365 45.0242V47.3457C58.1365 47.6 57.7807 47.8907 57.6388 48.0345C57.5323 48.1439 51.588 51.8074 51.588 51.8074V50.1747C51.588 50.1747 56.322 47.128 56.3575 46.9112C56.4284 46.5851 56.2155 46.3298 56.2155 46.3298ZM78.8899 39.3738H1.79019V21.6948H78.8899V39.3738ZM32.7414 12.0242L34.2538 11.4157C34.5316 11.2948 34.8499 11.4157 34.8499 11.8627V17.0517C34.8499 17.3965 34.6907 17.681 34.2731 17.681H32.9005C32.4636 17.681 32.3045 17.458 32.3045 17.0923V12.9567C32.3045 12.5108 32.344 12.2274 32.7414 12.0242ZM48.6939 12.9567V17.0923C48.6939 17.458 48.5358 17.681 48.0979 17.681H46.7253C46.3077 17.681 46.1485 17.3965 46.1485 17.0517V11.8627C46.1485 11.4157 46.4668 11.2948 46.7446 11.4157L48.257 12.0242C48.6544 12.2274 48.6939 12.5108 48.6939 12.9567ZM56.253 13.9707C56.6514 14.052 56.6514 14.4375 56.6514 14.7824C56.6514 15.1262 56.5916 15.4503 56.2338 15.4503H54.0249V13.5039L56.253 13.9707ZM3.58139 23.3169V37.5491H77.1392V23.3169H3.58139ZM10.4421 35.8862H8.82321V31.1276H7.54393V35.8862H5.92404V24.8008H7.54393V29.2343H8.82321V24.8008H10.4421V35.8862ZM14.213 35.8862L13.9282 33.0031H12.7422L12.4107 35.8862H10.9439L12.1816 24.8008H14.6104L15.8481 35.8862H14.213ZM20.9937 28.2736C20.9937 29.0978 20.8467 29.7439 20.2648 30.2138C20.3489 30.3117 20.9734 30.7358 20.9926 31.4871L20.9937 35.8862H19.3738L19.3748 32.1789C19.3748 31.5089 19.096 31.2953 18.0631 31.2953V35.8862H16.4442V24.8008H19.1193C20.4189 24.8008 20.9937 25.2676 20.9937 26.7003V28.2736ZM25.1944 35.8862H21.9303V24.8008H23.5502V34.1347H25.1944V35.8862ZM29.1144 35.8862H25.7377V24.8008H29.084V26.5325H27.3566V29.2406H29.0079V30.9921H27.3566V34.1347H29.1144V35.8862ZM32.8711 35.8862H31.2512V31.7455L29.5857 24.8008H31.2512L32.124 28.6738L33.0232 24.8008H34.5356L32.8711 31.6673V35.8862ZM36.9989 31.0004H34.0349V29.6021H36.9989V31.0004ZM42.1018 33.8784C42.1018 34.937 41.4298 35.8862 40.1768 35.8862H37.8697V24.8008H39.8251C41.4298 24.8008 42.1018 25.3614 42.1018 27.3077V33.8784ZM45.8008 35.8862L45.515 33.0031H44.3299L43.9985 35.8862H42.5316L43.7694 24.8008H46.1982L47.4359 35.8862H45.8008ZM50.258 35.8862H48.4466L46.926 24.8008H48.5763L49.3629 31.4673L50.1476 24.8008H51.7786L50.258 35.8862ZM53.8557 35.8862H52.2358V24.8008H53.8557V35.8862ZM59.0488 33.8784C59.0488 34.937 58.3767 35.8862 57.1238 35.8862H54.8177V24.8008H56.7731C58.3767 24.8008 59.0488 25.3614 59.0488 27.3077V33.8784ZM64.319 28.5644H62.6991V27.0181C62.6991 26.4554 62.3727 26.3325 62.0514 26.3325C61.7159 26.3325 61.4087 26.4554 61.4087 27.0181V28.2455C61.4087 29.0395 64.2988 30.4441 64.2988 31.5652V34.2358C64.2988 35.6851 63.0448 36.105 62.0362 36.105C61.0438 36.105 59.8091 35.6851 59.8091 34.2358V31.8247H61.428V33.7919C61.428 34.3535 61.7159 34.4775 62.0514 34.4775C62.3727 34.4775 62.6799 34.3535 62.6799 33.7919V32.6249C62.6799 31.0672 59.7888 30.6358 59.7888 28.8301V26.4513C59.7888 25.0029 61.0438 24.583 62.0362 24.583C63.0448 24.583 64.319 25.0029 64.319 26.4513V28.5644ZM69.5771 34.2358C69.5771 35.6851 68.2724 36.105 67.279 36.105C66.2856 36.105 65.0114 35.6851 65.0114 34.2358V26.4513C65.0114 25.0029 66.2856 24.583 67.279 24.583C68.2724 24.583 69.5771 25.0029 69.5771 26.4513V34.2358ZM75.1362 35.8862H73.1554L71.868 29.5761V35.8862H70.241V24.8008H72.4306L73.4889 30.4378V24.8008H75.1362V35.8862ZM12.9348 31.1295L13.3119 26.8252H13.4193L13.7346 31.1295H12.9348ZM18.063 26.3271H18.7037C19.0707 26.3271 19.315 26.5939 19.315 27.0148V28.6778C19.315 29.0821 19.1923 29.576 18.6277 29.576H18.063V26.3271ZM39.4895 26.5503H39.8717C40.2833 26.5503 40.482 26.6597 40.482 27.3755V33.3126C40.482 34.0285 40.2833 34.1379 39.8717 34.1379H39.4895V26.5503ZM44.5226 31.1295L44.8996 26.8252H45.0061L45.3224 31.1295H44.5226ZM56.4365 26.5503H56.8187C57.2313 26.5503 57.4299 26.6597 57.4299 27.3755V33.3126C57.4299 34.0285 57.2313 34.1379 56.8187 34.1379H56.4365V26.5503ZM66.6313 33.5699V27.0576C66.6313 26.497 66.9577 26.373 67.2942 26.373C67.6308 26.373 67.9572 26.497 67.9572 27.0576V33.5699C67.9572 34.1294 67.6308 34.2545 67.2942 34.2545C66.9577 34.2545 66.6313 34.1294 66.6313 33.5699Z" fill="#000"/></g></svg>