<svg width="95" height="46" viewBox="0 0 95 46" fill="none" xmlns="http://www.w3.org/2000/svg"><g id="jaguar"><path id="Shape" fill-rule="evenodd" clip-rule="evenodd" d="M89.6698 42.229L94.0492 45.0592H90.659L86.4901 42.2824H82.8351V45.0592H80.0522V37.0459H88.6789C90.4569 37.0459 91.3496 37.1632 92.0723 37.5035C92.885 37.8883 93.3314 38.5734 93.3314 39.6441C93.3314 40.4456 92.9939 41.2178 92.2852 41.6275C91.6021 42.022 90.716 42.1908 89.6698 42.229ZM90.5477 39.6004C90.5477 39.0264 90.4404 38.655 90.1393 38.4142C89.8216 38.1591 89.3596 38.0552 88.3167 38.0552H82.8351V41.2719H88.3505C89.2391 41.2719 89.7284 41.2141 90.0774 40.9564C90.433 40.6916 90.5477 40.2704 90.5477 39.7515V39.6004ZM82.5694 28.8788C83.2179 29.3977 83.4802 30.0064 83.5594 30.6391C83.5594 30.6391 82.746 32.0261 82.0224 32.3825C79.9837 33.3875 78.4499 31.5463 76.7833 29.8473C75.5664 28.6006 75.167 28.4522 74.4492 28.0488C72.8008 27.1167 71.1754 27.2011 69.1796 27.3282L65.9083 27.6463C58.6759 28.3278 56.5927 22.7288 54.9508 19.9093C54.5466 19.2189 53.2158 18.1668 51.7562 18.0495C51.7562 18.0495 50.904 18.0148 49.8198 18.1659C43.5742 19.0305 41.1906 18.5978 38.6503 17.7038C37.0613 19.784 32.8411 18.6066 32.8411 18.6066C31.422 18.2068 25.1203 15.844 24.4075 15.5961C23.3168 15.2158 22.9059 16.3896 22.9059 16.3896C21.7838 19.0385 19.4605 19.2349 19.4374 19.2589C19.4374 19.2589 16.9762 18.341 18.18 15.6805C18.6428 14.6613 20.2327 12.1546 22.7095 11.681C23.5783 11.5148 24.7144 11.2704 25.6698 11.1887C22.3259 8.32031 20.3581 8.90767 20.2385 8.92366C20.2385 8.92366 18.4374 9.26221 17.1544 10.5222C16.6858 10.9807 16.3492 11.5414 15.9053 12.199C15.9053 12.199 15.676 12.6362 15.0712 12.5971C14.1942 12.5393 13.2891 11.88 13.2891 11.88C13.0787 11.7147 13.1612 11.3531 13.2602 11.1638C13.3246 11.0527 13.4236 10.8617 13.4236 10.8617C13.3669 10.6849 13.3155 10.5062 13.2693 10.3259C13.1967 10.0086 13.2099 9.93043 13.2099 9.93043C13.2099 9.93043 13.7214 10.2388 13.9953 10.2388C14.0737 10.2388 14.1117 10.2246 14.1117 10.2246C14.5192 10.0922 14.8996 9.22223 14.9153 9.12892C15.2601 7.90178 14.846 7.04162 14.4986 6.77682C14.063 6.45427 13.5218 6.71107 13.3114 6.93588C13.0705 7.18646 12.8518 7.6823 12.7413 8.07683C12.7413 8.07683 12.6472 8.40917 12.6885 8.75572C12.7281 9.07205 12.9995 9.59366 13.0787 9.86024C13.0787 9.86024 12.4451 9.87268 12.0548 9.4577C12.0548 9.4577 11.9929 9.57322 11.7058 9.62742C10.9261 9.77226 10.3725 9.16625 10.0994 8.81614C9.90968 8.578 9.76777 8.17902 9.61432 7.91155C9.54171 7.78449 9.36763 7.63876 9.36763 7.63876C8.98068 7.254 9.19024 6.70396 9.37835 6.37696C9.91463 5.47681 10.9682 4.46471 10.9682 4.46471C11.0474 4.38029 11.0103 4.25411 11.0103 4.25411C10.8197 3.81248 11.1547 3.40462 11.1547 3.40462C13.115 0.349643 19.3829 0.0510762 19.3829 0.0510762C31.474 -0.717555 48.7927 7.44327 48.7927 7.44327C57.7445 11.2447 63.8358 14.52 63.8358 14.52C69.145 17.3208 79.5877 23.7311 82.8351 25.2373C82.8351 25.2373 84.5198 26.0157 86.6295 25.3457C87.6121 25.0347 88.273 24.3221 88.853 24.1923C88.853 24.1923 90.0782 23.8475 90.5237 24.9094C90.6821 25.2888 90.6367 25.9171 90.2184 26.6244C88.6013 29.6563 84.4216 29.3506 82.5694 28.8788ZM14.8006 6.30851C15.0233 6.47556 15.2131 6.74658 15.3525 7.08514C15.0266 5.9042 14.3228 5.93263 14.1743 5.95218C14.1743 5.95218 13.9491 5.9664 13.8072 6.07925C14.1534 6.01188 14.5104 6.09425 14.8006 6.30851ZM11.2479 4.67334C11.2396 4.68578 11.2264 4.69644 11.2141 4.70799C11.2042 4.71688 10.2991 5.54327 9.60522 6.63979C9.60522 6.63979 10.9789 5.0652 11.5061 4.82528C11.4224 4.77454 11.3478 4.70802 11.2859 4.62891C11.2718 4.64312 11.2611 4.65912 11.2479 4.67334ZM48.5955 7.97087L48.5856 7.9682L48.574 7.96554C48.4074 7.88379 31.2381 -0.130417 19.4159 0.620442C19.387 0.620442 18.3335 0.679978 16.9812 0.947444C17.8277 0.858585 18.9976 0.801715 20.5108 0.875468L21.3573 0.914566C21.3573 0.914566 21.0891 1.45394 21.0091 1.61122C21.7063 1.25134 22.6064 0.935892 23.6361 0.935892H23.6476C23.8984 0.943889 29.0113 1.1065 33.2817 4.34719L32.6803 3.30132L33.7701 3.43639C33.7817 3.43639 34.0548 3.47015 34.7709 3.59545C34.959 3.62122 37.6042 4.01575 43.6543 6.255C43.6939 6.26833 48.3084 7.89623 50.8182 8.96609C50.8206 8.96609 52.3792 9.62987 52.682 9.75783C51.4007 9.18468 50.0335 8.58489 48.5955 7.97087ZM89.6805 25.2435C89.1384 24.6651 87.8976 25.6878 87.2136 25.966C87.2136 25.966 85.1089 26.8563 82.0702 25.3919C82.0702 25.3919 71.0954 19.2544 70.0113 18.6226C63.9439 15.0754 54.4253 11.1212 50.6267 9.49859C48.0988 8.4225 43.4802 6.79549 43.4802 6.79549C37.3146 4.5127 34.6901 4.16171 34.6901 4.16171C33.9731 4.03642 33.7107 4.00354 33.7107 4.00354L33.9995 4.50648C34.6868 5.71408 34.8782 6.56624 34.8782 6.56624C30.5112 1.66654 23.6361 1.50837 23.6361 1.50837C21.4323 1.50749 19.8458 3.10606 19.8458 3.10606C19.6816 3.33087 20.0166 3.40818 20.0166 3.40818C22.7013 4.28078 24.2829 7.64943 24.2829 7.64943C20.9761 4.79883 19.0257 4.42651 19.0257 4.42651C16.869 4.08707 16.8517 3.13894 16.8517 3.13894C18.84 3.609 20.043 2.34098 20.3457 1.72519L20.4877 1.44351C17.0579 1.27734 15.4524 1.79539 15.4524 1.79539C12.1984 2.60312 11.7 3.54058 11.5672 3.76006C11.4187 3.99909 11.3973 4.77928 12.2446 4.57224C12.2446 4.57401 12.5853 3.30955 13.5861 3.12117C13.5861 3.12117 14.0828 3.04919 15.1001 3.06341C15.1001 3.06341 14.3872 4.74818 12.879 5.02009C12.879 5.02009 12.332 5.10539 12.1654 5.12761C12.0053 5.14982 10.8172 5.37197 10.2059 6.90035C10.2059 6.90035 9.87669 7.58278 10.3305 8.10528C10.3478 8.1266 10.3692 8.15326 10.3923 8.17814C10.3923 8.17814 10.7694 8.66953 11.2661 8.68819C11.3106 8.68997 11.4459 8.69263 11.5202 8.67842C11.6885 8.64465 12.0136 8.47848 12.332 7.73829C12.332 7.73829 12.8518 6.49692 13.0969 6.09084C13.0969 6.09084 13.384 5.45994 14.0985 5.38619C14.0985 5.38619 15.5654 5.13027 15.9557 7.33131C16.1454 8.42872 15.9606 9.25511 14.4169 10.9479C14.4169 10.9479 14.1942 11.1798 13.9203 11.4126C13.9203 11.4126 13.8287 11.489 13.8105 11.609C13.8015 11.6659 13.8163 11.7521 13.8716 11.784C13.8716 11.784 14.5836 12.1732 14.9103 12.1244C15.2346 12.0728 15.1587 12.032 16.619 10.0442C16.619 10.0442 18.7146 9.43194 18.732 7.49304C18.7252 7.22922 18.7067 6.96589 18.6767 6.70397C18.6272 6.29877 18.4943 5.6501 18.1437 5.13827C18.1437 5.13827 19.1239 5.1747 20.1164 6.99098C20.1411 7.0363 20.1667 7.07895 20.1915 7.12694C20.1915 7.12694 20.524 8.05551 21.2368 8.15326C21.2368 8.15326 22.9339 8.3994 25.0848 9.80693C25.584 10.1322 26.8934 11.0554 26.9759 11.0874C26.6838 10.2139 26.5014 9.17958 26.8331 7.95244L26.8356 7.95955C26.8562 8.02975 26.8694 11.7494 32.8585 13.6412C30.0368 13.3471 28.8561 12.207 26.9717 11.928C26.2506 11.8214 25.3035 11.9084 24.1674 12.024C21.5701 12.279 20.1535 13.1134 18.7625 15.7178C17.765 17.5857 19.5504 18.7248 19.5504 18.7248C19.769 18.6386 20.0265 18.5364 20.2987 18.3943C19.8433 18.3276 18.4036 17.3973 19.7781 15.2886C19.7781 15.2886 18.9085 17.4613 21.0924 17.8833C21.5066 17.6105 22.3283 16.7371 22.3415 15.988C22.641 15.4779 23.2136 14.6293 24.872 15.1625C31.9295 17.2604 32.5218 17.4417 33.0251 17.5483C37.7395 18.5702 38.1833 16.0342 38.1833 16.0342C38.8252 13.6554 36.1207 10.0211 36.1207 10.0211C40.4671 13.7389 46.6657 13.7034 46.6657 13.7034C42.8564 14.5325 38.8459 13.0796 38.2163 12.8646C38.2163 12.8646 39.3574 14.6649 38.9787 16.418C38.9787 16.418 41.7558 18.6075 49.9131 17.3608C51.8082 17.0712 52.5054 17.4177 52.5054 17.4177C52.6044 16.3914 50.9229 14.839 50.9229 14.839C52.6341 15.6121 54.3255 17.966 54.6423 18.4183C54.8477 18.6973 55.0622 19.0403 55.3015 19.4668C55.9863 20.6939 58.5868 26.5764 64.7797 26.0753L67.9594 25.8975C67.9594 25.8975 72.2917 25.4932 74.2232 26.9274C75.4946 27.8711 75.5804 28.0382 76.3295 28.7019C77.3146 29.5772 79.072 31.9462 80.8648 32.0537C81.3937 32.0839 81.9003 31.8866 82.4176 31.4237C80.704 31.9577 79.7015 30.8292 79.567 30.687C81.4803 31.2353 82.2782 31.054 82.9209 30.3636C82.9621 29.7247 82.1503 29.0627 81.6536 28.7917C80.2238 28.0195 79.6949 27.2304 78.9722 26.4591C78.3658 25.806 77.3798 24.3203 76.8039 23.8014C76.1819 23.2398 75.3378 22.584 73.4452 22.6169C71.522 22.6462 69.2803 22.6693 68.6153 22.5502C67.9223 22.4267 67.5221 22.3227 66.8819 21.7709C66.3671 21.3275 66.0255 20.8255 65.7235 20.2576C65.4215 19.6934 65.1419 18.9221 64.5874 17.8629C64.2029 17.1316 63.5248 16.554 63.5248 16.554C64.4092 17.1556 64.8712 17.4381 65.5214 18.4645C66.872 20.6095 67.8876 21.2218 68.7292 21.523C69.989 21.9709 73.3379 22.0695 74.71 22.2668C76.0267 22.456 76.8188 23.3046 77.1406 23.6663C77.8724 24.4758 78.6644 25.2951 79.3088 26.0166C81.3508 28.3047 83.6816 28.5598 83.6857 28.5598C84.8886 28.7695 86.9727 28.6442 87.9718 28.1643C88.9231 27.712 89.7053 26.9274 89.8637 26.3392C89.9981 25.9455 89.961 25.543 89.6805 25.2435ZM19.3045 3.45602L19.3037 3.44092C19.0415 3.56835 18.767 3.66401 18.4852 3.72616C18.6659 3.77503 18.8631 3.82035 19.1024 3.86033L19.1189 3.86122C19.1758 3.87188 20.0528 4.05582 21.5775 4.97018C21.0767 4.53655 20.5041 4.16512 19.8655 3.9563C19.7286 3.91631 19.4208 3.79724 19.3045 3.45602ZM12.5705 4.54445C12.6926 4.54001 12.9937 4.46536 12.9937 4.46536C13.7635 4.32052 13.9591 3.64697 13.9591 3.64697C13.5589 3.64697 13.2998 3.66386 13.2998 3.66386C12.8518 3.71362 12.6712 4.24322 12.653 4.29209L12.5705 4.54445ZM18.6659 1.91113C18.8458 1.91113 19.3276 1.91646 19.6287 1.91913C19.6485 1.91913 19.4984 2.02043 19.2665 2.13684C18.9407 2.29945 18.4514 2.49138 18.0174 2.48427L17.7402 2.47717C17.5727 2.46917 17.4655 2.45762 17.4679 2.43096C17.4721 2.38653 17.8829 1.91113 18.6659 1.91113ZM11.9327 37.0449V40.9529C11.9327 42.2165 11.6621 42.9834 11.1019 43.5983C10.1242 44.6708 8.24885 45.0582 5.59549 45.0582H0V43.983H5.15079C6.73159 43.983 7.7992 43.7022 8.44357 43.0189C8.93117 42.5035 9.15063 41.7838 9.15063 40.713V37.0449H11.9327ZM22.4273 37.0449L28.9164 45.0582H25.7968L24.4256 43.3521H16.1817L14.8154 45.0582H13.2025L19.6857 37.0449H22.4273ZM23.5939 42.3158L20.2979 38.2114L17.0109 42.3158H23.5939ZM35.6958 37.0449H43.5131V38.1148H36.5621C35.0729 38.1148 34.261 38.3556 33.6431 38.895C33.0928 39.3739 32.8007 40.091 32.8007 41.0507C32.7999 42.0441 33.1084 42.7763 33.6959 43.2562C34.3155 43.7627 35.1513 43.9875 36.5852 43.9875L41.0273 43.9884V41.3786H43.7961V45.0582H35.7445C34.2346 45.0582 33.0457 44.8699 32.1473 44.4824C30.6514 43.8346 29.9675 42.6528 29.9675 41.0365C29.9675 39.5108 30.7125 38.4516 31.6605 37.882C32.6687 37.2768 33.804 37.0449 35.6958 37.0449ZM49.649 40.9254C49.649 41.9659 49.7712 42.5782 50.1267 43.1149C50.729 44.0248 51.7678 44.3527 53.6365 44.3527H53.8725C55.8262 44.3527 56.78 44.0248 57.3814 43.1149C57.7378 42.5764 57.8599 41.9384 57.8599 40.9281V37.0449H60.6428V41.0382C60.6428 42.0717 60.5372 42.8892 60.0513 43.5716C59.2601 44.6841 57.8113 45.323 53.7677 45.323L53.7256 45.3239C49.7043 45.3239 48.2473 44.6833 47.4577 43.5734C46.9718 42.8901 46.8661 42.0717 46.8661 41.0391V37.0458H49.649V40.9254ZM71.0938 37.0449L77.5828 45.0582H74.4625L73.0921 43.3521H64.8482L63.4819 45.0582H61.8689L68.3513 37.0449H71.0938ZM72.2604 42.3158L68.9635 38.2114L65.6773 42.3158H72.2604Z" fill="#000"/></g></svg>