<svg fill="none" height="55" viewBox="0 0 39 55" width="39" xmlns="http://www.w3.org/2000/svg"><path d="m29.824 44.66v10.34m-20.648-10.34v10.34m24.089-18.383c0 1.503-.36 4.56-1.147 5.745-.79 1.184-4.589 4.595-4.589 4.595-1.5421 1.4796-3.5979 2.3033-5.735 2.298h-4.588c-2.1371.0053-4.1929-.8184-5.735-2.298 0 0-3.8-3.41-4.589-4.595s-1.147-4.242-1.147-5.745m33.265-12.637h-39m12.618-16.086v-5.745c-5.449 1.819-9.178 5.695-9.178 11.49v4.595l-2.294 1.149v2.298m25.236-13.787v-5.745c5.449 1.819 9.177 5.695 9.177 11.49v4.595l2.294 1.149v2.298m-21.793-10.341v-10.34h6.882v10.34z" stroke="#494946" stroke-linejoin="round"/><path d="m33.3 26.376h2.21v5.795c-1.59 1.525-2.505 2.313-2.746 2.366-1.705.376-4.206.84-7.502 1.392-.9147.0019-1.8154-.225-2.62-.66l-1.346-.733c-.536-.292-1.185-.808-1.787-.816-.635-.007-1.223.508-1.788.816l-1.345.733c-.8046.4352-1.7053.6621-2.62.66-3.296-.55-5.80301-1.014-7.52001-1.392-.23-.05-1.195-.839-2.897-2.366v-5.814h2.335" stroke="#1476f2"/></svg>