<svg fill="none" height="50" viewBox="0 0 55 50" width="55" xmlns="http://www.w3.org/2000/svg"><path d="m35.8921 17.0001h10.34v-4.571l8.031 9.142-8.031 8v-4.571h-5.745m-25.277 2.286h-5.74303v-4.572l-8.043 9.143 8.043 8v-4.571h13.78703m5.744 0h-3.447m12.639-10.286h-3.447m-13.788 2.286h-3.445m9.19 0h-3.447m-3.447-10.286h4.17c.952 0 1.723-.768 1.723-1.714 0-.947-.77-1.715-1.723-1.715h-1.149c-.4557.0008-.893-.1792-1.2161-.5006-.323-.3213-.5053-.7577-.5069-1.2134.0016-.4556.1839-.892.5069-1.2134.3231-.3213.7604-.5014 1.2161-.5006h3.873m-3.447 6.857v3.429m0-10.286v-3.42899" stroke="#1476f2"/><path clip-rule="evenodd" d="m33.5941 13.5709c0-5.68001-4.663-10.28501-10.415-10.28501s-10.414 4.604-10.414 10.28501c0 5.682 4.662 10.286 10.414 10.286s10.415-4.604 10.415-10.286z" fill-rule="evenodd" stroke="#1476f2"/><path d="m32.71 4.04c.3205-.89116.9085-1.66152 1.6836-2.20569.7751-.54418 1.6994-.835566 2.6464-.83431 2.539 0 4.597 2.047 4.597 4.572 0 2.524-2.058 4.571-4.596 4.571-.3883.0005-.775-.0482-1.151-.145m-3.445 24.145c0-2.525 2.058-4.572 4.596-4.572s4.595 2.047 4.595 4.572c0 2.524-2.057 4.571-4.595 4.571s-4.596-2.047-4.596-4.571zm-10.341 10.286c0-2.525 2.058-4.572 4.596-4.572s4.596 2.047 4.596 4.572c0 2.524-2.058 4.571-4.596 4.571s-4.596-2.047-4.596-4.571z" stroke="#323232"/></svg>