<svg fill="none" height="45" viewBox="0 0 54 45" width="54" xmlns="http://www.w3.org/2000/svg"><g stroke-linejoin="round"><path d="m50.033 19.105c.171-.658.305-1.325.404-2.003.61-4.179-.109-9.92798-4.495-13.46898-4.909-3.963002-14.447-3.986002-18.942 3.652-4.497-7.638002-14.033-7.615002-18.94302-3.652-4.385 3.54-5.104 9.28998-4.494 13.46998.1535 1.0627.39944 2.11.735 3.13m3.752 6.792c3.64802 4.721 8.96702 11.035 18.95002 16.975 5.719-7.638 15.844-12.164 19.783-18.105" stroke="#323232"/><path d="m0 23.632h12.375l3.375 2.263 5.625-15.842 2.25 22.631 5.625-12.447 2.25 4.526 3.375-2.263h19.125" stroke="#1476f2"/></g></svg>