<svg width="42" height="42" viewBox="0 0 42 42" fill="none" xmlns="http://www.w3.org/2000/svg"><path d="M21.1651 0.107147L21.8617 1.59164C21.8881 1.64653 21.9397 1.68495 21.9998 1.69472L23.572 1.93442C23.6397 1.94477 23.696 1.99214 23.7178 2.05713C23.7395 2.12213 23.723 2.19383 23.675 2.24285L22.526 3.42032C22.486 3.46214 22.4676 3.52018 22.4764 3.57748L22.746 5.23079C22.7571 5.29968 22.728 5.3689 22.671 5.40914C22.6141 5.44938 22.539 5.4536 22.4779 5.42007L21.0884 4.65187C21.0333 4.62181 20.9667 4.62181 20.9116 4.65187L19.5229 5.42007C19.4617 5.4536 19.3867 5.44938 19.3297 5.40914C19.2726 5.3689 19.2436 5.29968 19.2547 5.23079L19.5237 3.57748C19.5325 3.52018 19.5141 3.46214 19.474 3.42032L18.325 2.23987C18.2771 2.19085 18.2606 2.11915 18.2823 2.05415C18.304 1.98915 18.3603 1.94171 18.4281 1.93144L20.0003 1.69174C20.0604 1.68206 20.112 1.64355 20.1384 1.58866L20.835 0.104167C20.8653 0.0400805 20.9302 -0.000573472 21.0011 6.11632e-06C21.0718 0.000668503 21.1359 0.0424817 21.1651 0.107147Z" fill="#C3C3C3"/><path d="M21.1652 36.6526L21.8618 38.1371C21.8882 38.192 21.9397 38.2304 21.9999 38.2402L23.572 38.4799C23.6398 38.4902 23.6961 38.5376 23.7178 38.6026C23.7395 38.6676 23.7231 38.7393 23.6751 38.7883L22.5261 39.9658C22.4861 40.0076 22.4677 40.0657 22.4764 40.1229L22.7461 41.7763C22.7572 41.8452 22.7281 41.9144 22.6711 41.9546C22.6141 41.9949 22.5391 41.9991 22.4779 41.9655L21.0892 41.1973C21.0341 41.1673 20.9675 41.1673 20.9124 41.1973L19.5237 41.9655C19.4625 41.9991 19.3875 41.9949 19.3305 41.9546C19.2735 41.9144 19.2444 41.8452 19.2555 41.7763L19.5252 40.1229C19.534 40.0657 19.5156 40.0076 19.4755 39.9658L18.325 38.7853C18.2771 38.7363 18.2606 38.6646 18.2823 38.5996C18.304 38.5346 18.3603 38.4872 18.4281 38.4769L20.0003 38.2372C20.0604 38.2275 20.112 38.189 20.1384 38.1341L20.835 36.6496C20.8653 36.5856 20.9302 36.5449 21.0011 36.5455C21.0719 36.5461 21.136 36.588 21.1652 36.6526Z" fill="#C3C3C3"/><path d="M12.2648 2.57833L12.9599 4.06282C12.9862 4.11788 13.0379 4.15639 13.098 4.16591L14.6702 4.40561C14.738 4.41596 14.7943 4.46332 14.816 4.52832C14.8377 4.59331 14.8212 4.66502 14.7733 4.71403L13.6258 5.89449C13.5851 5.93597 13.5666 5.99434 13.5761 6.05164L13.8458 7.70496C13.8571 7.7741 13.8279 7.84356 13.7706 7.88389C13.7133 7.92421 13.6381 7.92818 13.5768 7.89424L12.1881 7.12603C12.1329 7.09598 12.0664 7.09598 12.0112 7.12603L10.6225 7.89424C10.5613 7.92818 10.486 7.92421 10.4287 7.88389C10.3714 7.84356 10.3423 7.7741 10.3535 7.70496L10.6211 6.04874C10.6305 5.99153 10.6123 5.93332 10.5721 5.89159L9.42387 4.71411C9.37593 4.66502 9.35945 4.59315 9.38139 4.52815C9.40325 4.46307 9.4598 4.41579 9.5277 4.40569L11.0999 4.16599C11.1599 4.15655 11.2114 4.11797 11.2373 4.06291L11.9368 2.57841C11.9675 2.51582 12.0311 2.47607 12.1009 2.47607C12.1705 2.47599 12.2341 2.51565 12.2648 2.57833Z" fill="#C3C3C3"/><path d="M30.5376 34.2274L31.2327 35.7156C31.2589 35.7706 31.3106 35.8091 31.3708 35.8187L32.943 36.0591C33.0108 36.0691 33.0672 36.1164 33.0889 36.1813C33.1107 36.2463 33.0942 36.3179 33.0461 36.3668L31.8986 37.5429C31.8577 37.5839 31.8393 37.6421 31.8489 37.6993L32.1185 39.3526C32.1299 39.4217 32.1007 39.4912 32.0434 39.5315C31.9861 39.5718 31.9108 39.5758 31.8495 39.5419L30.4608 38.7744C30.4059 38.7437 30.3389 38.7437 30.284 38.7744L28.8953 39.5419C28.834 39.5758 28.7588 39.5718 28.7015 39.5315C28.6442 39.4912 28.615 39.4217 28.6263 39.3526L28.896 37.6993C28.9055 37.6423 28.8873 37.5842 28.847 37.5429L27.6973 36.3646C27.6498 36.3155 27.6336 36.2439 27.6555 36.1792C27.6773 36.1144 27.7335 36.0672 27.8011 36.057L29.3733 35.8165C29.4333 35.8071 29.4848 35.7685 29.5107 35.7134L30.2073 34.2289C30.2376 34.1654 30.3016 34.1249 30.3721 34.1245C30.4424 34.1242 30.5067 34.1642 30.5376 34.2274Z" fill="#C3C3C3"/><path d="M5.63116 8.89114L6.32774 10.3756C6.35415 10.4305 6.40574 10.4689 6.46585 10.4787L8.03802 10.7184C8.10575 10.7288 8.16205 10.7761 8.18383 10.8411C8.20561 10.9061 8.18905 10.9778 8.14111 11.0268L6.99211 12.2043C6.95204 12.2461 6.93366 12.3042 6.94243 12.3615L7.21211 14.0148C7.2232 14.0837 7.19406 14.1529 7.13709 14.1931C7.08004 14.2334 7.00511 14.2376 6.94392 14.2041L5.55523 13.4359C5.50009 13.4058 5.43352 13.4058 5.37837 13.4359L3.98968 14.2041C3.92849 14.2376 3.85347 14.2334 3.79651 14.1931C3.73946 14.1529 3.7104 14.0837 3.72149 14.0148L3.99117 12.3615C3.99995 12.3042 3.98156 12.2461 3.94149 12.2043L2.79101 11.0254C2.74389 10.9763 2.728 10.9051 2.74961 10.8406C2.77122 10.7761 2.82694 10.729 2.89409 10.7183L4.46627 10.4786C4.52638 10.4689 4.57796 10.4304 4.60437 10.3756L5.30096 8.89106C5.33076 8.82664 5.39518 8.78549 5.46614 8.78549C5.5371 8.78549 5.60135 8.82681 5.63116 8.89114Z" fill="#C3C3C3"/><path d="M37.281 27.1639L37.9776 28.6484C38.0035 28.7034 38.0549 28.742 38.1151 28.7515L39.6872 28.9912C39.7551 29.0013 39.8116 29.0486 39.8335 29.1137C39.8555 29.1787 39.839 29.2505 39.7911 29.2996L38.6413 30.4771C38.6011 30.5188 38.583 30.577 38.5924 30.6343L38.8621 32.2876C38.8734 32.3567 38.8442 32.4262 38.7869 32.4665C38.7296 32.5068 38.6543 32.5108 38.5931 32.4769L37.2044 31.7086C37.1492 31.6786 37.0826 31.6786 37.0275 31.7086L35.6388 32.4769C35.5775 32.5108 35.5023 32.5068 35.445 32.4665C35.3877 32.4262 35.3585 32.3567 35.3698 32.2876L35.6395 30.6343C35.6489 30.577 35.6304 30.5186 35.5898 30.4771L34.4401 29.2981C34.3929 29.249 34.377 29.1779 34.3987 29.1134C34.4203 29.0489 34.476 29.0018 34.5431 28.9911L36.1153 28.7514C36.1755 28.7419 36.2272 28.7034 36.2534 28.6483L36.95 27.1638C36.9801 27.0995 37.0446 27.0584 37.1155 27.0584C37.1865 27.0584 37.251 27.0997 37.281 27.1639Z" fill="#C3C3C3"/><path d="M2.89245 18.3798L3.58903 19.8643C3.61544 19.9192 3.66703 19.9576 3.72714 19.9674L5.29931 20.2071C5.36704 20.2175 5.42335 20.2648 5.44512 20.3298C5.46681 20.3948 5.45034 20.4665 5.4024 20.5155L4.2534 21.693C4.21333 21.7348 4.19495 21.7929 4.20372 21.8502L4.4734 23.5035C4.48449 23.5724 4.45535 23.6416 4.39838 23.6818C4.34142 23.7221 4.2664 23.7263 4.20521 23.6928L2.81578 22.9246C2.76063 22.8945 2.69406 22.8945 2.63892 22.9246L1.25022 23.6928C1.18904 23.7263 1.11402 23.7221 1.05705 23.6818C1.00001 23.6416 0.970944 23.5724 0.982039 23.5035L1.25105 21.8502C1.25983 21.7929 1.24145 21.7348 1.20137 21.693L0.0521306 20.5126C0.00419032 20.4636 -0.0122866 20.3919 0.00940662 20.3269C0.0310998 20.2619 0.0874027 20.2145 0.155215 20.2042L1.72739 19.9645C1.7875 19.9548 1.83909 19.9163 1.8655 19.8614L2.56208 18.3769C2.59239 18.3128 2.6573 18.2722 2.72817 18.2728C2.79913 18.2734 2.86322 18.3152 2.89245 18.3798Z" fill="#C3C3C3"/><path d="M39.4379 18.3799L40.1345 19.8643C40.1609 19.9192 40.2125 19.9577 40.2726 19.9674L41.8448 20.2071C41.9125 20.2175 41.9688 20.2648 41.9906 20.3298C42.0123 20.3948 41.9958 20.4665 41.9479 20.5156L40.7989 21.693C40.7588 21.7348 40.7404 21.7929 40.7492 21.8502L41.0189 23.5035C41.03 23.5724 41.0008 23.6416 40.9439 23.6818C40.8869 23.7221 40.8119 23.7263 40.7507 23.6928L39.362 22.9246C39.3069 22.8945 39.2403 22.8945 39.1852 22.9246L37.7965 23.6928C37.7353 23.7263 37.6603 23.7221 37.6033 23.6818C37.5462 23.6416 37.5172 23.5724 37.5283 23.5035L37.7979 21.8502C37.8067 21.7929 37.7883 21.7348 37.7483 21.693L36.5978 20.5126C36.5498 20.4636 36.5334 20.3919 36.5551 20.3269C36.5768 20.2619 36.6331 20.2144 36.7009 20.2041L38.273 19.9644C38.3332 19.9548 38.3847 19.9163 38.4112 19.8614L39.1077 18.3769C39.138 18.3128 39.203 18.2721 39.2738 18.2727C39.3446 18.2735 39.4087 18.3152 39.4379 18.3799Z" fill="#C3C3C3"/><path d="M5.95348 27.0126L6.65006 28.4971C6.67631 28.5522 6.72798 28.5907 6.78817 28.6002L8.36035 28.8399C8.42808 28.8503 8.48438 28.8976 8.50616 28.9626C8.52785 29.0276 8.51137 29.0993 8.46343 29.1483L7.31444 30.3266C7.27362 30.3676 7.25516 30.4258 7.26476 30.483L7.53443 32.1363C7.54578 32.2054 7.51655 32.2749 7.45925 32.3152C7.40196 32.3555 7.32669 32.3595 7.26542 32.3256L5.87673 31.5581C5.82175 31.5274 5.75477 31.5274 5.69987 31.5581L4.31118 32.3256C4.24957 32.3595 4.17398 32.3551 4.11677 32.3143C4.05955 32.2735 4.03082 32.2034 4.04291 32.1341L4.31192 30.4807C4.32144 30.4238 4.30323 30.3656 4.26299 30.3243L3.11317 29.1483C3.06523 29.0993 3.04875 29.0276 3.07044 28.9626C3.09213 28.8976 3.14844 28.8502 3.21625 28.8399L4.78843 28.6002C4.84845 28.5908 4.89996 28.5522 4.92587 28.4971L5.62245 27.0126C5.65292 26.9489 5.71734 26.9082 5.78797 26.9082C5.85859 26.9082 5.92301 26.9488 5.95348 27.0126Z" fill="#C3C3C3"/><path d="M37.6026 8.73986L38.2992 10.2244C38.3256 10.2793 38.3772 10.3177 38.4373 10.3274L40.0095 10.5671C40.0772 10.5775 40.1335 10.6249 40.1553 10.6898C40.1771 10.7548 40.1605 10.8265 40.1126 10.8756L38.9636 12.0538C38.9234 12.0953 38.905 12.1531 38.9139 12.2102L39.1836 13.8635C39.1947 13.9324 39.1656 14.0016 39.1085 14.0419C39.0515 14.0821 38.9766 14.0863 38.9154 14.0528L37.5267 13.2853C37.4717 13.2546 37.4047 13.2546 37.3498 13.2853L35.9611 14.0528C35.8994 14.0876 35.8232 14.0837 35.7655 14.0427C35.7077 14.0017 35.6789 13.931 35.6915 13.8613L35.9611 12.208C35.9703 12.1509 35.9519 12.0929 35.9114 12.0516L34.7625 10.8733C34.7145 10.8243 34.698 10.7526 34.7197 10.6876C34.7414 10.6226 34.7977 10.5752 34.8655 10.5649L36.4377 10.3252C36.4979 10.3157 36.5496 10.2772 36.5758 10.2221L37.2724 8.73763C37.303 8.67396 37.3676 8.63363 37.4383 8.63413C37.5088 8.63463 37.5728 8.67578 37.6026 8.73986Z" fill="#C3C3C3"/><path d="M11.9425 33.324L12.6391 34.8085C12.6653 34.8636 12.717 34.9021 12.7772 34.9116L14.3494 35.1513C14.4171 35.1617 14.4734 35.209 14.4952 35.274C14.517 35.339 14.5004 35.4107 14.4525 35.4598L13.3035 36.6372C13.2634 36.679 13.245 36.7371 13.2538 36.7944L13.5235 38.4477C13.5346 38.5166 13.5054 38.5858 13.4485 38.626C13.3914 38.6663 13.3165 38.6705 13.2553 38.637L11.8666 37.8688C11.8114 37.8387 11.7449 37.8387 11.6897 37.8688L10.2995 38.6391C10.2384 38.6727 10.1633 38.6684 10.1064 38.6282C10.0493 38.588 10.0203 38.5187 10.0314 38.4498L10.301 36.7965C10.3098 36.7392 10.2914 36.6812 10.2514 36.6394L9.10236 35.4597C9.05442 35.4107 9.03795 35.3389 9.05964 35.2739C9.08133 35.209 9.13763 35.1615 9.20545 35.1512L10.7776 34.9115C10.8377 34.9019 10.8893 34.8634 10.9157 34.8085L11.6123 33.324C11.6425 33.2601 11.7069 33.2194 11.7775 33.2194C11.848 33.2195 11.9123 33.2602 11.9425 33.324Z" fill="#C3C3C3"/><path d="M30.2154 1.67492L30.9119 3.15941C30.9382 3.21447 30.9899 3.25298 31.0501 3.2625L32.6222 3.5022C32.69 3.51255 32.7463 3.55991 32.768 3.62491C32.7897 3.6899 32.7733 3.76161 32.7253 3.81062L31.5763 4.9881C31.5362 5.02991 31.5179 5.08795 31.5266 5.14525L31.7963 6.79857C31.8074 6.86746 31.7783 6.93668 31.7213 6.97692C31.6642 7.01716 31.5893 7.02138 31.5281 6.98785L30.1365 6.21964C30.0813 6.18959 30.0147 6.18959 29.9596 6.21964L28.5723 6.99074C28.5111 7.02428 28.4361 7.02005 28.3791 6.97981C28.3222 6.93957 28.293 6.87036 28.3041 6.80147L28.5738 5.14815C28.5826 5.09085 28.5642 5.03281 28.5241 4.991L27.3751 3.81054C27.3272 3.76152 27.3107 3.68982 27.3324 3.62482C27.3541 3.55983 27.4104 3.51238 27.4782 3.50212L29.0504 3.26308C29.1105 3.25339 29.1621 3.21489 29.1885 3.15999L29.8851 1.6755C29.9147 1.61108 29.9791 1.56968 30.05 1.56952C30.1208 1.56952 30.1854 1.61059 30.2154 1.67492Z" fill="#C3C3C3"/><path d="M12.229 25.3376H9.30543C8.49807 25.3376 7.84363 24.683 7.84363 23.8758V18.0285C7.84363 17.2211 8.49807 16.5667 9.30543 16.5667H12.229C13.0364 16.5667 13.6909 17.2211 13.6909 18.0285C13.6909 18.4321 13.3636 18.7594 12.9599 18.7594C12.5562 18.7594 12.229 18.4322 12.229 18.0285H9.30535V23.8758H12.229V22.414H11.498C11.0944 22.414 10.7671 22.0867 10.7671 21.683C10.7671 21.2793 11.0943 20.9521 11.498 20.9521H12.9598C13.3635 20.9521 13.6908 21.2793 13.6908 21.683V23.8758C13.6908 24.6831 13.0364 25.3376 12.229 25.3376Z" fill="#7C7C7C"/><path d="M17.3454 25.3366H15.1526C14.749 25.3366 14.4217 25.0094 14.4217 24.6057V17.2966C14.4217 16.8929 14.7489 16.5656 15.1526 16.5656H17.3454C18.96 16.5656 20.269 17.8746 20.269 19.4893V22.4129C20.2691 24.0277 18.9601 25.3366 17.3454 25.3366ZM15.8836 23.8748H17.3454C18.1528 23.8748 18.8072 23.2203 18.8072 22.413V19.4894C18.8072 18.6821 18.1528 18.0276 17.3454 18.0276H15.8836V23.8748Z" fill="#7C7C7C"/><path d="M22.4618 25.3366C22.0581 25.3366 21.7308 25.0094 21.7308 24.6057V17.2966C21.7308 16.8929 22.0581 16.5656 22.4618 16.5656C22.8655 16.5656 23.1927 16.8929 23.1927 17.2966V24.6057C23.1927 25.0094 22.8655 25.3366 22.4618 25.3366Z" fill="#7C7C7C"/><path d="M25.3854 22.413H22.4618C22.0581 22.413 21.7308 22.0858 21.7308 21.6821V17.2966C21.7308 16.8929 22.0581 16.5656 22.4618 16.5656H25.3854C26.5964 16.5656 27.5781 17.5474 27.5781 18.7584V20.2202C27.5781 21.4313 26.5964 22.413 25.3854 22.413ZM23.1926 20.9512H25.3854C25.789 20.9512 26.1163 20.624 26.1163 20.2203V18.7585C26.1163 18.3548 25.7891 18.0275 25.3854 18.0275H23.1926V20.9512Z" fill="#7C7C7C"/><path d="M29.04 25.3366C28.6364 25.3366 28.3091 25.0094 28.3091 24.6057V17.2966C28.3091 16.8929 28.6363 16.5656 29.04 16.5656C29.4438 16.5656 29.771 16.8929 29.771 17.2966V24.6057C29.7709 25.0094 29.4437 25.3366 29.04 25.3366Z" fill="#7C7C7C"/><path d="M31.9636 22.413H29.04C28.6364 22.413 28.3091 22.0858 28.3091 21.6821V17.2966C28.3091 16.8929 28.6363 16.5656 29.04 16.5656H31.9636C33.1746 16.5656 34.1564 17.5474 34.1564 18.7584V20.2202C34.1564 21.4313 33.1746 22.413 31.9636 22.413ZM29.7709 20.9512H31.9636C32.3673 20.9512 32.6946 20.624 32.6946 20.2203V18.7585C32.6946 18.3548 32.3674 18.0275 31.9636 18.0275H29.7709V20.9512Z" fill="#7C7C7C"/><path d="M33.4254 25.3366C33.0217 25.3366 32.6944 25.0094 32.6944 24.6057V23.1439C32.6944 22.7402 32.3672 22.4129 31.9635 22.4129H29.7707C29.3671 22.4129 29.0398 22.0857 29.0398 21.682C29.0398 21.2783 29.367 20.951 29.7707 20.951H31.9635C33.1745 20.951 34.1562 21.9328 34.1562 23.1438V24.6056C34.1563 25.0094 33.8291 25.3366 33.4254 25.3366Z" fill="#7C7C7C"/></svg>