<svg fill="none" height="56" viewBox="0 0 49 56" width="49" xmlns="http://www.w3.org/2000/svg"><g stroke-width=".771429"><path clip-rule="evenodd" d="m24.4978 1c-2.2827 3.08004-17.51737 9.394-23.4978 9.394v22.3106c0 10.4895 22.1791 21.9643 23.4849 22.2954 1.3046-.3311 23.4849-12.6079 23.4849-21.1211v-23.4849c-6.5241 0-21.1881-6.31396-23.472-9.394z" fill-rule="evenodd" stroke="#505050"/><g stroke="#3f7fe7"><path clip-rule="evenodd" d="m37.4016 38.5604h-25.8334c-.6482 0-1.1742-.5261-1.1742-1.1743v-16.4394c0-.6482.526-1.1742 1.1742-1.1742h25.8334c.6493 0 1.1742.526 1.1742 1.1742v16.4394c0 .6482-.5249 1.1743-1.1742 1.1743z" fill-rule="evenodd"/><path d="m20.9622 19.7724v-3.5227c0-.6482.526-1.1743 1.1742-1.1743h4.697c.6493 0 1.1742.5261 1.1742 1.1743v3.5227"/><path d="m22.1364 29.1664v2.3485c0 .6482.5261 1.1742 1.1743 1.1742h2.3484c.6494 0 1.1743-.526 1.1743-1.1742v-2.3485"/><path d="m38.5758 26.8179c0 1.2964-6.3092 2.3485-14.0909 2.3485s-14.0909-1.0521-14.0909-2.3485"/></g></g></svg>