<svg fill="none" height="56" viewBox="0 0 40 56" width="40" xmlns="http://www.w3.org/2000/svg"><path d="m17.625 51.478h4.75m13.063 3.522h-30.877c-1.966 0-3.561-1.577-3.561-3.522v-46.956c0-1.945 1.595-3.522 3.563-3.522h30.875c1.966 0 3.562 1.577 3.562 3.522v46.956c0 1.945-1.595 3.522-3.563 3.522zm-16.625-50.478h5.937zm-4.75 0h2.374zm-13.063 43.435h38zm0-39.914h38z" stroke="#323232"/><g stroke="#1476f2"><path d="m12.875 19.783h19.779c.796 0 1.366.758 1.138 1.51l-2.85 9.392c-.075.243-.2261.4555-.4309.6062-.2049.1507-.4528.2316-.7071.2308h-15.742"/><path d="m29.5 36.217h-13.063c-.55 0-1.03-.652-1.187-1.174l-5.93799-17.608h-4.75m9.50099 22.305h2.374m10.688 0h2.375"/></g></svg>