<svg fill="none" height="56" viewBox="0 0 54 56" width="54" xmlns="http://www.w3.org/2000/svg" xmlns:xlink="http://www.w3.org/1999/xlink"><clipPath id="a"><path d="m0 0h54v56h-54z"/></clipPath><g clip-path="url(#a)"><path d="m7.043 55v-2.935c0-.972.79-1.76 1.761-1.76h8.805c.3084.0001.6138-.0605.8987-.1784.2849-.118.5438-.2909.7619-.509.218-.2181.391-.477.5089-.7619.118-.2849.1786-.5903.1785-.8987v-.587c-.0001-.2312.0453-.4602.1337-.6738.0884-.2137.218-.4078.3814-.5713.1635-.1636.3575-.2933.5711-.3818s.4426-.1341.6738-.1341h.587c.3084.0001.6138-.0605.8987-.1784.2849-.118.5438-.2909.7619-.509.218-.2181.391-.477.5089-.7619.118-.2849.1786-.5903.1785-.8987v-1.174c.0001-.3084-.0605-.6137-.1785-.8987-.1179-.2849-.2909-.5438-.5089-.7619-.2181-.218-.477-.391-.7619-.5089-.2849-.118-.5903-.1786-.8987-.1785h-7.043c-.972 0-1.761.789-1.761 1.761 0 .4668-.1854.9145-.5155 1.2445-.3301.3301-.7777.5155-1.2445.5155h-8.219m24.653 11.74v-3.522c-.0001-.3084.0605-.6137.1785-.8987.1179-.2849.2909-.5438.5089-.7619.2181-.218.477-.391.7619-.5089.2849-.118.5903-.1786.8987-.1785h8.217c.6226 0 1.2197-.2473 1.6599-.6876.4403-.4402.6876-1.0373.6876-1.6599s-.2473-1.2197-.6876-1.6599c-.4402-.4403-1.0373-.6876-1.6599-.6876h-1.174c-.6227 0-1.22-.2474-1.6603-.6877s-.6877-1.0376-.6877-1.6603.2474-1.2199.6877-1.6603c.4403-.4403 1.0376-.6877 1.6603-.6877h10.565" stroke="#323232" stroke-linejoin="round"/><path clip-rule="evenodd" d="m1.17401 55c0-14.263 11.56299-25.826 25.82599-25.826s25.826 11.563 25.826 25.826z" fill-rule="evenodd" stroke="#323232"/><path clip-rule="evenodd" d="m30.522 8.043.03-1.173-4.727-5.87h-3.522l2.348 5.87v1.173zm14.087 4.697c.0003-.3085-.0603-.614-.1782-.899-.1179-.2851-.2908-.5441-.5089-.7622-.218-.2182-.477-.3912-.762-.5092-.285-.1181-.5904-.1787-.8989-.1786h-26.342c-.128 0-4.18-3.521-4.18-3.521h-2.34801l1.12301 4.714c-.65801.347-1.12301.695-1.12301 1.314 0 1.858 4.16401 2.189 5.35501 2.189h9.906v2.348l-3.522 7.043h3.522l5.87-5.87 2.267-3.521h9.472c.3084.0001.6138-.0605.8987-.1785.2849-.1179.5438-.2909.7619-.5089.218-.2181.391-.477.5089-.7619.118-.2849.1786-.5903.1785-.8987z" fill-rule="evenodd" stroke="#1476f2"/><path d="m0 31.774c4.98249-5.5209 11.5382-9.3811 18.783-11.06m15.26-.251c7.5857 1.4948 14.4971 5.3695 19.73 11.061" stroke="#323232"/></g></svg>