<svg height="91" viewBox="0 0 91 91" width="91" xmlns="http://www.w3.org/2000/svg"><g fill="none" fill-rule="evenodd"><path d="m81.91 91v-28zm-8.091-48c4.713 0 8.09-2.94 8.09-7.2v-3.6c0-4.26-3.375-7.2-8.09-7.2-4.716 0-8.092 2.94-8.092 7.2v3.6c0 4.26 3.375 7.2 8.092 7.2zm-64.729 48v-28zm8.09-48c-4.713 0-8.09-2.94-8.09-7.2v-3.6c0-4.26 3.375-7.2 8.09-7.2 4.716 0 8.092 2.94 8.092 7.2v3.6c0 4.26-3.375 7.2-8.092 7.2zm10.114-24c-4.715 0-8.09-2.94-8.09-7.2v-3.6c0-4.26 3.375-7.2 8.09-7.2 4.716 0 8.09 2.94 8.09 7.2v3.6c0 4.26-3.374 7.2-8.09 7.2zm36.41 0c-4.716 0-8.09-2.94-8.09-7.2v-3.6c0-4.26 3.374-7.2 8.09-7.2 4.715 0 8.09 2.94 8.09 7.2v3.6c0 4.26-3.375 7.2-8.09 7.2zm18.206 64c3.934 0 8.09-2.11 8.09-6v-18c0-6.607-11.88-10-18.203-10-.626 0-1.308.033-2.024.1m-60.683 33.9c-3.933 0-8.09-2.11-8.09-6v-18c0-6.607 11.88-10 18.203-10 .626 0 1.308.033 2.024.1" stroke="#323232"/><path d="m45.5 37c-4.715 0-8.09-2.94-8.09-7.2v-3.6c0-4.26 3.375-7.2 8.09-7.2s8.09 2.94 8.09 7.2v3.6c0 4.26-3.375 7.2-8.09 7.2zm12.136 54v-34zm0-12c4.371 0 8.09-4.11 8.09-8v-18c0-6.607-13.198-10-20.226-10s-20.227 3.393-20.227 10v18c0 3.89 3.72 8 8.091 8m0-22v34" stroke="#1476f2"/></g></svg>