<svg height="96" viewBox="0 0 90 96" width="90" xmlns="http://www.w3.org/2000/svg"><g fill="none" fill-rule="evenodd"><path d="m45 0v18.19zm-22.5 5.957 9.205 15.756zm-16.472 16.277 15.944 9.095zm-6.028 22.235h18.41zm6.028 22.233 15.944-9.095zm77.944 0-15.944-9.095zm6.028-22.232h-18.41zm-6.028-22.235-15.944 9.095zm-16.472-16.278-9.205 15.756z" stroke="#323232"/><path d="m32.726 76.81h24.548m-24.548 8.083h24.548m-24.548-40.423c0-6.7 5.496-12.129 12.274-12.129" stroke="#1476f2"/><path d="m38.864 50.531 6.136 6.064 6.136-6.064m-6.136 6.064v14.15" stroke="#323232"/><path d="m53.181 92.979h-2.045l-2.046 2.021h-8.182l-2.047-2.021h-2.041m18.407-22.234v-2.023c0-3.649 1.285-7.014 3.851-9.602 3.865-3.895 6.378-8.714 6.378-14.651 0-11.164-9.16-20.214-20.455-20.214-11.298 0-20.453 9.05-20.453 20.214 0 5.937 2.513 10.756 6.376 14.65 2.566 2.587 3.85 5.954 3.85 9.605v2.021" stroke="#1476f2"/></g></svg>