<svg width="100" height="100" viewBox="0 0 100 100" fill="none" xmlns="http://www.w3.org/2000/svg"><circle cx="50" cy="50" r="50" fill="#fff"/><path d="M58.2012 76.6667V79.4444C58.2012 82.2059 55.9627 84.4444 53.2012 84.4444H27.2224C24.461 84.4444 22.2224 82.2059 22.2224 79.4444V22.7778C22.2224 20.0164 24.461 17.7778 27.2224 17.7778H53.2013C55.9627 17.7778 58.2012 20.0164 58.2012 22.7778V33.8889M58.2012 70.5556V62.7778" stroke="url(#paint0_linear)" stroke-width="2"/><circle cx="66.72" cy="48.466" r="14.257" fill="#fff" stroke="#17CA8E"/><circle cx="66.719" cy="48.466" r="7.966" fill="#fff" stroke="#17CA8E"/><circle cx="66.719" cy="48.466" r="3.733" fill="#fff" stroke="#17CA8E"/><path d="M66.6667 64.3386V73.8624H40.2117V56.9312" stroke="#17CA8E" stroke-miterlimit="10" stroke-linejoin="round"/><circle cx="40.212" cy="45.291" r="7.966" fill="#fff" stroke="#17CA8E"/><path d="M38.5951 42.4913L43.4443 45.291L38.5951 48.0907L38.5951 42.4913Z" fill="#fff" stroke="#17CA8E"/><defs><linearGradient id="paint0_linear" x1="40.212" y1="17.778" x2="40.212" y2="84.445" gradientUnits="userSpaceOnUse"><stop stop-color="#2A82F2"/><stop offset="1" stop-color="#8BC0FF"/></linearGradient></defs></svg>