<svg width="100" height="102" viewBox="0 0 100 102" fill="none" xmlns="http://www.w3.org/2000/svg"><ellipse cx="50" cy="51.466" rx="50" ry="50.534" fill="#fff"/><rect x="38.058" y="37.867" width="27.197" height="27.197" stroke="url(#paint0_linear)" stroke-width="2"/><path d="M53.0079 51.8872H48.8669V46.711H53.0079C54.1467 46.711 55.0784 47.6427 55.0784 48.7815V49.8167C55.0784 50.9555 54.1467 51.8872 53.0079 51.8872Z" stroke="#17CA8E" stroke-miterlimit="10" stroke-linejoin="round"/><path d="M53.0079 57.0635H48.8669V51.8872H53.0079C54.1467 51.8872 55.0784 52.819 55.0784 53.9577V54.993C55.0784 56.1317 54.1467 57.0635 53.0079 57.0635Z" stroke="#17CA8E" stroke-miterlimit="10" stroke-linejoin="round"/><path d="M45.7612 57.0634H48.867" stroke="#17CA8E" stroke-miterlimit="10" stroke-linejoin="round"/><path d="M45.7612 46.711H48.867" stroke="#17CA8E" stroke-miterlimit="10" stroke-linejoin="round"/><path d="M48.8669 43.6053V46.711" stroke="#17CA8E" stroke-miterlimit="10" stroke-linejoin="round"/><path d="M48.8669 57.0634V60.1692" stroke="#17CA8E" stroke-miterlimit="10" stroke-linejoin="round"/><path d="M51.9729 57.0634V60.1692" stroke="#17CA8E" stroke-miterlimit="10" stroke-linejoin="round"/><path d="M51.9729 43.6053V46.711" stroke="#17CA8E" stroke-miterlimit="10" stroke-linejoin="round"/><path d="M41.5502 17.7768V33.4985M41.5502 69.4337V85.1554M51.657 17.7768V33.4985M51.657 69.4337V85.1554M61.7638 17.7768V33.4985M61.7638 69.4337V85.1554M84.2234 42.4823H68.5017M32.5664 42.4823H16.8447M84.2234 52.5891H68.5017M32.5664 52.5891H16.8447M84.2234 62.6959H68.5017M32.5664 62.6959H16.8447" stroke="url(#paint1_linear)" stroke-width="2"/><defs><linearGradient id="paint0_linear" x1="25.829" y1="43.605" x2="69.063" y2="78.418" gradientUnits="userSpaceOnUse"><stop stop-color="#2A82F2"/><stop offset="1" stop-color="#8BC0FF"/></linearGradient><linearGradient id="paint1_linear" x1="8.422" y1="13.285" x2="94.892" y2="94.139" gradientUnits="userSpaceOnUse"><stop stop-color="#2A82F2"/><stop offset="1" stop-color="#8BC0FF"/></linearGradient></defs></svg>