<svg width="100" height="100" viewBox="0 0 100 100" fill="none" xmlns="http://www.w3.org/2000/svg"><circle cx="50" cy="50" r="50" fill="#fff"/><path d="M61.8406 38.1594V20.202H37.7104V38.1594H19.1919V62.2896H37.7104V80.8081H61.8406V62.2896H79.798V38.1594H61.8406Z" stroke="url(#paint0_linear)" stroke-width="2"/><path d="M43.1921 49.599V61.8248" stroke="#17CA8E" stroke-miterlimit="10" stroke-linejoin="round"/><path d="M49.918 42.2665V53.2394L47.6245 55.787V68.2594" stroke="#17CA8E" stroke-miterlimit="10" stroke-linejoin="round"/><path d="M50.0589 41.2969C51.4212 41.2969 52.5255 40.1925 52.5255 38.8303C52.5255 37.468 51.4212 36.3636 50.0589 36.3636C48.6966 36.3636 47.5923 37.468 47.5923 38.8303C47.5923 40.1925 48.6966 41.2969 50.0589 41.2969Z" fill="#fff" stroke="#17CA8E" stroke-miterlimit="10" stroke-linejoin="round"/><path d="M43.1919 49.5988C44.5861 49.5988 45.6586 48.5264 45.6586 47.1322C45.6586 45.7381 44.5861 44.6656 43.1919 44.6656C41.7978 44.6656 40.7253 45.7381 40.7253 47.1322C40.7253 48.5264 41.7978 49.5988 43.1919 49.5988Z" fill="#fff" stroke="#17CA8E" stroke-miterlimit="10" stroke-linejoin="round"/><path d="M58.5732 51.4405L52.4573 57.4545V65.2014" stroke="#17CA8E" stroke-miterlimit="10" stroke-linejoin="round"/><path d="M60.6414 51.9998C62.0037 51.9998 63.108 50.8955 63.108 49.5332C63.108 48.1709 62.0037 47.0666 60.6414 47.0666C59.2791 47.0666 58.1748 48.1709 58.1748 49.5332C58.1748 50.8955 59.2791 51.9998 60.6414 51.9998Z" fill="#fff" stroke="#17CA8E" stroke-miterlimit="10" stroke-linejoin="round"/><path d="M43.1921 66.6507V68.2593" stroke="#17CA8E" stroke-miterlimit="10" stroke-linejoin="round"/><path d="M43.1921 63.4336V65.0422" stroke="#17CA8E" stroke-miterlimit="10" stroke-linejoin="round"/><path d="M52.5979 66.6507V68.2593" stroke="#17CA8E" stroke-miterlimit="10" stroke-linejoin="round"/><defs><linearGradient id="paint0_linear" x1="49.495" y1="20.202" x2="49.495" y2="80.808" gradientUnits="userSpaceOnUse"><stop stop-color="#2A82F2"/><stop offset="1" stop-color="#8BC0FF"/></linearGradient></defs></svg>