<svg width="100" height="100" viewBox="0 0 100 100" fill="none" xmlns="http://www.w3.org/2000/svg"><circle cx="50" cy="50" r="50" fill="#fff"/><mask id="path-2-inside-1" fill="#fff"><path d="M70.1272 63.867H77.0077C77.8861 63.867 78.3253 62.9822 78.0325 62.2448C77.4469 61.2125 77.0077 60.1802 77.1541 59.8853C77.3005 59.4428 78.0325 59.2954 79.7892 58.2631C81.546 57.2308 81.3996 55.756 80.6676 54.7237C79.9356 53.6914 75.251 47.4976 75.1046 45.5805C74.9582 44.4007 76.4222 41.3038 75.3974 36.4372C74.3726 31.7181 68.6632 16.2335 48.1679 16.6759C27.6726 17.1184 18.8889 31.1282 18.8889 41.1563C18.8889 51.1844 23.8663 56.051 25.4767 60.7701C27.6726 67.2589 28.8438 74.6325 24.8911 83.0384"/></mask><path d="M78.0325 62.2448L79.8913 61.5067L79.8403 61.3782L79.7721 61.258L78.0325 62.2448ZM77.1541 59.8853L78.9456 60.7745L79.0085 60.6478L79.0529 60.5136L77.1541 59.8853ZM75.1046 45.5805L77.0988 45.4282L77.0952 45.3811L77.0894 45.3342L75.1046 45.5805ZM75.3974 36.4372L77.3545 36.0251L77.3518 36.0128L75.3974 36.4372ZM25.4767 60.7701L27.3712 60.129L27.3695 60.1242L25.4767 60.7701ZM70.1272 65.867H77.0077V61.867H70.1272V65.867ZM77.0077 65.867C78.1942 65.867 79.1636 65.2363 79.6864 64.3409C80.1823 63.4918 80.2626 62.4417 79.8913 61.5067L76.1737 62.9829C76.0952 62.7853 76.1023 62.5463 76.2322 62.3239C76.3014 62.2054 76.4105 62.0849 76.5633 61.9947C76.7212 61.9016 76.8818 61.867 77.0077 61.867V65.867ZM79.7721 61.258C79.5074 60.7913 79.3006 60.3669 79.1831 60.0644C79.1221 59.9072 79.1089 59.8433 79.1112 59.8549C79.1124 59.8615 79.1274 59.9368 79.1256 60.0583C79.1241 60.1628 79.1095 60.4443 78.9456 60.7745L75.3627 58.9961C75.0078 59.711 75.1463 60.4189 75.1834 60.6115C75.2451 60.9319 75.3509 61.2459 75.4545 61.5127C75.6664 62.0582 75.9721 62.666 76.2929 63.2316L79.7721 61.258ZM79.0529 60.5136C78.9281 60.8907 78.6978 61.0985 78.6205 61.1596C78.5778 61.1933 78.5907 61.1749 78.7983 61.0658C79.1488 60.8815 79.8701 60.5353 80.8025 59.9874L78.776 56.5387C77.9517 57.0231 77.4286 57.2668 76.9373 57.525C76.7241 57.6371 76.4167 57.803 76.1407 58.021C75.83 58.2665 75.4534 58.6586 75.2554 59.257L79.0529 60.5136ZM80.8025 59.9874C82.0829 59.235 82.9432 58.1355 83.1407 56.7823C83.3272 55.505 82.8676 54.3686 82.2991 53.5669L79.0361 55.8806C79.1996 56.1111 79.1792 56.2283 79.1827 56.2045C79.1855 56.1852 79.1926 56.1899 79.1634 56.2293C79.129 56.2757 79.0267 56.3914 78.776 56.5387L80.8025 59.9874ZM82.2991 53.5669C81.8857 52.9839 80.5928 51.2636 79.3295 49.3728C78.703 48.4352 78.1188 47.5064 77.6896 46.7172C77.4747 46.322 77.3148 45.9912 77.2097 45.7315C77.0921 45.4406 77.0936 45.3603 77.0988 45.4282L73.1104 45.7328C73.1522 46.28 73.3322 46.8126 73.5016 47.2314C73.6836 47.6814 73.9194 48.157 74.1757 48.6283C74.6889 49.5719 75.3491 50.6155 76.0036 51.595C77.3021 53.5385 78.7176 55.4313 79.0361 55.8806L82.2991 53.5669ZM77.0894 45.3342C77.0987 45.409 77.0826 45.3199 77.1979 44.7101C77.2897 44.2243 77.442 43.4987 77.5601 42.6755C77.8034 40.9804 77.9272 38.745 77.3545 36.0251L73.4403 36.8493C73.8923 38.996 73.7966 40.7423 73.6007 42.1073C73.4992 42.8141 73.377 43.3881 73.2675 43.9669C73.1815 44.4216 73.0373 45.162 73.1198 45.8268L77.0894 45.3342ZM77.3518 36.0128C76.7881 33.4167 74.979 27.9996 70.5453 23.2554C66.0476 18.4427 58.953 14.4427 48.1248 14.6764L48.2111 18.6755C57.8782 18.4668 63.8859 21.9879 67.6229 25.9866C71.424 30.0539 72.9819 34.7386 73.4429 36.8616L77.3518 36.0128ZM48.1248 14.6764C26.5614 15.1419 16.8889 30.0211 16.8889 41.1563H20.8889C20.8889 32.2353 28.7838 19.0948 48.2111 18.6755L48.1248 14.6764ZM16.8889 41.1563C16.8889 46.5365 18.2329 50.5536 19.7706 53.8084C20.5246 55.4045 21.3385 56.8416 22.0103 58.0791C22.703 59.3548 23.2414 60.4123 23.5839 61.416L27.3695 60.1242C26.9068 58.7683 26.2191 57.4478 25.5256 56.1705C24.8113 54.8548 24.0789 53.5637 23.3873 52.0998C22.0337 49.2345 20.8889 45.8042 20.8889 41.1563H16.8889ZM23.5822 61.4112C25.6894 67.6378 26.7295 74.4288 23.0812 82.1873L26.701 83.8894C30.9581 74.8361 29.6558 66.8799 27.3711 60.129L23.5822 61.4112Z" fill="url(#paint0_linear)" mask="url(#path-2-inside-1)"/><path d="M56.9517 83.3333C57.83 79.499 59.5868 76.1072 61.1971 75.5173L56.9517 83.3333Z" fill="#fff"/><path d="M56.9517 83.3333C57.83 79.499 59.5868 76.1072 61.1971 75.5173" stroke="url(#paint1_linear)" stroke-width="2"/><mask id="path-6-inside-2" fill="#fff"><path d="M54.0234 66.8164C55.341 70.6507 56.3658 74.19 57.6833 74.485C59.5864 75.0749 67.4918 77.287 70.4197 76.2547C73.3476 75.0749 72.762 72.4204 72.762 71.683C72.9084 69.7659 74.8115 69.4709 74.5187 66.8164"/></mask><path d="M57.6833 74.485L58.2754 72.5746L58.1987 72.5508L58.1202 72.5333L57.6833 74.485ZM70.4197 76.2547L71.0847 78.1409L71.1263 78.1262L71.1672 78.1097L70.4197 76.2547ZM72.762 71.683L70.7678 71.5307L70.762 71.6068V71.683H72.762ZM52.132 67.4664C52.7645 69.307 53.3891 71.2684 54.0081 72.7493C54.3195 73.4944 54.6769 74.2379 55.1001 74.8452C55.4815 75.3923 56.1641 76.1944 57.2464 76.4367L58.1202 72.5333C58.5437 72.6281 58.6042 72.8771 58.3817 72.5579C58.2011 72.2988 57.9728 71.8625 57.6987 71.2067C57.1465 69.8855 56.5999 68.1601 55.9149 66.1665L52.132 67.4664ZM57.0912 76.3953C58.0885 76.7044 60.6148 77.4262 63.2884 77.9419C64.6241 78.1996 66.0395 78.4143 67.3415 78.493C68.5854 78.5681 69.9607 78.5372 71.0847 78.1409L69.7547 74.3685C69.4147 74.4883 68.7039 74.568 67.5826 74.5002C66.5194 74.436 65.2906 74.2544 64.046 74.0143C61.5592 73.5346 59.1813 72.8554 58.2754 72.5746L57.0912 76.3953ZM71.1672 78.1097C73.2736 77.2609 74.2719 75.7575 74.6322 74.2754C74.9256 73.0683 74.762 71.594 74.762 71.683H70.762C70.762 71.8645 70.7789 72.0768 70.7864 72.1839C70.7965 72.3265 70.805 72.4559 70.8084 72.5918C70.8151 72.8648 70.7987 73.1114 70.7454 73.3305C70.6948 73.5386 70.6138 73.7114 70.4873 73.8625C70.3633 74.0106 70.1323 74.2142 69.6722 74.3996L71.1672 78.1097ZM74.7562 71.8353C74.7767 71.5661 74.823 71.5484 75.4365 70.6831C75.7124 70.2941 76.0603 69.756 76.2911 69.0433C76.5264 68.3165 76.6077 67.513 76.5067 66.5972L72.5308 67.0357C72.5762 67.4471 72.5294 67.6759 72.4856 67.811C72.4374 67.96 72.3552 68.1132 72.1736 68.3694C71.8722 68.7944 70.8937 69.8827 70.7678 71.5307L74.7562 71.8353Z" fill="url(#paint2_linear)" mask="url(#path-6-inside-2)"/><path d="M37.4202 34.3726C37.4202 36.5433 35.6743 38.2968 33.5283 38.2968C31.3824 38.2968 29.6365 36.5433 29.6365 34.3726C29.6365 32.2019 31.3824 30.4485 33.5283 30.4485C35.6743 30.4485 37.4202 32.2019 37.4202 34.3726Z" fill="#fff" stroke="#17CA8E"/><path d="M66.6992 34.3726C66.6992 36.5433 64.9533 38.2968 62.8074 38.2968C60.6614 38.2968 58.9155 36.5433 58.9155 34.3726C58.9155 32.2019 60.6614 30.4485 62.8074 30.4485C64.9533 30.4485 66.6992 32.2019 66.6992 34.3726Z" fill="#fff" stroke="#17CA8E"/><path d="M52.0598 26.999C52.0598 29.1697 50.3139 30.9232 48.168 30.9232C46.022 30.9232 44.2761 29.1697 44.2761 26.999C44.2761 24.8283 46.022 23.0748 48.168 23.0748C50.3139 23.0748 52.0598 24.8283 52.0598 26.999Z" fill="#fff" stroke="#17CA8E"/><path d="M48.168 31.4232V74.1901" stroke="#17CA8E" stroke-linecap="round" stroke-linejoin="round"/><path d="M59.8792 37.3221L54.0234 43.2209V52.0693" stroke="#17CA8E" stroke-linecap="round" stroke-linejoin="round"/><path d="M36.4565 37.3221L42.3123 43.2209V52.0693" stroke="#17CA8E" stroke-linecap="round" stroke-linejoin="round"/><path d="M35.9563 49.1198C35.9563 51.2905 34.2104 53.044 32.0645 53.044C29.9185 53.044 28.1726 51.2905 28.1726 49.1198C28.1726 46.9491 29.9185 45.1956 32.0645 45.1956C34.2104 45.1956 35.9563 46.9491 35.9563 49.1198Z" fill="#fff" stroke="#17CA8E"/><path d="M34.9924 52.0692L40.8482 57.9681V83.0384" stroke="#17CA8E" stroke-linecap="round" stroke-linejoin="round"/><path d="M68.1633 49.1198C68.1633 51.2905 66.4175 53.044 64.2715 53.044C62.1255 53.044 60.3796 51.2905 60.3796 49.1198C60.3796 46.9491 62.1255 45.1956 64.2715 45.1956C66.4175 45.1956 68.1633 46.9491 68.1633 49.1198Z" fill="#fff" stroke="#17CA8E"/><path d="M61.3432 52.0692L54.0234 59.4428V62.3923" stroke="#17CA8E" stroke-linecap="round" stroke-linejoin="round"/><defs><linearGradient id="paint0_linear" x1="50.036" y1="16.667" x2="50.036" y2="83.038" gradientUnits="userSpaceOnUse"><stop stop-color="#2A82F2"/><stop offset="1" stop-color="#8BC0FF"/></linearGradient><linearGradient id="paint1_linear" x1="59.074" y1="75.517" x2="59.074" y2="83.333" gradientUnits="userSpaceOnUse"><stop stop-color="#2A82F2"/><stop offset="1" stop-color="#8BC0FF"/></linearGradient><linearGradient id="paint2_linear" x1="64.286" y1="66.816" x2="64.286" y2="76.525" gradientUnits="userSpaceOnUse"><stop stop-color="#2A82F2"/><stop offset="1" stop-color="#8BC0FF"/></linearGradient></defs></svg>