<svg width="99" height="99" viewBox="0 0 99 99" fill="none" xmlns="http://www.w3.org/2000/svg"><circle cx="49.5" cy="49.5" r="49.5" fill="#fff"/><path d="M68.4751 35.475C68.6126 23.375 60.6376 17.6 49.2251 17.6C37.8126 17.6 29.8376 23.375 29.9751 35.475" stroke="url(#paint0_linear)" stroke-width="2"/><path d="M72.1876 58.3L58.3001 61.6C56.7876 61.6 55.4126 61.1875 54.1751 60.5L52.1126 59.2625C50.3251 58.1625 48.2626 58.1625 46.4751 59.2625L44.4126 60.5C43.1751 61.1875 41.6626 61.6 40.2876 61.6L26.2626 58.3C24.3376 57.75 23.1001 56.1 23.1001 54.175V39.6C23.1001 37.2625 24.8876 35.475 27.2251 35.475H71.2251C73.5626 35.475 75.3501 37.2625 75.3501 39.6V54.175C75.3501 56.1 74.1126 57.75 72.1876 58.3Z" fill="#fff" stroke="#17CA8E" stroke-miterlimit="10" stroke-linejoin="round"/><mask id="path-4-inside-1" fill="#fff"><path d="M67.1001 62.975V64.35C67.1001 67.925 65.5876 69.85 62.8376 72.1875C60.9126 73.8375 58.5751 75.625 56.5126 77.1375C52.1126 80.3 46.2001 80.3 41.8001 77.1375C39.7376 75.625 37.4001 73.975 35.4751 72.1875C32.8626 69.85 31.3501 67.925 31.3501 64.35V62.975"/></mask><path d="M62.8376 72.1875L61.5423 70.6636L61.536 70.669L62.8376 72.1875ZM56.5126 77.1375L57.6799 78.7615L57.6876 78.7559L57.6953 78.7503L56.5126 77.1375ZM41.8001 77.1375L40.6174 78.7503L40.6251 78.7559L40.6328 78.7615L41.8001 77.1375ZM35.4751 72.1875L36.836 70.7219L36.8225 70.7093L36.8087 70.697L35.4751 72.1875ZM65.1001 62.975V64.35H69.1001V62.975H65.1001ZM65.1001 64.35C65.1001 65.8242 64.7966 66.8391 64.2787 67.7145C63.7301 68.642 62.8713 69.534 61.5423 70.6636L64.1329 73.7114C65.5539 72.5035 66.8264 71.2642 67.7215 69.7511C68.6473 68.1859 69.1001 66.4508 69.1001 64.35H65.1001ZM61.536 70.669C59.6665 72.2714 57.375 74.0249 55.3299 75.5247L57.6953 78.7503C59.7752 77.225 62.1587 75.4035 64.1392 73.706L61.536 70.669ZM55.3453 75.5134C51.6428 78.1747 46.6699 78.1747 42.9674 75.5134L40.6328 78.7615C45.7303 82.4253 52.5824 82.4253 57.6799 78.7615L55.3453 75.5134ZM42.9828 75.5247C40.8685 73.9741 38.6536 72.4096 36.836 70.7219L34.1142 73.6531C36.1466 75.5403 38.6067 77.2758 40.6174 78.7503L42.9828 75.5247ZM36.8087 70.697C35.541 69.5627 34.7056 68.669 34.1649 67.7326C33.6538 66.8475 33.3501 65.8241 33.3501 64.35H29.3501C29.3501 66.4508 29.8027 68.1774 30.7009 69.7329C31.5696 71.2372 32.7967 72.4747 34.1415 73.678L36.8087 70.697ZM33.3501 64.35V62.975H29.3501V64.35H33.3501Z" fill="url(#paint1_linear)" mask="url(#path-4-inside-1)"/><path d="M35.4751 72.6V82.225" stroke="url(#paint2_linear)" stroke-width="2"/><path d="M62.9751 72.6V82.225" stroke="url(#paint3_linear)" stroke-width="2"/><path d="M45.1001 39.6H53.3501" stroke="#17CA8E" stroke-miterlimit="10" stroke-linejoin="round"/><path d="M27.2251 39.6V51.975" stroke="#17CA8E" stroke-miterlimit="10" stroke-linejoin="round"/><path d="M71.2251 39.6V51.975" stroke="#17CA8E" stroke-miterlimit="10" stroke-linejoin="round"/><defs><linearGradient id="paint0_linear" x1="49.225" y1="17.6" x2="49.225" y2="35.475" gradientUnits="userSpaceOnUse"><stop stop-color="#2A82F2"/><stop offset="1" stop-color="#8BC0FF"/></linearGradient><linearGradient id="paint1_linear" x1="49.225" y1="62.975" x2="49.225" y2="79.509" gradientUnits="userSpaceOnUse"><stop stop-color="#2A82F2"/><stop offset="1" stop-color="#8BC0FF"/></linearGradient><linearGradient id="paint2_linear" x1="35.975" y1="72.6" x2="35.975" y2="82.225" gradientUnits="userSpaceOnUse"><stop stop-color="#2A82F2"/><stop offset="1" stop-color="#8BC0FF"/></linearGradient><linearGradient id="paint3_linear" x1="63.475" y1="72.6" x2="63.475" y2="82.225" gradientUnits="userSpaceOnUse"><stop stop-color="#2A82F2"/><stop offset="1" stop-color="#8BC0FF"/></linearGradient></defs></svg>