<svg width="100" height="100" viewBox="0 0 100 100" fill="none" xmlns="http://www.w3.org/2000/svg"><circle cx="50" cy="50" r="50" fill="#fff"/><rect x="33.222" y="17.667" width="33.979" height="64.667" rx="4" fill="#fff" stroke="url(#paint0_linear)" stroke-width="2"/><path d="M33.2803 68.9995H40.0528L45.1321 56.8783L50.2115 75.9259L55.2909 63.8047L58.6771 68.9995H67.1427" stroke="#17CA8E" stroke-miterlimit="10" stroke-linejoin="round"/><rect width="23.28" height="1.058" transform="matrix(-1 0 0 1 61.8518 27.2487)" fill="#C4C4C4"/><rect width="23.28" height="1.058" transform="matrix(-1 0 0 1 61.8518 27.2487)" fill="#17CA8E"/><rect width="23.28" height="1.058" transform="matrix(-1 0 0 1 61.8518 32.5396)" fill="#C4C4C4"/><rect width="23.28" height="1.058" transform="matrix(-1 0 0 1 61.8518 32.5396)" fill="#17CA8E"/><rect width="23.28" height="1.058" transform="matrix(-1 0 0 1 61.8518 37.8307)" fill="#C4C4C4"/><rect width="23.28" height="1.058" transform="matrix(-1 0 0 1 61.8518 37.8307)" fill="#17CA8E"/><rect width="12.698" height="1.058" transform="matrix(-1 0 0 1 51.2698 43.1217)" fill="#C4C4C4"/><rect width="12.698" height="1.058" transform="matrix(-1 0 0 1 51.2698 43.1217)" fill="#17CA8E"/><defs><linearGradient id="paint0_linear" x1="50.212" y1="16.667" x2="50.212" y2="83.333" gradientUnits="userSpaceOnUse"><stop stop-color="#2A82F2"/><stop offset="1" stop-color="#8BC0FF"/></linearGradient></defs></svg>