<svg width="767" height="249" viewBox="0 0 767 249" fill="none" xmlns="http://www.w3.org/2000/svg"><path d="M76 152.939V124.766" stroke="#1476F2" stroke-opacity=".3"/><path d="M181.286 186.543V158.37" stroke="#1476F2" stroke-opacity=".3"/><path d="M306.875 156.673V128.5" stroke="#1476F2" stroke-opacity=".3"/><path d="M422.962 186.543V158.37" stroke="#1476F2" stroke-opacity=".3"/><path d="M554.662 152.132V123.959" stroke="#1476F2" stroke-opacity=".3"/><path d="M685.682 177.717V149.544" stroke="#1476F2" stroke-opacity=".3"/><path d="M735.579 39.229C697.223 181.791 738.357 152.228 74.7038 152.228" stroke="#04AF70" stroke-opacity=".2" stroke-width="8" stroke-linecap="round" stroke-linejoin="round"/><path opacity=".1" d="M76.9716 168.943C86.3448 168.943 93.9433 161.345 93.9433 151.972C93.9433 142.598 86.3448 135 76.9716 135C67.5985 135 60 142.598 60 151.972C60 161.345 67.5985 168.943 76.9716 168.943Z" fill="url(#paint0_linear)"/><path d="M76.9718 162.155C82.5957 162.155 87.1548 157.595 87.1548 151.972C87.1548 146.348 82.5957 141.789 76.9718 141.789C71.3479 141.789 66.7888 146.348 66.7888 151.972C66.7888 157.595 71.3479 162.155 76.9718 162.155Z" fill="#53A0FD"/><path opacity=".1" d="M734.561 58.5763C743.934 58.5763 751.533 50.9779 751.533 41.6047C751.533 32.2315 743.934 24.6331 734.561 24.6331C725.188 24.6331 717.589 32.2315 717.589 41.6047C717.589 50.9779 725.188 58.5763 734.561 58.5763Z" fill="url(#paint1_linear)"/><path d="M734.561 51.7876C740.185 51.7876 744.744 47.2285 744.744 41.6046C744.744 35.9807 740.185 31.4216 734.561 31.4216C728.937 31.4216 724.378 35.9807 724.378 41.6046C724.378 47.2285 728.937 51.7876 734.561 51.7876Z" fill="#53A0FD"/><path opacity=".1" d="M181.285 163.8C188.034 163.8 193.505 158.33 193.505 151.581C193.505 144.832 188.034 139.361 181.285 139.361C174.537 139.361 169.066 144.832 169.066 151.581C169.066 158.33 174.537 163.8 181.285 163.8Z" fill="url(#paint2_linear)"/><path d="M181.285 157.691C184.659 157.691 187.395 154.955 187.395 151.581C187.395 148.206 184.659 145.471 181.285 145.471C177.911 145.471 175.175 148.206 175.175 151.581C175.175 154.955 177.911 157.691 181.285 157.691Z" fill="#53A0FD"/><path opacity=".1" d="M306.876 163.8C313.625 163.8 319.095 158.33 319.095 151.581C319.095 144.832 313.625 139.361 306.876 139.361C300.127 139.361 294.656 144.832 294.656 151.581C294.656 158.33 300.127 163.8 306.876 163.8Z" fill="url(#paint3_linear)"/><path d="M306.876 157.691C310.25 157.691 312.985 154.955 312.985 151.581C312.985 148.206 310.25 145.471 306.876 145.471C303.501 145.471 300.766 148.206 300.766 151.581C300.766 154.955 303.501 157.691 306.876 157.691Z" fill="#53A0FD"/><path opacity=".1" d="M422.962 163.8C429.71 163.8 435.181 158.33 435.181 151.581C435.181 144.832 429.71 139.361 422.962 139.361C416.213 139.361 410.742 144.832 410.742 151.581C410.742 158.33 416.213 163.8 422.962 163.8Z" fill="url(#paint4_linear)"/><path d="M422.962 157.691C426.336 157.691 429.071 154.955 429.071 151.581C429.071 148.206 426.336 145.471 422.962 145.471C419.587 145.471 416.852 148.206 416.852 151.581C416.852 154.955 419.587 157.691 422.962 157.691Z" fill="#53A0FD"/><path opacity=".1" d="M554.661 166.439C561.41 166.439 566.881 160.968 566.881 154.22C566.881 147.471 561.41 142 554.661 142C547.913 142 542.442 147.471 542.442 154.22C542.442 160.968 547.913 166.439 554.661 166.439Z" fill="url(#paint5_linear)"/><path d="M554.661 160.329C558.036 160.329 560.771 157.594 560.771 154.219C560.771 150.845 558.036 148.11 554.661 148.11C551.287 148.11 548.552 150.845 548.552 154.219C548.552 157.594 551.287 160.329 554.661 160.329Z" fill="#53A0FD"/><path opacity=".1" d="M685.683 149.544C692.431 149.544 697.902 144.073 697.902 137.325C697.902 130.576 692.431 125.105 685.683 125.105C678.934 125.105 673.463 130.576 673.463 137.325C673.463 144.073 678.934 149.544 685.683 149.544Z" fill="url(#paint6_linear)"/><path d="M685.683 143.435C689.057 143.435 691.793 140.699 691.793 137.325C691.793 133.951 689.057 131.215 685.683 131.215C682.308 131.215 679.573 133.951 679.573 137.325C679.573 140.699 682.308 143.435 685.683 143.435Z" fill="#53A0FD"/><path d="M153 58L0 58V125H153V58Z" fill="url(#paint7_linear)"/><path d="M437 53L179 53V129H437V53Z" fill="url(#paint8_linear)"/><path d="M284 174L129 174V249H284V174Z" fill="url(#paint9_linear)"/><path d="M493 174L337 174V241H493V174Z" fill="url(#paint10_linear)"/><path d="M736 160L635 160V200H736V160Z" fill="url(#paint11_linear)"/><path d="M638 74L480 74V132H638V74Z" fill="url(#paint12_linear)"/><path d="M21.316 77.2H25.6C26.6453 77.2 27.574 77.4053 28.386 77.816C29.198 78.2173 29.828 78.7913 30.276 79.538C30.724 80.2753 30.948 81.1293 30.948 82.1C30.948 83.0707 30.724 83.9293 30.276 84.676C29.828 85.4133 29.198 85.9873 28.386 86.398C27.574 86.7993 26.6453 87 25.6 87H21.316V77.2ZM25.516 85.46C26.2347 85.46 26.8647 85.3247 27.406 85.054C27.9567 84.774 28.3767 84.382 28.666 83.878C28.9647 83.3647 29.114 82.772 29.114 82.1C29.114 81.428 28.9647 80.84 28.666 80.336C28.3767 79.8227 27.9567 79.4307 27.406 79.16C26.8647 78.88 26.2347 78.74 25.516 78.74H23.136V85.46H25.516ZM32.1519 79.524H33.9019V87H32.1519V79.524ZM33.0339 78.292C32.7166 78.292 32.4506 78.194 32.2359 77.998C32.0212 77.7927 31.9139 77.5407 31.9139 77.242C31.9139 76.9433 32.0212 76.696 32.2359 76.5C32.4506 76.2947 32.7166 76.192 33.0339 76.192C33.3512 76.192 33.6172 76.29 33.8319 76.486C34.0466 76.6727 34.1539 76.9107 34.1539 77.2C34.1539 77.508 34.0466 77.7693 33.8319 77.984C33.6266 78.1893 33.3606 78.292 33.0339 78.292ZM37.9463 87.098C37.3396 87.098 36.7469 87.0187 36.1683 86.86C35.5896 86.7013 35.1276 86.5007 34.7823 86.258L35.4543 84.928C35.7903 85.152 36.1916 85.334 36.6583 85.474C37.1343 85.6047 37.6009 85.67 38.0583 85.67C39.1036 85.67 39.6263 85.3947 39.6263 84.844C39.6263 84.5827 39.4909 84.4007 39.2203 84.298C38.9589 84.1953 38.5343 84.0973 37.9463 84.004C37.3303 83.9107 36.8263 83.8033 36.4343 83.682C36.0516 83.5607 35.7156 83.3507 35.4263 83.052C35.1463 82.744 35.0063 82.3193 35.0063 81.778C35.0063 81.0687 35.3003 80.504 35.8883 80.084C36.4856 79.6547 37.2883 79.44 38.2963 79.44C38.8096 79.44 39.3229 79.5007 39.8363 79.622C40.3496 79.734 40.7696 79.888 41.0963 80.084L40.4243 81.414C39.7896 81.0407 39.0756 80.854 38.2823 80.854C37.7689 80.854 37.3769 80.9333 37.1063 81.092C36.8449 81.2413 36.7143 81.442 36.7143 81.694C36.7143 81.974 36.8543 82.1747 37.1343 82.296C37.4236 82.408 37.8669 82.5153 38.4643 82.618C39.0616 82.7113 39.5516 82.8187 39.9343 82.94C40.3169 83.0613 40.6436 83.2667 40.9143 83.556C41.1943 83.8453 41.3343 84.256 41.3343 84.788C41.3343 85.488 41.0309 86.048 40.4243 86.468C39.8176 86.888 38.9916 87.098 37.9463 87.098ZM45.7089 87.098C44.9342 87.098 44.2389 86.9347 43.6229 86.608C43.0069 86.2813 42.5262 85.8287 42.1809 85.25C41.8355 84.662 41.6629 83.9993 41.6629 83.262C41.6629 82.5247 41.8355 81.8667 42.1809 81.288C42.5262 80.7093 43.0022 80.2567 43.6089 79.93C44.2249 79.6033 44.9249 79.44 45.7089 79.44C46.4462 79.44 47.0902 79.5893 47.6409 79.888C48.2009 80.1867 48.6209 80.616 48.9009 81.176L47.5569 81.96C47.3422 81.6147 47.0715 81.358 46.7449 81.19C46.4275 81.0127 46.0775 80.924 45.6949 80.924C45.0415 80.924 44.5002 81.1387 44.0709 81.568C43.6415 81.988 43.4269 82.5527 43.4269 83.262C43.4269 83.9713 43.6369 84.5407 44.0569 84.97C44.4862 85.39 45.0322 85.6 45.6949 85.6C46.0775 85.6 46.4275 85.516 46.7449 85.348C47.0715 85.1707 47.3422 84.9093 47.5569 84.564L48.9009 85.348C48.6115 85.908 48.1869 86.342 47.6269 86.65C47.0762 86.9487 46.4369 87.098 45.7089 87.098ZM53.1018 87.098C52.3458 87.098 51.6644 86.9347 51.0578 86.608C50.4511 86.2813 49.9751 85.8287 49.6298 85.25C49.2938 84.662 49.1258 83.9993 49.1258 83.262C49.1258 82.5247 49.2938 81.8667 49.6298 81.288C49.9751 80.7093 50.4511 80.2567 51.0578 79.93C51.6644 79.6033 52.3458 79.44 53.1018 79.44C53.8671 79.44 54.5531 79.6033 55.1598 79.93C55.7664 80.2567 56.2378 80.7093 56.5738 81.288C56.9191 81.8667 57.0918 82.5247 57.0918 83.262C57.0918 83.9993 56.9191 84.662 56.5738 85.25C56.2378 85.8287 55.7664 86.2813 55.1598 86.608C54.5531 86.9347 53.8671 87.098 53.1018 87.098ZM53.1018 85.6C53.7458 85.6 54.2778 85.3853 54.6978 84.956C55.1178 84.5267 55.3278 83.962 55.3278 83.262C55.3278 82.562 55.1178 81.9973 54.6978 81.568C54.2778 81.1387 53.7458 80.924 53.1018 80.924C52.4578 80.924 51.9258 81.1387 51.5058 81.568C51.0951 81.9973 50.8898 82.562 50.8898 83.262C50.8898 83.962 51.0951 84.5267 51.5058 84.956C51.9258 85.3853 52.4578 85.6 53.1018 85.6ZM64.9976 79.524L61.7916 87H59.9856L56.7796 79.524H58.5996L60.9236 85.068L63.3176 79.524H64.9976ZM72.3518 83.304C72.3518 83.4253 72.3424 83.598 72.3238 83.822H66.4578C66.5604 84.3727 66.8264 84.8113 67.2558 85.138C67.6944 85.4553 68.2358 85.614 68.8798 85.614C69.7011 85.614 70.3778 85.3433 70.9098 84.802L71.8478 85.88C71.5118 86.2813 71.0871 86.5847 70.5738 86.79C70.0604 86.9953 69.4818 87.098 68.8378 87.098C68.0164 87.098 67.2931 86.9347 66.6678 86.608C66.0424 86.2813 65.5571 85.8287 65.2118 85.25C64.8758 84.662 64.7078 83.9993 64.7078 83.262C64.7078 82.534 64.8711 81.8807 65.1978 81.302C65.5338 80.714 65.9958 80.2567 66.5838 79.93C67.1718 79.6033 67.8344 79.44 68.5718 79.44C69.2998 79.44 69.9484 79.6033 70.5178 79.93C71.0964 80.2473 71.5444 80.7 71.8618 81.288C72.1884 81.8667 72.3518 82.5387 72.3518 83.304ZM68.5718 80.84C68.0118 80.84 67.5358 81.008 67.1438 81.344C66.7611 81.6707 66.5278 82.1093 66.4438 82.66H70.6858C70.6111 82.1187 70.3824 81.68 69.9998 81.344C69.6171 81.008 69.1411 80.84 68.5718 80.84ZM75.1363 80.616C75.6403 79.832 76.5269 79.44 77.7963 79.44V81.106C77.6469 81.078 77.5116 81.064 77.3903 81.064C76.7089 81.064 76.1769 81.2647 75.7943 81.666C75.4116 82.058 75.2203 82.6273 75.2203 83.374V87H73.4703V79.524H75.1363V80.616ZM85.9918 79.524L82.4918 87.602C82.1651 88.414 81.7684 88.9833 81.3018 89.31C80.8351 89.646 80.2704 89.814 79.6078 89.814C79.2344 89.814 78.8658 89.7533 78.5018 89.632C78.1378 89.5107 77.8391 89.3427 77.6057 89.128L78.3057 87.84C78.4738 87.9987 78.6698 88.1247 78.8938 88.218C79.1271 88.3113 79.3604 88.358 79.5938 88.358C79.9018 88.358 80.1538 88.2787 80.3498 88.12C80.5551 87.9613 80.7418 87.6953 80.9098 87.322L81.0358 87.028L77.7737 79.524H79.5938L81.9458 85.054L84.3118 79.524H85.9918ZM94.0296 77.2C94.879 77.2 95.6163 77.34 96.2416 77.62C96.8763 77.9 97.3616 78.3013 97.6976 78.824C98.0336 79.3467 98.2016 79.9673 98.2016 80.686C98.2016 81.3953 98.0336 82.016 97.6976 82.548C97.3616 83.0707 96.8763 83.472 96.2416 83.752C95.6163 84.032 94.879 84.172 94.0296 84.172H91.8176V87H89.9976V77.2H94.0296ZM93.9456 82.632C94.739 82.632 95.341 82.464 95.7516 82.128C96.1623 81.792 96.3676 81.3113 96.3676 80.686C96.3676 80.0607 96.1623 79.58 95.7516 79.244C95.341 78.908 94.739 78.74 93.9456 78.74H91.8176V82.632H93.9456ZM103.667 79.44C104.61 79.44 105.366 79.7153 105.935 80.266C106.505 80.8167 106.789 81.6333 106.789 82.716V87H105.039V82.94C105.039 82.2867 104.885 81.7967 104.577 81.47C104.269 81.134 103.831 80.966 103.261 80.966C102.617 80.966 102.109 81.162 101.735 81.554C101.362 81.9367 101.175 82.492 101.175 83.22V87H99.4253V76.612H101.175V80.392C101.465 80.084 101.819 79.8507 102.239 79.692C102.669 79.524 103.145 79.44 103.667 79.44ZM111.303 79.44C112.404 79.44 113.244 79.706 113.823 80.238C114.411 80.7607 114.705 81.554 114.705 82.618V87H113.053V86.09C112.838 86.4167 112.53 86.6687 112.129 86.846C111.737 87.014 111.261 87.098 110.701 87.098C110.141 87.098 109.651 87.0047 109.231 86.818C108.811 86.622 108.484 86.356 108.251 86.02C108.027 85.6747 107.915 85.2873 107.915 84.858C107.915 84.186 108.162 83.6493 108.657 83.248C109.161 82.8373 109.949 82.632 111.023 82.632H112.955V82.52C112.955 81.9973 112.796 81.596 112.479 81.316C112.171 81.036 111.709 80.896 111.093 80.896C110.673 80.896 110.257 80.9613 109.847 81.092C109.445 81.2227 109.105 81.4047 108.825 81.638L108.139 80.364C108.531 80.0653 109.002 79.8367 109.553 79.678C110.103 79.5193 110.687 79.44 111.303 79.44ZM111.065 85.824C111.503 85.824 111.891 85.726 112.227 85.53C112.572 85.3247 112.815 85.0353 112.955 84.662V83.794H111.149C110.141 83.794 109.637 84.1253 109.637 84.788C109.637 85.1053 109.763 85.3573 110.015 85.544C110.267 85.7307 110.617 85.824 111.065 85.824ZM118.698 87.098C118.092 87.098 117.499 87.0187 116.92 86.86C116.342 86.7013 115.88 86.5007 115.534 86.258L116.206 84.928C116.542 85.152 116.944 85.334 117.41 85.474C117.886 85.6047 118.353 85.67 118.81 85.67C119.856 85.67 120.378 85.3947 120.378 84.844C120.378 84.5827 120.243 84.4007 119.972 84.298C119.711 84.1953 119.286 84.0973 118.698 84.004C118.082 83.9107 117.578 83.8033 117.186 83.682C116.804 83.5607 116.468 83.3507 116.178 83.052C115.898 82.744 115.758 82.3193 115.758 81.778C115.758 81.0687 116.052 80.504 116.64 80.084C117.238 79.6547 118.04 79.44 119.048 79.44C119.562 79.44 120.075 79.5007 120.588 79.622C121.102 79.734 121.522 79.888 121.848 80.084L121.176 81.414C120.542 81.0407 119.828 80.854 119.034 80.854C118.521 80.854 118.129 80.9333 117.858 81.092C117.597 81.2413 117.466 81.442 117.466 81.694C117.466 81.974 117.606 82.1747 117.886 82.296C118.176 82.408 118.619 82.5153 119.216 82.618C119.814 82.7113 120.304 82.8187 120.686 82.94C121.069 83.0613 121.396 83.2667 121.666 83.556C121.946 83.8453 122.086 84.256 122.086 84.788C122.086 85.488 121.783 86.048 121.176 86.468C120.57 86.888 119.744 87.098 118.698 87.098ZM130.059 83.304C130.059 83.4253 130.049 83.598 130.031 83.822H124.165C124.267 84.3727 124.533 84.8113 124.963 85.138C125.401 85.4553 125.943 85.614 126.587 85.614C127.408 85.614 128.085 85.3433 128.617 84.802L129.555 85.88C129.219 86.2813 128.794 86.5847 128.281 86.79C127.767 86.9953 127.189 87.098 126.545 87.098C125.723 87.098 125 86.9347 124.375 86.608C123.749 86.2813 123.264 85.8287 122.919 85.25C122.583 84.662 122.415 83.9993 122.415 83.262C122.415 82.534 122.578 81.8807 122.905 81.302C123.241 80.714 123.703 80.2567 124.291 79.93C124.879 79.6033 125.541 79.44 126.279 79.44C127.007 79.44 127.655 79.6033 128.225 79.93C128.803 80.2473 129.251 80.7 129.569 81.288C129.895 81.8667 130.059 82.5387 130.059 83.304ZM126.279 80.84C125.719 80.84 125.243 81.008 124.851 81.344C124.468 81.6707 124.235 82.1093 124.151 82.66H128.393C128.318 82.1187 128.089 81.68 127.707 81.344C127.324 81.008 126.848 80.84 126.279 80.84ZM35.638 97.2L32.39 107H30.458L28.036 99.748L25.572 107H23.626L20.378 97.2H22.268L24.704 104.648L27.238 97.2H28.918L31.396 104.69L33.902 97.2H35.638ZM39.1896 107.098C38.4336 107.098 37.7523 106.935 37.1456 106.608C36.539 106.281 36.063 105.829 35.7176 105.25C35.3816 104.662 35.2136 103.999 35.2136 103.262C35.2136 102.525 35.3816 101.867 35.7176 101.288C36.063 100.709 36.539 100.257 37.1456 99.93C37.7523 99.6033 38.4336 99.44 39.1896 99.44C39.955 99.44 40.641 99.6033 41.2476 99.93C41.8543 100.257 42.3256 100.709 42.6616 101.288C43.007 101.867 43.1796 102.525 43.1796 103.262C43.1796 103.999 43.007 104.662 42.6616 105.25C42.3256 105.829 41.8543 106.281 41.2476 106.608C40.641 106.935 39.955 107.098 39.1896 107.098ZM39.1896 105.6C39.8336 105.6 40.3656 105.385 40.7856 104.956C41.2056 104.527 41.4156 103.962 41.4156 103.262C41.4156 102.562 41.2056 101.997 40.7856 101.568C40.3656 101.139 39.8336 100.924 39.1896 100.924C38.5456 100.924 38.0136 101.139 37.5936 101.568C37.183 101.997 36.9776 102.562 36.9776 103.262C36.9776 103.962 37.183 104.527 37.5936 104.956C38.0136 105.385 38.5456 105.6 39.1896 105.6ZM45.9566 100.616C46.4606 99.832 47.3472 99.44 48.6166 99.44V101.106C48.4672 101.078 48.3319 101.064 48.2106 101.064C47.5292 101.064 46.9972 101.265 46.6146 101.666C46.2319 102.058 46.0406 102.627 46.0406 103.374V107H44.2906V99.524H45.9566V100.616ZM52.5906 103.794L51.2886 105.026V107H49.5386V96.612H51.2886V102.884L54.9146 99.524H57.0146L53.8926 102.66L57.3086 107H55.1806L52.5906 103.794ZM59.9541 107.098C59.3474 107.098 58.7548 107.019 58.1761 106.86C57.5974 106.701 57.1354 106.501 56.7901 106.258L57.4621 104.928C57.7981 105.152 58.1994 105.334 58.6661 105.474C59.1421 105.605 59.6088 105.67 60.0661 105.67C61.1114 105.67 61.6341 105.395 61.6341 104.844C61.6341 104.583 61.4988 104.401 61.2281 104.298C60.9668 104.195 60.5421 104.097 59.9541 104.004C59.3381 103.911 58.8341 103.803 58.4421 103.682C58.0594 103.561 57.7234 103.351 57.4341 103.052C57.1541 102.744 57.0141 102.319 57.0141 101.778C57.0141 101.069 57.3081 100.504 57.8961 100.084C58.4934 99.6547 59.2961 99.44 60.3041 99.44C60.8174 99.44 61.3308 99.5007 61.8441 99.622C62.3574 99.734 62.7774 99.888 63.1041 100.084L62.4321 101.414C61.7974 101.041 61.0834 100.854 60.2901 100.854C59.7768 100.854 59.3848 100.933 59.1141 101.092C58.8528 101.241 58.7221 101.442 58.7221 101.694C58.7221 101.974 58.8621 102.175 59.1421 102.296C59.4314 102.408 59.8748 102.515 60.4721 102.618C61.0694 102.711 61.5594 102.819 61.9421 102.94C62.3248 103.061 62.6514 103.267 62.9221 103.556C63.2021 103.845 63.3421 104.256 63.3421 104.788C63.3421 105.488 63.0388 106.048 62.4321 106.468C61.8254 106.888 60.9994 107.098 59.9541 107.098ZM68.5287 99.44C69.4713 99.44 70.2273 99.7153 70.7967 100.266C71.366 100.817 71.6507 101.633 71.6507 102.716V107H69.9007V102.94C69.9007 102.287 69.7467 101.797 69.4387 101.47C69.1307 101.134 68.692 100.966 68.1227 100.966C67.4787 100.966 66.97 101.162 66.5967 101.554C66.2233 101.937 66.0367 102.492 66.0367 103.22V107H64.2867V96.612H66.0367V100.392C66.326 100.084 66.6807 99.8507 67.1007 99.692C67.53 99.524 68.006 99.44 68.5287 99.44ZM76.7365 107.098C75.9805 107.098 75.2992 106.935 74.6925 106.608C74.0858 106.281 73.6098 105.829 73.2645 105.25C72.9285 104.662 72.7605 103.999 72.7605 103.262C72.7605 102.525 72.9285 101.867 73.2645 101.288C73.6098 100.709 74.0858 100.257 74.6925 99.93C75.2992 99.6033 75.9805 99.44 76.7365 99.44C77.5018 99.44 78.1878 99.6033 78.7945 99.93C79.4012 100.257 79.8725 100.709 80.2085 101.288C80.5538 101.867 80.7265 102.525 80.7265 103.262C80.7265 103.999 80.5538 104.662 80.2085 105.25C79.8725 105.829 79.4012 106.281 78.7945 106.608C78.1878 106.935 77.5018 107.098 76.7365 107.098ZM76.7365 105.6C77.3805 105.6 77.9125 105.385 78.3325 104.956C78.7525 104.527 78.9625 103.962 78.9625 103.262C78.9625 102.562 78.7525 101.997 78.3325 101.568C77.9125 101.139 77.3805 100.924 76.7365 100.924C76.0925 100.924 75.5605 101.139 75.1405 101.568C74.7298 101.997 74.5245 102.562 74.5245 103.262C74.5245 103.962 74.7298 104.527 75.1405 104.956C75.5605 105.385 76.0925 105.6 76.7365 105.6ZM85.9815 99.44C86.7095 99.44 87.3581 99.5987 87.9275 99.916C88.5061 100.233 88.9588 100.681 89.2855 101.26C89.6121 101.839 89.7755 102.506 89.7755 103.262C89.7755 104.018 89.6121 104.69 89.2855 105.278C88.9588 105.857 88.5061 106.305 87.9275 106.622C87.3581 106.939 86.7095 107.098 85.9815 107.098C84.9735 107.098 84.1755 106.762 83.5875 106.09V109.716H81.8375V99.524H83.5035V100.504C83.7928 100.149 84.1475 99.8833 84.5675 99.706C84.9968 99.5287 85.4681 99.44 85.9815 99.44ZM85.7855 105.6C86.4295 105.6 86.9568 105.385 87.3675 104.956C87.7875 104.527 87.9975 103.962 87.9975 103.262C87.9975 102.562 87.7875 101.997 87.3675 101.568C86.9568 101.139 86.4295 100.924 85.7855 100.924C85.3655 100.924 84.9875 101.022 84.6515 101.218C84.3155 101.405 84.0495 101.675 83.8535 102.03C83.6575 102.385 83.5595 102.795 83.5595 103.262C83.5595 103.729 83.6575 104.139 83.8535 104.494C84.0495 104.849 84.3155 105.124 84.6515 105.32C84.9875 105.507 85.3655 105.6 85.7855 105.6Z" fill="#fff"/><path d="M200.316 76.2H202.136V86H200.316V76.2ZM208.55 85.594C208.345 85.762 208.093 85.888 207.794 85.972C207.505 86.056 207.197 86.098 206.87 86.098C206.049 86.098 205.414 85.8833 204.966 85.454C204.518 85.0247 204.294 84.3993 204.294 83.578V79.98H203.062V78.58H204.294V76.872H206.044V78.58H208.046V79.98H206.044V83.536C206.044 83.9 206.133 84.18 206.31 84.376C206.488 84.5627 206.744 84.656 207.08 84.656C207.472 84.656 207.799 84.5533 208.06 84.348L208.55 85.594ZM216.209 82.304C216.209 82.4253 216.2 82.598 216.181 82.822H210.315C210.418 83.3727 210.684 83.8113 211.113 84.138C211.552 84.4553 212.093 84.614 212.737 84.614C213.559 84.614 214.235 84.3433 214.767 83.802L215.705 84.88C215.369 85.2813 214.945 85.5847 214.431 85.79C213.918 85.9953 213.339 86.098 212.695 86.098C211.874 86.098 211.151 85.9347 210.525 85.608C209.9 85.2813 209.415 84.8287 209.069 84.25C208.733 83.662 208.565 82.9993 208.565 82.262C208.565 81.534 208.729 80.8807 209.055 80.302C209.391 79.714 209.853 79.2567 210.441 78.93C211.029 78.6033 211.692 78.44 212.429 78.44C213.157 78.44 213.806 78.6033 214.375 78.93C214.954 79.2473 215.402 79.7 215.719 80.288C216.046 80.8667 216.209 81.5387 216.209 82.304ZM212.429 79.84C211.869 79.84 211.393 80.008 211.001 80.344C210.619 80.6707 210.385 81.1093 210.301 81.66H214.543C214.469 81.1187 214.24 80.68 213.857 80.344C213.475 80.008 212.999 79.84 212.429 79.84ZM218.994 79.616C219.498 78.832 220.384 78.44 221.654 78.44V80.106C221.504 80.078 221.369 80.064 221.248 80.064C220.566 80.064 220.034 80.2647 219.652 80.666C219.269 81.058 219.078 81.6273 219.078 82.374V86H217.328V78.524H218.994V79.616ZM225.391 78.44C226.492 78.44 227.332 78.706 227.911 79.238C228.499 79.7607 228.793 80.554 228.793 81.618V86H227.141V85.09C226.926 85.4167 226.618 85.6687 226.217 85.846C225.825 86.014 225.349 86.098 224.789 86.098C224.229 86.098 223.739 86.0047 223.319 85.818C222.899 85.622 222.572 85.356 222.339 85.02C222.115 84.6747 222.003 84.2873 222.003 83.858C222.003 83.186 222.25 82.6493 222.745 82.248C223.249 81.8373 224.037 81.632 225.111 81.632H227.043V81.52C227.043 80.9973 226.884 80.596 226.567 80.316C226.259 80.036 225.797 79.896 225.181 79.896C224.761 79.896 224.345 79.9613 223.935 80.092C223.533 80.2227 223.193 80.4047 222.913 80.638L222.227 79.364C222.619 79.0653 223.09 78.8367 223.641 78.678C224.191 78.5193 224.775 78.44 225.391 78.44ZM225.153 84.824C225.591 84.824 225.979 84.726 226.315 84.53C226.66 84.3247 226.903 84.0353 227.043 83.662V82.794H225.237C224.229 82.794 223.725 83.1253 223.725 83.788C223.725 84.1053 223.851 84.3573 224.103 84.544C224.355 84.7307 224.705 84.824 225.153 84.824ZM234.97 85.594C234.765 85.762 234.513 85.888 234.214 85.972C233.925 86.056 233.617 86.098 233.29 86.098C232.469 86.098 231.834 85.8833 231.386 85.454C230.938 85.0247 230.714 84.3993 230.714 83.578V79.98H229.482V78.58H230.714V76.872H232.464V78.58H234.466V79.98H232.464V83.536C232.464 83.9 232.553 84.18 232.73 84.376C232.907 84.5627 233.164 84.656 233.5 84.656C233.892 84.656 234.219 84.5533 234.48 84.348L234.97 85.594ZM235.847 78.524H237.597V86H235.847V78.524ZM236.729 77.292C236.412 77.292 236.146 77.194 235.931 76.998C235.717 76.7927 235.609 76.5407 235.609 76.242C235.609 75.9433 235.717 75.696 235.931 75.5C236.146 75.2947 236.412 75.192 236.729 75.192C237.047 75.192 237.313 75.29 237.527 75.486C237.742 75.6727 237.849 75.9107 237.849 76.2C237.849 76.508 237.742 76.7693 237.527 76.984C237.322 77.1893 237.056 77.292 236.729 77.292ZM246.332 78.524L243.126 86H241.32L238.114 78.524H239.934L242.258 84.068L244.652 78.524H246.332ZM253.686 82.304C253.686 82.4253 253.676 82.598 253.658 82.822H247.792C247.894 83.3727 248.16 83.8113 248.59 84.138C249.028 84.4553 249.57 84.614 250.214 84.614C251.035 84.614 251.712 84.3433 252.244 83.802L253.182 84.88C252.846 85.2813 252.421 85.5847 251.908 85.79C251.394 85.9953 250.816 86.098 250.172 86.098C249.35 86.098 248.627 85.9347 248.002 85.608C247.376 85.2813 246.891 84.8287 246.546 84.25C246.21 83.662 246.042 82.9993 246.042 82.262C246.042 81.534 246.205 80.8807 246.532 80.302C246.868 79.714 247.33 79.2567 247.918 78.93C248.506 78.6033 249.168 78.44 249.906 78.44C250.634 78.44 251.282 78.6033 251.852 78.93C252.43 79.2473 252.878 79.7 253.196 80.288C253.522 80.8667 253.686 81.5387 253.686 82.304ZM249.906 79.84C249.346 79.84 248.87 80.008 248.478 80.344C248.095 80.6707 247.862 81.1093 247.778 81.66H252.02C251.945 81.1187 251.716 80.68 251.334 80.344C250.951 80.008 250.475 79.84 249.906 79.84ZM258.279 76.2H262.563C263.608 76.2 264.537 76.4053 265.349 76.816C266.161 77.2173 266.791 77.7913 267.239 78.538C267.687 79.2753 267.911 80.1293 267.911 81.1C267.911 82.0707 267.687 82.9293 267.239 83.676C266.791 84.4133 266.161 84.9873 265.349 85.398C264.537 85.7993 263.608 86 262.563 86H258.279V76.2ZM262.479 84.46C263.198 84.46 263.828 84.3247 264.369 84.054C264.92 83.774 265.34 83.382 265.629 82.878C265.928 82.3647 266.077 81.772 266.077 81.1C266.077 80.428 265.928 79.84 265.629 79.336C265.34 78.8227 264.92 78.4307 264.369 78.16C263.828 77.88 263.198 77.74 262.479 77.74H260.099V84.46H262.479ZM276.143 82.304C276.143 82.4253 276.133 82.598 276.115 82.822H270.249C270.351 83.3727 270.617 83.8113 271.047 84.138C271.485 84.4553 272.027 84.614 272.671 84.614C273.492 84.614 274.169 84.3433 274.701 83.802L275.639 84.88C275.303 85.2813 274.878 85.5847 274.365 85.79C273.851 85.9953 273.273 86.098 272.629 86.098C271.807 86.098 271.084 85.9347 270.459 85.608C269.833 85.2813 269.348 84.8287 269.003 84.25C268.667 83.662 268.499 82.9993 268.499 82.262C268.499 81.534 268.662 80.8807 268.989 80.302C269.325 79.714 269.787 79.2567 270.375 78.93C270.963 78.6033 271.625 78.44 272.363 78.44C273.091 78.44 273.739 78.6033 274.309 78.93C274.887 79.2473 275.335 79.7 275.653 80.288C275.979 80.8667 276.143 81.5387 276.143 82.304ZM272.363 79.84C271.803 79.84 271.327 80.008 270.935 80.344C270.552 80.6707 270.319 81.1093 270.235 81.66H274.477C274.402 81.1187 274.173 80.68 273.791 80.344C273.408 80.008 272.932 79.84 272.363 79.84ZM284.125 78.524L280.919 86H279.113L275.907 78.524H277.727L280.051 84.068L282.445 78.524H284.125ZM291.479 82.304C291.479 82.4253 291.469 82.598 291.451 82.822H285.585C285.687 83.3727 285.953 83.8113 286.383 84.138C286.821 84.4553 287.363 84.614 288.007 84.614C288.828 84.614 289.505 84.3433 290.037 83.802L290.975 84.88C290.639 85.2813 290.214 85.5847 289.701 85.79C289.187 85.9953 288.609 86.098 287.965 86.098C287.143 86.098 286.42 85.9347 285.795 85.608C285.169 85.2813 284.684 84.8287 284.339 84.25C284.003 83.662 283.835 82.9993 283.835 82.262C283.835 81.534 283.998 80.8807 284.325 80.302C284.661 79.714 285.123 79.2567 285.711 78.93C286.299 78.6033 286.961 78.44 287.699 78.44C288.427 78.44 289.075 78.6033 289.645 78.93C290.223 79.2473 290.671 79.7 290.989 80.288C291.315 80.8667 291.479 81.5387 291.479 82.304ZM287.699 79.84C287.139 79.84 286.663 80.008 286.271 80.344C285.888 80.6707 285.655 81.1093 285.571 81.66H289.813C289.738 81.1187 289.509 80.68 289.127 80.344C288.744 80.008 288.268 79.84 287.699 79.84ZM292.597 75.612H294.347V86H292.597V75.612ZM299.442 86.098C298.686 86.098 298.004 85.9347 297.398 85.608C296.791 85.2813 296.315 84.8287 295.97 84.25C295.634 83.662 295.466 82.9993 295.466 82.262C295.466 81.5247 295.634 80.8667 295.97 80.288C296.315 79.7093 296.791 79.2567 297.398 78.93C298.004 78.6033 298.686 78.44 299.442 78.44C300.207 78.44 300.893 78.6033 301.5 78.93C302.106 79.2567 302.578 79.7093 302.914 80.288C303.259 80.8667 303.432 81.5247 303.432 82.262C303.432 82.9993 303.259 83.662 302.914 84.25C302.578 84.8287 302.106 85.2813 301.5 85.608C300.893 85.9347 300.207 86.098 299.442 86.098ZM299.442 84.6C300.086 84.6 300.618 84.3853 301.038 83.956C301.458 83.5267 301.668 82.962 301.668 82.262C301.668 81.562 301.458 80.9973 301.038 80.568C300.618 80.1387 300.086 79.924 299.442 79.924C298.798 79.924 298.266 80.1387 297.846 80.568C297.435 80.9973 297.23 81.562 297.23 82.262C297.23 82.962 297.435 83.5267 297.846 83.956C298.266 84.3853 298.798 84.6 299.442 84.6ZM308.687 78.44C309.415 78.44 310.063 78.5987 310.633 78.916C311.211 79.2333 311.664 79.6813 311.991 80.26C312.317 80.8387 312.481 81.506 312.481 82.262C312.481 83.018 312.317 83.69 311.991 84.278C311.664 84.8567 311.211 85.3047 310.633 85.622C310.063 85.9393 309.415 86.098 308.687 86.098C307.679 86.098 306.881 85.762 306.293 85.09V88.716H304.543V78.524H306.209V79.504C306.498 79.1493 306.853 78.8833 307.273 78.706C307.702 78.5287 308.173 78.44 308.687 78.44ZM308.491 84.6C309.135 84.6 309.662 84.3853 310.073 83.956C310.493 83.5267 310.703 82.962 310.703 82.262C310.703 81.562 310.493 80.9973 310.073 80.568C309.662 80.1387 309.135 79.924 308.491 79.924C308.071 79.924 307.693 80.022 307.357 80.218C307.021 80.4047 306.755 80.6753 306.559 81.03C306.363 81.3847 306.265 81.7953 306.265 82.262C306.265 82.7287 306.363 83.1393 306.559 83.494C306.755 83.8487 307.021 84.124 307.357 84.32C307.693 84.5067 308.071 84.6 308.491 84.6ZM323.014 78.44C323.956 78.44 324.703 78.7153 325.254 79.266C325.804 79.8073 326.08 80.624 326.08 81.716V86H324.33V81.94C324.33 81.2867 324.185 80.7967 323.896 80.47C323.606 80.134 323.191 79.966 322.65 79.966C322.062 79.966 321.59 80.162 321.236 80.554C320.881 80.9367 320.704 81.4873 320.704 82.206V86H318.954V81.94C318.954 81.2867 318.809 80.7967 318.52 80.47C318.23 80.134 317.815 79.966 317.274 79.966C316.676 79.966 316.2 80.1573 315.846 80.54C315.5 80.9227 315.328 81.478 315.328 82.206V86H313.578V78.524H315.244V79.476C315.524 79.14 315.874 78.8833 316.294 78.706C316.714 78.5287 317.18 78.44 317.694 78.44C318.254 78.44 318.748 78.5473 319.178 78.762C319.616 78.9673 319.962 79.2753 320.214 79.686C320.522 79.294 320.918 78.9907 321.404 78.776C321.889 78.552 322.426 78.44 323.014 78.44ZM334.85 82.304C334.85 82.4253 334.84 82.598 334.822 82.822H328.956C329.058 83.3727 329.324 83.8113 329.754 84.138C330.192 84.4553 330.734 84.614 331.378 84.614C332.199 84.614 332.876 84.3433 333.408 83.802L334.346 84.88C334.01 85.2813 333.585 85.5847 333.072 85.79C332.558 85.9953 331.98 86.098 331.336 86.098C330.514 86.098 329.791 85.9347 329.166 85.608C328.54 85.2813 328.055 84.8287 327.71 84.25C327.374 83.662 327.206 82.9993 327.206 82.262C327.206 81.534 327.369 80.8807 327.696 80.302C328.032 79.714 328.494 79.2567 329.082 78.93C329.67 78.6033 330.332 78.44 331.07 78.44C331.798 78.44 332.446 78.6033 333.016 78.93C333.594 79.2473 334.042 79.7 334.36 80.288C334.686 80.8667 334.85 81.5387 334.85 82.304ZM331.07 79.84C330.51 79.84 330.034 80.008 329.642 80.344C329.259 80.6707 329.026 81.1093 328.942 81.66H333.184C333.109 81.1187 332.88 80.68 332.498 80.344C332.115 80.008 331.639 79.84 331.07 79.84ZM340.21 78.44C341.153 78.44 341.909 78.7153 342.478 79.266C343.048 79.8167 343.332 80.6333 343.332 81.716V86H341.582V81.94C341.582 81.2867 341.428 80.7967 341.12 80.47C340.812 80.134 340.374 79.966 339.804 79.966C339.16 79.966 338.652 80.162 338.278 80.554C337.905 80.9367 337.718 81.492 337.718 82.22V86H335.968V78.524H337.634V79.49C337.924 79.1447 338.288 78.8833 338.726 78.706C339.165 78.5287 339.66 78.44 340.21 78.44ZM349.484 85.594C349.278 85.762 349.026 85.888 348.728 85.972C348.438 86.056 348.13 86.098 347.804 86.098C346.982 86.098 346.348 85.8833 345.9 85.454C345.452 85.0247 345.228 84.3993 345.228 83.578V79.98H343.996V78.58H345.228V76.872H346.978V78.58H348.98V79.98H346.978V83.536C346.978 83.9 347.066 84.18 347.244 84.376C347.421 84.5627 347.678 84.656 348.014 84.656C348.406 84.656 348.732 84.5533 348.994 84.348L349.484 85.594ZM350.921 80.764C350.604 80.764 350.333 80.6567 350.109 80.442C349.885 80.218 349.773 79.938 349.773 79.602C349.773 79.2567 349.88 78.9767 350.095 78.762C350.319 78.5473 350.594 78.44 350.921 78.44C351.248 78.44 351.518 78.5473 351.733 78.762C351.957 78.9767 352.069 79.2567 352.069 79.602C352.069 79.938 351.957 80.218 351.733 80.442C351.509 80.6567 351.238 80.764 350.921 80.764ZM350.921 86.098C350.604 86.098 350.333 85.9907 350.109 85.776C349.885 85.552 349.773 85.272 349.773 84.936C349.773 84.5907 349.88 84.3107 350.095 84.096C350.319 83.8813 350.594 83.774 350.921 83.774C351.248 83.774 351.518 83.8813 351.733 84.096C351.957 84.3107 352.069 84.5907 352.069 84.936C352.069 85.272 351.957 85.552 351.733 85.776C351.509 85.9907 351.238 86.098 350.921 86.098ZM204.53 106.14C203.177 106.14 202.122 105.762 201.366 105.006C200.61 104.241 200.232 103.149 200.232 101.73V96.2H202.052V101.66C202.052 103.583 202.883 104.544 204.544 104.544C206.196 104.544 207.022 103.583 207.022 101.66V96.2H208.814V101.73C208.814 103.149 208.436 104.241 207.68 105.006C206.933 105.762 205.883 106.14 204.53 106.14ZM210.8 96.2H212.62V106H210.8V96.2ZM217.593 94.212H219.161L214.541 107.4H212.973L217.593 94.212ZM223.555 106.14C222.202 106.14 221.147 105.762 220.391 105.006C219.635 104.241 219.257 103.149 219.257 101.73V96.2H221.077V101.66C221.077 103.583 221.908 104.544 223.569 104.544C225.221 104.544 226.047 103.583 226.047 101.66V96.2H227.839V101.73C227.839 103.149 227.461 104.241 226.705 105.006C225.959 105.762 224.909 106.14 223.555 106.14ZM235.863 106L233.203 102.276L230.571 106H228.499L232.139 101.002L228.695 96.2H230.753L233.259 99.686L235.737 96.2H237.711L234.281 100.932L237.963 106H235.863ZM242.14 96.2H246.424C247.47 96.2 248.398 96.4053 249.21 96.816C250.022 97.2173 250.652 97.7913 251.1 98.538C251.548 99.2753 251.772 100.129 251.772 101.1C251.772 102.071 251.548 102.929 251.1 103.676C250.652 104.413 250.022 104.987 249.21 105.398C248.398 105.799 247.47 106 246.424 106H242.14V96.2ZM246.34 104.46C247.059 104.46 247.689 104.325 248.23 104.054C248.781 103.774 249.201 103.382 249.49 102.878C249.789 102.365 249.938 101.772 249.938 101.1C249.938 100.428 249.789 99.84 249.49 99.336C249.201 98.8227 248.781 98.4307 248.23 98.16C247.689 97.88 247.059 97.74 246.34 97.74H243.96V104.46H246.34ZM260.004 102.304C260.004 102.425 259.995 102.598 259.976 102.822H254.11C254.213 103.373 254.479 103.811 254.908 104.138C255.347 104.455 255.888 104.614 256.532 104.614C257.353 104.614 258.03 104.343 258.562 103.802L259.5 104.88C259.164 105.281 258.739 105.585 258.226 105.79C257.713 105.995 257.134 106.098 256.49 106.098C255.669 106.098 254.945 105.935 254.32 105.608C253.695 105.281 253.209 104.829 252.864 104.25C252.528 103.662 252.36 102.999 252.36 102.262C252.36 101.534 252.523 100.881 252.85 100.302C253.186 99.714 253.648 99.2567 254.236 98.93C254.824 98.6033 255.487 98.44 256.224 98.44C256.952 98.44 257.601 98.6033 258.17 98.93C258.749 99.2473 259.197 99.7 259.514 100.288C259.841 100.867 260.004 101.539 260.004 102.304ZM256.224 99.84C255.664 99.84 255.188 100.008 254.796 100.344C254.413 100.671 254.18 101.109 254.096 101.66H258.338C258.263 101.119 258.035 100.68 257.652 100.344C257.269 100.008 256.793 99.84 256.224 99.84ZM263.433 106.098C262.826 106.098 262.233 106.019 261.655 105.86C261.076 105.701 260.614 105.501 260.269 105.258L260.941 103.928C261.277 104.152 261.678 104.334 262.145 104.474C262.621 104.605 263.087 104.67 263.545 104.67C264.59 104.67 265.113 104.395 265.113 103.844C265.113 103.583 264.977 103.401 264.707 103.298C264.445 103.195 264.021 103.097 263.433 103.004C262.817 102.911 262.313 102.803 261.921 102.682C261.538 102.561 261.202 102.351 260.913 102.052C260.633 101.744 260.493 101.319 260.493 100.778C260.493 100.069 260.787 99.504 261.375 99.084C261.972 98.6547 262.775 98.44 263.783 98.44C264.296 98.44 264.809 98.5007 265.323 98.622C265.836 98.734 266.256 98.888 266.583 99.084L265.911 100.414C265.276 100.041 264.562 99.854 263.769 99.854C263.255 99.854 262.863 99.9333 262.593 100.092C262.331 100.241 262.201 100.442 262.201 100.694C262.201 100.974 262.341 101.175 262.621 101.296C262.91 101.408 263.353 101.515 263.951 101.618C264.548 101.711 265.038 101.819 265.421 101.94C265.803 102.061 266.13 102.267 266.401 102.556C266.681 102.845 266.821 103.256 266.821 103.788C266.821 104.488 266.517 105.048 265.911 105.468C265.304 105.888 264.478 106.098 263.433 106.098ZM267.765 98.524H269.515V106H267.765V98.524ZM268.647 97.292C268.33 97.292 268.064 97.194 267.849 96.998C267.635 96.7927 267.527 96.5407 267.527 96.242C267.527 95.9433 267.635 95.696 267.849 95.5C268.064 95.2947 268.33 95.192 268.647 95.192C268.965 95.192 269.231 95.29 269.445 95.486C269.66 95.6727 269.767 95.9107 269.767 96.2C269.767 96.508 269.66 96.7693 269.445 96.984C269.24 97.1893 268.974 97.292 268.647 97.292ZM278.67 98.524V104.866C278.67 107.498 277.326 108.814 274.638 108.814C273.919 108.814 273.238 108.721 272.594 108.534C271.95 108.357 271.418 108.095 270.998 107.75L271.782 106.434C272.108 106.705 272.519 106.919 273.014 107.078C273.518 107.246 274.026 107.33 274.54 107.33C275.361 107.33 275.963 107.143 276.346 106.77C276.728 106.397 276.92 105.827 276.92 105.062V104.67C276.621 104.997 276.257 105.244 275.828 105.412C275.398 105.58 274.927 105.664 274.414 105.664C273.704 105.664 273.06 105.515 272.482 105.216C271.912 104.908 271.46 104.479 271.124 103.928C270.797 103.377 270.634 102.747 270.634 102.038C270.634 101.329 270.797 100.703 271.124 100.162C271.46 99.6113 271.912 99.1867 272.482 98.888C273.06 98.5893 273.704 98.44 274.414 98.44C274.955 98.44 275.445 98.5287 275.884 98.706C276.332 98.8833 276.705 99.154 277.004 99.518V98.524H278.67ZM274.68 104.18C275.342 104.18 275.884 103.984 276.304 103.592C276.733 103.191 276.948 102.673 276.948 102.038C276.948 101.413 276.733 100.904 276.304 100.512C275.884 100.12 275.342 99.924 274.68 99.924C274.008 99.924 273.457 100.12 273.028 100.512C272.608 100.904 272.398 101.413 272.398 102.038C272.398 102.673 272.608 103.191 273.028 103.592C273.457 103.984 274.008 104.18 274.68 104.18ZM284.65 98.44C285.592 98.44 286.348 98.7153 286.918 99.266C287.487 99.8167 287.772 100.633 287.772 101.716V106H286.022V101.94C286.022 101.287 285.868 100.797 285.56 100.47C285.252 100.134 284.813 99.966 284.244 99.966C283.6 99.966 283.091 100.162 282.718 100.554C282.344 100.937 282.158 101.492 282.158 102.22V106H280.408V98.524H282.074V99.49C282.363 99.1447 282.727 98.8833 283.166 98.706C283.604 98.5287 284.099 98.44 284.65 98.44ZM290.003 103.774C290.33 103.774 290.601 103.881 290.815 104.096C291.03 104.311 291.137 104.591 291.137 104.936C291.137 105.085 291.114 105.244 291.067 105.412C291.03 105.571 290.946 105.813 290.815 106.14L290.101 108.114H288.967L289.527 105.972C289.322 105.888 289.159 105.757 289.037 105.58C288.925 105.393 288.869 105.179 288.869 104.936C288.869 104.591 288.977 104.311 289.191 104.096C289.406 103.881 289.677 103.774 290.003 103.774ZM295.759 96.2H300.043C301.089 96.2 302.017 96.4053 302.829 96.816C303.641 97.2173 304.271 97.7913 304.719 98.538C305.167 99.2753 305.391 100.129 305.391 101.1C305.391 102.071 305.167 102.929 304.719 103.676C304.271 104.413 303.641 104.987 302.829 105.398C302.017 105.799 301.089 106 300.043 106H295.759V96.2ZM299.959 104.46C300.678 104.46 301.308 104.325 301.849 104.054C302.4 103.774 302.82 103.382 303.109 102.878C303.408 102.365 303.557 101.772 303.557 101.1C303.557 100.428 303.408 99.84 303.109 99.336C302.82 98.8227 302.4 98.4307 301.849 98.16C301.308 97.88 300.678 97.74 299.959 97.74H297.579V104.46H299.959ZM313.623 102.304C313.623 102.425 313.614 102.598 313.595 102.822H307.729C307.832 103.373 308.098 103.811 308.527 104.138C308.966 104.455 309.507 104.614 310.151 104.614C310.973 104.614 311.649 104.343 312.181 103.802L313.119 104.88C312.783 105.281 312.359 105.585 311.845 105.79C311.332 105.995 310.753 106.098 310.109 106.098C309.288 106.098 308.565 105.935 307.939 105.608C307.314 105.281 306.829 104.829 306.483 104.25C306.147 103.662 305.979 102.999 305.979 102.262C305.979 101.534 306.143 100.881 306.469 100.302C306.805 99.714 307.267 99.2567 307.855 98.93C308.443 98.6033 309.106 98.44 309.843 98.44C310.571 98.44 311.22 98.6033 311.789 98.93C312.368 99.2473 312.816 99.7 313.133 100.288C313.46 100.867 313.623 101.539 313.623 102.304ZM309.843 99.84C309.283 99.84 308.807 100.008 308.415 100.344C308.033 100.671 307.799 101.109 307.715 101.66H311.957C311.883 101.119 311.654 100.68 311.271 100.344C310.889 100.008 310.413 99.84 309.843 99.84ZM321.605 98.524L318.399 106H316.593L313.387 98.524H315.207L317.531 104.068L319.925 98.524H321.605ZM328.959 102.304C328.959 102.425 328.95 102.598 328.931 102.822H323.065C323.168 103.373 323.434 103.811 323.863 104.138C324.302 104.455 324.843 104.614 325.487 104.614C326.309 104.614 326.985 104.343 327.517 103.802L328.455 104.88C328.119 105.281 327.695 105.585 327.181 105.79C326.668 105.995 326.089 106.098 325.445 106.098C324.624 106.098 323.901 105.935 323.275 105.608C322.65 105.281 322.165 104.829 321.819 104.25C321.483 103.662 321.315 102.999 321.315 102.262C321.315 101.534 321.479 100.881 321.805 100.302C322.141 99.714 322.603 99.2567 323.191 98.93C323.779 98.6033 324.442 98.44 325.179 98.44C325.907 98.44 326.556 98.6033 327.125 98.93C327.704 99.2473 328.152 99.7 328.469 100.288C328.796 100.867 328.959 101.539 328.959 102.304ZM325.179 99.84C324.619 99.84 324.143 100.008 323.751 100.344C323.369 100.671 323.135 101.109 323.051 101.66H327.293C327.219 101.119 326.99 100.68 326.607 100.344C326.225 100.008 325.749 99.84 325.179 99.84ZM330.078 95.612H331.828V106H330.078V95.612ZM336.922 106.098C336.166 106.098 335.485 105.935 334.878 105.608C334.271 105.281 333.795 104.829 333.45 104.25C333.114 103.662 332.946 102.999 332.946 102.262C332.946 101.525 333.114 100.867 333.45 100.288C333.795 99.7093 334.271 99.2567 334.878 98.93C335.485 98.6033 336.166 98.44 336.922 98.44C337.687 98.44 338.373 98.6033 338.98 98.93C339.587 99.2567 340.058 99.7093 340.394 100.288C340.739 100.867 340.912 101.525 340.912 102.262C340.912 102.999 340.739 103.662 340.394 104.25C340.058 104.829 339.587 105.281 338.98 105.608C338.373 105.935 337.687 106.098 336.922 106.098ZM336.922 104.6C337.566 104.6 338.098 104.385 338.518 103.956C338.938 103.527 339.148 102.962 339.148 102.262C339.148 101.562 338.938 100.997 338.518 100.568C338.098 100.139 337.566 99.924 336.922 99.924C336.278 99.924 335.746 100.139 335.326 100.568C334.915 100.997 334.71 101.562 334.71 102.262C334.71 102.962 334.915 103.527 335.326 103.956C335.746 104.385 336.278 104.6 336.922 104.6ZM346.167 98.44C346.895 98.44 347.544 98.5987 348.113 98.916C348.692 99.2333 349.144 99.6813 349.471 100.26C349.798 100.839 349.961 101.506 349.961 102.262C349.961 103.018 349.798 103.69 349.471 104.278C349.144 104.857 348.692 105.305 348.113 105.622C347.544 105.939 346.895 106.098 346.167 106.098C345.159 106.098 344.361 105.762 343.773 105.09V108.716H342.023V98.524H343.689V99.504C343.978 99.1493 344.333 98.8833 344.753 98.706C345.182 98.5287 345.654 98.44 346.167 98.44ZM345.971 104.6C346.615 104.6 347.142 104.385 347.553 103.956C347.973 103.527 348.183 102.962 348.183 102.262C348.183 101.562 347.973 100.997 347.553 100.568C347.142 100.139 346.615 99.924 345.971 99.924C345.551 99.924 345.173 100.022 344.837 100.218C344.501 100.405 344.235 100.675 344.039 101.03C343.843 101.385 343.745 101.795 343.745 102.262C343.745 102.729 343.843 103.139 344.039 103.494C344.235 103.849 344.501 104.124 344.837 104.32C345.173 104.507 345.551 104.6 345.971 104.6ZM360.494 98.44C361.437 98.44 362.183 98.7153 362.734 99.266C363.285 99.8073 363.56 100.624 363.56 101.716V106H361.81V101.94C361.81 101.287 361.665 100.797 361.376 100.47C361.087 100.134 360.671 99.966 360.13 99.966C359.542 99.966 359.071 100.162 358.716 100.554C358.361 100.937 358.184 101.487 358.184 102.206V106H356.434V101.94C356.434 101.287 356.289 100.797 356 100.47C355.711 100.134 355.295 99.966 354.754 99.966C354.157 99.966 353.681 100.157 353.326 100.54C352.981 100.923 352.808 101.478 352.808 102.206V106H351.058V98.524H352.724V99.476C353.004 99.14 353.354 98.8833 353.774 98.706C354.194 98.5287 354.661 98.44 355.174 98.44C355.734 98.44 356.229 98.5473 356.658 98.762C357.097 98.9673 357.442 99.2753 357.694 99.686C358.002 99.294 358.399 98.9907 358.884 98.776C359.369 98.552 359.906 98.44 360.494 98.44ZM372.33 102.304C372.33 102.425 372.321 102.598 372.302 102.822H366.436C366.539 103.373 366.805 103.811 367.234 104.138C367.673 104.455 368.214 104.614 368.858 104.614C369.68 104.614 370.356 104.343 370.888 103.802L371.826 104.88C371.49 105.281 371.066 105.585 370.552 105.79C370.039 105.995 369.46 106.098 368.816 106.098C367.995 106.098 367.272 105.935 366.646 105.608C366.021 105.281 365.536 104.829 365.19 104.25C364.854 103.662 364.686 102.999 364.686 102.262C364.686 101.534 364.85 100.881 365.176 100.302C365.512 99.714 365.974 99.2567 366.562 98.93C367.15 98.6033 367.813 98.44 368.55 98.44C369.278 98.44 369.927 98.6033 370.496 98.93C371.075 99.2473 371.523 99.7 371.84 100.288C372.167 100.867 372.33 101.539 372.33 102.304ZM368.55 99.84C367.99 99.84 367.514 100.008 367.122 100.344C366.74 100.671 366.506 101.109 366.422 101.66H370.664C370.59 101.119 370.361 100.68 369.978 100.344C369.596 100.008 369.12 99.84 368.55 99.84ZM377.691 98.44C378.633 98.44 379.389 98.7153 379.959 99.266C380.528 99.8167 380.813 100.633 380.813 101.716V106H379.063V101.94C379.063 101.287 378.909 100.797 378.601 100.47C378.293 100.134 377.854 99.966 377.285 99.966C376.641 99.966 376.132 100.162 375.759 100.554C375.385 100.937 375.199 101.492 375.199 102.22V106H373.449V98.524H375.115V99.49C375.404 99.1447 375.768 98.8833 376.207 98.706C376.645 98.5287 377.14 98.44 377.691 98.44ZM386.964 105.594C386.759 105.762 386.507 105.888 386.208 105.972C385.919 106.056 385.611 106.098 385.284 106.098C384.463 106.098 383.828 105.883 383.38 105.454C382.932 105.025 382.708 104.399 382.708 103.578V99.98H381.476V98.58H382.708V96.872H384.458V98.58H386.46V99.98H384.458V103.536C384.458 103.9 384.547 104.18 384.724 104.376C384.902 104.563 385.158 104.656 385.494 104.656C385.886 104.656 386.213 104.553 386.474 104.348L386.964 105.594ZM388.552 103.774C388.879 103.774 389.149 103.881 389.364 104.096C389.579 104.311 389.686 104.591 389.686 104.936C389.686 105.085 389.663 105.244 389.616 105.412C389.579 105.571 389.495 105.813 389.364 106.14L388.65 108.114H387.516L388.076 105.972C387.871 105.888 387.707 105.757 387.586 105.58C387.474 105.393 387.418 105.179 387.418 104.936C387.418 104.591 387.525 104.311 387.74 104.096C387.955 103.881 388.225 103.774 388.552 103.774ZM404.654 106.98C404.328 107.363 403.945 107.652 403.506 107.848C403.077 108.044 402.606 108.142 402.092 108.142C401.42 108.142 400.804 107.988 400.244 107.68C399.684 107.381 399.045 106.859 398.326 106.112C397.421 106.037 396.609 105.776 395.89 105.328C395.172 104.871 394.612 104.278 394.21 103.55C393.809 102.813 393.608 101.996 393.608 101.1C393.608 100.148 393.837 99.2893 394.294 98.524C394.752 97.7493 395.382 97.1473 396.184 96.718C396.987 96.2793 397.888 96.06 398.886 96.06C399.885 96.06 400.786 96.2793 401.588 96.718C402.391 97.1473 403.021 97.7447 403.478 98.51C403.936 99.2753 404.164 100.139 404.164 101.1C404.164 101.875 404.01 102.593 403.702 103.256C403.394 103.909 402.965 104.469 402.414 104.936C401.864 105.393 401.224 105.725 400.496 105.93C400.767 106.219 401.033 106.429 401.294 106.56C401.556 106.691 401.836 106.756 402.134 106.756C402.778 106.756 403.338 106.495 403.814 105.972L404.654 106.98ZM395.442 101.1C395.442 101.753 395.592 102.346 395.89 102.878C396.189 103.401 396.6 103.811 397.122 104.11C397.645 104.399 398.233 104.544 398.886 104.544C399.54 104.544 400.128 104.399 400.65 104.11C401.173 103.811 401.584 103.401 401.882 102.878C402.181 102.346 402.33 101.753 402.33 101.1C402.33 100.447 402.181 99.8587 401.882 99.336C401.584 98.804 401.173 98.3933 400.65 98.104C400.128 97.8053 399.54 97.656 398.886 97.656C398.233 97.656 397.645 97.8053 397.122 98.104C396.6 98.3933 396.189 98.804 395.89 99.336C395.592 99.8587 395.442 100.447 395.442 101.1ZM411.75 103.732H406.85L405.884 106H404.008L408.418 96.2H410.21L414.634 106H412.73L411.75 103.732ZM411.148 102.304L409.3 98.02L407.466 102.304H411.148Z" fill="#fff"/><path d="M153.354 207.14C152.598 207.14 151.865 207.033 151.156 206.818C150.456 206.603 149.901 206.319 149.49 205.964L150.12 204.55C150.521 204.867 151.011 205.129 151.59 205.334C152.178 205.53 152.766 205.628 153.354 205.628C154.082 205.628 154.623 205.511 154.978 205.278C155.342 205.045 155.524 204.737 155.524 204.354C155.524 204.074 155.421 203.845 155.216 203.668C155.02 203.481 154.768 203.337 154.46 203.234C154.152 203.131 153.732 203.015 153.2 202.884C152.453 202.707 151.847 202.529 151.38 202.352C150.923 202.175 150.526 201.899 150.19 201.526C149.863 201.143 149.7 200.63 149.7 199.986C149.7 199.445 149.845 198.955 150.134 198.516C150.433 198.068 150.876 197.713 151.464 197.452C152.061 197.191 152.789 197.06 153.648 197.06C154.245 197.06 154.833 197.135 155.412 197.284C155.991 197.433 156.49 197.648 156.91 197.928L156.336 199.342C155.907 199.09 155.459 198.899 154.992 198.768C154.525 198.637 154.073 198.572 153.634 198.572C152.915 198.572 152.379 198.693 152.024 198.936C151.679 199.179 151.506 199.501 151.506 199.902C151.506 200.182 151.604 200.411 151.8 200.588C152.005 200.765 152.262 200.905 152.57 201.008C152.878 201.111 153.298 201.227 153.83 201.358C154.558 201.526 155.155 201.703 155.622 201.89C156.089 202.067 156.485 202.343 156.812 202.716C157.148 203.089 157.316 203.593 157.316 204.228C157.316 204.769 157.167 205.259 156.868 205.698C156.579 206.137 156.135 206.487 155.538 206.748C154.941 207.009 154.213 207.14 153.354 207.14ZM162.534 199.44C163.262 199.44 163.911 199.599 164.48 199.916C165.059 200.233 165.512 200.681 165.838 201.26C166.165 201.839 166.328 202.506 166.328 203.262C166.328 204.018 166.165 204.69 165.838 205.278C165.512 205.857 165.059 206.305 164.48 206.622C163.911 206.939 163.262 207.098 162.534 207.098C161.526 207.098 160.728 206.762 160.14 206.09V209.716H158.39V199.524H160.056V200.504C160.346 200.149 160.7 199.883 161.12 199.706C161.55 199.529 162.021 199.44 162.534 199.44ZM162.338 205.6C162.982 205.6 163.51 205.385 163.92 204.956C164.34 204.527 164.55 203.962 164.55 203.262C164.55 202.562 164.34 201.997 163.92 201.568C163.51 201.139 162.982 200.924 162.338 200.924C161.918 200.924 161.54 201.022 161.204 201.218C160.868 201.405 160.602 201.675 160.406 202.03C160.21 202.385 160.112 202.795 160.112 203.262C160.112 203.729 160.21 204.139 160.406 204.494C160.602 204.849 160.868 205.124 161.204 205.32C161.54 205.507 161.918 205.6 162.338 205.6ZM169.091 200.616C169.595 199.832 170.482 199.44 171.751 199.44V201.106C171.602 201.078 171.467 201.064 171.345 201.064C170.664 201.064 170.132 201.265 169.749 201.666C169.367 202.058 169.175 202.627 169.175 203.374V207H167.425V199.524H169.091V200.616ZM172.673 199.524H174.423V207H172.673V199.524ZM173.555 198.292C173.238 198.292 172.972 198.194 172.757 197.998C172.543 197.793 172.435 197.541 172.435 197.242C172.435 196.943 172.543 196.696 172.757 196.5C172.972 196.295 173.238 196.192 173.555 196.192C173.873 196.192 174.139 196.29 174.353 196.486C174.568 196.673 174.675 196.911 174.675 197.2C174.675 197.508 174.568 197.769 174.353 197.984C174.148 198.189 173.882 198.292 173.555 198.292ZM180.4 199.44C181.342 199.44 182.098 199.715 182.668 200.266C183.237 200.817 183.522 201.633 183.522 202.716V207H181.772V202.94C181.772 202.287 181.618 201.797 181.31 201.47C181.002 201.134 180.563 200.966 179.994 200.966C179.35 200.966 178.841 201.162 178.468 201.554C178.094 201.937 177.908 202.492 177.908 203.22V207H176.158V199.524H177.824V200.49C178.113 200.145 178.477 199.883 178.916 199.706C179.354 199.529 179.849 199.44 180.4 199.44ZM189.673 206.594C189.468 206.762 189.216 206.888 188.917 206.972C188.628 207.056 188.32 207.098 187.993 207.098C187.172 207.098 186.537 206.883 186.089 206.454C185.641 206.025 185.417 205.399 185.417 204.578V200.98H184.185V199.58H185.417V197.872H187.167V199.58H189.169V200.98H187.167V204.536C187.167 204.9 187.256 205.18 187.433 205.376C187.611 205.563 187.867 205.656 188.203 205.656C188.595 205.656 188.922 205.553 189.183 205.348L189.673 206.594ZM197.413 207.14C196.629 207.14 195.929 206.944 195.313 206.552C194.697 206.151 194.212 205.572 193.857 204.816C193.502 204.051 193.325 203.145 193.325 202.1C193.325 201.055 193.502 200.154 193.857 199.398C194.212 198.633 194.697 198.054 195.313 197.662C195.929 197.261 196.629 197.06 197.413 197.06C198.197 197.06 198.897 197.261 199.513 197.662C200.138 198.054 200.628 198.633 200.983 199.398C201.338 200.154 201.515 201.055 201.515 202.1C201.515 203.145 201.338 204.051 200.983 204.816C200.628 205.572 200.138 206.151 199.513 206.552C198.897 206.944 198.197 207.14 197.413 207.14ZM197.413 205.558C198.113 205.558 198.664 205.269 199.065 204.69C199.476 204.111 199.681 203.248 199.681 202.1C199.681 200.952 199.476 200.089 199.065 199.51C198.664 198.931 198.113 198.642 197.413 198.642C196.722 198.642 196.172 198.931 195.761 199.51C195.36 200.089 195.159 200.952 195.159 202.1C195.159 203.248 195.36 204.111 195.761 204.69C196.172 205.269 196.722 205.558 197.413 205.558ZM203.274 201.764C202.957 201.764 202.686 201.657 202.462 201.442C202.238 201.218 202.126 200.938 202.126 200.602C202.126 200.257 202.234 199.977 202.448 199.762C202.672 199.547 202.948 199.44 203.274 199.44C203.601 199.44 203.872 199.547 204.086 199.762C204.31 199.977 204.422 200.257 204.422 200.602C204.422 200.938 204.31 201.218 204.086 201.442C203.862 201.657 203.592 201.764 203.274 201.764ZM203.274 207.098C202.957 207.098 202.686 206.991 202.462 206.776C202.238 206.552 202.126 206.272 202.126 205.936C202.126 205.591 202.234 205.311 202.448 205.096C202.672 204.881 202.948 204.774 203.274 204.774C203.601 204.774 203.872 204.881 204.086 205.096C204.31 205.311 204.422 205.591 204.422 205.936C204.422 206.272 204.31 206.552 204.086 206.776C203.862 206.991 203.592 207.098 203.274 207.098ZM154.348 217.2C155.197 217.2 155.935 217.34 156.56 217.62C157.195 217.9 157.68 218.301 158.016 218.824C158.352 219.347 158.52 219.967 158.52 220.686C158.52 221.395 158.352 222.016 158.016 222.548C157.68 223.071 157.195 223.472 156.56 223.752C155.935 224.032 155.197 224.172 154.348 224.172H152.136V227H150.316V217.2H154.348ZM154.264 222.632C155.057 222.632 155.659 222.464 156.07 222.128C156.481 221.792 156.686 221.311 156.686 220.686C156.686 220.061 156.481 219.58 156.07 219.244C155.659 218.908 155.057 218.74 154.264 218.74H152.136V222.632H154.264ZM161.205 220.616C161.709 219.832 162.595 219.44 163.865 219.44V221.106C163.715 221.078 163.58 221.064 163.459 221.064C162.777 221.064 162.245 221.265 161.863 221.666C161.48 222.058 161.289 222.627 161.289 223.374V227H159.539V219.524H161.205V220.616ZM168.078 227.098C167.322 227.098 166.641 226.935 166.034 226.608C165.428 226.281 164.952 225.829 164.606 225.25C164.27 224.662 164.102 223.999 164.102 223.262C164.102 222.525 164.27 221.867 164.606 221.288C164.952 220.709 165.428 220.257 166.034 219.93C166.641 219.603 167.322 219.44 168.078 219.44C168.844 219.44 169.53 219.603 170.136 219.93C170.743 220.257 171.214 220.709 171.55 221.288C171.896 221.867 172.068 222.525 172.068 223.262C172.068 223.999 171.896 224.662 171.55 225.25C171.214 225.829 170.743 226.281 170.136 226.608C169.53 226.935 168.844 227.098 168.078 227.098ZM168.078 225.6C168.722 225.6 169.254 225.385 169.674 224.956C170.094 224.527 170.304 223.962 170.304 223.262C170.304 222.562 170.094 221.997 169.674 221.568C169.254 221.139 168.722 220.924 168.078 220.924C167.434 220.924 166.902 221.139 166.482 221.568C166.072 221.997 165.866 222.562 165.866 223.262C165.866 223.962 166.072 224.527 166.482 224.956C166.902 225.385 167.434 225.6 168.078 225.6ZM172.409 229.814C171.672 229.814 171.112 229.669 170.729 229.38L171.233 228.078C171.495 228.274 171.835 228.372 172.255 228.372C172.582 228.372 172.829 228.269 172.997 228.064C173.175 227.868 173.263 227.574 173.263 227.182V219.524H175.013V227.14C175.013 227.971 174.785 228.624 174.327 229.1C173.87 229.576 173.231 229.814 172.409 229.814ZM174.131 218.292C173.814 218.292 173.548 218.194 173.333 217.998C173.119 217.793 173.011 217.541 173.011 217.242C173.011 216.943 173.119 216.696 173.333 216.5C173.548 216.295 173.814 216.192 174.131 216.192C174.449 216.192 174.715 216.29 174.929 216.486C175.144 216.673 175.251 216.911 175.251 217.2C175.251 217.508 175.144 217.769 174.929 217.984C174.724 218.189 174.458 218.292 174.131 218.292ZM183.774 223.304C183.774 223.425 183.764 223.598 183.746 223.822H177.88C177.982 224.373 178.248 224.811 178.678 225.138C179.116 225.455 179.658 225.614 180.302 225.614C181.123 225.614 181.8 225.343 182.332 224.802L183.27 225.88C182.934 226.281 182.509 226.585 181.996 226.79C181.482 226.995 180.904 227.098 180.26 227.098C179.438 227.098 178.715 226.935 178.09 226.608C177.464 226.281 176.979 225.829 176.634 225.25C176.298 224.662 176.13 223.999 176.13 223.262C176.13 222.534 176.293 221.881 176.62 221.302C176.956 220.714 177.418 220.257 178.006 219.93C178.594 219.603 179.256 219.44 179.994 219.44C180.722 219.44 181.37 219.603 181.94 219.93C182.518 220.247 182.966 220.7 183.284 221.288C183.61 221.867 183.774 222.539 183.774 223.304ZM179.994 220.84C179.434 220.84 178.958 221.008 178.566 221.344C178.183 221.671 177.95 222.109 177.866 222.66H182.108C182.033 222.119 181.804 221.68 181.422 221.344C181.039 221.008 180.563 220.84 179.994 220.84ZM188.322 227.098C187.547 227.098 186.852 226.935 186.236 226.608C185.62 226.281 185.139 225.829 184.794 225.25C184.449 224.662 184.276 223.999 184.276 223.262C184.276 222.525 184.449 221.867 184.794 221.288C185.139 220.709 185.615 220.257 186.222 219.93C186.838 219.603 187.538 219.44 188.322 219.44C189.059 219.44 189.703 219.589 190.254 219.888C190.814 220.187 191.234 220.616 191.514 221.176L190.17 221.96C189.955 221.615 189.685 221.358 189.358 221.19C189.041 221.013 188.691 220.924 188.308 220.924C187.655 220.924 187.113 221.139 186.684 221.568C186.255 221.988 186.04 222.553 186.04 223.262C186.04 223.971 186.25 224.541 186.67 224.97C187.099 225.39 187.645 225.6 188.308 225.6C188.691 225.6 189.041 225.516 189.358 225.348C189.685 225.171 189.955 224.909 190.17 224.564L191.514 225.348C191.225 225.908 190.8 226.342 190.24 226.65C189.689 226.949 189.05 227.098 188.322 227.098ZM197.054 226.594C196.849 226.762 196.597 226.888 196.298 226.972C196.009 227.056 195.701 227.098 195.374 227.098C194.553 227.098 193.918 226.883 193.47 226.454C193.022 226.025 192.798 225.399 192.798 224.578V220.98H191.566V219.58H192.798V217.872H194.548V219.58H196.55V220.98H194.548V224.536C194.548 224.9 194.637 225.18 194.814 225.376C194.991 225.563 195.248 225.656 195.584 225.656C195.976 225.656 196.303 225.553 196.564 225.348L197.054 226.594ZM201.238 219.524H202.988V227H201.238V219.524ZM202.12 218.292C201.803 218.292 201.537 218.194 201.322 217.998C201.107 217.793 201 217.541 201 217.242C201 216.943 201.107 216.696 201.322 216.5C201.537 216.295 201.803 216.192 202.12 216.192C202.437 216.192 202.703 216.29 202.918 216.486C203.133 216.673 203.24 216.911 203.24 217.2C203.24 217.508 203.133 217.769 202.918 217.984C202.713 218.189 202.447 218.292 202.12 218.292ZM208.964 219.44C209.907 219.44 210.663 219.715 211.232 220.266C211.802 220.817 212.086 221.633 212.086 222.716V227H210.336V222.94C210.336 222.287 210.182 221.797 209.874 221.47C209.566 221.134 209.128 220.966 208.558 220.966C207.914 220.966 207.406 221.162 207.032 221.554C206.659 221.937 206.472 222.492 206.472 223.22V227H204.722V219.524H206.388V220.49C206.678 220.145 207.042 219.883 207.48 219.706C207.919 219.529 208.414 219.44 208.964 219.44ZM213.744 219.524H215.494V227H213.744V219.524ZM214.626 218.292C214.308 218.292 214.042 218.194 213.828 217.998C213.613 217.793 213.506 217.541 213.506 217.242C213.506 216.943 213.613 216.696 213.828 216.5C214.042 216.295 214.308 216.192 214.626 216.192C214.943 216.192 215.209 216.29 215.424 216.486C215.638 216.673 215.746 216.911 215.746 217.2C215.746 217.508 215.638 217.769 215.424 217.984C215.218 218.189 214.952 218.292 214.626 218.292ZM221.722 226.594C221.517 226.762 221.265 226.888 220.966 226.972C220.677 227.056 220.369 227.098 220.042 227.098C219.221 227.098 218.586 226.883 218.138 226.454C217.69 226.025 217.466 225.399 217.466 224.578V220.98H216.234V219.58H217.466V217.872H219.216V219.58H221.218V220.98H219.216V224.536C219.216 224.9 219.305 225.18 219.482 225.376C219.659 225.563 219.916 225.656 220.252 225.656C220.644 225.656 220.971 225.553 221.232 225.348L221.722 226.594ZM222.599 219.524H224.349V227H222.599V219.524ZM223.481 218.292C223.164 218.292 222.898 218.194 222.683 217.998C222.469 217.793 222.361 217.541 222.361 217.242C222.361 216.943 222.469 216.696 222.683 216.5C222.898 216.295 223.164 216.192 223.481 216.192C223.799 216.192 224.065 216.29 224.279 216.486C224.494 216.673 224.601 216.911 224.601 217.2C224.601 217.508 224.494 217.769 224.279 217.984C224.074 218.189 223.808 218.292 223.481 218.292ZM228.94 219.44C230.041 219.44 230.881 219.706 231.46 220.238C232.048 220.761 232.342 221.554 232.342 222.618V227H230.69V226.09C230.475 226.417 230.167 226.669 229.766 226.846C229.374 227.014 228.898 227.098 228.338 227.098C227.778 227.098 227.288 227.005 226.868 226.818C226.448 226.622 226.121 226.356 225.888 226.02C225.664 225.675 225.552 225.287 225.552 224.858C225.552 224.186 225.799 223.649 226.294 223.248C226.798 222.837 227.586 222.632 228.66 222.632H230.592V222.52C230.592 221.997 230.433 221.596 230.116 221.316C229.808 221.036 229.346 220.896 228.73 220.896C228.31 220.896 227.894 220.961 227.484 221.092C227.082 221.223 226.742 221.405 226.462 221.638L225.776 220.364C226.168 220.065 226.639 219.837 227.19 219.678C227.74 219.519 228.324 219.44 228.94 219.44ZM228.702 225.824C229.14 225.824 229.528 225.726 229.864 225.53C230.209 225.325 230.452 225.035 230.592 224.662V223.794H228.786C227.778 223.794 227.274 224.125 227.274 224.788C227.274 225.105 227.4 225.357 227.652 225.544C227.904 225.731 228.254 225.824 228.702 225.824ZM238.519 226.594C238.314 226.762 238.062 226.888 237.763 226.972C237.474 227.056 237.166 227.098 236.839 227.098C236.018 227.098 235.383 226.883 234.935 226.454C234.487 226.025 234.263 225.399 234.263 224.578V220.98H233.031V219.58H234.263V217.872H236.013V219.58H238.015V220.98H236.013V224.536C236.013 224.9 236.102 225.18 236.279 225.376C236.456 225.563 236.713 225.656 237.049 225.656C237.441 225.656 237.768 225.553 238.029 225.348L238.519 226.594ZM239.396 219.524H241.146V227H239.396V219.524ZM240.278 218.292C239.961 218.292 239.695 218.194 239.48 217.998C239.265 217.793 239.158 217.541 239.158 217.242C239.158 216.943 239.265 216.696 239.48 216.5C239.695 216.295 239.961 216.192 240.278 216.192C240.595 216.192 240.861 216.29 241.076 216.486C241.291 216.673 241.398 216.911 241.398 217.2C241.398 217.508 241.291 217.769 241.076 217.984C240.871 218.189 240.605 218.292 240.278 218.292ZM246.24 227.098C245.484 227.098 244.803 226.935 244.196 226.608C243.59 226.281 243.114 225.829 242.768 225.25C242.432 224.662 242.264 223.999 242.264 223.262C242.264 222.525 242.432 221.867 242.768 221.288C243.114 220.709 243.59 220.257 244.196 219.93C244.803 219.603 245.484 219.44 246.24 219.44C247.006 219.44 247.692 219.603 248.298 219.93C248.905 220.257 249.376 220.709 249.712 221.288C250.058 221.867 250.23 222.525 250.23 223.262C250.23 223.999 250.058 224.662 249.712 225.25C249.376 225.829 248.905 226.281 248.298 226.608C247.692 226.935 247.006 227.098 246.24 227.098ZM246.24 225.6C246.884 225.6 247.416 225.385 247.836 224.956C248.256 224.527 248.466 223.962 248.466 223.262C248.466 222.562 248.256 221.997 247.836 221.568C247.416 221.139 246.884 220.924 246.24 220.924C245.596 220.924 245.064 221.139 244.644 221.568C244.234 221.997 244.028 222.562 244.028 223.262C244.028 223.962 244.234 224.527 244.644 224.956C245.064 225.385 245.596 225.6 246.24 225.6ZM255.583 219.44C256.526 219.44 257.282 219.715 257.851 220.266C258.421 220.817 258.705 221.633 258.705 222.716V227H256.955V222.94C256.955 222.287 256.801 221.797 256.493 221.47C256.185 221.134 255.747 220.966 255.177 220.966C254.533 220.966 254.025 221.162 253.651 221.554C253.278 221.937 253.091 222.492 253.091 223.22V227H251.341V219.524H253.007V220.49C253.297 220.145 253.661 219.883 254.099 219.706C254.538 219.529 255.033 219.44 255.583 219.44Z" fill="#fff"/><path d="M362.53 203.14C361.177 203.14 360.122 202.762 359.366 202.006C358.61 201.241 358.232 200.149 358.232 198.73V193.2H360.052V198.66C360.052 200.583 360.883 201.544 362.544 201.544C364.196 201.544 365.022 200.583 365.022 198.66V193.2H366.814V198.73C366.814 200.149 366.436 201.241 365.68 202.006C364.933 202.762 363.883 203.14 362.53 203.14ZM370.942 203.098C370.336 203.098 369.743 203.019 369.164 202.86C368.586 202.701 368.124 202.501 367.778 202.258L368.45 200.928C368.786 201.152 369.188 201.334 369.654 201.474C370.13 201.605 370.597 201.67 371.054 201.67C372.1 201.67 372.622 201.395 372.622 200.844C372.622 200.583 372.487 200.401 372.216 200.298C371.955 200.195 371.53 200.097 370.942 200.004C370.326 199.911 369.822 199.803 369.43 199.682C369.048 199.561 368.712 199.351 368.422 199.052C368.142 198.744 368.002 198.319 368.002 197.778C368.002 197.069 368.296 196.504 368.884 196.084C369.482 195.655 370.284 195.44 371.292 195.44C371.806 195.44 372.319 195.501 372.832 195.622C373.346 195.734 373.766 195.888 374.092 196.084L373.42 197.414C372.786 197.041 372.072 196.854 371.278 196.854C370.765 196.854 370.373 196.933 370.102 197.092C369.841 197.241 369.71 197.442 369.71 197.694C369.71 197.974 369.85 198.175 370.13 198.296C370.42 198.408 370.863 198.515 371.46 198.618C372.058 198.711 372.548 198.819 372.93 198.94C373.313 199.061 373.64 199.267 373.91 199.556C374.19 199.845 374.33 200.256 374.33 200.788C374.33 201.488 374.027 202.048 373.42 202.468C372.814 202.888 371.988 203.098 370.942 203.098ZM382.303 199.304C382.303 199.425 382.294 199.598 382.275 199.822H376.409C376.512 200.373 376.778 200.811 377.207 201.138C377.646 201.455 378.187 201.614 378.831 201.614C379.652 201.614 380.329 201.343 380.861 200.802L381.799 201.88C381.463 202.281 381.038 202.585 380.525 202.79C380.012 202.995 379.433 203.098 378.789 203.098C377.968 203.098 377.244 202.935 376.619 202.608C375.994 202.281 375.508 201.829 375.163 201.25C374.827 200.662 374.659 199.999 374.659 199.262C374.659 198.534 374.822 197.881 375.149 197.302C375.485 196.714 375.947 196.257 376.535 195.93C377.123 195.603 377.786 195.44 378.523 195.44C379.251 195.44 379.9 195.603 380.469 195.93C381.048 196.247 381.496 196.7 381.813 197.288C382.14 197.867 382.303 198.539 382.303 199.304ZM378.523 196.84C377.963 196.84 377.487 197.008 377.095 197.344C376.712 197.671 376.479 198.109 376.395 198.66H380.637C380.562 198.119 380.334 197.68 379.951 197.344C379.568 197.008 379.092 196.84 378.523 196.84ZM385.087 196.616C385.591 195.832 386.478 195.44 387.747 195.44V197.106C387.598 197.078 387.463 197.064 387.341 197.064C386.66 197.064 386.128 197.265 385.745 197.666C385.363 198.058 385.171 198.627 385.171 199.374V203H383.421V195.524H385.087V196.616ZM398.568 200.732H393.668L392.702 203H390.826L395.236 193.2H397.028L401.452 203H399.548L398.568 200.732ZM397.966 199.304L396.118 195.02L394.284 199.304H397.966ZM405.33 203.098C404.555 203.098 403.86 202.935 403.244 202.608C402.628 202.281 402.147 201.829 401.802 201.25C401.457 200.662 401.284 199.999 401.284 199.262C401.284 198.525 401.457 197.867 401.802 197.288C402.147 196.709 402.623 196.257 403.23 195.93C403.846 195.603 404.546 195.44 405.33 195.44C406.067 195.44 406.711 195.589 407.262 195.888C407.822 196.187 408.242 196.616 408.522 197.176L407.178 197.96C406.963 197.615 406.693 197.358 406.366 197.19C406.049 197.013 405.699 196.924 405.316 196.924C404.663 196.924 404.121 197.139 403.692 197.568C403.263 197.988 403.048 198.553 403.048 199.262C403.048 199.971 403.258 200.541 403.678 200.97C404.107 201.39 404.653 201.6 405.316 201.6C405.699 201.6 406.049 201.516 406.366 201.348C406.693 201.171 406.963 200.909 407.178 200.564L408.522 201.348C408.233 201.908 407.808 202.342 407.248 202.65C406.697 202.949 406.058 203.098 405.33 203.098ZM412.793 203.098C412.018 203.098 411.323 202.935 410.707 202.608C410.091 202.281 409.61 201.829 409.265 201.25C408.92 200.662 408.747 199.999 408.747 199.262C408.747 198.525 408.92 197.867 409.265 197.288C409.61 196.709 410.086 196.257 410.693 195.93C411.309 195.603 412.009 195.44 412.793 195.44C413.53 195.44 414.174 195.589 414.725 195.888C415.285 196.187 415.705 196.616 415.985 197.176L414.641 197.96C414.426 197.615 414.156 197.358 413.829 197.19C413.512 197.013 413.162 196.924 412.779 196.924C412.126 196.924 411.584 197.139 411.155 197.568C410.726 197.988 410.511 198.553 410.511 199.262C410.511 199.971 410.721 200.541 411.141 200.97C411.57 201.39 412.116 201.6 412.779 201.6C413.162 201.6 413.512 201.516 413.829 201.348C414.156 201.171 414.426 200.909 414.641 200.564L415.985 201.348C415.696 201.908 415.271 202.342 414.711 202.65C414.16 202.949 413.521 203.098 412.793 203.098ZM423.854 199.304C423.854 199.425 423.844 199.598 423.826 199.822H417.96C418.062 200.373 418.328 200.811 418.758 201.138C419.196 201.455 419.738 201.614 420.382 201.614C421.203 201.614 421.88 201.343 422.412 200.802L423.35 201.88C423.014 202.281 422.589 202.585 422.076 202.79C421.562 202.995 420.984 203.098 420.34 203.098C419.518 203.098 418.795 202.935 418.17 202.608C417.544 202.281 417.059 201.829 416.714 201.25C416.378 200.662 416.21 199.999 416.21 199.262C416.21 198.534 416.373 197.881 416.7 197.302C417.036 196.714 417.498 196.257 418.086 195.93C418.674 195.603 419.336 195.44 420.074 195.44C420.802 195.44 421.45 195.603 422.02 195.93C422.598 196.247 423.046 196.7 423.364 197.288C423.69 197.867 423.854 198.539 423.854 199.304ZM420.074 196.84C419.514 196.84 419.038 197.008 418.646 197.344C418.263 197.671 418.03 198.109 417.946 198.66H422.188C422.113 198.119 421.884 197.68 421.502 197.344C421.119 197.008 420.643 196.84 420.074 196.84ZM429.116 195.44C429.844 195.44 430.493 195.599 431.062 195.916C431.641 196.233 432.094 196.681 432.42 197.26C432.747 197.839 432.91 198.506 432.91 199.262C432.91 200.018 432.747 200.69 432.42 201.278C432.094 201.857 431.641 202.305 431.062 202.622C430.493 202.939 429.844 203.098 429.116 203.098C428.108 203.098 427.31 202.762 426.722 202.09V205.716H424.972V195.524H426.638V196.504C426.928 196.149 427.282 195.883 427.702 195.706C428.132 195.529 428.603 195.44 429.116 195.44ZM428.92 201.6C429.564 201.6 430.092 201.385 430.502 200.956C430.922 200.527 431.132 199.962 431.132 199.262C431.132 198.562 430.922 197.997 430.502 197.568C430.092 197.139 429.564 196.924 428.92 196.924C428.5 196.924 428.122 197.022 427.786 197.218C427.45 197.405 427.184 197.675 426.988 198.03C426.792 198.385 426.694 198.795 426.694 199.262C426.694 199.729 426.792 200.139 426.988 200.494C427.184 200.849 427.45 201.124 427.786 201.32C428.122 201.507 428.5 201.6 428.92 201.6ZM438.501 202.594C438.296 202.762 438.044 202.888 437.745 202.972C437.456 203.056 437.148 203.098 436.821 203.098C436 203.098 435.365 202.883 434.917 202.454C434.469 202.025 434.245 201.399 434.245 200.578V196.98H433.013V195.58H434.245V193.872H435.995V195.58H437.997V196.98H435.995V200.536C435.995 200.9 436.084 201.18 436.261 201.376C436.439 201.563 436.695 201.656 437.031 201.656C437.423 201.656 437.75 201.553 438.011 201.348L438.501 202.594ZM442.234 195.44C443.336 195.44 444.176 195.706 444.754 196.238C445.342 196.761 445.636 197.554 445.636 198.618V203H443.984V202.09C443.77 202.417 443.462 202.669 443.06 202.846C442.668 203.014 442.192 203.098 441.632 203.098C441.072 203.098 440.582 203.005 440.162 202.818C439.742 202.622 439.416 202.356 439.182 202.02C438.958 201.675 438.846 201.287 438.846 200.858C438.846 200.186 439.094 199.649 439.588 199.248C440.092 198.837 440.881 198.632 441.954 198.632H443.886V198.52C443.886 197.997 443.728 197.596 443.41 197.316C443.102 197.036 442.64 196.896 442.024 196.896C441.604 196.896 441.189 196.961 440.778 197.092C440.377 197.223 440.036 197.405 439.756 197.638L439.07 196.364C439.462 196.065 439.934 195.837 440.484 195.678C441.035 195.519 441.618 195.44 442.234 195.44ZM441.996 201.824C442.435 201.824 442.822 201.726 443.158 201.53C443.504 201.325 443.746 201.035 443.886 200.662V199.794H442.08C441.072 199.794 440.568 200.125 440.568 200.788C440.568 201.105 440.694 201.357 440.946 201.544C441.198 201.731 441.548 201.824 441.996 201.824ZM451.562 195.44C452.505 195.44 453.261 195.715 453.83 196.266C454.399 196.817 454.684 197.633 454.684 198.716V203H452.934V198.94C452.934 198.287 452.78 197.797 452.472 197.47C452.164 197.134 451.725 196.966 451.156 196.966C450.512 196.966 450.003 197.162 449.63 197.554C449.257 197.937 449.07 198.492 449.07 199.22V203H447.32V195.524H448.986V196.49C449.275 196.145 449.639 195.883 450.078 195.706C450.517 195.529 451.011 195.44 451.562 195.44ZM459.84 203.098C459.065 203.098 458.37 202.935 457.754 202.608C457.138 202.281 456.657 201.829 456.312 201.25C455.966 200.662 455.794 199.999 455.794 199.262C455.794 198.525 455.966 197.867 456.312 197.288C456.657 196.709 457.133 196.257 457.74 195.93C458.356 195.603 459.056 195.44 459.84 195.44C460.577 195.44 461.221 195.589 461.772 195.888C462.332 196.187 462.752 196.616 463.032 197.176L461.688 197.96C461.473 197.615 461.202 197.358 460.876 197.19C460.558 197.013 460.208 196.924 459.826 196.924C459.172 196.924 458.631 197.139 458.202 197.568C457.772 197.988 457.558 198.553 457.558 199.262C457.558 199.971 457.768 200.541 458.188 200.97C458.617 201.39 459.163 201.6 459.826 201.6C460.208 201.6 460.558 201.516 460.876 201.348C461.202 201.171 461.473 200.909 461.688 200.564L463.032 201.348C462.742 201.908 462.318 202.342 461.758 202.65C461.207 202.949 460.568 203.098 459.84 203.098ZM470.901 199.304C470.901 199.425 470.891 199.598 470.873 199.822H465.007C465.109 200.373 465.375 200.811 465.805 201.138C466.243 201.455 466.785 201.614 467.429 201.614C468.25 201.614 468.927 201.343 469.459 200.802L470.397 201.88C470.061 202.281 469.636 202.585 469.123 202.79C468.609 202.995 468.031 203.098 467.387 203.098C466.565 203.098 465.842 202.935 465.217 202.608C464.591 202.281 464.106 201.829 463.761 201.25C463.425 200.662 463.257 199.999 463.257 199.262C463.257 198.534 463.42 197.881 463.747 197.302C464.083 196.714 464.545 196.257 465.133 195.93C465.721 195.603 466.383 195.44 467.121 195.44C467.849 195.44 468.497 195.603 469.067 195.93C469.645 196.247 470.093 196.7 470.411 197.288C470.737 197.867 470.901 198.539 470.901 199.304ZM467.121 196.84C466.561 196.84 466.085 197.008 465.693 197.344C465.31 197.671 465.077 198.109 464.993 198.66H469.235C469.16 198.119 468.931 197.68 468.549 197.344C468.166 197.008 467.69 196.84 467.121 196.84ZM360.304 214.74H357.056V213.2H365.372V214.74H362.124V223H360.304V214.74ZM372.27 219.304C372.27 219.425 372.26 219.598 372.242 219.822H366.376C366.478 220.373 366.744 220.811 367.174 221.138C367.612 221.455 368.154 221.614 368.798 221.614C369.619 221.614 370.296 221.343 370.828 220.802L371.766 221.88C371.43 222.281 371.005 222.585 370.492 222.79C369.978 222.995 369.4 223.098 368.756 223.098C367.934 223.098 367.211 222.935 366.586 222.608C365.96 222.281 365.475 221.829 365.13 221.25C364.794 220.662 364.626 219.999 364.626 219.262C364.626 218.534 364.789 217.881 365.116 217.302C365.452 216.714 365.914 216.257 366.502 215.93C367.09 215.603 367.752 215.44 368.49 215.44C369.218 215.44 369.866 215.603 370.436 215.93C371.014 216.247 371.462 216.7 371.78 217.288C372.106 217.867 372.27 218.539 372.27 219.304ZM368.49 216.84C367.93 216.84 367.454 217.008 367.062 217.344C366.679 217.671 366.446 218.109 366.362 218.66H370.604C370.529 218.119 370.3 217.68 369.918 217.344C369.535 217.008 369.059 216.84 368.49 216.84ZM375.698 223.098C375.092 223.098 374.499 223.019 373.92 222.86C373.342 222.701 372.88 222.501 372.534 222.258L373.206 220.928C373.542 221.152 373.944 221.334 374.41 221.474C374.886 221.605 375.353 221.67 375.81 221.67C376.856 221.67 377.378 221.395 377.378 220.844C377.378 220.583 377.243 220.401 376.972 220.298C376.711 220.195 376.286 220.097 375.698 220.004C375.082 219.911 374.578 219.803 374.186 219.682C373.804 219.561 373.468 219.351 373.178 219.052C372.898 218.744 372.758 218.319 372.758 217.778C372.758 217.069 373.052 216.504 373.64 216.084C374.238 215.655 375.04 215.44 376.048 215.44C376.562 215.44 377.075 215.501 377.588 215.622C378.102 215.734 378.522 215.888 378.848 216.084L378.176 217.414C377.542 217.041 376.828 216.854 376.034 216.854C375.521 216.854 375.129 216.933 374.858 217.092C374.597 217.241 374.466 217.442 374.466 217.694C374.466 217.974 374.606 218.175 374.886 218.296C375.176 218.408 375.619 218.515 376.216 218.618C376.814 218.711 377.304 218.819 377.686 218.94C378.069 219.061 378.396 219.267 378.666 219.556C378.946 219.845 379.086 220.256 379.086 220.788C379.086 221.488 378.783 222.048 378.176 222.468C377.57 222.888 376.744 223.098 375.698 223.098ZM384.525 222.594C384.319 222.762 384.067 222.888 383.769 222.972C383.479 223.056 383.171 223.098 382.845 223.098C382.023 223.098 381.389 222.883 380.941 222.454C380.493 222.025 380.269 221.399 380.269 220.578V216.98H379.037V215.58H380.269V213.872H382.019V215.58H384.021V216.98H382.019V220.536C382.019 220.9 382.107 221.18 382.285 221.376C382.462 221.563 382.719 221.656 383.055 221.656C383.447 221.656 383.773 221.553 384.035 221.348L384.525 222.594ZM385.402 215.524H387.152V223H385.402V215.524ZM386.284 214.292C385.967 214.292 385.701 214.194 385.486 213.998C385.271 213.793 385.164 213.541 385.164 213.242C385.164 212.943 385.271 212.696 385.486 212.5C385.701 212.295 385.967 212.192 386.284 212.192C386.601 212.192 386.867 212.29 387.082 212.486C387.297 212.673 387.404 212.911 387.404 213.2C387.404 213.508 387.297 213.769 387.082 213.984C386.877 214.189 386.611 214.292 386.284 214.292ZM393.128 215.44C394.071 215.44 394.827 215.715 395.396 216.266C395.966 216.817 396.25 217.633 396.25 218.716V223H394.5V218.94C394.5 218.287 394.346 217.797 394.038 217.47C393.73 217.134 393.292 216.966 392.722 216.966C392.078 216.966 391.57 217.162 391.196 217.554C390.823 217.937 390.636 218.492 390.636 219.22V223H388.886V215.524H390.552V216.49C390.842 216.145 391.206 215.883 391.644 215.706C392.083 215.529 392.578 215.44 393.128 215.44ZM405.396 215.524V221.866C405.396 224.498 404.052 225.814 401.364 225.814C400.645 225.814 399.964 225.721 399.32 225.534C398.676 225.357 398.144 225.095 397.724 224.75L398.508 223.434C398.835 223.705 399.245 223.919 399.74 224.078C400.244 224.246 400.753 224.33 401.266 224.33C402.087 224.33 402.689 224.143 403.072 223.77C403.455 223.397 403.646 222.827 403.646 222.062V221.67C403.347 221.997 402.983 222.244 402.554 222.412C402.125 222.58 401.653 222.664 401.14 222.664C400.431 222.664 399.787 222.515 399.208 222.216C398.639 221.908 398.186 221.479 397.85 220.928C397.523 220.377 397.36 219.747 397.36 219.038C397.36 218.329 397.523 217.703 397.85 217.162C398.186 216.611 398.639 216.187 399.208 215.888C399.787 215.589 400.431 215.44 401.14 215.44C401.681 215.44 402.171 215.529 402.61 215.706C403.058 215.883 403.431 216.154 403.73 216.518V215.524H405.396ZM401.406 221.18C402.069 221.18 402.61 220.984 403.03 220.592C403.459 220.191 403.674 219.673 403.674 219.038C403.674 218.413 403.459 217.904 403.03 217.512C402.61 217.12 402.069 216.924 401.406 216.924C400.734 216.924 400.183 217.12 399.754 217.512C399.334 217.904 399.124 218.413 399.124 219.038C399.124 219.673 399.334 220.191 399.754 220.592C400.183 220.984 400.734 221.18 401.406 221.18Z" fill="#fff"/><path d="M661.316 174.505H663.136V182.765H668.26V184.305H661.316V174.505ZM671.891 176.745C672.992 176.745 673.832 177.011 674.411 177.543C674.999 178.065 675.293 178.859 675.293 179.923V184.305H673.641V183.395C673.426 183.721 673.118 183.973 672.717 184.151C672.325 184.319 671.849 184.403 671.289 184.403C670.729 184.403 670.239 184.309 669.819 184.123C669.399 183.927 669.072 183.661 668.839 183.325C668.615 182.979 668.503 182.592 668.503 182.163C668.503 181.491 668.75 180.954 669.245 180.553C669.749 180.142 670.537 179.937 671.611 179.937H673.543V179.825C673.543 179.302 673.384 178.901 673.067 178.621C672.759 178.341 672.297 178.201 671.681 178.201C671.261 178.201 670.845 178.266 670.435 178.397C670.033 178.527 669.693 178.709 669.413 178.943L668.727 177.669C669.119 177.37 669.59 177.141 670.141 176.983C670.691 176.824 671.275 176.745 671.891 176.745ZM671.653 183.129C672.091 183.129 672.479 183.031 672.815 182.835C673.16 182.629 673.403 182.34 673.543 181.967V181.099H671.737C670.729 181.099 670.225 181.43 670.225 182.093C670.225 182.41 670.351 182.662 670.603 182.849C670.855 183.035 671.205 183.129 671.653 183.129ZM684.214 176.829V184.305H682.548V183.353C682.268 183.689 681.918 183.95 681.498 184.137C681.078 184.314 680.625 184.403 680.14 184.403C679.141 184.403 678.353 184.127 677.774 183.577C677.205 183.017 676.92 182.191 676.92 181.099V176.829H678.67V180.861C678.67 181.533 678.819 182.037 679.118 182.373C679.426 182.699 679.86 182.863 680.42 182.863C681.045 182.863 681.54 182.671 681.904 182.289C682.277 181.897 682.464 181.337 682.464 180.609V176.829H684.214ZM690.185 176.745C691.128 176.745 691.884 177.02 692.453 177.571C693.022 178.121 693.307 178.938 693.307 180.021V184.305H691.557V180.245C691.557 179.591 691.403 179.101 691.095 178.775C690.787 178.439 690.348 178.271 689.779 178.271C689.135 178.271 688.626 178.467 688.253 178.859C687.88 179.241 687.693 179.797 687.693 180.525V184.305H685.943V176.829H687.609V177.795C687.898 177.449 688.262 177.188 688.701 177.011C689.14 176.833 689.634 176.745 690.185 176.745ZM698.463 184.403C697.688 184.403 696.993 184.239 696.377 183.913C695.761 183.586 695.28 183.133 694.935 182.555C694.589 181.967 694.417 181.304 694.417 180.567C694.417 179.829 694.589 179.171 694.935 178.593C695.28 178.014 695.756 177.561 696.363 177.235C696.979 176.908 697.679 176.745 698.463 176.745C699.2 176.745 699.844 176.894 700.395 177.193C700.955 177.491 701.375 177.921 701.655 178.481L700.311 179.265C700.096 178.919 699.825 178.663 699.499 178.495C699.181 178.317 698.831 178.229 698.449 178.229C697.795 178.229 697.254 178.443 696.825 178.873C696.395 179.293 696.181 179.857 696.181 180.567C696.181 181.276 696.391 181.845 696.811 182.275C697.24 182.695 697.786 182.905 698.449 182.905C698.831 182.905 699.181 182.821 699.499 182.653C699.825 182.475 700.096 182.214 700.311 181.869L701.655 182.653C701.365 183.213 700.941 183.647 700.381 183.955C699.83 184.253 699.191 184.403 698.463 184.403ZM706.779 176.745C707.721 176.745 708.477 177.02 709.047 177.571C709.616 178.121 709.901 178.938 709.901 180.021V184.305H708.151V180.245C708.151 179.591 707.997 179.101 707.689 178.775C707.381 178.439 706.942 178.271 706.373 178.271C705.729 178.271 705.22 178.467 704.847 178.859C704.473 179.241 704.287 179.797 704.287 180.525V184.305H702.537V173.917H704.287V177.697C704.576 177.389 704.931 177.155 705.351 176.997C705.78 176.829 706.256 176.745 706.779 176.745Z" fill="#fff"/><path d="M714.476 17.4806C713.72 17.4806 712.987 17.3732 712.278 17.1586C711.578 16.9439 711.023 16.6592 710.612 16.3046L711.242 14.8906C711.643 15.2079 712.133 15.4692 712.712 15.6746C713.3 15.8706 713.888 15.9686 714.476 15.9686C715.204 15.9686 715.745 15.8519 716.1 15.6186C716.464 15.3852 716.646 15.0772 716.646 14.6946C716.646 14.4146 716.543 14.1859 716.338 14.0086C716.142 13.8219 715.89 13.6772 715.582 13.5746C715.274 13.4719 714.854 13.3552 714.322 13.2246C713.575 13.0472 712.969 12.8699 712.502 12.6926C712.045 12.5152 711.648 12.2399 711.312 11.8666C710.985 11.4839 710.822 10.9706 710.822 10.3266C710.822 9.78524 710.967 9.29524 711.256 8.85658C711.555 8.40858 711.998 8.05391 712.586 7.79258C713.183 7.53124 713.911 7.40058 714.77 7.40058C715.367 7.40058 715.955 7.47524 716.534 7.62458C717.113 7.77391 717.612 7.98858 718.032 8.26858L717.458 9.68258C717.029 9.43058 716.581 9.23924 716.114 9.10858C715.647 8.97791 715.195 8.91258 714.756 8.91258C714.037 8.91258 713.501 9.03391 713.146 9.27658C712.801 9.51924 712.628 9.84124 712.628 10.2426C712.628 10.5226 712.726 10.7512 712.922 10.9286C713.127 11.1059 713.384 11.2459 713.692 11.3486C714 11.4512 714.42 11.5679 714.952 11.6986C715.68 11.8666 716.277 12.0439 716.744 12.2306C717.211 12.4079 717.607 12.6832 717.934 13.0566C718.27 13.4299 718.438 13.9339 718.438 14.5686C718.438 15.1099 718.289 15.5999 717.99 16.0386C717.701 16.4772 717.257 16.8272 716.66 17.0886C716.063 17.3499 715.335 17.4806 714.476 17.4806ZM726.75 9.86458V17.3406H725.084V16.3886C724.804 16.7246 724.454 16.9859 724.034 17.1726C723.614 17.3499 723.162 17.4386 722.676 17.4386C721.678 17.4386 720.889 17.1632 720.31 16.6126C719.741 16.0526 719.456 15.2266 719.456 14.1346V9.86458H721.206V13.8966C721.206 14.5686 721.356 15.0726 721.654 15.4086C721.962 15.7352 722.396 15.8986 722.956 15.8986C723.582 15.8986 724.076 15.7072 724.44 15.3246C724.814 14.9326 725 14.3726 725 13.6446V9.86458H726.75ZM732.623 9.78058C733.351 9.78058 734 9.93924 734.569 10.2566C735.148 10.5739 735.6 11.0219 735.927 11.6006C736.254 12.1792 736.417 12.8466 736.417 13.6026C736.417 14.3586 736.254 15.0306 735.927 15.6186C735.6 16.1972 735.148 16.6452 734.569 16.9626C734 17.2799 733.351 17.4386 732.623 17.4386C731.615 17.4386 730.817 17.1026 730.229 16.4306V20.0566H728.479V9.86458H730.145V10.8446C730.434 10.4899 730.789 10.2239 731.209 10.0466C731.638 9.86924 732.11 9.78058 732.623 9.78058ZM732.427 15.9406C733.071 15.9406 733.598 15.7259 734.009 15.2966C734.429 14.8672 734.639 14.3026 734.639 13.6026C734.639 12.9026 734.429 12.3379 734.009 11.9086C733.598 11.4792 733.071 11.2646 732.427 11.2646C732.007 11.2646 731.629 11.3626 731.293 11.5586C730.957 11.7452 730.691 12.0159 730.495 12.3706C730.299 12.7252 730.201 13.1359 730.201 13.6026C730.201 14.0692 730.299 14.4799 730.495 14.8346C730.691 15.1892 730.957 15.4646 731.293 15.6606C731.629 15.8472 732.007 15.9406 732.427 15.9406ZM741.658 9.78058C742.386 9.78058 743.035 9.93924 743.604 10.2566C744.183 10.5739 744.636 11.0219 744.962 11.6006C745.289 12.1792 745.452 12.8466 745.452 13.6026C745.452 14.3586 745.289 15.0306 744.962 15.6186C744.636 16.1972 744.183 16.6452 743.604 16.9626C743.035 17.2799 742.386 17.4386 741.658 17.4386C740.65 17.4386 739.852 17.1026 739.264 16.4306V20.0566H737.514V9.86458H739.18V10.8446C739.47 10.4899 739.824 10.2239 740.244 10.0466C740.674 9.86924 741.145 9.78058 741.658 9.78058ZM741.462 15.9406C742.106 15.9406 742.634 15.7259 743.044 15.2966C743.464 14.8672 743.674 14.3026 743.674 13.6026C743.674 12.9026 743.464 12.3379 743.044 11.9086C742.634 11.4792 742.106 11.2646 741.462 11.2646C741.042 11.2646 740.664 11.3626 740.328 11.5586C739.992 11.7452 739.726 12.0159 739.53 12.3706C739.334 12.7252 739.236 13.1359 739.236 13.6026C739.236 14.0692 739.334 14.4799 739.53 14.8346C739.726 15.1892 739.992 15.4646 740.328 15.6606C740.664 15.8472 741.042 15.9406 741.462 15.9406ZM749.909 17.4386C749.153 17.4386 748.472 17.2752 747.865 16.9486C747.259 16.6219 746.783 16.1692 746.437 15.5906C746.101 15.0026 745.933 14.3399 745.933 13.6026C745.933 12.8652 746.101 12.2072 746.437 11.6286C746.783 11.0499 747.259 10.5972 747.865 10.2706C748.472 9.94391 749.153 9.78058 749.909 9.78058C750.675 9.78058 751.361 9.94391 751.967 10.2706C752.574 10.5972 753.045 11.0499 753.381 11.6286C753.727 12.2072 753.899 12.8652 753.899 13.6026C753.899 14.3399 753.727 15.0026 753.381 15.5906C753.045 16.1692 752.574 16.6219 751.967 16.9486C751.361 17.2752 750.675 17.4386 749.909 17.4386ZM749.909 15.9406C750.553 15.9406 751.085 15.7259 751.505 15.2966C751.925 14.8672 752.135 14.3026 752.135 13.6026C752.135 12.9026 751.925 12.3379 751.505 11.9086C751.085 11.4792 750.553 11.2646 749.909 11.2646C749.265 11.2646 748.733 11.4792 748.313 11.9086C747.903 12.3379 747.697 12.9026 747.697 13.6026C747.697 14.3026 747.903 14.8672 748.313 15.2966C748.733 15.7259 749.265 15.9406 749.909 15.9406ZM756.676 10.9566C757.18 10.1726 758.067 9.78058 759.336 9.78058V11.4466C759.187 11.4186 759.052 11.4046 758.93 11.4046C758.249 11.4046 757.717 11.6052 757.334 12.0066C756.952 12.3986 756.76 12.9679 756.76 13.7146V17.3406H755.01V9.86458H756.676V10.9566ZM765.026 16.9346C764.82 17.1026 764.568 17.2286 764.27 17.3126C763.98 17.3966 763.672 17.4386 763.346 17.4386C762.524 17.4386 761.89 17.2239 761.442 16.7946C760.994 16.3652 760.77 15.7399 760.77 14.9186V11.3206H759.538V9.92058H760.77V8.21258H762.52V9.92058H764.522V11.3206H762.52V14.8766C762.52 15.2406 762.608 15.5206 762.786 15.7166C762.963 15.9032 763.22 15.9966 763.556 15.9966C763.948 15.9966 764.274 15.8939 764.536 15.6886L765.026 16.9346Z" fill="#1476F2"/><path d="M510.318 108L510.304 101.504L507.084 106.88H506.272L503.052 101.588V108H501.316V98.2H502.814L506.706 104.696L510.528 98.2H512.026L512.04 108H510.318ZM523.016 98.2L518.746 108H516.954L512.67 98.2H514.644L517.906 105.76L521.196 98.2H523.016ZM527.52 98.2C528.369 98.2 529.107 98.34 529.732 98.62C530.367 98.9 530.852 99.3013 531.188 99.824C531.524 100.347 531.692 100.967 531.692 101.686C531.692 102.395 531.524 103.016 531.188 103.548C530.852 104.071 530.367 104.472 529.732 104.752C529.107 105.032 528.369 105.172 527.52 105.172H525.308V108H523.488V98.2H527.52ZM527.436 103.632C528.229 103.632 528.831 103.464 529.242 103.128C529.653 102.792 529.858 102.311 529.858 101.686C529.858 101.061 529.653 100.58 529.242 100.244C528.831 99.908 528.229 99.74 527.436 99.74H525.308V103.632H527.436ZM535.339 96.212H536.907L532.287 109.4H530.719L535.339 96.212ZM539.852 108.14C539.096 108.14 538.363 108.033 537.654 107.818C536.954 107.603 536.399 107.319 535.988 106.964L536.618 105.55C537.019 105.867 537.509 106.129 538.088 106.334C538.676 106.53 539.264 106.628 539.852 106.628C540.58 106.628 541.121 106.511 541.476 106.278C541.84 106.045 542.022 105.737 542.022 105.354C542.022 105.074 541.919 104.845 541.714 104.668C541.518 104.481 541.266 104.337 540.958 104.234C540.65 104.131 540.23 104.015 539.698 103.884C538.951 103.707 538.345 103.529 537.878 103.352C537.421 103.175 537.024 102.899 536.688 102.526C536.361 102.143 536.198 101.63 536.198 100.986C536.198 100.445 536.343 99.9547 536.632 99.516C536.931 99.068 537.374 98.7133 537.962 98.452C538.559 98.1907 539.287 98.06 540.146 98.06C540.743 98.06 541.331 98.1347 541.91 98.284C542.489 98.4333 542.988 98.648 543.408 98.928L542.834 100.342C542.405 100.09 541.957 99.8987 541.49 99.768C541.023 99.6373 540.571 99.572 540.132 99.572C539.413 99.572 538.877 99.6933 538.522 99.936C538.177 100.179 538.004 100.501 538.004 100.902C538.004 101.182 538.102 101.411 538.298 101.588C538.503 101.765 538.76 101.905 539.068 102.008C539.376 102.111 539.796 102.227 540.328 102.358C541.056 102.526 541.653 102.703 542.12 102.89C542.587 103.067 542.983 103.343 543.31 103.716C543.646 104.089 543.814 104.593 543.814 105.228C543.814 105.769 543.665 106.259 543.366 106.698C543.077 107.137 542.633 107.487 542.036 107.748C541.439 108.009 540.711 108.14 539.852 108.14ZM548.248 108.098C547.492 108.098 546.811 107.935 546.204 107.608C545.598 107.281 545.122 106.829 544.776 106.25C544.44 105.662 544.272 104.999 544.272 104.262C544.272 103.525 544.44 102.867 544.776 102.288C545.122 101.709 545.598 101.257 546.204 100.93C546.811 100.603 547.492 100.44 548.248 100.44C549.014 100.44 549.7 100.603 550.306 100.93C550.913 101.257 551.384 101.709 551.72 102.288C552.066 102.867 552.238 103.525 552.238 104.262C552.238 104.999 552.066 105.662 551.72 106.25C551.384 106.829 550.913 107.281 550.306 107.608C549.7 107.935 549.014 108.098 548.248 108.098ZM548.248 106.6C548.892 106.6 549.424 106.385 549.844 105.956C550.264 105.527 550.474 104.962 550.474 104.262C550.474 103.562 550.264 102.997 549.844 102.568C549.424 102.139 548.892 101.924 548.248 101.924C547.604 101.924 547.072 102.139 546.652 102.568C546.242 102.997 546.036 103.562 546.036 104.262C546.036 104.962 546.242 105.527 546.652 105.956C547.072 106.385 547.604 106.6 548.248 106.6ZM556.387 98.928C555.65 98.928 555.281 99.3293 555.281 100.132V100.58H557.339V101.98H555.337V108H553.587V101.98H552.355V100.58H553.587V100.104C553.587 99.3013 553.821 98.6713 554.287 98.214C554.754 97.7473 555.412 97.514 556.261 97.514C556.933 97.514 557.461 97.6493 557.843 97.92L557.353 99.236C557.055 99.0307 556.733 98.928 556.387 98.928ZM562.449 107.594C562.243 107.762 561.991 107.888 561.693 107.972C561.403 108.056 561.095 108.098 560.769 108.098C559.947 108.098 559.313 107.883 558.865 107.454C558.417 107.025 558.193 106.399 558.193 105.578V101.98H556.961V100.58H558.193V98.872H559.943V100.58H561.945V101.98H559.943V105.536C559.943 105.9 560.031 106.18 560.209 106.376C560.386 106.563 560.643 106.656 560.979 106.656C561.371 106.656 561.697 106.553 561.959 106.348L562.449 107.594ZM566.8 98.2H568.62V106.46H573.744V108H566.8V98.2ZM577.375 100.44C578.476 100.44 579.316 100.706 579.895 101.238C580.483 101.761 580.777 102.554 580.777 103.618V108H579.125V107.09C578.91 107.417 578.602 107.669 578.201 107.846C577.809 108.014 577.333 108.098 576.773 108.098C576.213 108.098 575.723 108.005 575.303 107.818C574.883 107.622 574.556 107.356 574.323 107.02C574.099 106.675 573.987 106.287 573.987 105.858C573.987 105.186 574.234 104.649 574.729 104.248C575.233 103.837 576.022 103.632 577.095 103.632H579.027V103.52C579.027 102.997 578.868 102.596 578.551 102.316C578.243 102.036 577.781 101.896 577.165 101.896C576.745 101.896 576.33 101.961 575.919 102.092C575.518 102.223 575.177 102.405 574.897 102.638L574.211 101.364C574.603 101.065 575.074 100.837 575.625 100.678C576.176 100.519 576.759 100.44 577.375 100.44ZM577.137 106.824C577.576 106.824 577.963 106.726 578.299 106.53C578.644 106.325 578.887 106.035 579.027 105.662V104.794H577.221C576.213 104.794 575.709 105.125 575.709 105.788C575.709 106.105 575.835 106.357 576.087 106.544C576.339 106.731 576.689 106.824 577.137 106.824ZM589.699 100.524V108H588.033V107.048C587.753 107.384 587.403 107.645 586.983 107.832C586.563 108.009 586.11 108.098 585.625 108.098C584.626 108.098 583.837 107.823 583.259 107.272C582.689 106.712 582.405 105.886 582.405 104.794V100.524H584.155V104.556C584.155 105.228 584.304 105.732 584.603 106.068C584.911 106.395 585.345 106.558 585.905 106.558C586.53 106.558 587.025 106.367 587.389 105.984C587.762 105.592 587.949 105.032 587.949 104.304V100.524H589.699ZM595.669 100.44C596.612 100.44 597.368 100.715 597.937 101.266C598.507 101.817 598.791 102.633 598.791 103.716V108H597.041V103.94C597.041 103.287 596.887 102.797 596.579 102.47C596.271 102.134 595.833 101.966 595.263 101.966C594.619 101.966 594.111 102.162 593.737 102.554C593.364 102.937 593.177 103.492 593.177 104.22V108H591.427V100.524H593.093V101.49C593.383 101.145 593.747 100.883 594.185 100.706C594.624 100.529 595.119 100.44 595.669 100.44ZM603.947 108.098C603.172 108.098 602.477 107.935 601.861 107.608C601.245 107.281 600.764 106.829 600.419 106.25C600.074 105.662 599.901 104.999 599.901 104.262C599.901 103.525 600.074 102.867 600.419 102.288C600.764 101.709 601.24 101.257 601.847 100.93C602.463 100.603 603.163 100.44 603.947 100.44C604.684 100.44 605.328 100.589 605.879 100.888C606.439 101.187 606.859 101.616 607.139 102.176L605.795 102.96C605.58 102.615 605.31 102.358 604.983 102.19C604.666 102.013 604.316 101.924 603.933 101.924C603.28 101.924 602.738 102.139 602.309 102.568C601.88 102.988 601.665 103.553 601.665 104.262C601.665 104.971 601.875 105.541 602.295 105.97C602.724 106.39 603.27 106.6 603.933 106.6C604.316 106.6 604.666 106.516 604.983 106.348C605.31 106.171 605.58 105.909 605.795 105.564L607.139 106.348C606.85 106.908 606.425 107.342 605.865 107.65C605.314 107.949 604.675 108.098 603.947 108.098ZM612.263 100.44C613.206 100.44 613.962 100.715 614.531 101.266C615.1 101.817 615.385 102.633 615.385 103.716V108H613.635V103.94C613.635 103.287 613.481 102.797 613.173 102.47C612.865 102.134 612.426 101.966 611.857 101.966C611.213 101.966 610.704 102.162 610.331 102.554C609.958 102.937 609.771 103.492 609.771 104.22V108H608.021V97.612H609.771V101.392C610.06 101.084 610.415 100.851 610.835 100.692C611.264 100.524 611.74 100.44 612.263 100.44Z" fill="#fff"/><defs><linearGradient id="paint0_linear" x1="95.408" y1="119.453" x2="30.37" y2="119.453" gradientUnits="userSpaceOnUse"><stop stop-color="#2A82F2"/><stop offset="1" stop-color="#005ED7"/></linearGradient><linearGradient id="paint1_linear" x1="752.997" y1="9.086" x2="687.96" y2="9.086" gradientUnits="userSpaceOnUse"><stop stop-color="#2A82F2"/><stop offset="1" stop-color="#005ED7"/></linearGradient><linearGradient id="paint2_linear" x1="194.56" y1="128.167" x2="147.733" y2="128.167" gradientUnits="userSpaceOnUse"><stop stop-color="#2A82F2"/><stop offset="1" stop-color="#005ED7"/></linearGradient><linearGradient id="paint3_linear" x1="320.15" y1="128.167" x2="273.323" y2="128.167" gradientUnits="userSpaceOnUse"><stop stop-color="#2A82F2"/><stop offset="1" stop-color="#005ED7"/></linearGradient><linearGradient id="paint4_linear" x1="436.236" y1="128.167" x2="389.409" y2="128.167" gradientUnits="userSpaceOnUse"><stop stop-color="#2A82F2"/><stop offset="1" stop-color="#005ED7"/></linearGradient><linearGradient id="paint5_linear" x1="567.936" y1="130.806" x2="521.109" y2="130.806" gradientUnits="userSpaceOnUse"><stop stop-color="#2A82F2"/><stop offset="1" stop-color="#005ED7"/></linearGradient><linearGradient id="paint6_linear" x1="698.957" y1="113.911" x2="652.13" y2="113.911" gradientUnits="userSpaceOnUse"><stop stop-color="#2A82F2"/><stop offset="1" stop-color="#005ED7"/></linearGradient><linearGradient id="paint7_linear" x1="197.692" y1="114.872" x2="47.496" y2="85.848" gradientUnits="userSpaceOnUse"><stop offset=".174" stop-color="#53A0FD"/><stop offset="1" stop-color="#2A82F2"/></linearGradient><linearGradient id="paint8_linear" x1="512.363" y1="117.512" x2="269.662" y2="47.792" gradientUnits="userSpaceOnUse"><stop offset=".174" stop-color="#53A0FD"/><stop offset="1" stop-color="#2A82F2"/></linearGradient><linearGradient id="paint9_linear" x1="329.276" y1="237.663" x2="176.119" y2="210.878" gradientUnits="userSpaceOnUse"><stop offset=".174" stop-color="#53A0FD"/><stop offset="1" stop-color="#2A82F2"/></linearGradient><linearGradient id="paint10_linear" x1="538.568" y1="230.872" x2="385.645" y2="200.742" gradientUnits="userSpaceOnUse"><stop offset=".174" stop-color="#53A0FD"/><stop offset="1" stop-color="#2A82F2"/></linearGradient><linearGradient id="paint11_linear" x1="765.503" y1="193.953" x2="667.142" y2="172.937" gradientUnits="userSpaceOnUse"><stop offset=".174" stop-color="#53A0FD"/><stop offset="1" stop-color="#2A82F2"/></linearGradient><linearGradient id="paint12_linear" x1="684.153" y1="123.233" x2="531.375" y2="88.014" gradientUnits="userSpaceOnUse"><stop offset=".174" stop-color="#53A0FD"/><stop offset="1" stop-color="#2A82F2"/></linearGradient></defs></svg>