<svg height="36" viewBox="0 0 70 36" width="70" xmlns="http://www.w3.org/2000/svg"><g fill="#fff" fill-rule="evenodd"><path d="m43.599 18.104 7.398-3.174v7.373l-7.398-4.2zm7.974-3.174 7.398 3.174-7.398 4.2zm-.576-9.508v8.91l-7.733 3.318zm.576 8.91v-8.91l7.733 12.228z"/><path d="m51.285 24.562 8.02-4.882-8.02 11.52-8.021-11.52 8.02 4.882zm-38.753-15.272.019-2.41 3.859.03-.02 2.409 1.74.014.018-2.41 3.86.029-.02 2.451a4.678 4.678 0 0 1 3.514 2.372 4.634 4.634 0 0 1 -1.326 5.984 4.934 4.934 0 0 1 2.132 2.027 4.91 4.91 0 0 1 -.11 4.935 4.956 4.956 0 0 1 -2.95 2.196c-.334.09-.678.146-1.024.165l-.001.011h-.382l-.088 2.13-3.86-.03.09-2.129-1.739-.013-.089 2.13-3.859-.03.09-2.129-2.178-.015.028-3.704 1.214.008.08-10.324-1.214-.009.028-3.704 2.188.017zm4.427 7.942 1.621.012c.21 0 .417-.024.617-.074.982-.253 1.673-1.097 1.681-2.054v-.11c.01-1.181-1.005-2.15-2.261-2.16l-1.623-.01zm-.075 7.193 2.091.017c.219.001.436-.029.646-.087 1.028-.292 1.75-1.275 1.758-2.389v-.13c.01-1.375-1.051-2.502-2.367-2.513l-2.091-.016z"/><path d="m0 18c0-9.941 8.161-18 18.23-18 10.067 0 18.228 8.059 18.228 18s-8.16 18-18.229 18c-10.068 0-18.229-8.059-18.229-18zm.688 0c0 9.566 7.854 17.32 17.541 17.32 9.688 0 17.541-7.754 17.541-17.32s-7.853-17.32-17.54-17.32c-9.689 0-17.543 7.753-17.543 17.32zm50.839-18c-5.929 0-11.202 2.726-14.583 6.958.13.209.253.42.375.635 3.244-4.199 8.4-6.914 14.208-6.914 9.817.001 17.776 7.755 17.776 17.321s-7.959 17.32-17.776 17.32c-5.808 0-10.964-2.714-14.208-6.913-.122.214-.246.426-.375.635 3.38 4.232 8.654 6.958 14.583 6.958 10.203 0 18.473-8.059 18.473-18s-8.27-18-18.473-18"/></g></svg>