<svg height="52" viewBox="0 0 186 52" width="186" xmlns="http://www.w3.org/2000/svg"><g fill="#0054b2" fill-rule="evenodd"><path d="m26.1822034 0c14.4600316 0 26.1822034 11.6405965 26.1822034 26s-11.7221718 26-26.1822034 26c-14.4600317 0-26.1822034-11.6405965-26.1822034-26s11.7221717-26 26.1822034-26zm-14.5531203 36.6557377c-1.68157127 0-3.04475412 1.3536964-3.04475412 3.0235655s1.36318285 3.0235655 3.04475412 3.0235655c1.6815713 0 3.0447541-1.3536964 3.0447541-3.0235655s-1.3631828-3.0235655-3.0447541-3.0235655zm8.4609293-10.7356557c-3.5779689 0-6.4784858 2.880332-6.4784858 6.4334016s2.9005169 6.4334017 6.4784858 6.4334017 6.4784858-2.8803321 6.4784858-6.4334017-2.9005169-6.4334016-6.4784858-6.4334016zm15.371314-19.10040987c-6.7396192 0-12.2031601 5.42551977-12.2031601 12.11823767 0 6.6927178 5.4635409 12.1182376 12.2031601 12.1182376s12.2031601-5.4255198 12.2031601-12.1182376c0-6.6927179-5.4635409-12.11823767-12.2031601-12.11823767z"/><path d="m27.4913136 23.325277v-8.8974747h1.4647049v8.8974747zm9.3833456 0h-5.0682467v-8.8974747h5.0682467v1.2293365h-3.6035418v2.4221579h3.3767883v1.2171648h-3.3767883v2.7933932h3.6035418zm5.748507-7.7776831c-.8416477 0-1.5035161.2961738-1.985625.8885303s-.7231597 1.4098774-.7231597 2.4525871c0 1.0913966.2318582 1.9170318.6955816 2.4769304s1.1347844.8398437 2.0132031.8398437c.3799672 0 .7476719-.0375289 1.1031251-.1125878.3554531-.0750588.7252006-.1714168 1.1092535-.2890766v1.2475939c-.702735.2637204-1.4994285.3955786-2.3901043.3955786-1.3114996 0-2.3186018-.3945603-3.0213368-1.1836928s-1.0540973-1.9180415-1.0540973-3.3867611c0-.9250498.1705741-1.7344563.5117275-2.4282437.3411533-.6937874.8344904-1.2252774 1.480026-1.5944859.6455357-.3692085 1.4034159-.55381 2.2736633-.55381.9151898 0 1.7609105.1906872 2.5371876.5720675l-.5270487 1.2110789c-.3023395-.1420032-.6220382-.2667614-.9591059-.3742781-.3370677-.1075168-.6914941-.1612744-1.06329-.1612744z" fill-rule="nonzero"/><g transform="translate(66.161017 5.916168)"><path d="m37.8938008 4.04790419c1.7866611 0 3.1266568.47372465 4.0296554 1.42117395.8991314.94744929 1.3477302 2.30393795 1.3477302 4.06946595v1.28799831h-7.9606963c.0348051.5307999.1469548.9740845.3403164 1.3336586.1972288.3557691.4485989.6411454.7695791.8523238.3113121.2111785.6728983.3614767 1.0886257.4546996.4157274.0913204.8681935.1369806 1.3593319.1369806.4234619 0 .8391893-.0456602 1.2452486-.1388831.4079929-.0913204.7831144-.2111785 1.1195636-.3633791.2977768-.1274681.5742839-.2701563.8256539-.4204545.2533037-.1502981.458267-.2815712.6168235-.3995268h.3847895v2.958401c-.2977768.1141505-.5704167.2225935-.8159859.3215239-.2455692.100833-.5820183.1997634-1.011281.3024989-.3944577.1027354-.800517.1826408-1.2162444.2397161-.4195946.0570752-.9300692.0875154-1.5333573.0875154-2.1985212 0-3.8827006-.5193849-5.0564054-1.5524471-1.1717712-1.0368672-1.7576568-2.5132139-1.7576568-4.4290401 0-1.87206845.5452797-3.36744023 1.6397062-4.48611531 1.0905594-1.11677256 2.6200495-1.6761101 4.5846031-1.6761101zm11.8285469 0c.8180231 0 1.5738686.08020694 2.2655936.24062082.6858958.16041388 1.2668671.35329247 1.7409707.57672609v2.91227578h-.2914571c-.1262981-.09548445-.3225459-.22534331-.5965157-.38575719-.2700836-.15850419-.5343381-.2960018-.7888773-.41249283-.3070016-.13749761-.648978-.24825957-1.0278723-.33801496-.3808373-.08784569-.7675038-.13176854-1.1619425-.13176854-.528509 0-.9754099.08784569-1.3407029.26544677-.3633499.17760108-.5459964.41249284-.5459964.70467526 0 .25971771.0913232.46596412.2700836.61682956.1826465.14895574.5731991.2960018 1.17943.43922847.3108876.07447788.6722945.14895575 1.0783914.21961424.4099831.07256819.8005357.16996233 1.1755439.29409211.8393966.26544678 1.4767163.65693303 1.913902 1.17254903.4313566.5156161.652864 1.2011944.652864 2.0548254 0 .5385324-.1301842 1.0541484-.3866665 1.5430288-.2584253.4888804-.6237183.8994635-1.0939358 1.2336591-.5013063.3628409-1.0919928.6416555-1.7681734.8421729-.6800667.1966979-1.4922607.2960018-2.4365818.2960018-.8607702 0-1.6768502-.0916651-2.4482401-.2769049-.7655608-.1833302-1.4009374-.4010347-1.9003007-.6454749v-3.0306765h.2992294c.1748742.1279491.3711221.2711758.5965156.4277703.2195644.1565945.530452.3208278.9248907.4907901.3419764.1565945.7247568.2902727 1.1541703.4048541.4255275.1126716.8879728.1680526 1.3892791.1680526.5149077 0 .9676378-.0782973 1.3620765-.2348918.3905526-.1565945.5887434-.4067637.5887434-.7485981 0-.263537-.0913232-.4659641-.2739697-.6034617-.1787604-.1355879-.530452-.2654468-1.0511888-.3876669-.2817419-.0687488-.6295475-.1432266-1.0550749-.2234336-.4255275-.0782972-.8005357-.1661429-1.1269677-.2692661-.9190615-.2807243-1.6088435-.6951268-2.0693458-1.2451173-.4624453-.55190012-.693668-1.27185288-.693668-2.16749704 0-.51370635.1185259-.99685768.3614069-1.45136367.2389948-.4525963.5906865-.85745037 1.058961-1.21456222.4624453-.34756341 1.0395305-.62446832 1.7254263-.82880504.6839528-.20624642 1.4572858-.30745994 2.319999-.30745994zm10.148339-2.80239521v3.27770516h3.4682964v2.49006901h-3.4682964v4.05774965c0 .4004608.003843.7496778.011529 1.047651.007686.301769.0595663.5693755.1652485.8066153.0941532.2372398.2670876.4270317.5111173.5655797.2401867.140446.5956631.208771 1.0606646.208771.1959924 0 .4477081-.0398562.75899-.1195688.311282-.0797126.5284108-.1537314.6533079-.2201586h.3074391v2.5071503c-.3900633.1005897-.8070274.1803023-1.2470495.2372398-.4419436.0569376-.9780404.0873043-1.6198193.0873043-1.4718643 0-2.5402148-.2979732-3.2127376-.8977155-.6686799-.5959464-1.0068628-1.5752723-1.0068628-2.9341819v-5.34643625h-1.3796325v-2.49006901h1.3796325v-3.27770516zm30.7010802 2.80239521c1.7866611 0 3.1266568.47372465 4.0296554 1.42117395.8991314.94744929 1.3477302 2.30393795 1.3477302 4.06946595v1.28799831h-7.9606963c.0348051.5307999.1469548.9740845.3403164 1.3336586.1952952.3557691.4485989.6411454.7695791.8523238.3093785.2111785.6728983.3614767 1.0886257.4546996.4157274.0913204.8681935.1369806 1.3593319.1369806.4234619 0 .8372557-.0456602 1.2452486-.1388831.4079929-.0913204.7831144-.2111785 1.1195636-.3633791.2977768-.1274681.5723503-.2701563.8256539-.4204545.2533037-.1502981.458267-.2815712.6168235-.3995268h.3847895v2.958401c-.2977768.1141505-.5704166.2225935-.8159859.3215239-.2455692.100833-.5820183.1997634-1.011281.3024989-.3944577.1027354-.8024506.1826408-1.2162444.2397161-.4195946.0570752-.9300692.0875154-1.5333573.0875154-2.1985212 0-3.8827006-.5193849-5.058339-1.5524471-1.1698376-1.0368672-1.7557232-2.5132139-1.7557232-4.4290401 0-1.87206845.5433461-3.36744023 1.6397062-4.48611531 1.0905594-1.11677256 2.6200495-1.6761101 4.5846031-1.6761101zm-86.89819186.37614818v11.45618713h-3.57116252v-11.45618713zm10.19581776-.37614818c1.1950008 0 2.1101965.37053641 2.741701 1.11351921.6315044.73916284.9482282 1.81448242.9482282 3.22213877v7.49667733h-3.6743845v-5.7108446c0-.46603552-.0174878-.92825104-.0563496-1.39046656-.0369187-.46030554-.1107562-.80028224-.21374-1.01993011-.1263009-.25975749-.3050652-.44502569-.5421223-.5577146-.235114-.11459889-.5518378-.16998835-.9462852-.16998835-.2972928 0-.5984719.05347948-.9054802.16425841-.3050653.11077892-.6315045.28267726-.9793177.52142494v8.16326087h-3.65689674v-11.51909834h3.65689674v1.27586763c.5984719-.49850517 1.179456-.88814139 1.7468385-1.17081865.5673825-.2788573 1.1930577-.41828595 1.8809118-.41828595zm8.7336198.31137725 2.3816128 7.61632566 2.3431997-7.61632566h3.7145478l-4.1582192 11.52095806h-3.9431057l-4.1274887-11.52095806zm56.3527694-.31137725c.5387124 0 1.0214296.08403919 1.4520134.25402754.4267221.17189833.7877945.42974583 1.0851484.77163252.3243859.36862643.5657446.80792217.7279375 1.31597725.162193.50996506.2452204 1.17463861.2452204 1.99402067v7.49667733h-3.6493423v-5.7528642c0-.56726453-.0115852-1.04666988-.0308939-1.43439613-.0231704-.38963622-.0830273-.70860313-.1892251-.95499074-.1004052-.24638761-.2625982-.42401589-.4788555-.5367048-.2181882-.11459889-.5194038-.16998835-.9113702-.16998835-.2761142 0-.5483667.05920942-.8186884.17953826-.2683908.11841885-.5580211.2884072-.8746836.50614509v8.16326087h-3.6512732v-5.7528642c0-.5596246-.0115852-1.03711998-.0386173-1.43057616-.0212396-.39154621-.0849583-.7124231-.1911561-.95881071-.102336-.24638761-.264529-.42401589-.4827172-.5367048-.2143264-.11459889-.5213346-.16998835-.9055775-.16998835-.2973538 0-.588915.06875933-.8708219.20436802-.2838377.13751867-.5618829.29795711-.8302736.48131533v8.16326087h-3.6358262v-11.51909834h3.6358262v1.27586763c.5927767-.49850517 1.1546596-.88814139 1.6798559-1.17081865.5271272-.2788573 1.1160423-.41828595 1.7744686-.41828595.7105597 0 1.3361613.16616839 1.8748737.50041515.5387124.33615674.9499875.83657189 1.237687 1.49742549.6931819-.64175378 1.3535391-1.134529 1.9675554-1.48023565.6198089-.34570665 1.2454105-.51760499 1.8787355-.51760499zm-41.3404218 2.30393795c-.7077034 0-1.2587839.20737344-1.6551752.62212032-.4002584.41664939-.618757.98169445-.6612966 1.6970377h4.3931752c-.0232034-.75719844-.2010961-1.33175604-.5375452-1.72557533-.3345156-.39572179-.8488574-.59358269-1.5391582-.59358269zm52.6779661 0c-.7077034 0-1.2587839.20737344-1.6551752.62212032-.4002584.41664939-.618757.98169445-.6612966 1.6970377h4.3931752c-.0232034-.75719844-.2010961-1.33175604-.5375452-1.72557533-.3364492-.39572179-.8488574-.59358269-1.5391582-.59358269zm-86.53061444-6.35184214v2.79043922h-3.76271186v-2.79043922z"/><path d="m15.005904 28.3353293c1.786661 0 3.1266567.4737247 4.0257881 1.421174.901065.9493518 1.3496638 2.3039379 1.3496638 4.0694659v1.2879984h-7.9606963c.0328715.5307999.1488884.9740844.34225 1.3336585.1933616.3576717.4485989.6411454.7676455.8523239.3113121.213081.6748319.3633791 1.0886257.4546996.4157274.0913204.8681935.1388831 1.3593319.1388831.4215283 0 .8372557-.0475627 1.2452486-.1388831.4079929-.0913205.7792472-.213081 1.1195636-.3652817.2997104-.1274681.5723502-.2701562.8256539-.4204544.2513701-.1502982.458267-.2815713.6168235-.3976243h.3847895v2.9564984c-.2977768.116053-.568483.2225935-.8140523.321524-.2455692.1008329-.5839519.2016659-1.0132146.3024988-.3944577.1027355-.800517.1826409-1.218178.2397161-.417661.0570753-.9281356.0875154-1.5314237.0875154-2.1965876 0-3.8827006-.5174823-5.0564054-1.552447-1.17177119-1.0368672-1.75765678-2.5132139-1.75765678-4.4271376 0-1.873971.54527966-3.3693428 1.63970618-4.4880179 1.092493-1.1167725 2.6219831-1.6761101 4.5865368-1.6761101zm24.5016138 0c1.8905205 0 3.3543345.5401839 4.3971823 1.6243424 1.0390209 1.0822632 1.5614016 2.5663473 1.5614016 4.4522524 0 1.8802189-.5204672 3.3605123-1.5575746 4.4427754-1.0371074 1.0822632-2.5047483 1.6243424-4.4010093 1.6243424-1.8828665 0-3.3466805-.5420792-4.3914418-1.6243424-1.0447614-1.0822631-1.5652285-2.5625565-1.5652285-4.4427754 0-1.8991728.5204671-3.3870477 1.5652285-4.4617293 1.0447613-1.076577 2.5085753-1.6148655 4.3914418-1.6148655zm18.0984197.3113773v5.7108446c0 .5959143.0155419 1.0791396.0466259 1.4573159.0310839.3743564.1049083.6933233.2234158.9530808.1107366.2387477.2836411.4201959.5148279.5424347.2331296.1222388.5575683.1852682.9733161.1852682.2564426 0 .5595111-.0630294.9111483-.1852682.3496944-.1222388.6741331-.2903172.9733161-.5023251v-8.1613509h3.6581921v11.5190984h-3.6581921v-1.2758677c-.6313927.521425-1.212274.9148812-1.7407011 1.1841885-.5284271.2712174-1.157877.4049161-1.8864071.4049161-1.1598198 0-2.0651397-.3590765-2.7140172-1.0810495-.6508201-.721973-.9752588-1.8068425-.9752588-3.2546085v-7.4966773zm30.5032753-.3113773c1.8905205 0 3.3562479.5401839 4.3952688 1.6243424 1.0428478 1.0822632 1.563315 2.5663473 1.563315 4.4522524 0 1.8802189-.5204672 3.3605123-1.5575746 4.4427754-1.0371074 1.0822632-2.5047483 1.6243424-4.4010092 1.6243424-1.8828666 0-3.3466806-.5420792-4.3914419-1.6243424-1.0447613-1.0822631-1.5652285-2.5625565-1.5652285-4.4427754 0-1.8991728.5204672-3.3870477 1.5652285-4.4617293 1.0447613-1.076577 2.5085753-1.6148655 4.3914419-1.6148655zm-63.6248442.3113773 2.3796921 7.6163256 2.3431997-7.6163256h3.7164684l-4.1582191 11.5209581h-3.9431058l-4.1274886-11.5209581zm46.9888-3.4251497v3.2777051h3.4675094v2.4900691h-3.4675094v4.0577496c0 .4004608.0038422.7496778.0096053 1.0495489.0076843.2998711.0614739.5693755.165211.8066153.0941318.2372398.265106.4251338.5090803.5636818.2420533.1423439.5993701.210669 1.064266.210669.1940269 0 .4437644-.0417542.7568968-.1214668.3112114-.0797126.530212-.1537314.6512386-.2201586h.3112114v2.5071503c-.3938169.1005897-.8087654.1803023-1.2486876.2372398-.4399222.0588355-.9797395.0873043-1.6194517.0873043-1.4696092 0-2.5415595-.2979732-3.2120086-.8958175-.6685282-.5978443-1.0047133-1.5752723-1.0047133-2.934182v-5.3483341h-1.3812405v-2.4900691h1.3812405v-3.2777051zm31.7625744 3.1137724c1.193057 0 2.108253.3705365 2.739758 1.1135192.631504.7410729.948228 1.8144825.948228 3.2221388v7.4966774h-3.674385v-5.7108447c0-.4641255-.017488-.928251-.056349-1.3904665-.036919-.4603055-.110756-.8002823-.21374-1.0199301-.124358-.2597575-.305066-.4450257-.54018-.5577146-.237057-.1126889-.55378-.1699884-.948228-.1699884-.297293 0-.600415.0553895-.90548.1642584-.305065.110779-.6315045.2845873-.9793178.523335v8.1613509h-3.6568967v-11.5190984h3.6568967v1.2758676c.5984718-.4985051 1.1813988-.8881414 1.7468388-1.1689086.565439-.2807673 1.193057-.420196 1.882855-.420196zm-52.1255735-4.3592814v15.8802395h-3.7627119v-15.8802395zm28.7602173 4.4226819v11.4575576h-3.5711625v-11.4575576zm-40.362869 2.499156c-.321465 0-.6104008.04928-.8706344.1478398-.2602336.0985599-.4994189.2843073-.7175559.5629285-.2047426.2653535-.3693021.6273714-.4917649 1.0860539-.1224629.4605778-.1836943 1.0405647-.1836943 1.7380653s.0574045 1.260429.1722134 1.6906807c.1167224.4302518.2678875.7733159.4534953 1.0310879.1894347.2634581.42862.456787.7156424.5780915.2870223.1231998.6046604.183852.9548276.183852.2851089 0 .5778717-.0606522.8744614-.183852.2965898-.1213045.5338616-.3032611.7137289-.5477654.2104831-.2899935.3712156-.6425345.4802841-1.0500417.110982-.4094025.1645595-.9780171.1645595-1.702053 0-.6766514-.055491-1.2414752-.1703-1.6906808-.1128954-.4511009-.2678875-.8112235-.4649762-1.0822631-.2123965-.2843073-.4515818-.4833224-.7175558-.5932546-.2678875-.1137229-.5702177-.168689-.9127311-.168689zm48.601695 0c-.3214651 0-.6104009.04928-.8706345.1478398-.2602336.0985599-.4994189.2843073-.7175559.5629285-.2047426.2653535-.369302.6273714-.4917649 1.0860539-.1224629.4605778-.1836943 1.0405647-.1836943 1.7380653s.0574045 1.260429.1741269 1.6906807c.1148089.4302518.265974.7733159.4496683 1.0310879.1913483.2634581.4305335.456787.7175559.5780915.2870223.1231998.6046604.183852.9529142.183852.2870223 0 .5797851-.0606522.8763749-.183852.2965897-.1213045.5338615-.3032611.7118154-.5477654.2123965-.2899935.373129-.6425345.4821975-1.0500417.110982-.4094025.1645595-.9780171.1645595-1.702053 0-.6766514-.055491-1.2414752-.1683865-1.6906808-.1128954-.4511009-.269801-.8112235-.4668896-1.0822631-.2123966-.2843073-.4515819-.4833224-.7175559-.5932546-.265974-.1137229-.5702177-.168689-.912731-.168689zm-73.3836831-.2586185c-.7057698 0-1.2587839.2092759-1.6551752.6221203-.3983248.4166494-.618757.9816945-.659363 1.6970377h4.3893079c-.0193361-.7552959-.1972288-1.331756-.5336779-1.7255753-.3364492-.3957218-.8488574-.5935827-1.5410918-.5935827zm65.2320974-6.6632194v2.790773h-3.7627118v-2.790773z"/><path d="m108.709083 15.9236593h-3.654534v-5.6895542c0-.46429805-.019336-.9247904-.058008-1.38528274-.036739-.45858949-.108283-.79729874-.214631-1.01612775-.119885-.25878909-.301644-.4433666-.535612-.5556354-.233967-.11417165-.55108-.16935462-.943604-.16935462-.295844 0-.597488.05328011-.899132.16364604-.307445.11036594-.632292.28162342-.974542.51948104v8.13282763h-3.6409988v-11.47615431h3.6409988v1.27111111c.591686-.49664671 1.173705-.88483034 1.736387-1.16645376.562682-.2778177 1.185306-.41672654 1.873674-.41672654 1.185306 0 2.096039.36915502 2.726398 1.10936793.626491.73640718.943604 1.80771789.943604 3.21012641z"/><path d="m115.87313 16.1462941c-1.479216 0-2.560107-.2987492-3.231072-.9000532-.676766-.5974984-1.013215-1.5793746-1.013215-2.9418231v-5.36035925h-1.39027v-2.49655356h1.39027v-3.28624085h3.640999v3.28624085h3.490176v2.49655356h-3.490176v4.06831665c0 .4015037.003867.7516301.011602 1.0503793.003867.3025549.059942.5708583.162423.8087159.098615.2378576.266839.4281437.514342.5670526.243636.1408117.603288.2093147 1.071223.2093147.193362 0 .446665-.0399601.759911-.1198803.317113-.0799201.535612-.1541317.659363-.2207319h.311312v2.5136794c-.396391.1008516-.815986.1807717-1.258784.2378576-.440864.0570858-.986144.0875316-1.628104.0875316"/></g></g></svg>