<svg height="82" viewBox="0 0 85 82" width="85" xmlns="http://www.w3.org/2000/svg" xmlns:xlink="http://www.w3.org/1999/xlink"><filter id="a" height="113.3%" width="104.3%" x="-2.1%" y="-5.8%"><feOffset dy="3" in="SourceAlpha" result="shadowOffsetOuter1"/><feGaussianBlur in="shadowOffsetOuter1" result="shadowBlurOuter1" stdDeviation="7.5"/><feColorMatrix in="shadowBlurOuter1" result="shadowMatrixOuter1" values="0 0 0 0 0 0 0 0 0 0 0 0 0 0 0 0 0 0 0.03 0"/><feMerge><feMergeNode in="shadowMatrixOuter1"/><feMergeNode in="SourceGraphic"/></feMerge></filter><g fill="none" fill-rule="evenodd" filter="url(#a)" stroke-linejoin="round" transform="translate(-9 -39)"><path d="m73.182 100.2c2.343 0 4.818-1.266 4.818-3.6v-10.8c0-3.964-7.075-6-10.84-6-.373 0-.779.02-1.205.06m7.227 25.14v-16.8zm-4.818-28.8c2.807 0 4.818-1.764 4.818-4.32v-2.16c0-2.556-2.01-4.32-4.818-4.32s-4.819 1.764-4.819 4.32v2.16c0 2.556 2.01 4.32 4.819 4.32zm-38.546 24c-2.343 0-4.818-1.266-4.818-3.6v-10.8c0-3.964 7.075-6 10.84-6 .373 0 .779.02 1.205.06m-7.227 25.14v-16.8zm4.818-28.8c-2.807 0-4.818-1.764-4.818-4.32v-2.16c0-2.556 2.01-4.32 4.818-4.32s4.819 1.764 4.819 4.32v2.16c0 2.556-2.01 4.32-4.819 4.32zm6.023-14.4c-2.808 0-4.818-1.764-4.818-4.32v-2.16c0-2.556 2.01-4.32 4.818-4.32s4.818 1.764 4.818 4.32v2.16c0 2.556-2.01 4.32-4.818 4.32zm21.682 0c-2.808 0-4.818-1.764-4.818-4.32v-2.16c0-2.556 2.01-4.32 4.818-4.32s4.818 1.764 4.818 4.32v2.16c0 2.556-2.01 4.32-4.818 4.32z" stroke="#323232"/><path d="m58.727 97.8c2.603 0 4.818-2.466 4.818-4.8v-10.8c0-3.964-7.86-6-12.045-6s-12.045 2.036-12.045 6v10.8c0 2.334 2.215 4.8 4.818 4.8m7.227-25.2c2.808 0 4.818-1.764 4.818-4.32v-2.16c0-2.556-2.01-4.32-4.818-4.32s-4.818 1.764-4.818 4.32v2.16c0 2.556 2.01 4.32 4.818 4.32zm7.227 32.4v-20.4zm-14.454-20.4v20.4z" stroke="#1476f2"/></g></svg>