<svg height="50" viewBox="0 0 55 50" width="55" xmlns="http://www.w3.org/2000/svg"><g fill="none" fill-rule="evenodd"><path d="m35.892 17h10.34v-4.571l8.031 9.142-8.031 8v-4.571h-5.745m-25.277 2.286h-5.743v-4.572l-8.043 9.143 8.043 8v-4.571h13.787m5.744 0h-3.447m12.639-10.286h-3.447m-13.788 2.286h-3.445m9.19 0h-3.447m-3.447-10.286h4.17c.952 0 1.723-.768 1.723-1.714 0-.947-.77-1.715-1.723-1.715h-1.149a1.72 1.72 0 0 1 -1.723-1.714 1.72 1.72 0 0 1 1.723-1.714h3.873m-3.447 6.857v3.429m0-10.286v-3.429" stroke="#1476f2"/><path d="m33.594 13.571c0-5.68-4.663-10.285-10.415-10.285s-10.414 4.604-10.414 10.285c0 5.682 4.662 10.286 10.414 10.286s10.415-4.604 10.415-10.286z" stroke="#1476f2"/><path d="m32.71 4.04a4.595 4.595 0 0 1 4.33-3.04c2.539 0 4.597 2.047 4.597 4.572 0 2.524-2.058 4.571-4.596 4.571-.398 0-.784-.05-1.151-.145m-3.445 24.145c0-2.525 2.058-4.572 4.596-4.572s4.595 2.047 4.595 4.572c0 2.524-2.057 4.571-4.595 4.571s-4.596-2.047-4.596-4.571zm-10.341 10.286c0-2.525 2.058-4.572 4.596-4.572s4.596 2.047 4.596 4.572c0 2.524-2.058 4.571-4.596 4.571s-4.596-2.047-4.596-4.571z" stroke="#323232"/></g></svg>