<svg width="49" height="56" viewBox="0 0 49 56" fill="none" xmlns="http://www.w3.org/2000/svg"><path fill-rule="evenodd" clip-rule="evenodd" d="M24.4978 1C22.2151 4.08004 6.98043 10.394 1 10.394V32.7046C1 43.1941 23.1791 54.6689 24.4849 55C25.7895 54.6689 47.9698 42.3921 47.9698 33.8789V10.394C41.4457 10.394 26.7817 4.08004 24.4978 1Z" stroke="#505050" stroke-width=".771"/><path fill-rule="evenodd" clip-rule="evenodd" d="M37.4012 38.5604H11.5678C10.9196 38.5604 10.3936 38.0343 10.3936 37.3861V20.9467C10.3936 20.2985 10.9196 19.7725 11.5678 19.7725H37.4012C38.0505 19.7725 38.5754 20.2985 38.5754 20.9467V37.3861C38.5754 38.0343 38.0505 38.5604 37.4012 38.5604Z" stroke="#3F7FE7" stroke-width=".771"/><path d="M20.9619 19.7724V16.2497C20.9619 15.6015 21.488 15.0754 22.1362 15.0754H26.8331C27.4825 15.0754 28.0074 15.6015 28.0074 16.2497V19.7724" stroke="#3F7FE7" stroke-width=".771"/><path d="M22.1367 29.1664V31.5149C22.1367 32.1631 22.6628 32.6891 23.311 32.6891H25.6595C26.3088 32.6891 26.8337 32.1631 26.8337 31.5149V29.1664" stroke="#3F7FE7" stroke-width=".771"/><path d="M38.5754 26.8179C38.5754 28.1142 32.2662 29.1664 24.4845 29.1664C16.7028 29.1664 10.3936 28.1142 10.3936 26.8179" stroke="#3F7FE7" stroke-width=".771"/></svg>