<svg height="56" viewBox="0 0 54 56" width="54" xmlns="http://www.w3.org/2000/svg"><g fill="none" fill-rule="evenodd"><path d="m7.043 55v-2.935c0-.972.79-1.76 1.761-1.76h8.805a2.347 2.347 0 0 0 2.348-2.348v-.587c0-.972.788-1.761 1.76-1.761h.587a2.347 2.347 0 0 0 2.348-2.348v-1.174a2.347 2.347 0 0 0 -2.348-2.348h-7.043c-.972 0-1.761.789-1.761 1.761s-.789 1.76-1.76 1.76h-8.219m24.653 11.74v-3.522a2.347 2.347 0 0 1 2.348-2.348h8.217a2.347 2.347 0 1 0 0-4.695h-1.174a2.347 2.347 0 1 1 0-4.696h10.565" stroke="#323232" stroke-linejoin="round"/><path d="m1.174 55c0-14.263 11.563-25.826 25.826-25.826s25.826 11.563 25.826 25.826z" stroke="#323232"/><path d="m30.522 8.043.03-1.173-4.727-5.87h-3.522l2.348 5.87v1.173zm14.087 4.697a2.347 2.347 0 0 0 -2.348-2.349h-26.342c-.128 0-4.18-3.521-4.18-3.521h-2.348l1.123 4.714c-.658.347-1.123.695-1.123 1.314 0 1.858 4.164 2.189 5.355 2.189h9.906v2.348l-3.522 7.043h3.522l5.87-5.87 2.267-3.521h9.472a2.347 2.347 0 0 0 2.348-2.348z" stroke="#1476f2"/><path d="m0 31.774a36.357 36.357 0 0 1 18.783-11.06m15.26-.251a36.348 36.348 0 0 1 19.73 11.061" stroke="#323232"/></g></svg>